<?xml version="1.0" encoding="UTF-8" standalone="no"?>
<!DOCTYPE svg PUBLIC "-//W3C//DTD SVG 1.1//EN" "http://www.w3.org/Graphics/SVG/1.1/DTD/svg11.dtd">
<svg width="113" height="101" viewBox="0 0 113 101" version="1.1" xmlns="http://www.w3.org/2000/svg" xmlns:xlink="http://www.w3.org/1999/xlink" xml:space="preserve" xmlns:serif="http://www.serif.com/" style="fill-rule:evenodd;clip-rule:evenodd;stroke-linejoin:round;stroke-miterlimit:2;">
    <path d="M10.311,88.052l0,-75.299c0,-1.628 0.95,-2.577 2.442,-2.577c1.764,-0 2.442,1.085 2.442,2.577l0,21.165l9.769,0l-0,-21.979c-0,-6.648 -3.935,-11.532 -12.211,-11.532c-8.683,0 -12.753,4.749 -12.753,11.532l0,77.334c0,7.191 3.392,11.125 10.99,11.125c3.12,0 6.512,-1.628 7.733,-4.612l1.764,3.256l4.477,-0l-0,-54.677l-12.346,0l-0,8.683l2.577,0l0,35.004c0,1.764 -0.949,2.578 -2.442,2.578c-1.763,-0 -2.442,-1.085 -2.442,-2.578Z" style="fill-rule:nonzero;"/>
    <path d="M53.727,88.866l-0,-77.334c-0,-6.648 -4.206,-11.532 -12.482,-11.532c-8.683,0 -12.482,4.749 -12.482,11.532l-0,77.334c-0,6.784 3.799,11.532 12.482,11.532c8.276,0 12.482,-4.884 12.482,-11.532Zm-14.924,-0.95l-0,-75.434c-0,-1.764 0.949,-2.714 2.442,-2.714c1.764,0 2.442,1.222 2.442,2.714l-0,75.434c-0,1.764 -0.95,2.714 -2.442,2.714c-1.764,-0 -2.442,-1.221 -2.442,-2.714Z" style="fill-rule:nonzero;"/>
    <path d="M83.032,88.866l0,-77.334c0,-6.648 -4.206,-11.532 -12.482,-11.532c-8.683,0 -12.482,4.749 -12.482,11.532l0,77.334c0,6.784 3.799,11.532 12.482,11.532c8.276,0 12.482,-4.884 12.482,-11.532Zm-14.924,-0.95l0,-75.434c0,-1.764 0.95,-2.714 2.442,-2.714c1.764,0 2.442,1.222 2.442,2.714l0,75.434c0,1.764 -0.949,2.714 -2.442,2.714c-1.764,-0 -2.442,-1.221 -2.442,-2.714Z" style="fill-rule:nonzero;"/>
    <path d="M87.374,1.357l-0,97.685l13.296,-0c8.14,-0 12.075,-4.478 12.075,-11.94l-0,-73.806c-0,-7.462 -4.342,-11.939 -11.804,-11.939l-13.567,-0Zm12.482,87.509l-2.171,0l-0,-77.741l2.035,0c1.628,0 2.849,1.221 2.849,2.849l0,71.636c0,2.171 -0.95,3.256 -2.713,3.256Z" style="fill-rule:nonzero;"/>
</svg>
