<?xml version="1.0" encoding="UTF-8" standalone="no"?>
<!DOCTYPE svg PUBLIC "-//W3C//DTD SVG 1.1//EN" "http://www.w3.org/Graphics/SVG/1.1/DTD/svg11.dtd">
<svg width="148" height="103" viewBox="0 0 148 103" version="1.1" xmlns="http://www.w3.org/2000/svg" xmlns:xlink="http://www.w3.org/1999/xlink" xml:space="preserve" xmlns:serif="http://www.serif.com/" style="fill-rule:evenodd;clip-rule:evenodd;stroke-linejoin:round;stroke-miterlimit:2;">
    <path d="M9.916,70.496l-0,-38.734c-0,-6.611 -0.052,-11.801 -0.155,-15.571c-0.103,-3.77 -0.465,-6.559 -1.085,-8.367c-0.619,-1.807 -1.601,-2.944 -2.943,-3.408c-1.343,-0.465 -3.254,-0.698 -5.733,-0.698l-0,-1.394l61.819,0l0,1.394c-2.479,0 -4.39,0.233 -5.732,0.698c-1.343,0.464 -2.324,1.601 -2.944,3.408c-0.62,1.808 -0.981,4.597 -1.085,8.367c-0.103,3.77 -0.155,8.96 -0.155,15.571l0,38.734c0,6.61 0.052,11.8 0.155,15.57c0.104,3.771 0.465,6.559 1.085,8.367c0.62,1.808 1.601,2.944 2.944,3.409c1.342,0.464 3.253,0.697 5.732,0.697l0,1.394l-61.819,0l-0,-1.394c2.479,-0 4.39,-0.233 5.733,-0.697c1.342,-0.465 2.324,-1.601 2.943,-3.409c0.62,-1.808 0.982,-4.596 1.085,-8.367c0.103,-3.77 0.155,-8.96 0.155,-15.57Z" style="fill-rule:nonzero;"/>
    <path d="M114.187,93.736c0,-3.822 -1.73,-7.566 -5.19,-11.233c-3.46,-3.667 -8.599,-7.256 -15.416,-10.768c-4.028,-2.066 -7.876,-4.338 -11.543,-6.817c-3.667,-2.479 -6.894,-5.268 -9.683,-8.367c-2.789,-3.098 -5.01,-6.559 -6.662,-10.38c-1.653,-3.822 -2.479,-8.109 -2.479,-12.86c-0,-9.709 3.021,-17.688 9.063,-23.937c6.043,-6.249 16.243,-9.374 30.6,-9.374c3.512,-0 6.817,0.413 9.916,1.239c3.099,0.827 6.016,1.705 8.754,2.634c2.737,0.93 5.293,1.808 7.669,2.634c2.376,0.827 4.545,1.24 6.507,1.24c1.653,-0 2.996,-0.413 4.029,-1.24c1.032,-0.826 1.91,-2.22 2.633,-4.183l1.24,0c-0.413,7.127 -0.62,14.28 -0.62,21.459c0,7.178 0.207,14.228 0.62,21.148l-1.549,0c-2.789,-5.061 -5.759,-10.174 -8.909,-15.338c-3.151,-5.165 -6.378,-9.813 -9.684,-13.945c-3.305,-4.131 -6.714,-7.488 -10.225,-10.07c-3.512,-2.583 -7.024,-3.874 -10.536,-3.874c-2.272,0 -4.054,0.62 -5.345,1.86c-1.291,1.239 -1.937,2.995 -1.937,5.267c0,2.892 1.188,5.914 3.564,9.064c2.375,3.15 6.765,6.378 13.169,9.683c4.958,2.583 9.58,5.242 13.867,7.98c4.286,2.737 8.031,5.732 11.233,8.986c3.202,3.254 5.706,6.998 7.514,11.233c1.807,4.235 2.711,9.089 2.711,14.564c0,11.671 -3.563,19.909 -10.69,24.712c-7.127,4.803 -16.785,7.204 -28.973,7.204c-4.855,0 -9.193,-0.439 -13.015,-1.317c-3.821,-0.878 -7.204,-1.807 -10.148,-2.789c-2.944,-0.981 -5.526,-1.91 -7.747,-2.788c-2.22,-0.878 -4.157,-1.317 -5.81,-1.317c-1.652,-0 -3.047,0.439 -4.183,1.317c-1.136,0.878 -1.808,2.401 -2.014,4.57l-1.55,0c0.724,-7.54 1.059,-15.132 1.008,-22.775c-0.052,-7.644 -0.284,-15.287 -0.698,-22.931l1.55,0c1.962,3.512 4.622,7.928 7.979,13.247c3.357,5.32 6.998,10.433 10.923,15.339c3.925,4.906 7.927,9.115 12.007,12.627c4.08,3.512 7.825,5.268 11.233,5.268c1.963,-0 3.589,-0.517 4.881,-1.549c1.291,-1.033 1.936,-2.841 1.936,-5.423Z" style="fill-rule:nonzero;"/>
</svg>
