<?xml version="1.0" encoding="UTF-8" standalone="no"?>
<!DOCTYPE svg PUBLIC "-//W3C//DTD SVG 1.1//EN" "http://www.w3.org/Graphics/SVG/1.1/DTD/svg11.dtd">
<svg width="260px" height="201px" viewBox="0 0 260 201" version="1.1" xmlns="http://www.w3.org/2000/svg" xmlns:xlink="http://www.w3.org/1999/xlink" xml:space="preserve" xmlns:serif="http://www.serif.com/" style="fill-rule:evenodd;clip-rule:evenodd;stroke-linejoin:round;stroke-miterlimit:2;">
    <path d="M252.273,195.853c2.989,-10.184 6.961,-77.53 -3.457,-106.012c-45.129,-123.377 -246.203,-97.376 -244.64,-23.204c0.374,17.763 34.679,50.282 74.577,47.789c61.656,-3.853 103.606,-38.215 145.375,1.952c30.435,29.268 32.315,68.59 28.145,79.475Z" style="fill:#fff;"/>
    <path d="M258.07,184.881c-0.104,5.43 -0.865,9.745 -1.906,12.463c-0.799,2.088 -3.105,3.172 -5.224,2.457c-2.118,-0.716 -3.294,-2.976 -2.665,-5.121c0.492,-1.675 1.011,-4.935 1.485,-9.331c0.096,-3.735 -0.181,-8.191 -0.944,-13.104c-2.453,-15.781 -10.096,-36.054 -27.576,-52.863c-19.721,-18.966 -39.52,-20.208 -61.631,-16.382c-23.546,4.074 -49.597,13.647 -80.596,15.584c-25.181,1.574 -48.262,-10.062 -62.769,-23.698c-10.2,-9.588 -16.068,-20.278 -16.234,-28.161c-0.273,-12.977 5.043,-24.64 14.508,-34.467c13.487,-14.002 35.607,-24.276 61.327,-29.122c63.647,-11.994 149.044,9.164 176.884,85.274c8.582,23.462 7.633,72.663 5.341,96.471Zm-6.579,-34.605c0.095,-21.295 -1.459,-44.979 -6.588,-59.003c-26.316,-71.943 -107.353,-91.285 -167.515,-79.948c-19.913,3.752 -37.564,10.868 -50.138,20.684c-11.903,9.291 -19.194,20.989 -18.908,34.54c0.133,6.329 5.421,14.568 13.61,22.265c13.075,12.291 33.845,22.871 56.541,21.453c30.658,-1.916 56.409,-11.45 79.695,-15.478c24.72,-4.277 46.781,-2.616 68.829,18.586c11.983,11.524 19.719,24.545 24.474,36.901Z" style="fill:#262626;"/>
    <path d="M9.314,67.213l-6.249,0.132c-0.281,-13.396 7.031,-24.981 19.322,-33.996c12.204,-8.977 29.253,-15.871 48.686,-18.616c19.399,-2.737 41.688,-1.717 63.743,1.442c27.86,3.95 54.56,13.202 76.069,29.751c14.82,11.401 27.257,26.213 35.731,45.882c1.869,4.311 3.395,9.534 4.73,15.329c3.471,15.079 4.917,33.779 5.049,50.359l-6.25,0.049c-0.128,-16.133 -1.512,-34.332 -4.889,-49.005c-1.241,-5.385 -2.639,-10.244 -4.378,-14.253l-0.001,-0.003c-8.016,-18.608 -19.784,-32.619 -33.803,-43.404c-20.671,-15.905 -46.361,-24.721 -73.138,-28.518l-0.002,0c-21.45,-3.072 -43.124,-4.102 -61.987,-1.441c-18.295,2.585 -34.369,9.013 -45.86,17.465l-0.002,0.002c-10.483,7.688 -17.011,17.401 -16.771,28.825Z" style="fill:#262626;"/>
    <path d="M9.336,67.191l-6.249,0.131c-0.248,-11.852 6.527,-22.024 18.002,-29.806c11.276,-7.702 27.006,-13.945 45.037,-15.56c18.742,-1.681 40.884,0.81 63.01,3.496c28.179,3.356 54.711,10.869 76.524,25.15c15.351,10.048 28.457,23.343 37.989,42.249c2.098,4.162 3.87,9.204 5.532,14.818c4.429,14.98 6.663,33.356 7.234,49.72l-6.246,0.218c-0.553,-15.852 -2.691,-33.655 -6.982,-48.165c-1.544,-5.217 -3.169,-9.91 -5.119,-13.778c-8.989,-17.828 -21.355,-30.357 -35.831,-39.833c-21.041,-13.775 -46.663,-20.937 -73.848,-24.174l-0.003,-0c-21.668,-2.63 -43.348,-5.122 -61.702,-3.476c-16.841,1.508 -31.543,7.305 -42.078,14.502l-0.005,0.003c-9.515,6.451 -15.471,14.679 -15.265,24.505Z" style="fill:#262626;"/>
    <path d="M9.358,67.167l-6.249,0.132c-0.218,-10.307 6.047,-19.056 16.707,-25.632c10.366,-6.387 24.799,-11.931 41.38,-12.481c18.148,-0.605 40.074,3.329 62.256,5.547c28.488,2.757 54.894,8.517 76.959,20.55c15.916,8.68 29.698,20.46 40.26,38.612c2.335,4.01 4.354,8.877 6.332,14.302c5.42,14.887 8.415,32.932 9.43,49.082l-6.238,0.392c-0.978,-15.574 -3.838,-32.979 -9.064,-47.335c-1.838,-5.039 -3.692,-9.571 -5.862,-13.296c-9.925,-17.059 -22.893,-28.113 -37.85,-36.27c-21.374,-11.656 -46.979,-17.147 -74.58,-19.817l-0.005,-0c-21.89,-2.189 -43.522,-6.118 -61.43,-5.52c-15.351,0.508 -28.712,5.641 -38.308,11.554c-8.505,5.247 -13.912,11.955 -13.738,20.18Z" style="fill:#262626;"/>
    <path d="M9.379,67.145l-6.248,0.131c-0.185,-8.77 5.551,-16.129 15.453,-21.468c9.433,-5.087 22.618,-9.811 37.7,-9.381c17.615,0.505 39.253,5.835 61.487,7.586c28.792,2.162 55.103,6.135 77.375,15.968c16.514,7.288 30.951,17.565 42.54,34.962c2.57,3.861 4.85,8.551 7.13,13.794c6.434,14.784 10.172,32.497 11.632,48.43l-6.224,0.57c-1.402,-15.298 -4.961,-32.312 -11.14,-46.507c-2.117,-4.87 -4.214,-9.237 -6.601,-12.823c-10.852,-16.291 -24.396,-25.884 -39.861,-32.708c-21.677,-9.57 -47.302,-13.35 -75.331,-15.454l-0.006,-0.001c-22.124,-1.742 -43.652,-7.067 -61.18,-7.569c-13.827,-0.395 -25.906,3.97 -34.555,8.634c-7.476,4.031 -12.31,9.214 -12.171,15.836Z" style="fill:#262626;"/>
    <path d="M9.402,67.122l-6.249,0.131c-0.152,-7.23 5.056,-13.237 14.254,-17.323c8.492,-3.768 20.447,-7.565 33.982,-6.251c17.141,1.663 38.423,8.331 60.705,9.618c29.081,1.567 55.332,3.721 77.771,11.399c17.131,5.86 32.215,14.658 44.823,31.303c2.807,3.709 5.355,8.221 7.93,13.277c7.48,14.682 11.938,32.066 13.842,47.777l-6.205,0.752c-1.82,-15.022 -6.053,-31.654 -13.206,-45.692c-2.392,-4.696 -4.737,-8.897 -7.344,-12.342c-11.765,-15.532 -25.876,-23.693 -41.863,-29.161c-21.951,-7.511 -47.643,-9.54 -76.097,-11.072l-0.006,-0.001c-22.372,-1.291 -43.744,-7.968 -60.954,-9.637c-12.289,-1.193 -23.132,2.322 -30.842,5.743c-6.39,2.838 -10.647,6.456 -10.541,11.479Z" style="fill:#262626;"/>
    <path d="M9.423,67.1l-6.248,0.13c-0.118,-5.67 4.554,-10.403 13.149,-13.185c7.53,-2.438 18.254,-5.172 30.193,-3.093c16.705,2.906 37.583,10.801 59.898,11.628c29.37,0.981 55.579,1.265 78.161,6.85c17.766,4.395 33.477,11.738 47.104,27.631c3.048,3.554 5.866,7.886 8.731,12.768c8.548,14.558 13.708,31.618 16.058,47.109l-6.179,0.937c-2.239,-14.756 -7.127,-31.015 -15.269,-44.882c-2.659,-4.531 -5.256,-8.565 -8.086,-11.863c-12.676,-14.785 -27.333,-21.545 -43.86,-25.633c-22.208,-5.492 -47.99,-5.706 -76.881,-6.67l-0.006,-0.001c-22.624,-0.837 -43.806,-8.77 -60.742,-11.717c-10.759,-1.873 -20.412,0.686 -27.197,2.882c-2.967,0.961 -5.373,2.114 -7.003,3.564c-1.144,1.02 -1.851,2.17 -1.823,3.545Z" style="fill:#262626;"/>
    <path d="M9.446,67.075l-6.249,0.134c-0.046,-2.142 0.854,-4.032 2.779,-5.576c1.905,-1.527 5.119,-2.746 9.398,-3.466c6.537,-1.096 15.993,-2.621 26.296,0.082c16.278,4.27 36.728,13.241 59.064,13.618c29.657,0.391 55.829,-1.231 78.541,2.319c18.41,2.882 34.75,8.81 49.398,23.948c3.282,3.398 6.379,7.547 9.524,12.252c9.641,14.424 15.478,31.169 18.278,46.434l-6.147,1.127c-2.658,-14.49 -8.175,-30.396 -17.327,-44.088c-2.918,-4.366 -5.776,-8.228 -8.823,-11.382c-13.587,-14.041 -28.791,-19.443 -45.869,-22.116c-22.457,-3.51 -48.339,-1.857 -77.669,-2.244l-0.006,-0c-22.887,-0.386 -43.871,-9.447 -60.55,-13.822c-9.276,-2.434 -17.789,-0.952 -23.674,0.036c-2.544,0.428 -4.598,0.992 -5.993,1.817c-0.497,0.293 -0.981,0.478 -0.971,0.927Z" style="fill:#262626;"/>
    <path d="M9.467,67.052l-6.248,0.135l0.126,-1.095l0.423,-1.021l0.747,-0.933l1.213,-0.834c1.464,-0.729 4.559,-1.135 8.91,-0.946c5.487,0.238 13.586,0.046 22.213,3.223c15.808,5.813 35.858,15.649 58.206,15.572c29.945,-0.192 56.071,-3.763 78.92,-2.184c19.047,1.318 36.021,5.864 51.674,20.245c3.527,3.241 6.906,7.204 10.327,11.744c10.755,14.259 17.249,30.708 20.5,45.742l-6.109,1.321c-3.077,-14.228 -9.203,-29.806 -19.382,-43.301c-3.172,-4.211 -6.293,-7.898 -9.564,-10.903c-14.489,-13.311 -30.248,-17.393 -47.878,-18.613c-22.713,-1.569 -48.684,2.008 -78.457,2.199l-0.005,-0c-23.167,0.081 -44.003,-9.931 -60.391,-15.957c-7.887,-2.904 -15.307,-2.626 -20.325,-2.843c-2.846,-0.124 -5.854,0.296 -5.854,0.296c0,-0 0.969,-1.161 0.954,-1.847Z" style="fill:#262626;"/>
    <path d="M3.241,67.157l6.249,-0.122c-0.009,-0.415 -0.094,-0.888 -0.359,-1.389c-0.085,-0.161 -1.091,-1.161 -1.091,-1.161c0,0 2.877,1.162 6.089,2.269c4.393,1.514 10.998,2.732 17.937,6.206c15.188,7.598 34.977,18.002 57.319,17.482c30.226,-0.775 56.297,-6.33 79.3,-6.667c19.663,-0.288 37.285,2.906 53.942,16.531c3.771,3.083 7.431,6.853 11.129,11.231c11.881,14.075 19.022,30.246 22.721,45.043l-6.063,1.516c-3.492,-13.968 -10.218,-29.241 -21.433,-42.527c-3.429,-4.06 -6.814,-7.566 -10.311,-10.424c-15.392,-12.592 -31.723,-15.387 -49.894,-15.121c-22.984,0.337 -49.034,5.892 -79.239,6.667l-0.004,-0c-23.464,0.546 -44.314,-10.162 -60.265,-18.142c-6.637,-3.324 -12.974,-4.437 -17.175,-5.886c-4.245,-1.462 -6.872,-2.558 -7.363,-2.879l-0.618,-0.512l-0.506,-0.705l-0.274,-0.719l-0.091,-0.691Z" style="fill:#262626;"/>
    <path d="M3.263,67.14l6.248,-0.133c0.008,0.363 0.372,0.71 0.753,1.196c0.791,1.01 1.957,2.118 3.426,3.31c3.296,2.67 8.286,5.269 13.63,8.894c14.258,9.685 34.079,20.282 56.39,19.323c30.517,-1.349 56.509,-8.92 79.694,-11.128c20.255,-1.928 38.558,-0.086 56.197,12.809c4.014,2.918 7.962,6.495 11.925,10.717c13.026,13.865 20.796,29.772 24.947,44.33l-6.011,1.714c-3.91,-13.714 -11.221,-28.704 -23.492,-41.766c-3.673,-3.913 -7.326,-7.238 -11.051,-9.945l-0.003,-0.002c-16.283,-11.906 -33.222,-13.415 -51.92,-11.635c-23.276,2.217 -49.374,9.796 -80.014,11.15l-0.002,0.001c-23.781,1.022 -44.974,-10.075 -60.17,-20.396c-5.517,-3.743 -10.652,-6.453 -14.057,-9.212c-2.323,-1.885 -4.024,-3.656 -5.042,-5.181c-0.996,-1.492 -1.423,-2.879 -1.448,-4.046Z" style="fill:#262626;"/>
</svg>
