<?xml version="1.0" encoding="UTF-8" standalone="no"?>
<!DOCTYPE svg PUBLIC "-//W3C//DTD SVG 1.1//EN" "http://www.w3.org/Graphics/SVG/1.1/DTD/svg11.dtd">
<svg width="221px" height="263px" viewBox="0 0 221 263" version="1.1" xmlns="http://www.w3.org/2000/svg" xmlns:xlink="http://www.w3.org/1999/xlink" xml:space="preserve" xmlns:serif="http://www.serif.com/" style="fill-rule:evenodd;clip-rule:evenodd;stroke-linejoin:round;stroke-miterlimit:2;">
    <path d="M214.786,258.613c-23.452,-81.524 -75.747,-103.776 -85.098,-106.591c-78.159,-23.532 -139.404,-35.177 -122.776,-92.575c17.136,-59.149 179.631,-98.576 204.557,31.14c10.259,53.385 0.268,84.486 3.818,145.226c0.087,1.48 -0.124,5.653 -0.501,22.8Z" style="fill:#fff;"/>
    <path d="M210.782,259.765c-22.77,-79.154 -73.216,-101.02 -82.295,-103.754c-39.432,-11.871 -74.576,-20.806 -97.786,-33.951c-12.334,-6.986 -21.4,-15.202 -26.36,-25.424c-5.015,-10.335 -5.939,-22.788 -1.431,-38.348c7.179,-24.782 38.397,-46.704 75.332,-54.859c32.896,-7.263 70.09,-3.705 97.952,17.616c18.615,14.245 33.152,36.414 39.367,68.756c10.297,53.585 0.322,84.801 3.886,145.769c0.087,1.501 -0.113,5.736 -0.495,23.134c-0.045,2.059 -1.587,3.776 -3.629,4.041c-2.042,0.265 -3.972,-1.002 -4.541,-2.98Zm0.281,-24.843c-3.348,-59.768 6.471,-90.697 -3.685,-143.549c-5.75,-29.922 -19.026,-50.531 -36.249,-63.71c-25.895,-19.817 -60.515,-22.848 -91.091,-16.097c-20.43,4.511 -39.09,13.402 -52.163,24.761c-8.361,7.265 -14.421,15.513 -16.961,24.28c-3.807,13.139 -3.31,23.664 0.924,32.391c4.29,8.841 12.302,15.769 22.97,21.811c22.796,12.91 57.354,21.563 96.081,33.223c8.698,2.619 53.767,21.363 80.174,86.89Z" style="fill:#262626;"/>
    <path d="M216.019,251.758l-6.039,1.609c-10.938,-41.061 -33.171,-90.663 -91.619,-107.891c-38.006,-11.204 -71.913,-20.969 -92.468,-35.682c-14.516,-10.39 -22.601,-23.219 -21.588,-40.406l6.239,0.367c-0.879,14.924 6.382,25.934 18.987,34.957c20.124,14.405 53.386,23.8 90.597,34.769c60.97,17.971 84.481,69.444 95.891,112.277Z" style="fill:#262626;"/>
    <path d="M4.301,69.493l6.248,0.155c-0.294,11.868 8.096,20.407 21.467,27.916c21.753,12.217 56.465,21.281 92.927,33.879c59.972,20.724 79.842,77.42 91.08,120.327l-6.046,1.584c-10.801,-41.24 -29.434,-96.085 -87.076,-116.003c-36.872,-12.741 -71.948,-21.983 -93.946,-34.338c-15.798,-8.873 -25.001,-19.497 -24.654,-33.52Z" style="fill:#262626;"/>
    <path d="M4.302,69.667l6.247,-0.193c0.126,4.091 2.382,7.574 6.102,10.8c4.269,3.702 10.385,6.996 17.839,10.186c23.395,10.012 59.572,18.733 95.259,32.951c58.983,23.499 75.211,85.392 86.278,128.372l-6.053,1.558c-10.665,-41.421 -25.695,-101.477 -82.538,-124.123c-41.824,-16.664 -84.302,-25.858 -106.295,-38.314c-10.574,-5.988 -16.583,-12.933 -16.839,-21.237Z" style="fill:#262626;"/>
    <path d="M4.33,69.999l6.191,-0.856c0.249,1.8 1.692,3.284 3.803,4.801c2.781,1.997 6.687,3.835 11.47,5.661c23.765,9.075 68.133,17.356 108.763,35.779c29.256,13.267 47.018,36.82 58.786,62.536c11.552,25.245 17.294,52.557 22.687,73.875l-6.059,1.533c-5.314,-21.007 -10.928,-47.932 -22.312,-72.807c-11.167,-24.405 -27.919,-46.855 -55.683,-59.445c-40.496,-18.362 -84.725,-26.588 -108.411,-35.632c-6.536,-2.496 -11.585,-5.104 -14.763,-7.913c-2.628,-2.323 -4.102,-4.853 -4.472,-7.532Z" style="fill:#262626;"/>
    <path d="M4.555,70.806l5.741,-2.471c-0.013,-0.029 -0.046,-0.088 -0.046,-0.088c0,-0 0.399,0.363 0.694,0.55c0.502,0.319 1.118,0.626 1.837,0.933c3.236,1.385 8.249,2.674 14.577,4.091c25.712,5.757 72.276,13.248 112.003,33.547c28.789,14.708 45.41,40.281 56.111,67.684c10.484,26.847 15.26,55.421 20.561,76.756l-6.065,1.507c-5.248,-21.119 -9.94,-49.414 -20.318,-75.99c-10.161,-26.021 -25.796,-50.426 -53.133,-64.391c-44.882,-22.934 -98.625,-29.224 -120.3,-35.44c-3.587,-1.029 -6.367,-2.084 -8.21,-3.168c-1.846,-1.085 -2.94,-2.33 -3.452,-3.52Z" style="fill:#262626;"/>
    <path d="M6.733,72.618l1.385,-6.095c5.483,1.247 80.88,1.331 136.044,32.83c28.309,16.165 43.786,43.755 53.42,72.834c9.424,28.448 13.241,58.277 18.454,79.634l-6.071,1.482c-5.182,-21.225 -8.95,-50.878 -18.316,-79.15c-9.158,-27.641 -23.677,-54.007 -50.586,-69.373c-54.446,-31.088 -128.919,-30.932 -134.33,-32.162Z" style="fill:#262626;"/>
    <path d="M9.557,71.856l-4.263,-4.57c0.861,-0.804 2.474,-1.678 4.844,-2.367c4.207,-1.222 11.329,-2.168 20.423,-2.461c29.607,-0.954 80.549,4.899 118.395,28.887c27.821,17.633 42.152,47.236 50.72,77.979c8.374,30.044 11.238,61.125 16.363,82.509l-6.078,1.457c-5.111,-21.326 -7.955,-52.325 -16.305,-82.288c-8.156,-29.264 -21.564,-57.594 -48.046,-74.378c-36.704,-23.265 -86.134,-28.844 -114.848,-27.919c-7.251,0.233 -13.159,0.879 -17.164,1.779c-2,0.449 -3.431,0.803 -4.041,1.372Z" style="fill:#262626;"/>
    <path d="M10.107,71.175l-5.363,-3.209c1.27,-2.123 3.796,-4.206 7.528,-5.946c4.746,-2.212 11.611,-4.024 19.951,-5.17c31.543,-4.337 84.646,0.693 121.525,26.489c27.318,19.111 40.502,50.723 48.007,83.121c7.329,31.64 9.248,63.969 14.287,85.386l-6.084,1.432c-5.04,-21.423 -6.961,-53.759 -14.292,-85.407c-7.155,-30.891 -19.453,-61.189 -45.5,-79.411c-35.527,-24.85 -86.705,-29.596 -117.092,-25.418c-7.585,1.042 -13.845,2.63 -18.161,4.643c-2.311,1.077 -4.02,2.176 -4.806,3.49Z" style="fill:#262626;"/>
    <path d="M10.266,70.873l-5.681,-2.605c1.422,-3.102 4.111,-6.026 7.948,-8.595c5.175,-3.463 12.537,-6.357 21.397,-8.404c33.468,-7.732 88.706,-3.512 124.604,24.074c26.803,20.595 38.837,54.214 45.282,88.257c6.293,33.235 7.274,66.807 12.229,88.259l-6.089,1.406c-4.969,-21.511 -5.97,-55.175 -12.28,-88.502c-6.158,-32.52 -17.347,-64.791 -42.95,-84.464c-34.389,-26.426 -87.328,-30.347 -119.389,-22.94c-7.992,1.846 -14.66,4.384 -19.327,7.508c-2.724,1.823 -4.734,3.804 -5.744,6.006Z" style="fill:#262626;"/>
    <path d="M10.335,70.71l-5.82,-2.278c3.77,-9.633 15.244,-17.715 31.16,-22.724c35.382,-11.136 92.728,-7.716 127.64,21.636c26.274,22.092 37.157,57.713 42.548,93.392c5.263,34.829 5.314,69.642 10.185,91.135l-6.095,1.381c-4.895,-21.599 -4.981,-56.58 -10.27,-91.582c-5.16,-34.151 -15.242,-68.397 -40.39,-89.542c-28.544,-23.999 -72.847,-29.653 -106.169,-24.12c-13.151,2.183 -24.589,6.104 -32.596,11.416c-4.93,3.27 -8.527,7.031 -10.193,11.286Z" style="fill:#262626;"/>
    <path d="M10.373,70.608l-5.895,-2.075c5.581,-15.854 25.199,-28.014 50.202,-33.547c36.544,-8.087 84.337,-2.291 113.406,24.364c25.733,23.594 35.465,61.213 39.808,98.522c4.239,36.423 3.369,72.474 8.157,94.012l-6.101,1.356c-4.82,-21.684 -3.996,-57.975 -8.265,-94.645c-4.165,-35.784 -13.142,-72.009 -37.823,-94.638c-27.625,-25.331 -73.103,-30.554 -107.832,-22.869c-22.513,4.983 -40.631,15.244 -45.657,29.52Z" style="fill:#262626;"/>
    <path d="M10.396,70.539l-5.942,-1.937c6.203,-19.021 26.9,-33.414 52.814,-40.463c38.157,-10.38 87.353,-4.929 115.589,23.221c25.175,25.1 33.753,64.714 37.051,103.647c3.221,38.017 1.438,75.305 6.146,96.889l-6.107,1.332c-4.747,-21.764 -3.019,-59.359 -6.266,-97.693c-3.17,-37.419 -11.041,-75.625 -35.237,-99.749c-26.739,-26.657 -73.401,-31.446 -109.536,-21.616c-23.615,6.424 -42.859,19.035 -48.512,36.369Z" style="fill:#262626;"/>
    <path d="M10.412,70.49l-5.973,-1.839c6.822,-22.165 28.598,-38.8 55.427,-47.353c39.762,-12.676 90.348,-7.565 117.749,22.071c24.606,26.61 32.031,68.216 34.293,108.769c2.209,39.612 -0.478,78.136 4.148,99.77l-6.112,1.307c-4.67,-21.842 -2.046,-60.735 -4.276,-100.729c-2.179,-39.055 -8.945,-79.246 -32.642,-104.874c-25.87,-27.981 -73.721,-32.327 -111.261,-20.359c-24.706,7.876 -45.071,22.826 -51.353,43.237Z" style="fill:#262626;"/>
    <path d="M10.423,70.452l-5.996,-1.763c9.275,-31.531 42.581,-53.092 79.304,-60.027c36.644,-6.921 76.458,0.747 98.64,26.714c24.023,28.124 30.295,71.721 31.525,113.89c1.201,41.21 -2.383,80.971 2.163,102.655l-6.117,1.282c-4.595,-21.916 -1.079,-62.102 -2.294,-103.754c-1.186,-40.694 -6.847,-82.874 -30.03,-110.014c-20.825,-24.379 -58.324,-31.129 -92.727,-24.632c-34.324,6.483 -65.799,26.178 -74.468,55.649Z" style="fill:#262626;"/>
</svg>
