<?xml version="1.0" encoding="UTF-8" standalone="no"?>
<!DOCTYPE svg PUBLIC "-//W3C//DTD SVG 1.1//EN" "http://www.w3.org/Graphics/SVG/1.1/DTD/svg11.dtd">
<svg width="287px" height="282px" viewBox="0 0 287 282" version="1.1" xmlns="http://www.w3.org/2000/svg" xmlns:xlink="http://www.w3.org/1999/xlink" xml:space="preserve" xmlns:serif="http://www.serif.com/" style="fill-rule:evenodd;clip-rule:evenodd;stroke-linejoin:round;stroke-miterlimit:2;">
    <path d="M282.241,277.061c0.357,-110.961 1.279,-128.415 -44.642,-192.173c-45.407,-63.046 -177.244,-119.382 -226.625,-46.067c-18.511,27.482 -3.21,95.891 95.082,96.743c111.348,0.965 180.693,32.405 176.185,141.497Z" style="fill:#fff;"/>
    <path d="M286.464,259.071c0.218,5.807 0.201,11.859 -0.06,18.162c-0.093,2.269 -1.986,4.045 -4.255,3.994c-2.27,-0.051 -4.082,-1.909 -4.074,-4.179c0.02,-6.223 0.042,-12.147 0.058,-17.8c-1.267,-33.22 -10.588,-57.983 -26.979,-76.044c-29.052,-32.011 -79.756,-42.907 -145.134,-43.474c-71.884,-0.622 -100.836,-36.532 -105.371,-67.449c-2.028,-13.823 0.817,-26.802 6.869,-35.788c20.663,-30.678 55.028,-39.914 91.986,-35.422c54.103,6.576 113.662,42.763 141.476,81.381c43.914,60.973 45.722,80.099 45.484,176.619Zm-8.67,-47.34c-1.553,-55.253 -9.232,-76.724 -43.576,-124.408c-26.675,-37.036 -83.833,-71.673 -135.719,-77.98c-33.701,-4.096 -65.227,3.831 -84.069,31.805c-5.054,7.504 -7.23,18.381 -5.536,29.923c4.147,28.27 31.469,59.757 97.198,60.326c68.239,0.592 120.91,12.795 151.233,46.207c8.67,9.554 15.557,20.847 20.469,34.127Z" style="fill:#262626;"/>
    <path d="M282.484,218.949l-6.022,1.671c-4.444,-16.015 -11.349,-29.235 -20.473,-40.263c-16.18,-19.558 -39.435,-32.331 -69.35,-41.151c-21.941,-6.468 -47.708,-10.153 -76.262,-11.498c-29.987,-1.41 -52.88,-8.199 -69.552,-17.706c-20.597,-11.746 -31.619,-28.003 -35.18,-42.531c-2.806,-11.443 -1.015,-22.038 3.596,-28.879l5.182,3.493c-3.81,5.654 -5.027,14.441 -2.708,23.898c3.243,13.23 13.45,27.893 32.206,38.59c15.995,9.12 37.981,15.539 66.749,16.892c29.108,1.371 55.37,5.153 77.736,11.746c31.269,9.219 55.487,22.719 72.399,43.162c9.651,11.665 16.979,25.636 21.679,42.576Z" style="fill:#262626;"/>
    <path d="M282.477,219.055l-6.065,1.508c-4.078,-16.403 -10.483,-29.842 -18.989,-41.158c-15.229,-20.247 -37.262,-33.888 -66.675,-44.722c-21.192,-7.804 -46.754,-12.896 -75.116,-15.349c-29.27,-2.532 -52.408,-9.317 -69.707,-18.296c-20.801,-10.792 -32.924,-25.33 -37.598,-37.708c-3.817,-10.109 -2.727,-19.356 0.881,-24.711l5.183,3.493c-2.774,4.117 -3.151,11.237 -0.217,19.01c4.283,11.341 15.571,24.48 34.63,34.369c16.714,8.675 39.086,15.17 67.367,17.616c28.976,2.507 55.085,7.738 76.737,15.711c30.706,11.311 53.612,25.694 69.51,46.831c8.973,11.937 15.757,26.103 20.059,43.406Z" style="fill:#262626;"/>
    <path d="M282.467,219.159l-6.103,1.349c-3.714,-16.796 -9.613,-30.463 -17.509,-42.061c-14.262,-20.951 -35.074,-35.413 -63.996,-48.303c-20.443,-9.114 -45.797,-15.618 -73.975,-19.192c-28.558,-3.624 -51.928,-10.443 -69.858,-18.877c-20.932,-9.843 -34.133,-22.533 -39.924,-32.812c-4.944,-8.77 -4.502,-16.794 -1.919,-20.623l5.182,3.495c-0.593,0.878 -0.862,2.156 -0.886,3.671c-0.046,2.905 0.895,6.534 3.068,10.389c5.365,9.524 17.743,21.104 37.139,30.224c17.447,8.207 40.196,14.806 67.984,18.333c28.852,3.659 54.802,10.352 75.734,19.683c30.153,13.439 51.749,28.652 66.617,50.495c8.306,12.199 14.539,26.562 18.446,44.229Z" style="fill:#262626;"/>
    <path d="M282.454,219.26l-6.135,1.196c-3.351,-17.187 -8.738,-31.093 -16.022,-42.972c-13.292,-21.669 -32.894,-36.904 -61.32,-51.891c-19.7,-10.387 -44.844,-18.314 -72.843,-23.029c-27.85,-4.687 -51.433,-11.578 -70.008,-19.457c-20.988,-8.904 -35.164,-19.617 -42.12,-27.864c-4.001,-4.742 -5.604,-9.246 -5.813,-12.175c-0.141,-1.962 0.322,-3.456 0.957,-4.399l5.184,3.49c0.041,-0.06 0.115,-0.217 0.115,-0.217c-0,0 -0.031,0.86 0.085,1.451c0.411,2.085 1.75,4.857 4.25,7.821c6.556,7.773 20,17.747 39.783,26.139c18.201,7.721 41.315,14.455 68.604,19.048c28.726,4.837 54.51,13.007 74.721,23.663c29.595,15.603 49.895,31.593 63.733,54.153c7.637,12.455 13.315,27.023 16.829,45.043Z" style="fill:#262626;"/>
    <path d="M282.438,219.359l-6.162,1.046c-2.982,-17.583 -7.855,-31.731 -14.536,-43.888c-12.309,-22.393 -30.716,-38.358 -58.636,-55.486c-18.968,-11.635 -43.894,-20.989 -71.718,-26.856c-27.145,-5.723 -50.933,-12.732 -70.159,-20.042c-20.969,-7.977 -35.953,-16.669 -44.158,-22.917c-5.866,-4.47 -8.045,-8.754 -8.331,-9.721l-0.149,-0.82l0.047,-0.788l0.496,-1.208l5.168,3.514c0.202,-0.297 0.392,-0.678 0.483,-1.174c0.03,-0.161 -0.071,-1.367 -0.071,-1.367c0,0 2.344,3.696 6.145,6.593c7.91,6.023 22.377,14.356 42.592,22.046c18.97,7.212 42.443,14.122 69.226,19.768c28.598,6.031 54.202,15.686 73.697,27.645c29.026,17.806 48.048,34.523 60.845,57.803c6.982,12.704 12.104,27.478 15.221,45.852Z" style="fill:#262626;"/>
    <path d="M282.421,219.456l-6.185,0.9c-2.617,-17.978 -6.964,-32.378 -13.041,-44.809c-11.316,-23.126 -28.558,-39.784 -55.953,-59.086c-18.251,-12.857 -42.956,-23.642 -70.607,-30.685c-26.448,-6.733 -50.427,-13.895 -70.304,-20.624c-20.916,-7.077 -36.529,-13.846 -46.059,-18.061c-4.054,-1.793 -8.059,-3.88 -8.059,-3.88c-0,-0 0.644,-0.023 0.87,-0.099c0.484,-0.163 0.888,-0.45 1.195,-0.906l-5.188,-3.486l0.858,-0.921l1.142,-0.611l1.31,-0.213l1.476,0.211c1.607,0.444 4.456,2.213 8.925,4.189c9.421,4.167 24.856,10.86 45.533,17.857c19.747,6.684 43.569,13.799 69.843,20.487c28.465,7.251 53.877,18.397 72.664,31.633c28.44,20.037 46.221,37.441 57.968,61.449c6.329,12.946 10.886,27.933 13.612,46.655Z" style="fill:#262626;"/>
    <path d="M282.401,219.552l-6.204,0.758c-2.247,-18.379 -6.06,-33.031 -11.547,-45.735c-10.305,-23.868 -26.413,-41.182 -53.26,-62.691c-17.556,-14.063 -42.029,-26.274 -69.506,-34.512c-25.761,-7.716 -49.922,-15.074 -70.457,-21.206c-20.854,-6.224 -37.026,-11.287 -47.906,-13.363c-3.065,-0.586 -5.512,-1.088 -7.416,-1.092c-0.817,-0.001 -1.482,-0.037 -1.857,0.521l-5.186,-3.489c1.274,-1.894 3.061,-2.908 5.521,-3.198c2.407,-0.285 5.739,0.283 10.11,1.119c11.019,2.102 27.402,7.21 48.522,13.514c20.537,6.132 44.7,13.49 70.463,21.208c28.323,8.491 53.524,21.125 71.62,35.62c27.831,22.298 44.407,40.349 55.09,65.091c5.694,13.184 9.681,28.382 12.013,47.455Z" style="fill:#262626;"/>
    <path d="M282.38,219.644l-6.219,0.622c-1.878,-18.784 -5.152,-33.689 -10.043,-46.666c-9.284,-24.61 -24.294,-42.557 -50.566,-66.297c-16.878,-15.254 -41.117,-28.89 -68.415,-38.337c-25.09,-8.68 -49.42,-16.272 -70.612,-21.787c-20.831,-5.422 -37.625,-8.977 -49.807,-8.822c-5.872,0.075 -10.118,0.36 -12.496,3.896l-5.186,-3.488c3.418,-5.083 9.16,-6.55 17.602,-6.657c12.583,-0.161 29.946,3.422 51.461,9.022c21.333,5.553 45.825,13.192 71.082,21.93c28.166,9.747 53.147,23.867 70.562,39.606c27.197,24.576 42.612,43.251 52.223,68.729c5.058,13.419 8.472,28.826 10.414,48.249Z" style="fill:#262626;"/>
    <path d="M282.356,219.735l-6.23,0.489c-1.508,-19.184 -4.23,-34.351 -8.538,-47.599c-8.243,-25.358 -22.201,-43.91 -47.861,-69.907c-16.224,-16.432 -40.223,-31.489 -67.337,-42.166c-24.431,-9.618 -48.919,-17.485 -70.765,-22.368c-20.87,-4.662 -38.414,-6.802 -51.816,-4.374c-6.831,1.238 -12.175,3.356 -15.62,8.472l-5.184,-3.492c4.385,-6.511 10.995,-9.554 19.69,-11.13c14.039,-2.543 32.43,-0.459 54.293,4.425c22.131,4.947 46.942,12.908 71.692,22.651c27.996,11.025 52.743,26.625 69.495,43.592c26.53,26.878 40.834,46.147 49.357,72.365c4.439,13.65 7.27,29.274 8.824,49.042Z" style="fill:#262626;"/>
    <path d="M282.332,219.823l-6.24,0.361c-1.134,-19.588 -3.299,-35.014 -7.022,-48.533c-7.191,-26.108 -20.14,-45.255 -45.156,-73.518c-15.586,-17.608 -39.345,-34.071 -66.27,-46.001c-23.786,-10.536 -48.423,-18.709 -70.925,-22.944c-20.957,-3.943 -39.375,-4.678 -53.937,0.021c-7.73,2.493 -14.097,6.377 -18.619,13.094l-5.184,-3.491c5.333,-7.922 12.767,-12.61 21.884,-15.551c15.393,-4.967 34.86,-4.384 57.012,-0.215c22.937,4.317 48.055,12.632 72.301,23.372c27.813,12.323 52.318,29.384 68.418,47.573c25.834,29.187 39.075,49.039 46.502,76c3.823,13.882 6.072,29.718 7.236,49.832Z" style="fill:#262626;"/>
    <path d="M282.306,219.91l-6.246,0.236c-0.758,-19.992 -2.359,-35.677 -5.506,-49.468c-6.124,-26.854 -18.097,-46.591 -42.44,-77.129c-14.974,-18.782 -38.49,-36.639 -65.21,-49.838c-23.161,-11.439 -47.938,-19.953 -71.092,-23.523c-21.09,-3.256 -40.463,-2.54 -56.153,4.404c-8.586,3.803 -15.929,9.422 -21.528,17.738l-5.184,-3.491c6.294,-9.347 14.53,-15.686 24.181,-19.962c16.668,-7.377 37.233,-8.324 59.637,-4.865c23.742,3.66 49.157,12.365 72.907,24.095c27.605,13.636 51.859,32.141 67.329,51.546c25.112,31.501 37.329,51.934 43.646,79.635c3.221,14.113 4.883,30.162 5.659,50.622Z" style="fill:#262626;"/>
</svg>
