<?xml version="1.0" encoding="UTF-8" standalone="no"?>
<!DOCTYPE svg PUBLIC "-//W3C//DTD SVG 1.1//EN" "http://www.w3.org/Graphics/SVG/1.1/DTD/svg11.dtd">
<svg width="290px" height="299px" viewBox="0 0 290 299" version="1.1" xmlns="http://www.w3.org/2000/svg" xmlns:xlink="http://www.w3.org/1999/xlink" xml:space="preserve" xmlns:serif="http://www.serif.com/" style="fill-rule:evenodd;clip-rule:evenodd;stroke-linejoin:round;stroke-miterlimit:2;">
    <path d="M145.471,295.393c9.129,-1.41 20.503,-3.166 99.867,-57.958c24.975,-17.243 46.188,-53.693 40.036,-93.15c-14.42,-92.487 -219.985,-203.063 -274.363,-99.294c-22.527,42.99 1.065,104.496 99.346,116.531c28.95,3.545 78.91,1.135 94.654,52.802c8.851,29.05 -25.446,70.68 -59.54,81.069Z" style="fill:#fff;"/>
    <path d="M144.56,292.403c19.767,-6.023 39.577,-22.948 50.436,-41.56c7.011,-12.015 10.338,-24.736 7.025,-35.608c-9.031,-29.64 -29.884,-40.617 -51.066,-45.428c-14.656,-3.329 -29.486,-3.776 -40.978,-5.184c-50.326,-6.162 -81.429,-25.191 -97.167,-47.983c-16.077,-23.282 -16.35,-50.612 -4.567,-73.099c22.44,-42.822 69.701,-50.686 119.449,-38.093c43.927,11.12 89.727,38.155 121.228,70.141c21.265,21.591 35.995,45.466 39.542,68.215c6.353,40.75 -15.555,78.394 -41.349,96.202c-80.314,55.449 -91.927,57.049 -101.166,58.475c-1.62,0.25 -3.158,-0.794 -3.523,-2.393c-0.365,-1.598 0.567,-3.207 2.136,-3.685Zm41.09,-19.198c13.558,-8.347 32.086,-20.512 57.912,-38.342c24.157,-16.678 44.675,-51.933 38.724,-90.097c-3.375,-21.645 -17.586,-44.248 -37.819,-64.792c-30.744,-31.217 -75.437,-57.614 -118.309,-68.467c-46.696,-11.82 -91.316,-5.26 -112.379,34.935c-21.79,41.583 1.892,100.337 96.957,111.978c11.669,1.428 26.722,1.912 41.604,5.292c23.125,5.252 45.8,17.341 55.66,49.701c3.768,12.368 0.369,26.912 -7.605,40.58c-3.936,6.745 -8.977,13.275 -14.745,19.212Z" style="fill:#262626;"/>
    <path d="M14.079,42.695l1.845,0.967c-21.712,41.432 2.18,99.716 96.901,111.315c11.784,1.443 26.99,1.937 42.025,5.35c23.625,5.368 46.772,17.732 56.848,50.791c3.871,12.71 0.437,27.67 -7.759,41.716l-1.8,-1.05c7.875,-13.495 11.285,-27.848 7.566,-40.059c-9.8,-32.152 -32.34,-44.146 -55.317,-49.366c-14.959,-3.397 -30.091,-3.878 -41.817,-5.314c-96.861,-11.862 -120.696,-71.981 -98.492,-114.35Z" style="fill:#181514;"/>
    <path d="M14.067,42.653l1.845,0.967c-9.652,18.418 -4.255,44.537 19.036,66.159c17.593,16.333 45.029,30.228 82.161,38.248c2.212,0.479 4.453,0.949 6.715,1.436c12.196,2.611 27.161,4.516 41.196,9.384c21.003,7.284 39.855,20.542 47.505,48.317c0.538,1.952 1.008,3.986 1.362,6.108c2.162,12.844 -2.613,27.509 -11.124,41.04l-1.764,-1.109c8.215,-13.061 12.92,-27.189 10.833,-39.586c-0.342,-2.05 -0.796,-4.014 -1.316,-5.899c-7.431,-26.981 -25.776,-39.827 -46.178,-46.903c-13.951,-4.838 -28.829,-6.72 -40.951,-9.315c-2.263,-0.487 -4.505,-0.958 -6.718,-1.436c-37.583,-8.118 -65.331,-22.227 -83.139,-38.758c-24.142,-22.412 -29.468,-49.562 -19.463,-68.653Z" style="fill:#181514;"/>
    <path d="M14.055,42.612l1.845,0.966c-2.787,5.321 -3.101,12.215 -0.936,19.866c3.328,11.763 12.495,25.254 27.756,37.701c19.648,16.021 48.757,30.57 85.317,40.848c2.253,0.632 4.514,1.276 6.779,1.962c12.622,3.818 27.37,7.16 40.376,13.427c19.965,9.625 35.887,25.038 40.263,51.978c0.317,1.949 0.54,3.98 0.609,6.07c0.43,13.068 -5.652,27.348 -14.474,40.361l-1.725,-1.169c8.559,-12.623 14.534,-26.447 14.117,-39.124c-0.066,-1.998 -0.28,-3.94 -0.583,-5.803c-4.248,-26.152 -19.731,-41.093 -39.112,-50.437c-12.907,-6.219 -27.548,-9.52 -40.074,-13.309c-2.252,-0.682 -4.5,-1.323 -6.74,-1.95c-36.887,-10.37 -66.245,-25.075 -86.07,-41.24c-15.668,-12.779 -25.027,-26.671 -28.444,-38.748c-2.332,-8.243 -1.907,-15.667 1.096,-21.399Z" style="fill:#181514;"/>
    <path d="M14.043,42.569l1.846,0.967c-1.751,3.341 -0.886,8.541 2.286,14.812c5.004,9.895 15.819,22.257 32.314,34.165c21.744,15.692 52.503,30.997 88.473,43.444c2.288,0.794 4.575,1.613 6.837,2.495c13.06,5.062 27.596,9.88 39.559,17.481c18.969,12.053 31.826,29.655 33.015,55.635c0.087,1.955 0.056,3.975 -0.155,6.025c-1.352,13.367 -8.671,27.177 -17.803,39.672l-1.682,-1.229c8.903,-12.183 16.094,-25.621 17.412,-38.654c0.201,-1.947 0.229,-3.865 0.147,-5.721c-1.154,-25.207 -13.646,-42.275 -32.051,-53.969c-11.85,-7.53 -26.259,-12.284 -39.196,-17.298c-2.238,-0.873 -4.502,-1.683 -6.764,-2.468c-36.192,-12.524 -67.133,-27.935 -89.011,-43.723c-16.841,-12.158 -27.846,-24.813 -32.954,-34.914c-3.571,-7.061 -4.244,-12.959 -2.273,-16.72Z" style="fill:#181514;"/>
    <path d="M14.032,42.527l1.845,0.967c-0.156,0.296 -0.078,0.723 0.073,1.27c0.34,1.23 1.207,2.849 2.558,4.794c5.55,7.99 19.086,21.048 39.757,34.329c23.862,15.338 56.237,31.487 91.619,46.041c2.325,0.955 4.629,1.953 6.891,3.018c13.494,6.351 27.818,12.679 38.741,21.546c17.965,14.585 27.62,34.37 25.758,59.29c-0.147,1.963 -0.445,3.965 -0.915,5.967c-3.215,13.704 -11.679,27.008 -21.121,38.994l-1.636,-1.289c9.249,-11.743 17.579,-24.755 20.729,-38.181c0.445,-1.894 0.726,-3.789 0.865,-5.646c1.807,-24.176 -7.565,-43.368 -24.993,-57.517c-10.799,-8.767 -24.974,-15 -38.316,-21.279c-2.23,-1.05 -4.502,-2.034 -6.796,-2.976c-35.512,-14.608 -68.002,-30.821 -91.952,-46.215c-20.99,-13.486 -34.707,-26.78 -40.342,-34.894c-1.525,-2.195 -2.472,-4.039 -2.855,-5.428c-0.332,-1.2 -0.251,-2.141 0.09,-2.791Z" style="fill:#181514;"/>
    <path d="M15.865,43.453l-1.845,-0.969l0.17,-0.24l0.228,-0.188l0.282,-0.126l0.342,-0.048c0.201,0.001 0.582,0.086 1.094,0.371c3.642,2.025 21.365,16.611 49.904,33.018c26.006,14.947 59.959,32.038 94.767,48.626c2.356,1.125 4.671,2.306 6.935,3.55c13.916,7.666 28.01,15.537 37.921,25.612c16.918,17.204 23.243,39.142 18.5,62.936c-0.393,1.975 -0.966,3.95 -1.682,5.895c-5.163,14.047 -14.67,26.853 -24.421,38.331l-1.588,-1.348c9.595,-11.294 18.973,-23.88 24.054,-37.702c0.678,-1.842 1.222,-3.713 1.593,-5.583c4.603,-23.086 -1.526,-44.375 -17.942,-61.068c-9.78,-9.943 -23.706,-17.682 -37.44,-25.248c-2.228,-1.224 -4.507,-2.387 -6.828,-3.495c-34.86,-16.613 -68.862,-33.73 -94.908,-48.7c-25.401,-14.603 -42.245,-27.765 -48.235,-31.933c-0.938,-0.653 -1.901,-1.199 -1.901,-1.199c0,0 0.364,0.004 0.456,-0.027c0.254,-0.086 0.429,-0.247 0.544,-0.465Z" style="fill:#181514;"/>
    <path d="M15.853,43.41l-1.845,-0.967c0.516,-0.984 1.382,-1.614 2.621,-1.871c1.465,-0.305 3.563,-0.04 6.24,0.786c9.587,2.957 27.329,13.107 50.952,25.296c28.16,14.533 63.655,32.649 97.899,51.217c2.388,1.292 4.721,2.655 6.982,4.078c14.326,9.009 28.161,18.443 37.094,29.681c15.807,19.898 18.697,43.906 11.24,66.574c-0.653,1.983 -1.492,3.923 -2.438,5.816c-7.19,14.355 -17.655,26.7 -27.722,37.675l-1.535,-1.408c9.942,-10.84 20.293,-23.022 27.394,-37.199c0.901,-1.802 1.7,-3.648 2.323,-5.536c7.237,-22.003 4.451,-45.311 -10.893,-64.626c-8.802,-11.072 -22.458,-20.338 -36.572,-29.214c-2.223,-1.399 -4.517,-2.739 -6.865,-4.009c-34.231,-18.562 -69.714,-36.67 -97.863,-51.198c-23.47,-12.11 -41.085,-22.218 -50.61,-25.156c-1.897,-0.586 -3.445,-0.884 -4.63,-0.811c-0.844,0.052 -1.464,0.285 -1.772,0.872Z" style="fill:#181514;"/>
    <path d="M15.842,43.368l-1.846,-0.967c2.452,-4.68 8.162,-5.94 16.656,-4.327c11.896,2.26 29.514,10.011 50.948,19.97c30.331,14.088 67.322,33.298 101.032,53.799c2.413,1.469 4.759,3.01 7.028,4.606c14.707,10.369 28.261,21.373 36.255,33.752c14.614,22.634 14.005,48.615 3.983,70.202c-0.922,1.985 -2.019,3.885 -3.193,5.733c-9.271,14.611 -20.634,26.555 -31.01,37.036l-1.481,-1.466c10.28,-10.384 21.547,-22.211 30.732,-36.687c1.126,-1.771 2.179,-3.591 3.062,-5.494c9.736,-20.968 10.353,-46.207 -3.843,-68.194c-7.867,-12.181 -21.233,-22.976 -35.705,-33.179c-2.231,-1.569 -4.538,-3.085 -6.911,-4.529c-33.641,-20.459 -70.558,-39.63 -100.827,-53.689c-21.233,-9.866 -38.674,-17.574 -50.459,-19.813c-3.778,-0.718 -6.95,-0.873 -9.451,-0.307c-2.286,0.516 -3.973,1.651 -4.97,3.554Z" style="fill:#181514;"/>
    <path d="M15.83,43.326l-1.845,-0.967c3.489,-6.658 10.305,-9.462 19.808,-9.252c13.633,0.301 32.957,6.843 55.593,16.327c32.502,13.622 70.954,33.986 104.154,56.381c2.438,1.647 4.795,3.365 7.068,5.135c15.079,11.745 28.314,24.313 35.415,37.824c13.334,25.383 9.214,53.223 -3.277,73.816c-1.196,1.977 -2.544,3.84 -3.932,5.642c-11.4,14.816 -23.61,26.429 -34.302,36.417l-1.422,-1.522c10.619,-9.921 22.751,-21.45 34.073,-36.166c1.341,-1.741 2.646,-3.539 3.801,-5.45c12.145,-20.022 16.179,-47.089 3.214,-71.768c-6.98,-13.282 -20.027,-25.603 -34.85,-37.15c-2.236,-1.74 -4.555,-3.431 -6.954,-5.051c-33.085,-22.318 -71.404,-42.611 -103.793,-56.186c-22.334,-9.358 -41.383,-15.87 -54.834,-16.166c-8.554,-0.189 -14.776,2.144 -17.917,8.136Z" style="fill:#181514;"/>
    <path d="M15.818,43.283l-1.845,-0.967c4.513,-8.611 12.45,-13.015 22.996,-14.161c15.365,-1.669 36.383,3.655 60.202,12.671c34.68,13.13 74.553,34.701 107.272,58.966c2.463,1.823 4.828,3.718 7.109,5.656c15.43,13.135 28.328,27.244 34.567,41.891c11.979,28.131 4.375,57.724 -10.527,77.426c-1.48,1.956 -3.07,3.785 -4.673,5.554c-13.544,14.967 -26.581,26.302 -37.591,35.801l-1.361,-1.577c10.955,-9.452 23.931,-20.73 37.408,-35.622c1.563,-1.724 3.113,-3.506 4.555,-5.413c14.504,-19.175 21.931,-47.973 10.272,-75.353c-6.129,-14.389 -18.841,-28.216 -34,-41.12c-2.246,-1.908 -4.574,-3.774 -6.999,-5.57c-32.566,-24.151 -72.252,-45.622 -106.77,-58.69c-23.444,-8.875 -44.116,-14.192 -59.239,-12.548c-9.781,1.062 -17.19,5.069 -21.376,13.056Z" style="fill:#181514;"/>
    <path d="M15.806,43.241l-1.845,-0.967c6.903,-13.174 19.298,-19.296 35.29,-20.264c15.702,-0.951 34.913,3.094 55.711,10.215c36.854,12.615 78.114,35.43 110.387,61.54c2.474,2.004 4.854,4.076 7.142,6.181c15.763,14.531 28.31,30.163 33.715,45.952c10.56,30.863 -0.474,62.12 -17.77,81.033c-1.762,1.923 -3.592,3.723 -5.404,5.464c-15.697,15.066 -29.559,26.183 -40.89,35.2l-1.297,-1.63c11.29,-8.985 25.104,-20.061 40.744,-35.073c1.781,-1.71 3.579,-3.478 5.31,-5.368c16.853,-18.428 27.626,-48.879 17.336,-78.951c-5.308,-15.506 -17.675,-30.824 -33.156,-45.094c-2.255,-2.076 -4.602,-4.119 -7.041,-6.095c-32.088,-25.959 -73.108,-48.646 -109.751,-61.188c-20.502,-7.019 -39.432,-11.044 -54.91,-10.107c-15.188,0.919 -27.014,6.64 -33.571,19.152Z" style="fill:#181514;"/>
    <path d="M15.795,43.199l-1.846,-0.967c8.188,-15.626 22.043,-23.681 39.378,-26.099c17.115,-2.387 37.654,0.747 59.424,7.488c39.032,12.09 81.642,36.179 113.496,64.121c2.489,2.184 4.885,4.428 7.179,6.701c16.078,15.93 28.268,33.062 32.86,50.009c9.092,33.565 -5.301,66.423 -25.01,84.627c-2.043,1.887 -4.107,3.66 -6.133,5.379c-17.85,15.13 -32.535,26.077 -44.192,34.611l-1.231,-1.681c11.627,-8.512 26.273,-19.43 44.075,-34.52c2.005,-1.699 4.047,-3.453 6.068,-5.319c19.226,-17.759 33.282,-49.808 24.413,-82.552c-4.51,-16.641 -16.528,-33.432 -32.316,-49.074c-2.265,-2.244 -4.63,-4.459 -7.087,-6.616c-31.642,-27.754 -73.966,-51.686 -112.739,-63.695c-21.44,-6.64 -41.663,-9.767 -58.519,-7.415c-16.637,2.32 -29.962,10.006 -37.82,25.002Z" style="fill:#181514;"/>
    <path d="M15.783,43.157l-1.845,-0.967c18.858,-35.984 60.938,-39.958 106.604,-27.171c41.205,11.543 85.134,36.931 116.6,66.695c2.504,2.369 4.911,4.784 7.217,7.224c16.378,17.332 28.206,35.946 32.002,54.065c7.591,36.239 -10.098,70.64 -32.238,88.214c-2.324,1.843 -4.622,3.599 -6.861,5.3c-20.001,15.163 -35.517,25.968 -47.499,34.024l-1.162,-1.729c11.957,-8.04 27.442,-18.823 47.401,-33.955c2.228,-1.692 4.514,-3.438 6.826,-5.272c21.624,-17.164 38.908,-50.76 31.494,-86.154c-3.728,-17.794 -15.394,-36.042 -31.478,-53.062c-2.279,-2.413 -4.658,-4.8 -7.134,-7.142c-31.232,-29.542 -74.831,-54.745 -115.73,-66.202c-44.591,-12.486 -85.782,-9.005 -104.197,26.132Z" style="fill:#181514;"/>
    <path d="M188.574,272.009l-1.092,-1.775c13.651,-8.402 32.306,-20.652 58.308,-38.603c24.069,-16.618 44.51,-51.743 38.582,-89.765c-3.372,-21.626 -17.606,-44.191 -37.822,-64.714c-30.849,-31.326 -75.701,-57.821 -118.722,-68.709c-46.543,-11.782 -91.063,-5.392 -112.057,34.673l-1.845,-0.967c21.452,-40.94 66.853,-47.766 114.413,-35.726c43.373,10.977 88.594,37.685 119.696,69.267c20.559,20.873 34.966,43.861 38.396,65.855c6.062,38.885 -14.842,74.806 -39.458,91.8c-26.042,17.979 -44.727,30.248 -58.399,38.664Z" style="fill:#181514;"/>
</svg>
