<?xml version="1.0" encoding="UTF-8" standalone="no"?>
<!DOCTYPE svg PUBLIC "-//W3C//DTD SVG 1.1//EN" "http://www.w3.org/Graphics/SVG/1.1/DTD/svg11.dtd">
<svg width="344px" height="288px" viewBox="0 0 344 288" version="1.1" xmlns="http://www.w3.org/2000/svg" xmlns:xlink="http://www.w3.org/1999/xlink" xml:space="preserve" xmlns:serif="http://www.serif.com/" style="fill-rule:evenodd;clip-rule:evenodd;stroke-linejoin:round;stroke-miterlimit:2;">
    <path d="M332.83,283.586c-31.605,-1.74 -62.386,-73.901 -80.605,-89.995c-62.762,-55.442 -113.728,1.964 -160.584,16.995c-31.609,10.141 -65.466,-7.036 -84.173,-60.643c-21.366,-61.226 64.865,-133.569 141.069,-141.932c6.767,-0.743 100.411,-22.751 151.937,46.11c54.723,73.135 35.946,164.242 32.356,229.465Z" style="fill:#fff;"/>
    <path d="M332.601,287.747c-5.755,-0.317 -11.516,-2.607 -17.168,-6.437c-7.769,-5.265 -15.411,-13.51 -22.687,-22.98c-17.259,-22.467 -32.462,-52.061 -43.279,-61.617c-35.978,-31.782 -67.915,-24.611 -97.365,-10.798c-20.717,9.717 -40.293,22.577 -59.188,28.639c-33.36,10.702 -69.637,-6.663 -89.38,-63.239c-8.994,-25.774 -0.175,-53.495 19.144,-77.956c28.167,-35.663 78.632,-64.357 125.404,-69.49c6.942,-0.762 102.87,-22.886 155.728,47.755c27.906,37.296 37.141,79.151 38.873,120.02c1.703,40.217 -3.891,79.442 -5.693,112.171c-0.126,2.298 -2.091,4.058 -4.389,3.932Zm-3.655,-9.013c2.022,-31.532 7.022,-68.687 5.411,-106.737c-1.664,-39.274 -10.402,-79.54 -37.22,-115.38c-50.193,-67.081 -141.553,-45.188 -148.145,-44.464c-44.673,4.902 -92.872,32.31 -119.775,66.371c-17.394,22.024 -25.913,46.839 -17.815,70.046c17.673,50.642 49.105,67.629 78.966,58.049c18.59,-5.964 37.814,-18.689 58.196,-28.249c32.198,-15.102 67.083,-22.651 106.42,12.098c11.045,9.757 26.749,39.845 44.371,62.785c5.597,7.286 11.389,13.823 17.321,18.608c4.056,3.271 8.14,5.726 12.27,6.873Z" style="fill:#262626;"/>
    <path d="M9.996,158.649c-1.104,-1.325 -0.925,-3.297 0.4,-4.401c1.325,-1.104 3.298,-0.924 4.402,0.401c11.215,13.463 20.475,25.048 29.733,33.548c8.799,8.077 17.544,13.315 28.154,14.418c14.548,1.512 32.356,-4.594 58.049,-20.647c37.212,-23.248 66.196,-26.034 88.654,-19.598c22.532,6.457 38.61,22.299 49.933,36.78c0.065,0.084 0.126,0.17 0.182,0.26c11.473,18.22 27.581,56.999 62.799,82.464c1.398,1.01 1.712,2.965 0.702,4.363c-1.011,1.398 -2.966,1.712 -4.364,0.701c-35.936,-25.983 -52.611,-65.373 -64.343,-84.066c-10.612,-13.547 -25.567,-28.458 -46.631,-34.494c-21.204,-6.077 -48.485,-3.06 -83.621,18.891c-27.376,17.104 -46.505,23.174 -62.006,21.562c-11.926,-1.24 -21.845,-6.951 -31.734,-16.03c-9.431,-8.658 -18.885,-20.438 -30.309,-34.152Z" style="fill:#262626;"/>
    <path d="M10.041,158.624c-1.14,-1.295 -1.014,-3.271 0.281,-4.411c1.294,-1.139 3.271,-1.013 4.41,0.281c10.233,11.626 18.872,21.651 27.634,28.892c8.312,6.868 16.699,11.175 26.825,11.685c13.957,0.704 30.984,-5.629 55.155,-21.321c39.33,-25.53 73.691,-29.007 98.926,-20.909l0.008,0.003c21.903,7.1 38.376,22.225 48.924,37.734c4.508,6.633 8.841,15.835 14.136,25.935c11.151,21.278 24.062,46.428 46.073,65.543c1.302,1.131 1.441,3.106 0.31,4.408c-1.131,1.302 -3.106,1.442 -4.408,0.311c-22.647,-19.667 -36.037,-45.468 -47.51,-67.36c-5.168,-9.856 -9.371,-18.85 -13.77,-25.323c-9.855,-14.491 -25.213,-28.666 -45.677,-35.301c-23.901,-7.669 -56.359,-3.978 -93.609,20.201c-25.737,16.708 -44.012,23.07 -58.872,22.321c-11.487,-0.579 -21.064,-5.318 -30.492,-13.109c-8.979,-7.42 -17.858,-17.667 -28.344,-29.58Z" style="fill:#262626;"/>
    <path d="M10.104,158.615c-1.184,-1.254 -1.128,-3.234 0.126,-4.418c1.254,-1.184 3.233,-1.128 4.418,0.126c15.155,16.045 26.832,28.587 41.932,32.167c15.031,3.564 33.217,-1.955 61.381,-20.954c39.052,-26.34 77.493,-31.756 104.901,-23.59c23.478,6.997 40.94,23.005 52.126,39.926c4.853,7.346 9.41,17.176 14.595,27.937c11.506,23.876 22.406,51.2 42.921,72.445c1.198,1.241 1.163,3.221 -0.078,4.419c-1.24,1.198 -3.22,1.163 -4.418,-0.078c-20.997,-21.744 -32.279,-49.636 -44.055,-74.073c-5.047,-10.474 -9.456,-20.054 -14.18,-27.204c-10.458,-15.821 -26.744,-30.84 -48.696,-37.383c-26.05,-7.761 -62.504,-2.253 -99.621,22.783c-30.321,20.454 -50.136,25.69 -66.318,21.853c-16.114,-3.82 -28.86,-16.833 -45.034,-33.956Z" style="fill:#262626;"/>
    <path d="M10.197,158.629c-1.242,-1.197 -1.279,-3.177 -0.082,-4.419c1.197,-1.242 3.177,-1.278 4.419,-0.081c13.516,13.026 24.539,23.253 38.864,25.439c14.374,2.194 31.834,-3.78 58.175,-22.247c38.781,-27.188 81.282,-34.458 110.883,-26.269c25.035,6.93 43.487,23.778 55.314,42.112c5.192,8.053 9.957,18.522 15.047,29.922c11.835,26.512 20.75,55.995 39.755,79.377c1.088,1.339 0.885,3.308 -0.453,4.396c-1.339,1.088 -3.309,0.885 -4.396,-0.454c-19.355,-23.811 -28.56,-53.772 -40.613,-80.771c-4.946,-11.076 -9.549,-21.259 -14.592,-29.082c-11.07,-17.161 -28.297,-32.99 -51.729,-39.476c-28.219,-7.807 -68.659,-0.555 -105.628,25.363c-28.292,19.835 -47.267,25.664 -62.705,23.308c-15.486,-2.363 -27.648,-13.037 -42.259,-27.118Z" style="fill:#262626;"/>
    <path d="M10.339,158.676c-1.318,-1.112 -1.484,-3.086 -0.372,-4.404c1.113,-1.317 3.086,-1.484 4.404,-0.371c11.884,10.033 22.249,17.927 35.79,18.726c13.719,0.809 30.472,-5.619 55.026,-23.517c38.513,-28.074 85.076,-37.158 116.873,-28.945c26.578,6.864 46.022,24.541 58.488,44.285c5.528,8.763 10.491,19.872 15.497,31.905c12.135,29.171 19.085,60.796 36.57,86.326c0.975,1.423 0.611,3.369 -0.812,4.344c-1.423,0.974 -3.37,0.61 -4.344,-0.813c-17.724,-25.878 -24.884,-57.886 -37.184,-87.456c-4.858,-11.676 -9.648,-22.467 -15.012,-30.97c-11.684,-18.505 -29.856,-35.137 -54.766,-41.57c-30.389,-7.849 -74.821,1.114 -111.629,27.945c-26.274,19.151 -44.395,25.571 -59.075,24.705c-14.858,-0.877 -26.414,-9.181 -39.454,-20.19Z" style="fill:#262626;"/>
    <path d="M10.571,158.771c-1.42,-0.979 -1.778,-2.927 -0.799,-4.347c0.979,-1.419 2.927,-1.777 4.347,-0.798c10.276,7.087 19.987,12.631 32.745,12.052c13.065,-0.593 29.126,-7.484 51.934,-24.78c38.242,-29.001 88.878,-39.848 122.869,-31.621c28.124,6.81 48.552,25.305 61.653,46.458c5.868,9.47 11.015,21.225 15.948,33.888c12.406,31.838 17.416,65.599 33.368,93.273c0.862,1.494 0.348,3.406 -1.146,4.268c-1.494,0.861 -3.407,0.347 -4.268,-1.147c-16.104,-27.936 -21.254,-61.985 -33.778,-94.126c-4.782,-12.276 -9.748,-23.683 -15.437,-32.864c-12.296,-19.854 -31.415,-37.284 -57.81,-43.675c-32.558,-7.881 -80.994,2.749 -117.623,30.526c-24.274,18.407 -41.522,25.412 -55.427,26.044c-14.211,0.645 -25.13,-5.257 -36.576,-13.151Z" style="fill:#262626;"/>
    <path d="M10.978,158.924c-1.554,-0.748 -2.208,-2.617 -1.459,-4.171c0.748,-1.554 2.617,-2.208 4.171,-1.46c6.993,3.368 14.213,6.096 22.995,6.033c13.513,-0.098 30.514,-6.725 55.725,-26.634c37.961,-29.979 92.676,-42.539 128.872,-34.298c29.657,6.753 51.071,26.061 64.811,48.621c6.2,10.176 11.523,22.577 16.393,35.862c12.653,34.518 15.735,70.407 30.149,100.229c0.75,1.553 0.099,3.423 -1.454,4.173c-1.553,0.751 -3.423,0.1 -4.174,-1.453c-14.498,-29.997 -17.662,-66.077 -30.39,-100.798c-4.718,-12.874 -9.853,-24.901 -15.862,-34.761c-12.915,-21.206 -32.984,-39.432 -60.861,-45.779c-34.732,-7.908 -87.184,4.342 -123.611,33.109c-26.858,21.21 -45.157,27.875 -59.553,27.979c-9.825,0.071 -17.928,-2.884 -25.752,-6.652Z" style="fill:#262626;"/>
    <path d="M11.751,159.091c-1.695,-0.316 -2.815,-1.95 -2.499,-3.645c0.316,-1.696 1.949,-2.816 3.644,-2.5c14.822,2.763 34.653,3.219 73.122,-28.461c37.651,-31.008 96.485,-45.225 134.879,-36.976c31.195,6.702 53.586,26.822 67.967,50.784c6.533,10.88 12.024,23.932 16.836,37.833c12.877,37.207 14.047,75.213 26.912,107.183c0.644,1.6 -0.132,3.422 -1.732,4.065c-1.6,0.644 -3.422,-0.132 -4.066,-1.732c-12.901,-32.058 -14.107,-70.161 -27.02,-107.472c-4.661,-13.466 -9.96,-26.12 -16.289,-36.661c-13.538,-22.557 -34.555,-41.58 -63.92,-47.889c-36.902,-7.929 -93.407,5.887 -129.594,35.689c-41.043,33.801 -62.427,32.729 -78.24,29.782Z" style="fill:#262626;"/>
    <path d="M13.113,158.949c-1.667,0.441 -3.379,-0.554 -3.82,-2.221c-0.442,-1.668 0.554,-3.38 2.221,-3.821c11.901,-3.149 32.574,-6.046 68.108,-36.623c37.312,-32.101 100.301,-47.912 140.898,-39.655c32.726,6.653 56.096,27.575 71.118,52.942c6.861,11.588 12.515,25.284 17.272,39.802c13.081,39.901 12.355,80.017 23.659,114.132c0.542,1.637 -0.347,3.407 -1.984,3.949c-1.637,0.542 -3.407,-0.346 -3.949,-1.984c-11.305,-34.12 -10.582,-74.243 -23.665,-114.151c-4.608,-14.062 -10.065,-27.339 -16.711,-38.563c-14.163,-23.917 -36.131,-43.73 -66.986,-50.003c-39.071,-7.946 -99.665,7.373 -135.576,38.268c-36.82,31.685 -58.253,34.664 -70.585,37.928Z" style="fill:#262626;"/>
    <path d="M14.555,158.004c-1.195,1.243 -3.175,1.282 -4.418,0.086c-1.243,-1.195 -1.282,-3.175 -0.086,-4.418c3.71,-3.857 9.472,-7.336 17.265,-12.027c11.118,-6.694 26.515,-16.077 45.913,-33.558c36.912,-33.266 104.113,-50.598 146.913,-42.341c34.256,6.612 58.604,28.329 74.265,55.1c7.192,12.29 13.006,26.639 17.716,41.769c13.259,42.593 10.651,84.81 20.389,121.072c0.448,1.665 -0.541,3.381 -2.207,3.828c-1.666,0.448 -3.381,-0.542 -3.829,-2.207c-9.719,-36.189 -7.088,-78.327 -20.321,-120.835c-4.563,-14.657 -10.175,-28.565 -17.143,-40.471c-14.787,-25.278 -37.708,-45.876 -70.054,-52.119c-41.241,-7.957 -105.978,8.793 -141.545,40.847c-19.805,17.848 -35.522,27.435 -46.873,34.269c-7.188,4.327 -12.563,7.448 -15.985,11.005Z" style="fill:#262626;"/>
    <path d="M15.221,156.839c-0.602,1.616 -2.403,2.439 -4.019,1.837c-1.616,-0.602 -2.44,-2.403 -1.838,-4.019c2.457,-6.596 8.041,-12.013 15.817,-18.105c10.728,-8.404 25.764,-18.405 41.439,-36.441c32.979,-37.946 108.049,-53.446 153.142,-45.247l0.01,0.002c35.775,6.626 61.101,29.084 77.403,57.252c7.521,12.997 13.487,27.991 18.156,43.733c13.42,45.285 8.943,89.606 17.112,128.005c0.359,1.687 -0.72,3.348 -2.407,3.707c-1.687,0.359 -3.347,-0.719 -3.706,-2.406c-8.138,-38.254 -3.621,-82.416 -16.991,-127.529c-4.524,-15.252 -10.287,-29.787 -17.574,-42.379c-15.416,-26.638 -39.297,-47.97 -73.126,-54.237c-43.349,-7.88 -115.599,6.722 -147.302,43.199c-16.013,18.425 -31.342,28.676 -42.302,37.261c-6.683,5.236 -11.702,9.697 -13.814,15.367Z" style="fill:#262626;"/>
    <path d="M15.386,156.022c-0.201,1.713 -1.755,2.94 -3.468,2.739c-1.713,-0.201 -2.94,-1.755 -2.739,-3.467c1.077,-9.185 5.806,-16.866 12.824,-24.638c9.789,-10.84 24.168,-21.975 38.243,-38.748c13.129,-15.651 33.719,-27.843 56.789,-36.239c34.311,-12.487 74.075,-16.597 102.359,-11.683l0.008,0.001c37.301,6.572 63.601,29.834 80.541,59.403c7.848,13.701 13.967,29.341 18.592,45.697c13.574,47.973 7.23,94.39 13.825,134.93c0.277,1.702 -0.88,3.309 -2.583,3.586c-1.702,0.277 -3.309,-0.88 -3.586,-2.582c-6.56,-40.328 -0.167,-86.511 -13.67,-134.233c-4.482,-15.851 -10.396,-31.013 -18.002,-44.291c-16.042,-28.002 -40.875,-50.129 -76.198,-56.354c-27.401,-4.759 -65.911,-0.697 -99.148,11.399c-21.963,7.993 -41.64,19.483 -54.139,34.383c-11.825,14.092 -23.852,24.248 -33.246,33.564c-8.761,8.687 -15.225,16.496 -16.402,26.533Z" style="fill:#262626;"/>
    <path d="M15.396,155.489c0.044,1.724 -1.321,3.159 -3.045,3.203c-1.724,0.043 -3.16,-1.321 -3.203,-3.046c-0.365,-14.483 5.649,-26.233 14.605,-37.684c8.501,-10.871 19.694,-21.499 30.125,-34.269c13.065,-15.996 34.256,-28.694 58.218,-37.564c35.623,-13.186 77.336,-17.942 106.929,-13.023l0.005,0.001c38.83,6.522 66.099,30.589 83.683,61.557c8.172,14.403 14.441,30.689 19.027,47.653c13.71,50.665 5.513,99.174 10.531,141.847c0.202,1.713 -1.025,3.267 -2.738,3.468c-1.713,0.202 -3.267,-1.025 -3.469,-2.738c-4.986,-42.399 3.265,-90.605 -10.357,-140.945c-4.446,-16.444 -10.507,-32.238 -18.43,-46.2c-16.674,-29.367 -42.458,-52.293 -79.279,-58.478c-28.713,-4.772 -69.171,-0.074 -103.732,12.72c-22.829,8.45 -43.101,20.417 -55.548,35.655c-10.4,12.734 -21.565,23.327 -30.042,34.166c-8.022,10.257 -13.607,20.704 -13.28,33.677Z" style="fill:#262626;"/>
    <path d="M15.366,155.117c0.199,1.713 -1.031,3.266 -2.744,3.465c-1.713,0.199 -3.265,-1.03 -3.465,-2.744c-4.007,-34.489 18.556,-57.748 38.448,-80.474c13.73,-15.681 35.636,-28.716 60.343,-38.113c36.809,-14.001 79.804,-19.951 110.713,-15.022l0.002,0.001c40.353,6.468 68.534,31.364 86.813,63.699l0.005,0.01c8.472,15.112 14.874,32.038 19.465,49.602l0.003,0.012c13.72,53.377 3.785,103.943 7.227,148.746c0.132,1.72 -1.157,3.223 -2.877,3.355c-1.72,0.132 -3.223,-1.157 -3.355,-2.876c-3.417,-44.475 6.572,-94.678 -7.047,-147.663c-4.453,-17.035 -10.648,-33.458 -18.865,-48.115c-17.358,-30.705 -44.038,-54.456 -82.357,-60.599c-30.017,-4.787 -71.758,1.095 -107.505,14.691c-23.663,9.001 -44.713,21.371 -57.862,36.389c-18.774,21.448 -40.725,43.084 -36.942,75.636Z" style="fill:#262626;"/>
    <path d="M15.327,154.836c0.304,1.698 -0.827,3.323 -2.524,3.628c-1.698,0.304 -3.324,-0.827 -3.628,-2.525c-7.296,-40.694 15.339,-67.998 32.007,-88.719c13.234,-16.455 35.674,-30.104 61.362,-39.94c38.197,-14.627 83.537,-20.864 115.751,-15.93c61.478,9.421 95.667,60.391 109.855,117.422c13.938,56.038 2.06,108.717 3.924,155.652c0.069,1.723 -1.275,3.178 -2.998,3.246c-1.724,0.069 -3.178,-1.275 -3.247,-2.998c-1.849,-46.554 10.081,-98.809 -3.744,-154.391c-13.579,-54.582 -45.899,-103.737 -104.737,-112.753c-31.332,-4.799 -75.418,1.362 -112.569,15.588c-24.546,9.399 -46.081,22.298 -58.727,38.021c-15.757,19.588 -37.622,45.23 -30.725,83.699Z" style="fill:#262626;"/>
</svg>
