<?xml version="1.0" encoding="UTF-8" standalone="no"?>
<!DOCTYPE svg PUBLIC "-//W3C//DTD SVG 1.1//EN" "http://www.w3.org/Graphics/SVG/1.1/DTD/svg11.dtd">
<svg width="155px" height="269px" viewBox="0 0 155 269" version="1.1" xmlns="http://www.w3.org/2000/svg" xmlns:xlink="http://www.w3.org/1999/xlink" xml:space="preserve" xmlns:serif="http://www.serif.com/" style="fill-rule:evenodd;clip-rule:evenodd;stroke-linejoin:round;stroke-miterlimit:2;">
    <path d="M73.953,265.76c46.692,-72.149 71.467,-102.364 77.431,-166.584c1.514,-16.306 -8.301,-90.967 -98.828,-95.998c-27.713,-1.54 -67.972,30.079 -39.907,82.049c23.105,42.785 79.901,42.357 81.172,107.639c0.562,28.848 -4.998,37.136 -21.011,70.76" style="fill:#fff;"/>
    <path d="M70.842,266.054c-1.096,-0.887 -1.486,-2.442 -0.853,-3.771c15.702,-32.972 21.259,-41.068 20.708,-69.357c-0.737,-37.837 -20.94,-52.726 -41.68,-67.588c-14.688,-10.525 -29.633,-21.064 -39.117,-38.626c-11.799,-21.848 -11.945,-40.294 -6.205,-54.436c8.734,-21.517 31.309,-33.204 49.034,-32.218c93.474,5.195 103.33,82.57 101.766,99.407c-6.011,64.739 -30.85,95.262 -77.919,167.993c-0.937,1.448 -2.873,1.863 -4.321,0.925c-0.834,-0.539 -1.325,-1.41 -1.413,-2.329Zm17.47,-27.97c35.443,-53.94 54.814,-83.781 59.96,-139.197c1.465,-15.776 -8.307,-87.721 -95.89,-92.589c-15.53,-0.863 -35.244,9.476 -42.896,28.328c-5.183,12.77 -4.741,29.389 5.913,49.116c11.331,20.982 31.026,31.256 47.941,44.401c17.908,13.915 32.946,30.769 33.606,64.662c0.386,19.834 -2.019,30.149 -8.634,45.279Z" style="fill:#262626;"/>
    <path d="M89.705,238.594l-1.89,-0.876c7.306,-15.758 10.473,-26.746 10.944,-46.41c0.581,-24.188 -5.39,-40.666 -15.626,-53.916c-3.797,-4.911 -8.39,-9.601 -13.468,-14.171c-16.057,-14.447 -36.512,-25.919 -50.393,-46.422c-2.963,-4.373 -5.402,-8.608 -7.297,-12.675c-6.145,-13.191 -6.793,-23.897 -3.682,-31.564l1.931,0.783c-2.949,7.268 -2.185,17.398 3.639,29.901c1.853,3.975 4.238,8.112 7.134,12.387c13.779,20.353 34.122,31.7 50.062,46.041c5.175,4.658 9.853,9.441 13.722,14.447c10.49,13.578 16.656,30.451 16.06,55.238c-0.479,20.015 -3.7,31.199 -11.136,47.237Z" style="fill:#181514;"/>
    <path d="M89.671,238.613l-1.873,-0.914c8.004,-16.404 11.948,-28.083 13.269,-47.597c1.642,-24.24 -2.523,-41.613 -12.076,-56.326c-3.253,-5.004 -7.552,-10.224 -12.61,-15.428c-15.004,-15.432 -35.804,-28.006 -52.162,-47.742c-3.353,-4.05 -6.263,-7.96 -8.611,-11.767c-4.367,-7.073 -6.899,-13.112 -7.786,-17.921c-0.623,-3.379 -0.438,-6.183 0.446,-8.359l1.93,0.784c-0.76,1.873 -0.863,4.289 -0.327,7.197c0.852,4.62 3.315,10.41 7.51,17.205c2.301,3.732 5.156,7.563 8.443,11.532c16.32,19.69 37.082,32.222 52.05,47.619c5.162,5.31 9.545,10.639 12.865,15.745c9.77,15.049 14.086,32.808 12.407,57.602c-1.343,19.83 -5.342,31.7 -13.475,48.37Z" style="fill:#181514;"/>
    <path d="M89.637,238.63l-1.855,-0.948c8.707,-17.051 13.431,-29.423 15.597,-48.781c2.715,-24.299 0.321,-42.448 -8.521,-58.738c-2.744,-5.06 -6.725,-10.821 -11.759,-16.687c-14.009,-16.33 -34.99,-30.107 -53.927,-49.077c-3.719,-3.724 -7.086,-7.296 -9.916,-10.85c-5.828,-7.316 -9.432,-13.031 -10.706,-16.72c-0.647,-1.87 -0.696,-3.311 -0.307,-4.269l1.93,0.783c-0.155,0.382 -0.132,0.89 -0.011,1.518c0.156,0.806 0.493,1.764 0.997,2.868c1.613,3.532 4.89,8.45 9.727,14.522c2.785,3.498 6.1,7.011 9.76,10.676c18.978,19.011 39.995,32.827 54.034,49.192c5.143,5.993 9.206,11.881 12.009,17.05c9.027,16.632 11.533,35.154 8.76,59.964c-2.197,19.64 -6.978,32.197 -15.812,49.497Z" style="fill:#181514;"/>
    <path d="M89.604,238.645l-1.84,-0.978c9.407,-17.699 14.925,-30.765 17.923,-49.971c3.804,-24.357 3.107,-43.182 -4.955,-61.15c-2.278,-5.07 -5.915,-11.393 -10.906,-17.942c-13.076,-17.16 -34.098,-32.256 -55.7,-50.418c-4.061,-3.41 -7.872,-6.636 -11.215,-9.936c-8.254,-8.148 -13.513,-13.3 -14.41,-14.426c-0.102,-0.129 -0.17,-0.232 -0.21,-0.304l-0.114,-0.277l-0.037,-0.324l0.08,-0.366l1.925,0.797c0.049,-0.12 -0.052,-0.873 -0.052,-0.873c0,-0 0.023,0.03 0.039,0.05c0.885,1.113 6.089,6.192 14.243,14.24c3.305,3.264 7.075,6.452 11.091,9.824c21.734,18.273 42.862,33.485 56.017,50.751c5.104,6.697 8.82,13.166 11.149,18.351c8.218,18.315 8.991,37.497 5.114,62.325c-3.037,19.456 -8.613,32.697 -18.142,50.627Z" style="fill:#181514;"/>
    <path d="M89.57,238.659l-1.824,-1.006c10.107,-18.347 16.428,-32.112 20.256,-51.157c4.907,-24.414 5.791,-43.847 -1.391,-63.563c-1.844,-5.063 -5.127,-11.951 -10.056,-19.203c-12.205,-17.943 -33.137,-34.472 -57.475,-51.767c-4.384,-3.115 -8.629,-5.999 -12.502,-9.021c-6.821,-5.326 -12.299,-8.655 -15.279,-9.428c-0.4,-0.104 -0.741,-0.159 -1.02,-0.145c-0.084,0.005 -0.213,0.038 -0.213,0.038c-0,-0 0.044,-0.036 0.056,-0.064l-1.931,-0.783c0.408,-1.005 1.609,-1.587 3.631,-1.063c3.12,0.81 8.897,4.227 16.037,9.803c3.851,3.004 8.07,5.869 12.427,8.965c24.57,17.459 45.671,34.18 57.991,52.294c5.047,7.423 8.404,14.478 10.292,19.661c7.308,20.065 6.469,39.84 1.475,64.687c-3.871,19.264 -10.25,33.193 -20.474,51.752Z" style="fill:#181514;"/>
    <path d="M89.538,238.671l-1.81,-1.03c10.813,-18.992 17.945,-33.457 22.591,-52.348c6.015,-24.466 8.356,-44.453 2.178,-65.976c-1.444,-5.039 -4.356,-12.493 -9.209,-20.455c-11.389,-18.698 -32.138,-36.771 -59.256,-53.13c-4.697,-2.834 -9.356,-5.387 -13.784,-8.116c-6.266,-3.866 -11.914,-6.044 -15.829,-6.181c-2.153,-0.075 -3.729,0.446 -4.322,1.908l-1.931,-0.783c0.89,-2.194 3.094,-3.32 6.326,-3.207c4.16,0.146 10.191,2.382 16.849,6.489c4.423,2.726 9.076,5.275 13.768,8.106c27.455,16.563 48.427,34.899 59.958,53.83c4.973,8.159 7.953,15.8 9.433,20.965c6.278,21.871 3.955,42.185 -2.158,67.047c-4.693,19.082 -11.882,33.698 -22.804,52.881Z" style="fill:#181514;"/>
    <path d="M89.506,238.683l-1.797,-1.054c11.515,-19.641 19.467,-34.797 24.928,-53.535c7.141,-24.515 10.782,-45.032 5.756,-68.387c-1.083,-5.013 -3.617,-13.028 -8.364,-21.712c-10.624,-19.433 -31.118,-39.16 -61.046,-54.506c-5.01,-2.564 -10.075,-4.809 -15.069,-7.213c-6.679,-3.219 -13.12,-4.484 -17.801,-3.49c-2.867,0.609 -5.039,2.085 -6.042,4.557l-1.93,-0.784c1.262,-3.109 3.933,-5.045 7.539,-5.811c5.028,-1.067 11.965,0.194 19.138,3.651c5.009,2.412 10.089,4.664 15.114,7.236c30.377,15.575 51.142,35.637 61.925,55.361c4.869,8.907 7.462,17.13 8.572,22.272c5.102,23.703 1.456,44.529 -5.792,69.409c-5.508,18.9 -13.516,34.194 -25.131,54.006Z" style="fill:#181514;"/>
    <path d="M89.474,238.693l-1.784,-1.074c12.217,-20.29 21.003,-36.14 27.267,-54.726c8.277,-24.555 13.06,-45.602 9.332,-70.8c-0.738,-4.985 -2.895,-13.552 -7.519,-22.962c-9.901,-20.16 -30.089,-41.629 -62.841,-55.889c-5.315,-2.311 -10.785,-4.267 -16.347,-6.319c-5.955,-2.198 -12.009,-2.79 -17.037,-1.681c-4.846,1.068 -8.725,3.728 -10.499,8.101l-1.931,-0.783c1.633,-4.026 4.788,-6.825 8.844,-8.408c5.876,-2.295 13.689,-2.009 21.344,0.817c5.6,2.066 11.107,4.036 16.458,6.363c33.31,14.503 53.809,36.377 63.879,56.88c4.747,9.66 6.952,18.458 7.71,23.576c3.778,25.542 -1.029,46.88 -9.419,71.771c-6.31,18.723 -15.149,34.695 -27.457,55.134Z" style="fill:#181514;"/>
    <path d="M89.443,238.703l-1.773,-1.094c12.92,-20.939 22.544,-37.477 29.604,-55.911c9.426,-24.599 15.184,-46.196 12.916,-73.213c-0.419,-4.967 -2.195,-14.073 -6.673,-24.217c-9.221,-20.887 -29.066,-44.172 -64.645,-57.278c-5.629,-2.074 -11.505,-3.758 -17.628,-5.431c-12.592,-3.443 -26.627,0.459 -31.224,11.784l-1.93,-0.784c4.976,-12.259 20.072,-16.736 33.703,-13.01c6.182,1.689 12.115,3.392 17.799,5.487c36.249,13.352 56.436,37.11 65.831,58.39c4.6,10.422 6.413,19.782 6.843,24.884c2.296,27.354 -3.503,49.227 -13.047,74.133c-7.102,18.547 -16.776,35.192 -29.776,56.26Z" style="fill:#181514;"/>
    <path d="M89.412,238.712l-1.762,-1.112c13.628,-21.589 24.09,-38.811 31.946,-57.101c10.58,-24.624 17.151,-46.818 16.499,-75.621c-0.112,-4.96 -1.518,-14.593 -5.832,-25.472c-8.57,-21.616 -28.058,-46.778 -66.453,-58.672c-5.94,-1.842 -12.235,-3.274 -18.911,-4.548c-13.473,-2.569 -29.332,3.423 -34.905,17.157l-1.93,-0.783c5.951,-14.666 22.837,-21.164 37.226,-18.421c6.755,1.29 13.126,2.741 19.137,4.605c39.174,12.135 59.029,37.839 67.773,59.895c4.435,11.184 5.862,21.092 5.977,26.192c0.66,29.132 -5.966,51.585 -16.667,76.491c-7.895,18.381 -18.402,35.694 -32.098,57.39Z" style="fill:#181514;"/>
    <path d="M89.381,238.72l-1.751,-1.128c14.331,-22.238 25.646,-40.137 34.29,-58.285c11.743,-24.648 18.98,-47.506 20.084,-78.037c0.182,-4.967 -0.858,-15.111 -4.988,-26.723c-7.954,-22.356 -27.071,-49.442 -68.27,-60.078c-6.261,-1.615 -12.977,-2.804 -20.202,-3.664c-14.374,-1.704 -32.02,6.391 -38.575,22.538l-1.93,-0.784c6.926,-17.06 25.564,-25.623 40.75,-23.823c7.324,0.872 14.131,2.078 20.478,3.716c42.084,10.864 61.587,38.56 69.712,61.397c4.249,11.947 5.294,22.387 5.107,27.497c-1.116,30.85 -8.419,53.95 -20.285,78.857c-8.678,18.219 -20.032,36.192 -34.42,58.517Z" style="fill:#181514;"/>
</svg>
