<?xml version="1.0" encoding="UTF-8" standalone="no"?>
<!DOCTYPE svg PUBLIC "-//W3C//DTD SVG 1.1//EN" "http://www.w3.org/Graphics/SVG/1.1/DTD/svg11.dtd">
<svg width="211px" height="214px" viewBox="0 0 211 214" version="1.1" xmlns="http://www.w3.org/2000/svg" xmlns:xlink="http://www.w3.org/1999/xlink" xml:space="preserve" xmlns:serif="http://www.serif.com/" style="fill-rule:evenodd;clip-rule:evenodd;stroke-linejoin:round;stroke-miterlimit:2;">
    <path d="M199.406,209.141c3.622,-49.594 -39.584,-90.703 -51.379,-98.04c-32.159,-20.002 -141.962,17.893 -143.841,-48.633c-1.588,-56.218 94.685,-75.442 142.926,-41.586c59.179,41.533 67.499,102.053 52.294,188.259Z" style="fill:#fff;"/>
    <path d="M195.251,208.837c3.48,-47.663 -38.089,-87.147 -49.425,-94.198c-7.234,-4.499 -18.701,-5.662 -31.916,-6.013c-21.309,-0.567 -46.94,1.309 -68.172,-1.942c-15.146,-2.319 -28.103,-7.297 -36.297,-16.94c-5.604,-6.597 -9.087,-15.383 -9.42,-27.158c-0.683,-24.204 15.211,-42.238 38.184,-52.592c33.243,-14.983 81.245,-13.616 111.301,7.478c60.524,42.476 69.554,104.227 54.004,192.392c-0.386,2.185 -2.416,3.685 -4.618,3.411c-2.202,-0.274 -3.803,-2.225 -3.641,-4.438Zm4.62,-31.78c7.493,-67.867 -4.776,-117.41 -55.152,-152.764c-27.834,-19.535 -72.304,-20.577 -103.09,-6.702c-19.715,8.886 -33.865,23.988 -33.278,44.759c0.869,30.744 27.273,36.477 56.577,37.718c19.048,0.807 39.46,-0.48 56.22,0.522c11.976,0.716 22.176,2.68 29.079,6.973c9.565,5.949 38.978,33.284 49.644,69.494Z" style="fill:#262626;"/>
    <path d="M203.204,182.95l-6.134,1.2c-7.592,-38.806 -35.927,-68.996 -46.797,-77.12c-6.379,-4.769 -16.005,-6.962 -27.174,-8.416c-3.2,-0.414 -6.537,-0.775 -9.983,-1.068c-14.766,-1.256 -31.661,-1.066 -47.711,-1.628c-12.784,-0.453 -25.074,-1.391 -35.245,-4.067c-16.245,-4.212 -27.246,-12.699 -27.717,-29.416l6.247,-0.176c0.385,13.626 9.803,20.111 23.051,23.545l0.006,0.002c9.775,2.573 21.591,3.431 33.878,3.865c16.154,0.566 33.158,0.383 48.02,1.647c3.541,0.301 6.97,0.672 10.259,1.098c12.409,1.615 23.024,4.309 30.111,9.608c11.412,8.529 41.219,40.187 49.189,80.926Z" style="fill:#262626;"/>
    <path d="M203.234,183.059l-6.175,0.968c-6.242,-39.816 -31.959,-71.125 -43.92,-81.412c-6.314,-5.428 -15.936,-8.226 -27.03,-10.451c-3.219,-0.647 -6.578,-1.257 -10.056,-1.784c-14.858,-2.268 -32.185,-2.612 -48.722,-3.073l-0.002,-0.001c-13.024,-0.378 -25.579,-0.911 -36.008,-2.662c-8.145,-1.37 -15.031,-3.487 -19.946,-6.73c-5.501,-3.63 -8.728,-8.619 -8.923,-15.485l6.248,-0.178c0.132,4.651 2.391,7.987 6.117,10.446c4.312,2.845 10.394,4.581 17.54,5.783c10.18,1.71 22.438,2.21 35.152,2.579c16.795,0.469 34.392,0.839 49.484,3.142c3.578,0.543 7.033,1.169 10.347,1.835c12.301,2.468 22.872,5.821 29.874,11.84c12.519,10.767 39.486,43.509 46.02,85.183Z" style="fill:#262626;"/>
    <path d="M203.258,183.164l-6.206,0.743c-4.89,-40.812 -28.004,-73.169 -41.011,-85.693c-6.287,-6.049 -15.881,-9.525 -26.913,-12.515c-3.238,-0.877 -6.616,-1.731 -10.13,-2.497c-14.951,-3.273 -32.715,-4.142 -49.746,-4.51c-13.263,-0.298 -26.102,-0.415 -36.779,-1.281c-10.062,-0.82 -18.28,-2.323 -23.314,-5.107c-4.28,-2.368 -6.576,-5.637 -6.698,-9.881l6.248,-0.179c0.079,2.755 2.367,4.326 5.715,5.62c4.559,1.763 10.991,2.701 18.556,3.318c10.57,0.857 23.28,0.966 36.411,1.262c17.441,0.377 35.63,1.3 50.943,4.652c3.617,0.788 7.094,1.667 10.429,2.57c12.181,3.303 22.669,7.366 29.612,14.045c13.582,13.077 37.777,46.836 42.883,89.453Z" style="fill:#262626;"/>
    <path d="M203.279,183.265l-6.228,0.527c-3.534,-41.802 -24.076,-75.148 -38.086,-89.963c-6.285,-6.652 -15.829,-10.856 -26.812,-14.605c-3.255,-1.112 -6.651,-2.21 -10.193,-3.212c-15.058,-4.268 -33.257,-5.659 -50.787,-5.929l-0.002,0c-13.505,-0.226 -26.628,0.069 -37.556,0.067c-11.969,-0.002 -21.424,-0.356 -26.066,-2.01c-3.516,-1.253 -5.013,-3.401 -5.078,-5.726l6.247,-0.176c-0.005,-0.195 -0.184,-0.533 -0.184,-0.533c0,-0 0.358,0.236 0.617,0.351c0.616,0.274 1.385,0.493 2.286,0.685c4.771,1.02 12.617,1.158 22.179,1.159c10.958,0.002 24.116,-0.293 37.659,-0.066c18.083,0.279 36.853,1.761 52.389,6.164c3.651,1.033 7.152,2.165 10.509,3.312c12.059,4.116 22.433,8.922 29.334,16.226c14.601,15.441 36.089,50.162 39.772,93.729Z" style="fill:#262626;"/>
    <path d="M203.295,183.363l-6.242,0.317c-2.174,-42.786 -20.182,-77.073 -35.138,-94.222c-6.318,-7.245 -15.784,-12.215 -26.72,-16.719c-3.273,-1.347 -6.688,-2.684 -10.264,-3.923c-15.16,-5.259 -33.811,-7.167 -51.836,-7.344l-0.002,-0c-13.759,-0.156 -27.171,0.554 -38.353,1.403c-15.472,1.177 -26.802,2.761 -28.925,2.663l-1.438,-0.315l-0.896,-0.595l-0.666,-0.892l-0.335,-1.323l6.247,-0.189c-0.023,-0.769 -0.289,-1.515 -0.97,-2.154c-0.207,-0.194 -1.654,-0.775 -1.654,-0.775c-0,-0 13.096,-1.506 28.164,-2.652c11.339,-0.861 24.941,-1.578 38.894,-1.421c18.716,0.184 38.074,2.228 53.818,7.689c3.691,1.279 7.217,2.658 10.595,4.048c11.93,4.914 22.16,10.488 29.051,18.391c15.564,17.846 34.407,53.488 36.67,98.013Z" style="fill:#262626;"/>
    <path d="M203.307,183.456l-6.248,0.116c-0.812,-43.771 -16.324,-78.961 -32.183,-98.48c-6.361,-7.829 -15.734,-13.583 -26.631,-18.841c-3.289,-1.589 -6.718,-3.165 -10.328,-4.636l-0.003,-0.001c-15.271,-6.249 -34.373,-8.674 -52.899,-8.757l-0.002,0c-14.018,-0.076 -27.72,1.037 -39.165,2.728c-10.207,1.507 -18.606,3.528 -23.669,5.573c-1.794,0.725 -3.683,2.01 -3.683,2.01c-0,0 0.249,-0.655 0.24,-0.944l-6.247,0.176l0.238,-1.55l0.441,-0.945l0.548,-0.764c0.694,-0.824 1.866,-1.735 3.538,-2.603c4.877,-2.532 14.951,-5.256 27.68,-7.136c11.722,-1.732 25.756,-2.873 40.113,-2.795c19.348,0.087 39.285,2.696 55.23,9.221c3.733,1.521 7.282,3.15 10.686,4.795c11.803,5.696 21.873,12.047 28.764,20.528c16.482,20.285 32.737,56.815 33.58,102.305Z" style="fill:#262626;"/>
    <path d="M203.317,183.546l-6.249,-0.077c0.551,-44.749 -12.502,-80.822 -29.219,-102.735c-6.421,-8.416 -15.676,-14.969 -26.537,-20.981c-3.305,-1.829 -6.754,-3.637 -10.399,-5.344l-0.001,-0c-15.39,-7.234 -34.943,-10.174 -53.977,-10.164l-0.001,0c-14.285,-0.007 -28.287,1.514 -39.994,4.035c-10.364,2.232 -18.919,5.274 -24.048,8.792c-1.446,0.992 -2.593,2 -3.35,3.056c-0.496,0.691 -0.816,1.375 -0.796,2.09l-6.248,0.174c-0.099,-3.543 2.166,-7.255 6.858,-10.474c5.613,-3.85 14.927,-7.305 26.268,-9.748c12.093,-2.604 26.556,-4.182 41.312,-4.175c19.976,-0.011 40.481,3.165 56.63,10.755c3.774,1.768 7.348,3.64 10.773,5.535c11.684,6.468 21.572,13.605 28.479,22.659c17.355,22.747 31.071,60.148 30.499,106.602Z" style="fill:#262626;"/>
    <path d="M203.324,183.631l-6.245,-0.261c1.916,-45.724 -8.712,-82.654 -26.247,-106.982c-6.49,-9.003 -15.612,-16.373 -26.445,-23.134l-0.002,-0.001c-3.314,-2.074 -6.789,-4.113 -10.46,-6.055c-15.514,-8.216 -35.53,-11.666 -55.076,-11.565c-14.551,0.065 -28.859,1.991 -40.839,5.336c-10.601,2.96 -19.381,7.041 -24.618,12.027c-2.956,2.814 -4.731,5.872 -4.637,9.214l-6.248,0.176c-0.14,-4.987 2.164,-9.717 6.576,-13.917c5.813,-5.535 15.478,-10.234 27.246,-13.519c12.465,-3.481 27.35,-5.499 42.49,-5.567c20.601,-0.106 41.678,3.632 58.03,12.292c3.807,2.013 7.413,4.128 10.848,6.278c11.575,7.223 21.269,15.16 28.205,24.78c18.186,25.23 29.409,63.48 27.422,110.898Z" style="fill:#262626;"/>
    <path d="M203.328,183.712l-6.235,-0.438c3.283,-46.697 -4.948,-84.474 -23.276,-111.228c-6.564,-9.589 -15.537,-17.783 -26.338,-25.295c-3.328,-2.316 -6.828,-4.584 -10.533,-6.762c-15.638,-9.2 -36.118,-13.162 -56.178,-12.968c-14.828,0.137 -29.439,2.491 -41.708,6.628c-9.126,3.119 -16.953,7.253 -22.432,12.318c-5.035,4.656 -8.037,10.082 -7.864,16.236l-6.247,0.176c-0.224,-7.915 3.391,-15.012 9.868,-21.001c6.033,-5.578 14.609,-10.21 24.666,-13.647l0.005,-0.002c12.841,-4.331 28.133,-6.815 43.653,-6.958c21.222,-0.205 42.861,4.098 59.405,13.83c3.846,2.261 7.479,4.615 10.935,7.02c11.467,7.975 20.956,16.713 27.925,26.894c18.99,27.72 27.755,66.813 24.354,115.197Z" style="fill:#262626;"/>
    <path d="M203.33,183.789l-6.22,-0.606c4.65,-47.676 -1.216,-86.277 -20.298,-115.476c-6.648,-10.171 -15.452,-19.194 -26.225,-27.455c-3.345,-2.562 -6.871,-5.062 -10.609,-7.473c-15.769,-10.179 -36.715,-14.66 -57.292,-14.37c-15.113,0.204 -30.037,2.957 -42.591,7.92c-18.363,7.303 -31.785,19.375 -31.322,35.867l-6.247,0.175c-0.533,-18.953 14.158,-33.458 35.265,-41.852l0.003,-0.001c13.208,-5.222 28.905,-8.143 44.806,-8.358c21.835,-0.308 44.033,4.565 60.767,15.368c3.883,2.504 7.547,5.101 11.022,7.763c11.369,8.719 20.638,18.262 27.654,28.997c19.756,30.229 26.101,70.143 21.287,119.501Z" style="fill:#262626;"/>
</svg>
