<?xml version="1.0" encoding="UTF-8" standalone="no"?>
<!DOCTYPE svg PUBLIC "-//W3C//DTD SVG 1.1//EN" "http://www.w3.org/Graphics/SVG/1.1/DTD/svg11.dtd">
<svg width="191px" height="236px" viewBox="0 0 191 236" version="1.1" xmlns="http://www.w3.org/2000/svg" xmlns:xlink="http://www.w3.org/1999/xlink" xml:space="preserve" xmlns:serif="http://www.serif.com/" style="fill-rule:evenodd;clip-rule:evenodd;stroke-linejoin:round;stroke-miterlimit:2;">
    <path d="M184.838,231.743c1.488,-85.926 6.543,-124.672 -22.348,-182.336c-7.336,-14.641 -55.139,-72.825 -134.64,-29.234c-24.338,13.345 -41.793,61.468 9.506,90.743c42.232,24.101 90.215,-6.29 125.808,48.449c15.728,24.19 15.391,34.165 19.576,71.171" style="fill:#fff;"/>
    <path d="M181.803,234.597c-1.672,-0.386 -3,-1.79 -3.203,-3.592c-4.077,-36.049 -3.608,-45.805 -18.929,-69.368c-20.388,-31.355 -45.144,-33.231 -70.307,-34.862c-18.185,-1.179 -36.591,-2.263 -54.073,-12.24c-21.916,-12.506 -31.911,-28.37 -34.557,-43.653c-4.044,-23.353 9.225,-45.651 25.113,-54.362c82.95,-45.482 132.714,15.744 140.368,31.021c29.203,58.285 24.293,97.423 22.789,184.275c-0.04,2.299 -1.939,4.133 -4.238,4.093c-1.17,-0.02 -2.219,-0.521 -2.963,-1.312Zm-0.202,-44.253c1.324,-57.921 0.656,-92.181 -22.836,-139.07c-7.018,-14.006 -52.859,-69.147 -128.912,-27.447c-13.317,7.302 -24.298,26.058 -20.908,45.633c2.309,13.336 11.352,26.924 30.476,37.837c20.576,11.742 42.591,10.01 63.759,12.21c22.835,2.373 44.77,8.817 63.477,37.587c8.502,13.075 12.467,22.092 14.944,33.25Z" style="fill:#262626;"/>
    <path d="M185.914,200.101l-6.203,0.766c-2.092,-16.931 -5.155,-27.737 -14.975,-44.376c-11.989,-20.321 -25.395,-30.918 -40.699,-36.608c-5.708,-2.12 -11.965,-3.639 -18.562,-4.81c-21.424,-3.801 -45.012,-2.77 -67.8,-12.908c-4.936,-2.195 -9.342,-4.554 -13.187,-7.06c-12.825,-8.362 -19.241,-17.657 -20.727,-26.235l6.158,-1.067c1.266,7.303 7.064,14.947 17.982,22.066c3.59,2.34 7.705,4.536 12.314,6.585c22.291,9.917 45.396,8.747 66.352,12.465c6.985,1.24 13.605,2.861 19.647,5.106c16.472,6.124 31.001,17.419 43.905,39.29c10.353,17.544 13.59,28.935 15.795,46.786Z" style="fill:#262626;"/>
    <path d="M185.899,200.176l-6.217,0.644c-1.848,-17.862 -4.621,-29.669 -13.668,-46.652c-11.161,-20.952 -23.55,-33.25 -39.073,-40.518c-5.297,-2.476 -11.577,-4.585 -18.479,-6.293c-20.942,-5.179 -45.298,-4.869 -69.675,-12.993c-5.086,-1.697 -9.713,-3.515 -13.797,-5.545c-7.739,-3.839 -13.273,-7.802 -16.697,-11.557c-2.638,-2.893 -4.098,-5.743 -4.554,-8.379l6.158,-1.066c0.289,1.67 1.344,3.402 3.014,5.233c3.036,3.33 7.996,6.767 14.859,10.172c3.846,1.911 8.206,3.615 12.994,5.214c24.207,8.066 48.402,7.711 69.199,12.854c7.332,1.814 13.999,4.068 19.627,6.699c16.612,7.778 29.996,20.818 41.941,43.241c9.492,17.821 12.429,30.203 14.368,48.946Z" style="fill:#262626;"/>
    <path d="M185.883,200.246l-6.227,0.53c-1.601,-18.798 -4.082,-31.611 -12.356,-48.93c-10.32,-21.598 -21.657,-35.48 -37.436,-44.44c-4.896,-2.783 -11.184,-5.504 -18.4,-7.771c-20.48,-6.441 -45.522,-7.027 -71.569,-13.105c-5.207,-1.213 -10.027,-2.488 -14.376,-4.032c-9.127,-3.24 -15.403,-6.332 -18.542,-8.876c-2.062,-1.671 -3.023,-3.358 -3.259,-4.725l6.158,-1.067c-0.01,-0.055 -0.048,-0.173 -0.048,-0.173c0,0 1.153,1.232 2.302,1.994c3.143,2.083 8.377,4.436 15.48,6.957c4.145,1.472 8.742,2.679 13.705,3.836c26.215,6.116 51.411,6.746 72.024,13.229c7.693,2.417 14.392,5.332 19.612,8.299c16.794,9.537 29.004,24.191 39.989,47.179c8.641,18.089 11.271,31.462 12.943,51.095Z" style="fill:#262626;"/>
    <path d="M185.865,200.311l-6.235,0.428c-1.355,-19.736 -3.534,-33.565 -11.045,-51.219c-9.462,-22.249 -19.753,-37.594 -35.781,-48.372c-4.508,-3.029 -10.795,-6.39 -18.319,-9.244c-20.049,-7.607 -45.722,-9.262 -73.49,-13.233c-5.309,-0.756 -10.304,-1.489 -14.937,-2.535c-11.452,-2.583 -18.725,-4.207 -20.098,-4.696l-0.648,-0.285l-0.657,-0.475l-0.59,-0.745l-0.373,-1.046l6.166,-1.025c-0.063,-0.377 -0.199,-0.789 -0.476,-1.206c-0.116,-0.176 -1.327,-1.106 -1.327,-1.106c-0,-0 8.341,1.998 19.378,4.488c4.48,1.011 9.311,1.713 14.445,2.444c28.278,4.044 54.406,5.83 74.824,13.576c8.047,3.053 14.766,6.661 19.589,9.901c16.973,11.413 28.025,27.551 38.046,51.113c7.808,18.353 10.12,32.719 11.528,53.237Z" style="fill:#262626;"/>
    <path d="M185.846,200.371l-6.241,0.335c-1.108,-20.677 -2.981,-35.533 -9.723,-53.513c-8.588,-22.905 -17.893,-39.6 -34.12,-52.309c-4.141,-3.243 -10.419,-7.253 -18.247,-10.717c-19.657,-8.695 -45.919,-11.584 -75.438,-13.38c-5.4,-0.328 -10.559,-0.535 -15.475,-1.055c-5.801,-0.617 -10.587,-0.772 -13.954,-0.51c-1.678,0.131 -3.555,0.656 -3.555,0.656c-0,-0 0.468,-0.493 0.576,-0.735c0.181,-0.405 0.242,-0.833 0.163,-1.286l-6.158,1.067l-0.039,-1.107l0.272,-1.091l0.509,-0.909l0.617,-0.678c0.99,-0.894 3.23,-1.796 6.658,-2.108c3.667,-0.334 9.023,-0.21 15.57,0.486c4.827,0.511 9.893,0.709 15.196,1.032c30.369,1.847 57.363,4.957 77.587,13.902c8.399,3.717 15.129,8.033 19.572,11.513c17.104,13.396 27.066,30.892 36.118,55.035c6.977,18.608 8.966,33.974 10.112,55.372Z" style="fill:#262626;"/>
    <path d="M185.827,200.428l-6.245,0.247c-0.854,-21.617 -2.415,-37.507 -8.399,-55.812c-7.702,-23.558 -16.095,-41.495 -32.448,-56.254c-3.794,-3.427 -10.051,-8.091 -18.172,-12.179c-19.31,-9.727 -46.148,-13.992 -77.42,-13.547c-5.492,0.078 -10.804,0.375 -16.012,0.399c-6.902,0.03 -12.49,1.014 -15.674,2.845c-0.574,0.331 -1.05,0.677 -1.382,1.073c-0.174,0.208 -0.308,0.419 -0.264,0.67l-6.158,1.068c-0.54,-3.115 0.945,-6.075 4.688,-8.228c3.82,-2.198 10.478,-3.642 18.762,-3.678c5.188,-0.024 10.479,-0.321 15.951,-0.398c32.455,-0.463 60.28,4.119 80.32,14.214c8.741,4.4 15.466,9.434 19.549,13.122c17.162,15.489 26.117,34.227 34.2,58.951c6.167,18.864 7.824,35.23 8.704,57.507Z" style="fill:#262626;"/>
    <path d="M185.807,200.482l-6.248,0.167c-0.605,-22.562 -1.842,-39.485 -7.068,-58.113c-6.796,-24.219 -14.394,-43.294 -30.761,-60.205c-3.478,-3.588 -9.706,-8.905 -18.105,-13.642c-19.003,-10.716 -46.421,-16.485 -79.437,-13.729c-5.59,0.471 -11.059,1.242 -16.553,1.839c-5.769,0.625 -10.742,2.22 -14.107,4.558c-2.572,1.787 -4.183,3.959 -3.739,6.527l-6.158,1.066c-0.69,-3.984 0.734,-7.694 3.935,-10.775c3.959,-3.81 10.932,-6.672 19.395,-7.589c5.542,-0.603 11.062,-1.379 16.706,-1.855c34.519,-2.881 63.159,3.31 83.028,14.514c9.063,5.111 15.772,10.866 19.525,14.738c17.109,17.677 25.184,37.548 32.289,62.864c5.363,19.118 6.677,36.48 7.298,59.635Z" style="fill:#262626;"/>
    <path d="M185.786,200.531l-6.249,0.095c-0.355,-23.508 -1.257,-41.473 -5.733,-60.42c-5.876,-24.876 -12.81,-45.008 -29.071,-64.161c-3.176,-3.739 -9.373,-9.7 -18.036,-15.095c-18.737,-11.675 -46.747,-19.046 -81.482,-13.923c-5.695,0.842 -11.333,2.068 -17.1,3.258c-5.791,1.195 -10.886,3.677 -14.315,7.03c-3.03,2.963 -4.721,6.612 -4.032,10.582l-6.159,1.067c-0.842,-4.858 0.488,-9.455 3.445,-13.414c4.036,-5.404 11.253,-9.623 19.798,-11.386c5.884,-1.214 11.639,-2.46 17.45,-3.32c36.545,-5.39 65.987,2.518 85.699,14.801c9.374,5.837 16.06,12.309 19.496,16.354c16.935,19.948 24.27,40.863 30.39,66.77c4.576,19.369 5.537,37.731 5.899,61.762Z" style="fill:#262626;"/>
    <path d="M185.764,200.579l-6.249,0.026c-0.103,-24.453 -0.664,-43.462 -4.394,-62.722c-4.942,-25.54 -11.363,-46.661 -27.369,-68.123c-2.899,-3.885 -9.058,-10.479 -17.97,-16.552c-18.515,-12.612 -47.129,-21.663 -83.559,-14.121c-5.818,1.203 -11.638,2.866 -17.661,4.665c-11.477,3.427 -20.73,13.109 -18.816,24.159l-6.158,1.066c-2.43,-14.031 8.612,-26.862 23.186,-31.213c6.199,-1.853 12.193,-3.559 18.182,-4.798c38.527,-7.975 68.764,1.739 88.345,15.077c9.665,6.585 16.316,13.767 19.461,17.98c16.613,22.276 23.365,44.163 28.495,70.672c3.8,19.617 4.403,38.977 4.507,63.884Z" style="fill:#262626;"/>
    <path d="M185.743,200.625l-6.25,-0.038c0.153,-25.402 -0.062,-45.452 -3.049,-65.031c-3.992,-26.192 -10.059,-48.256 -25.66,-72.084c-2.641,-4.034 -8.763,-11.246 -17.911,-18.003c-18.324,-13.537 -47.57,-24.325 -85.66,-14.329c-5.944,1.558 -11.971,3.648 -18.234,6.066c-11.927,4.608 -21.614,17.106 -19.255,30.718l-6.158,1.067c-2.875,-16.586 8.629,-32.001 23.161,-37.615c6.492,-2.507 12.74,-4.667 18.9,-6.282c40.456,-10.617 71.497,0.97 90.959,15.348c9.943,7.344 16.557,15.222 19.427,19.607c16.142,24.655 22.479,47.464 26.61,74.565c3.031,19.874 3.275,40.225 3.12,66.011Z" style="fill:#262626;"/>
    <path d="M185.721,200.667l-6.249,-0.096c0.406,-26.348 0.552,-47.44 -1.697,-67.336c-3.031,-26.846 -8.902,-49.834 -23.947,-76.055c-2.4,-4.188 -8.484,-11.999 -17.851,-19.451c-18.172,-14.454 -48.069,-27.024 -87.791,-14.544c-6.084,1.913 -12.326,4.422 -18.824,7.47c-12.36,5.804 -22.464,21.083 -19.659,37.283l-6.159,1.066c-3.309,-19.114 8.579,-37.158 23.163,-44.007c6.766,-3.174 13.269,-5.782 19.606,-7.774c42.337,-13.303 74.185,0.209 93.554,15.615c10.201,8.115 16.769,16.673 19.383,21.234c15.523,27.053 21.608,50.762 24.736,78.461c2.275,20.132 2.146,41.473 1.735,68.134Z" style="fill:#262626;"/>
</svg>
