<?xml version="1.0" encoding="UTF-8" standalone="no"?>
<!DOCTYPE svg PUBLIC "-//W3C//DTD SVG 1.1//EN" "http://www.w3.org/Graphics/SVG/1.1/DTD/svg11.dtd">
<svg width="191px" height="299px" viewBox="0 0 191 299" version="1.1" xmlns="http://www.w3.org/2000/svg" xmlns:xlink="http://www.w3.org/1999/xlink" xml:space="preserve" xmlns:serif="http://www.serif.com/" style="fill-rule:evenodd;clip-rule:evenodd;stroke-linejoin:round;stroke-miterlimit:2;">
    <path d="M96.074,295.398c21.892,-81.957 -11.47,-127.966 -18.035,-135.196c-54.871,-60.43 -101.368,-101.959 -57.55,-142.591c45.156,-41.872 204.744,8.036 159.292,132.059c-18.706,51.042 -43.289,72.553 -71.534,126.444c-0.688,1.313 -3.018,4.781 -12.173,19.284Z" style="fill:#fff;"/>
    <path d="M93.055,294.592c21.414,-80.17 -10.908,-125.217 -17.329,-132.289c-27.621,-30.419 -53.097,-56.113 -66.191,-79.283c-6.856,-12.133 -10.365,-23.639 -9.368,-34.764c1.005,-11.219 6.55,-22.136 18.198,-32.936c18.704,-17.345 56.335,-19.893 91.787,-7.994c31.656,10.625 61.461,32.612 74.246,64.95c8.538,21.595 9.544,47.836 -1.682,78.469c-18.759,51.186 -43.377,72.777 -71.701,126.82c-0.695,1.327 -3.043,4.839 -12.298,19.501c-0.825,1.306 -2.479,1.814 -3.894,1.196c-1.415,-0.619 -2.166,-2.178 -1.768,-3.67Zm10.054,-16.092c1.429,-2.24 2.065,-3.253 2.37,-3.836c28.166,-53.74 52.715,-75.171 71.368,-126.069c10.591,-28.898 9.793,-53.65 1.739,-74.021c-12.102,-30.612 -40.457,-51.265 -70.423,-61.323c-33.017,-11.082 -68.129,-9.502 -85.549,6.652c-10.261,9.515 -15.336,19.027 -16.222,28.911c-0.894,9.978 2.435,20.249 8.584,31.131c12.918,22.859 38.127,48.145 65.377,78.156c6.22,6.85 36.248,47.73 22.756,120.399Z" style="fill:#262626;"/>
    <path d="M98.66,289.581l-2.002,-0.578c11.944,-41.415 18.395,-96.137 -23.421,-141.656c-26.619,-28.976 -50.531,-54.595 -60.5,-77.632c-6.779,-15.664 -7.177,-30.164 2.117,-43.75l1.72,1.176c-8.868,12.963 -8.393,26.801 -1.925,41.746c9.899,22.876 33.691,48.278 60.122,77.051c42.409,46.164 36.003,101.639 23.889,143.643Z" style="fill:#181514;"/>
    <path d="M14.836,25.994l1.758,1.117c-6.75,10.627 -4.083,23.004 3.969,37.133c12.398,21.758 37.556,47.521 62.411,77.212c40.202,48.025 27.993,106.114 15.686,148.129l-2,-0.586c12.146,-41.463 24.391,-98.811 -15.283,-146.205c-24.949,-29.803 -50.179,-55.679 -62.624,-77.518c-8.511,-14.936 -11.053,-28.048 -3.917,-39.282Z" style="fill:#181514;"/>
    <path d="M14.806,26.044l1.818,1.018c-2.268,4.051 -2.227,8.752 -0.495,14.063c1.807,5.541 5.44,11.714 10.334,18.493c14.904,20.643 41.431,46.769 64.708,77.354c37.987,49.913 19.988,110.592 7.488,152.617l-1.997,-0.594c12.347,-41.511 30.373,-101.459 -7.149,-150.761c-23.288,-30.601 -49.828,-56.743 -64.739,-77.396c-5.043,-6.985 -8.764,-13.358 -10.626,-19.068c-1.937,-5.94 -1.879,-11.194 0.658,-15.726Z" style="fill:#181514;"/>
    <path d="M14.757,26.144l1.916,0.818c-0.712,1.667 -0.613,3.627 0.095,5.869c1.164,3.686 3.95,8.053 7.883,13.07c15.678,19.997 49.411,49.909 74.719,86.589c17.932,25.991 20.925,54.84 17.819,82.466c-3.087,27.454 -12.204,53.689 -18.532,74.637l-1.994,-0.602c6.297,-20.846 15.384,-46.949 18.455,-74.268c3.053,-27.148 0.159,-55.508 -17.463,-81.05c-25.279,-36.639 -58.983,-66.511 -74.643,-86.487c-4.125,-5.261 -7.01,-9.863 -8.231,-13.728c-0.882,-2.793 -0.911,-5.237 -0.024,-7.314Z" style="fill:#181514;"/>
    <path d="M14.683,26.413l2.064,0.28c-0.058,0.43 0.073,0.931 0.32,1.512c0.31,0.73 0.808,1.55 1.467,2.463c2.113,2.926 5.827,6.716 10.639,11.303c18.987,18.098 54.901,48.348 78.39,86.041c16.812,26.974 17.805,56.952 12.945,85.465c-4.827,28.316 -15.428,55.174 -21.852,76.12l-1.992,-0.611c6.403,-20.875 16.98,-47.639 21.79,-75.859c4.777,-28.025 3.866,-57.5 -12.659,-84.013c-23.383,-37.523 -59.157,-67.618 -78.06,-85.635c-5.775,-5.505 -9.992,-9.915 -11.872,-13.075c-0.949,-1.595 -1.322,-2.943 -1.18,-3.991Z" style="fill:#181514;"/>
    <path d="M14.994,27.305l1.442,-1.504c4.04,3.876 68.399,42.558 99.322,97.731c15.675,27.969 14.665,59.075 8.055,88.469c-6.562,29.178 -18.639,56.653 -25.158,77.6l-1.989,-0.619c6.505,-20.904 18.566,-48.32 25.114,-77.438c6.5,-28.901 7.573,-59.494 -7.839,-86.993c-30.789,-54.933 -94.925,-93.388 -98.947,-97.246Z" style="fill:#181514;"/>
    <path d="M15.932,27.572l-0.434,-2.038c0.947,-0.201 2.446,-0.075 4.406,0.443c4.128,1.091 10.546,3.895 18.29,8.216c25.608,14.288 65.872,45.207 85.753,84.86c14.526,28.971 11.516,61.205 3.161,91.476c-8.292,30.038 -21.839,58.126 -28.455,79.077l-1.986,-0.628c6.61,-20.931 20.148,-48.993 28.432,-79.003c8.22,-29.778 11.275,-61.489 -3.014,-89.989c-19.679,-39.249 -59.558,-69.831 -84.906,-83.974c-6.48,-3.615 -12.003,-6.153 -15.988,-7.474c-2.438,-0.809 -4.238,-1.184 -5.259,-0.966Z" style="fill:#181514;"/>
    <path d="M16.206,27.472l-0.982,-1.838c1.905,-1.017 4.742,-1.361 8.316,-0.985c5.051,0.532 11.657,2.476 19.162,5.689c28.913,12.377 71.337,43.631 89.436,84.235c13.36,29.98 8.349,63.339 -1.747,94.484c-10.017,30.897 -25.025,59.598 -31.739,80.553l-1.984,-0.636c6.714,-20.956 21.724,-49.659 31.741,-80.56c9.937,-30.653 14.976,-63.485 1.826,-92.993c-17.875,-40.102 -59.798,-70.944 -88.353,-83.168c-7.272,-3.113 -13.666,-5.017 -18.56,-5.532c-3.054,-0.321 -5.488,-0.119 -7.116,0.751Z" style="fill:#181514;"/>
    <path d="M16.303,27.413l-1.176,-1.72c2.545,-1.74 6,-2.709 10.166,-2.912c6.016,-0.293 13.558,1.002 21.923,3.719c32.212,10.464 76.778,42.054 93.106,83.599c12.18,30.989 5.168,65.474 -6.663,97.488c-11.737,31.758 -28.199,61.068 -35.008,82.027l-1.982,-0.644c6.816,-20.978 23.288,-50.318 35.036,-82.105c11.652,-31.53 18.674,-65.484 6.678,-96.004c-16.096,-40.955 -60.056,-72.064 -91.811,-82.38c-8.082,-2.625 -15.365,-3.902 -21.178,-3.619c-3.72,0.182 -6.819,0.997 -9.091,2.551Z" style="fill:#181514;"/>
    <path d="M16.351,27.378l-1.272,-1.65c7.814,-6.022 21.182,-6.776 36.654,-3.052c35.504,8.546 82.201,40.47 96.776,82.944c10.981,32.005 1.968,67.612 -11.593,100.495c-13.452,32.618 -31.359,62.537 -38.267,83.503l-1.978,-0.652c6.919,-21 24.845,-50.974 38.319,-83.645c13.365,-32.407 22.37,-67.484 11.548,-99.025c-14.346,-41.806 -60.347,-73.183 -95.293,-81.595c-14.721,-3.543 -27.459,-3.053 -34.894,2.677Z" style="fill:#181514;"/>
    <path d="M16.379,27.355l-1.328,-1.605c12.52,-10.358 34.846,-10.391 58.32,-2.524c34.901,11.695 72.317,40.72 83.318,77.914c9.768,33.022 -1.244,69.751 -16.529,103.501c-15.162,33.478 -34.506,64.007 -41.512,84.981l-1.976,-0.66c7.022,-21.021 26.394,-51.627 41.59,-85.181c15.074,-33.283 26.062,-69.484 16.429,-102.05c-10.816,-36.568 -47.669,-65.031 -81.982,-76.53c-22.669,-7.596 -44.239,-7.849 -56.33,2.154Z" style="fill:#181514;"/>
    <path d="M16.398,27.34l-1.365,-1.574c14.666,-12.721 39.1,-14.137 64.178,-7.047c37.38,10.568 76.129,39.957 85.66,77.946c8.537,34.035 -4.477,71.884 -21.48,106.499c-16.869,34.34 -37.642,65.479 -44.744,86.462l-1.974,-0.668c7.123,-21.041 27.932,-52.277 44.848,-86.713c16.78,-34.16 29.754,-71.485 21.329,-105.074c-9.359,-37.305 -47.498,-66.069 -84.206,-76.447c-24.314,-6.874 -48.026,-5.718 -62.246,6.616Z" style="fill:#181514;"/>
    <path d="M16.411,27.328l-1.391,-1.551c16.809,-15.076 43.35,-17.878 70.029,-11.56c39.854,9.437 79.93,39.186 87.998,77.967c7.292,35.046 -7.72,74.015 -26.437,109.497c-18.57,35.204 -40.763,66.956 -47.965,87.949l-1.97,-0.676c7.225,-21.061 29.462,-52.929 48.092,-88.245c18.484,-35.04 33.441,-73.491 26.24,-108.101c-7.915,-38.045 -47.34,-67.106 -86.438,-76.364c-25.956,-6.146 -51.805,-3.583 -68.158,11.084Z" style="fill:#181514;"/>
    <path d="M16.42,27.32l-1.41,-1.534c23.664,-21.764 62.474,-22.87 96.76,-10.181c34.261,12.68 63.933,39.101 69.455,72.097c6.033,36.055 -10.98,76.145 -31.406,112.493c-20.269,36.07 -43.876,68.437 -51.175,89.439l-1.968,-0.684c7.325,-21.077 30.985,-53.577 51.327,-89.776c20.185,-35.919 37.129,-75.499 31.167,-111.128c-5.407,-32.31 -34.575,-58.071 -68.123,-70.487c-33.523,-12.406 -71.489,-11.52 -94.627,9.761Z" style="fill:#181514;"/>
</svg>
