<?xml version="1.0" encoding="UTF-8" standalone="no"?>
<!DOCTYPE svg PUBLIC "-//W3C//DTD SVG 1.1//EN" "http://www.w3.org/Graphics/SVG/1.1/DTD/svg11.dtd">
<svg width="307px" height="226px" viewBox="0 0 307 226" version="1.1" xmlns="http://www.w3.org/2000/svg" xmlns:xlink="http://www.w3.org/1999/xlink" xml:space="preserve" xmlns:serif="http://www.serif.com/" style="fill-rule:evenodd;clip-rule:evenodd;stroke-linejoin:round;stroke-miterlimit:2;">
    <path d="M296.338,213.579c3.872,-8.387 8.696,-18.836 6.909,-115.26c-0.563,-30.344 -19.211,-68.171 -55.492,-84.855c-85.043,-39.11 -290.823,71.066 -234.409,173.742c23.371,42.537 87.667,56.878 152.024,-18.369c18.958,-22.165 44.568,-65.13 96.326,-49.688c29.101,8.683 44.832,60.276 34.642,94.43Z" style="fill:#fff;"/>
    <path d="M293.344,212.686c5.908,-19.802 2.755,-45.666 -6.752,-65.005c-6.137,-12.483 -14.898,-22.288 -25.79,-25.537c-29.692,-8.859 -50.367,2.45 -66.085,17.442c-10.876,10.373 -19.446,22.484 -26.972,31.282c-32.954,38.531 -66.006,53.931 -93.698,54.447c-28.289,0.527 -51.215,-14.354 -63.439,-36.604c-23.28,-42.37 -3.708,-86.101 34.286,-120.595c33.549,-30.459 81.396,-53.681 125.464,-62.25c29.747,-5.784 57.785,-4.861 78.703,4.758c37.47,17.232 56.729,56.299 57.31,87.637c1.809,97.579 -3.277,108.141 -7.195,116.628c-0.688,1.488 -2.408,2.193 -3.942,1.613c-1.534,-0.579 -2.359,-2.245 -1.89,-3.816Zm6.716,-44.854c0.539,-15.913 0.644,-38.077 0.062,-69.455c-0.544,-29.349 -18.581,-65.936 -53.673,-82.074c-19.903,-9.153 -46.594,-9.805 -74.898,-4.302c-43.009,8.364 -89.712,31.015 -122.455,60.742c-35.664,32.378 -54.862,73.188 -33.011,112.959c22.607,41.144 84.659,53.889 146.91,-18.896c7.641,-8.934 16.366,-21.211 27.409,-31.743c17.16,-16.367 39.768,-28.58 72.185,-18.908c12.39,3.696 22.631,14.569 29.612,28.769c3.445,7.009 6.1,14.819 7.859,22.908Z" style="fill:#262626;"/>
    <path d="M13.128,183.381l1.826,-1.003c22.524,40.997 84.3,53.305 146.327,-19.215c7.717,-9.023 16.534,-21.422 27.689,-32.063c17.533,-16.72 40.632,-29.174 73.75,-19.296c12.732,3.8 23.301,14.932 30.475,29.527l-1.87,0.919c-6.893,-14.023 -16.968,-24.798 -29.2,-28.449c-32.21,-9.607 -54.665,2.545 -71.717,18.807c-11.099,10.588 -19.865,22.931 -27.544,31.909c-63.429,74.16 -126.703,60.788 -149.736,18.864Z" style="fill:#181514;"/>
    <path d="M11.624,180.642l1.826,-1.003c1.512,-0.831 3.412,-0.278 4.243,1.234c21.761,39.609 81.286,50.323 141.213,-19.741c7.775,-9.09 16.669,-21.573 27.907,-32.293c18.255,-17.408 42.32,-30.314 76.801,-20.029c13.481,4.023 24.789,15.688 32.385,31.142c0.761,1.549 0.123,3.422 -1.426,4.183l-1.87,0.919c-1.548,0.761 -3.421,0.123 -4.183,-1.426c-6.47,-13.164 -15.806,-23.405 -27.289,-26.833c-30.847,-9.2 -52.335,2.501 -68.666,18.074c-11.016,10.509 -19.705,22.769 -27.326,31.679c-65.536,76.623 -131.052,61.654 -154.849,18.338c-0.831,-1.513 -0.279,-3.412 1.234,-4.244Z" style="fill:#262626;"/>
    <path d="M13.087,183.368l1.826,-1.003c10.012,18.224 34.761,28.166 65.654,20.709c23.336,-5.632 50.081,-20.814 77.291,-47.323c1.622,-1.579 3.252,-3.187 4.909,-4.803c8.917,-8.719 18.777,-20.136 30.592,-29.142c17.68,-13.475 39.15,-21.856 66.524,-12.876c1.924,0.63 3.878,1.363 5.843,2.241c11.898,5.298 21.479,17.384 28.05,31.957l-1.899,0.856c-6.343,-14.066 -15.515,-25.796 -27,-30.911c-1.897,-0.848 -3.785,-1.555 -5.643,-2.164c-26.591,-8.722 -47.438,-0.536 -64.612,12.554c-11.744,8.951 -21.536,20.309 -30.4,28.976c-1.657,1.616 -3.288,3.225 -4.91,4.805c-27.541,26.83 -54.637,42.154 -78.257,47.855c-32.021,7.729 -57.59,-2.841 -67.968,-21.731Z" style="fill:#181514;"/>
    <path d="M11.582,180.629l1.826,-1.003c1.513,-0.831 3.413,-0.279 4.244,1.234c9.464,17.226 32.981,26.224 62.181,19.176c22.912,-5.529 49.131,-20.498 75.845,-46.524c1.62,-1.577 3.249,-3.184 4.904,-4.798c8.998,-8.799 18.961,-20.306 30.883,-29.393c18.438,-14.054 40.843,-22.725 69.392,-13.361c2.022,0.663 4.076,1.434 6.142,2.357c12.519,5.575 22.712,18.193 29.626,33.526c0.709,1.573 0.009,3.424 -1.564,4.133l-1.899,0.857c-1.574,0.709 -3.424,0.009 -4.134,-1.565c-5.999,-13.304 -14.558,-24.502 -25.422,-29.34l-0.004,-0.002c-1.796,-0.802 -3.583,-1.471 -5.341,-2.047c-25.417,-8.337 -45.329,-0.442 -61.744,12.07c-11.637,8.869 -21.327,20.136 -30.11,28.724l-0.002,0.002c-1.658,1.618 -3.29,3.227 -4.913,4.807c-28.036,27.314 -55.658,42.852 -79.703,48.655c-33.716,8.138 -60.514,-3.375 -71.441,-23.264c-0.831,-1.513 -0.278,-3.413 1.234,-4.244Z" style="fill:#262626;"/>
    <path d="M13.046,183.355l1.825,-1.004c2.893,5.264 8.465,9.337 16.037,11.762c11.642,3.729 27.953,3.548 46.76,-2.289c24.212,-7.517 52.428,-23.731 81.202,-48.515c1.772,-1.529 3.559,-3.057 5.383,-4.565c10.159,-8.407 21.096,-18.85 33.508,-26.224c19.057,-11.317 40.703,-16.064 65.572,-4.818c1.799,0.812 3.615,1.749 5.395,2.847c11.128,6.866 19.665,19.828 25.632,34.374l-1.928,0.79c-5.787,-14.109 -14.004,-26.731 -24.798,-33.391c-1.702,-1.05 -3.438,-1.945 -5.159,-2.722c-24.141,-10.917 -45.151,-6.274 -63.65,4.712c-12.318,7.317 -23.162,17.693 -33.244,26.037c-1.813,1.5 -3.59,3.019 -5.351,4.538c-29.032,25.006 -57.515,41.342 -81.944,48.927c-19.311,5.993 -36.06,6.112 -48.014,2.283c-8.158,-2.613 -14.109,-7.071 -17.226,-12.742Z" style="fill:#181514;"/>
    <path d="M11.54,180.616l1.826,-1.003c1.513,-0.832 3.413,-0.279 4.244,1.233c2.557,4.653 7.558,8.147 14.251,10.291c11.175,3.58 26.827,3.305 44.881,-2.297c23.886,-7.417 51.701,-23.448 80.089,-47.899c1.787,-1.542 3.59,-3.084 5.43,-4.604c10.274,-8.504 21.351,-19.046 33.904,-26.503c19.894,-11.814 42.494,-16.719 68.455,-4.98c1.918,0.866 3.852,1.865 5.748,3.036c11.629,7.174 20.648,20.646 26.883,35.847c0.655,1.596 -0.109,3.422 -1.705,4.077l-1.928,0.79c-1.597,0.655 -3.422,-0.108 -4.077,-1.705c-5.519,-13.455 -13.254,-25.566 -23.548,-31.917c-1.585,-0.978 -3.202,-1.81 -4.804,-2.534l-0.002,-0c-23.049,-10.423 -43.104,-5.938 -60.767,4.551c-12.176,7.233 -22.881,17.51 -32.847,25.758c-1.797,1.486 -3.557,2.991 -5.302,4.496l-0.001,0.002c-29.42,25.339 -58.303,41.858 -83.058,49.544c-20.064,6.226 -37.473,6.252 -49.893,2.274c-9.038,-2.894 -15.559,-7.93 -19.012,-14.213c-0.831,-1.513 -0.279,-3.413 1.233,-4.244Z" style="fill:#262626;"/>
    <path d="M13.004,183.341l1.826,-1.003c1.816,3.305 6.628,5.459 13.607,6.283c11.011,1.3 27.291,-0.879 46.333,-8.042c25.096,-9.446 54.853,-26.617 85.11,-49.711c1.926,-1.468 3.873,-2.921 5.858,-4.319c11.438,-8.084 23.489,-17.534 36.436,-23.301c20.529,-9.145 42.305,-10.129 64.612,3.242c1.677,1.009 3.343,2.151 4.935,3.46c10.392,8.516 17.853,22.249 23.218,36.767l-1.954,0.722c-5.23,-14.154 -12.454,-27.575 -22.586,-35.879c-1.511,-1.242 -3.094,-2.326 -4.686,-3.284c-21.643,-12.973 -42.772,-11.998 -62.691,-3.125c-12.826,5.713 -24.752,15.091 -36.083,23.101c-1.964,1.382 -3.89,2.821 -5.795,4.272c-30.443,23.236 -60.39,40.501 -85.64,50.004c-19.441,7.313 -36.07,9.489 -47.311,8.162c-7.858,-0.928 -13.145,-3.628 -15.189,-7.349Z" style="fill:#181514;"/>
    <path d="M11.499,180.602l1.826,-1.003c1.513,-0.831 3.413,-0.278 4.244,1.234c0.627,1.143 1.838,2.007 3.429,2.736c2.055,0.941 4.691,1.581 7.805,1.948c10.666,1.259 26.422,-0.925 44.867,-7.863c24.864,-9.359 54.336,-26.389 84.314,-49.27l0.002,-0.002c1.956,-1.49 3.933,-2.966 5.949,-4.385c11.599,-8.199 23.837,-17.755 36.967,-23.604c21.444,-9.552 44.189,-10.55 67.491,3.417l0.004,0.002c1.803,1.086 3.595,2.315 5.306,3.723c10.782,8.836 18.601,23.035 24.167,38.098c0.598,1.619 -0.229,3.417 -1.848,4.015l-1.954,0.722c-1.619,0.598 -3.417,-0.229 -4.015,-1.848c-5.028,-13.608 -11.894,-26.562 -21.635,-34.544l-0.004,-0.004c-1.39,-1.143 -2.846,-2.138 -4.31,-3.019c-20.648,-12.375 -40.808,-11.414 -59.811,-2.949c-12.642,5.631 -24.381,14.903 -35.55,22.797l-0.005,0.004c-1.932,1.36 -3.827,2.775 -5.698,4.201c-30.722,23.449 -60.954,40.855 -86.435,50.445c-20.039,7.538 -37.191,9.708 -48.779,8.34c-9.178,-1.083 -15.173,-4.601 -17.561,-8.947c-0.831,-1.513 -0.278,-3.413 1.234,-4.244Z" style="fill:#262626;"/>
    <path d="M12.962,183.327l1.826,-1.002c0.161,0.293 0.56,0.464 1.099,0.64c1.212,0.397 3.041,0.569 5.409,0.519c9.726,-0.208 28.09,-4.27 50.585,-14.154c25.972,-11.406 57.325,-29.457 89.012,-50.896c2.082,-1.41 4.187,-2.778 6.325,-4.074c12.751,-7.735 25.943,-16.173 39.37,-20.374c22.084,-6.908 43.909,-4.016 63.646,11.311c1.555,1.208 3.059,2.563 4.467,4.061c9.643,10.255 16.05,24.662 20.819,39.156l-1.979,0.651c-4.672,-14.199 -10.911,-28.334 -20.358,-38.38c-1.333,-1.418 -2.755,-2.7 -4.227,-3.842c-19.147,-14.87 -40.321,-17.67 -61.746,-10.968c-13.275,4.153 -26.305,12.519 -38.912,20.167c-2.108,1.278 -4.184,2.627 -6.237,4.017c-31.804,21.518 -63.275,39.631 -89.343,51.079c-22.841,10.036 -41.501,14.118 -51.378,14.329c-2.672,0.057 -4.732,-0.174 -6.101,-0.622c-1.184,-0.387 -1.924,-0.974 -2.277,-1.618Z" style="fill:#181514;"/>
    <path d="M16.88,180.002c0.979,0.315 2.452,0.398 4.349,0.357c9.501,-0.203 27.422,-4.235 49.395,-13.89c25.829,-11.343 57.005,-29.303 88.517,-50.623c2.125,-1.439 4.274,-2.835 6.456,-4.158c12.968,-7.866 26.403,-16.412 40.058,-20.684c23.074,-7.217 45.875,-4.189 66.496,11.825c1.68,1.305 3.305,2.769 4.827,4.389c9.936,10.567 16.596,25.383 21.51,40.319c0.54,1.64 -0.352,3.406 -1.991,3.945l-1.979,0.651c-1.64,0.54 -3.406,-0.352 -3.945,-1.991c-4.527,-13.757 -10.514,-27.483 -19.667,-37.217c-1.219,-1.296 -2.521,-2.469 -3.866,-3.514c-18.264,-14.183 -38.461,-16.846 -58.897,-10.454c-13.047,4.082 -25.834,12.341 -38.225,19.857c-2.064,1.251 -4.096,2.573 -6.106,3.933c-31.978,21.636 -63.626,39.841 -89.837,51.352c-23.363,10.265 -42.466,14.376 -52.568,14.592c-3.13,0.067 -5.537,-0.251 -7.14,-0.776c-2.156,-0.705 -3.401,-1.912 -4.044,-3.084c-0.831,-1.513 -0.278,-3.413 1.235,-4.243l1.827,-1.003c1.196,-0.657 2.635,-0.448 3.595,0.417Z" style="fill:#262626;"/>
    <path d="M14.747,182.312l-1.827,1.001l-0.106,-0.274l-0.031,-0.294l0.051,-0.305l0.149,-0.311c0.112,-0.167 0.394,-0.438 0.914,-0.707c3.701,-1.915 25.652,-8.621 55.101,-23.333c26.832,-13.409 59.843,-32.255 92.908,-52.091c2.24,-1.342 4.503,-2.618 6.792,-3.817c14.081,-7.359 28.43,-14.753 42.305,-17.442c23.689,-4.588 45.467,2.269 62.672,19.374c1.429,1.419 2.758,2.988 3.983,4.66c8.852,12.068 14.268,27.069 18.443,41.54l-2.002,0.577c-4.108,-14.239 -9.411,-29.011 -18.121,-40.885c-1.16,-1.583 -2.418,-3.07 -3.772,-4.414c-16.694,-16.597 -37.821,-23.259 -60.807,-18.807c-13.692,2.654 -27.839,9.981 -41.736,17.243c-2.252,1.18 -4.48,2.437 -6.687,3.758c-33.114,19.866 -66.175,38.738 -93.047,52.167c-26.211,13.095 -46.49,19.856 -53.275,22.543c-1.062,0.421 -2.049,0.922 -2.049,0.922c-0,-0 0.204,-0.301 0.229,-0.395c0.069,-0.259 0.031,-0.495 -0.087,-0.71Z" style="fill:#181514;"/>
    <path d="M9.797,183.188c0.01,-0.244 0.049,-0.485 0.114,-0.717l-0.209,-0.247l0.048,-0.29l0.243,0.285c0.085,-0.228 0.198,-0.447 0.334,-0.651l-0.306,-0.488l0.141,-0.295l0.344,0.544c0.075,-0.092 0.155,-0.179 0.241,-0.262l-0.361,-0.675l0.923,-0.997c0.283,-0.232 0.659,-0.493 1.152,-0.748c3.703,-1.917 25.67,-8.631 55.14,-23.354c26.772,-13.378 59.707,-32.183 92.697,-51.975l0.002,-0.001c2.292,-1.373 4.607,-2.678 6.947,-3.904l0.003,-0.001c14.359,-7.505 29.011,-14.999 43.158,-17.741c24.745,-4.793 47.497,2.358 65.469,20.225c1.543,1.532 2.979,3.225 4.301,5.029c9.065,12.359 14.65,27.703 18.925,42.522c0.479,1.658 -0.478,3.39 -2.136,3.868l-2.002,0.578c-1.658,0.478 -3.39,-0.478 -3.869,-2.137c-4.007,-13.89 -9.142,-28.319 -17.638,-39.904c-1.063,-1.449 -2.214,-2.813 -3.453,-4.044l-0.002,-0.001c-15.927,-15.835 -36.08,-22.202 -58.01,-17.955c-13.417,2.601 -27.262,9.827 -40.88,16.944c-2.2,1.152 -4.376,2.38 -6.531,3.67c-33.188,19.91 -66.324,38.823 -93.256,52.282c-26.333,13.155 -46.704,19.953 -53.521,22.653c-0.926,0.367 -1.787,0.803 -1.787,0.803c-0.438,0.222 -0.922,0.338 -1.413,0.338l-0.242,-0.457c-0.446,0.232 -0.94,0.353 -1.443,0.353c-1.304,0 -2.457,-0.808 -2.916,-2.003l-0.101,-0.26l0.017,0.011c-0.01,-0.032 -0.019,-0.065 -0.027,-0.097c-0.055,-0.216 -0.087,-0.433 -0.095,-0.648l-0.093,-0.083l-0.029,-0.279l0.121,0.109Zm2.05,0.265l0.243,0.385l0.162,0.048l-0.511,-0.958c0.012,0.18 0.048,0.355 0.106,0.525Z" style="fill:#262626;"/>
    <path d="M14.705,182.297l-1.826,1.004c-0.535,-0.974 -0.581,-2.044 -0.111,-3.219c0.557,-1.389 1.937,-2.991 4.105,-4.765c7.764,-6.354 26.03,-15.528 49.246,-28.476c27.677,-15.432 62.395,-34.997 96.798,-53.269c2.396,-1.276 4.822,-2.466 7.258,-3.564c15.426,-6.958 30.936,-13.271 45.238,-14.503c25.32,-2.173 46.924,8.69 61.692,27.434c1.291,1.641 2.444,3.413 3.499,5.248c7.987,13.926 12.489,29.472 16.07,43.927l-2.022,0.501c-3.537,-14.277 -7.966,-29.636 -15.855,-43.391c-1.004,-1.747 -2.101,-3.434 -3.33,-4.996c-14.334,-18.195 -35.297,-28.757 -59.875,-26.647c-14.092,1.213 -29.362,7.471 -44.561,14.326c-2.394,1.079 -4.78,2.25 -7.136,3.505c-34.39,18.264 -69.095,37.823 -96.762,53.249c-23.065,12.863 -41.227,21.955 -48.94,28.268c-1.537,1.257 -2.641,2.382 -3.235,3.41c-0.424,0.732 -0.572,1.377 -0.253,1.958Z" style="fill:#181514;"/>
    <path d="M17.777,181.719c0.243,1.292 -0.352,2.65 -1.567,3.317l-1.826,1.003c-1.513,0.832 -3.413,0.279 -4.244,-1.234c-0.979,-1.782 -1.133,-3.736 -0.273,-5.884c0.694,-1.733 2.323,-3.809 5.027,-6.023c7.839,-6.415 26.262,-15.713 49.703,-28.786c27.693,-15.441 62.431,-35.018 96.851,-53.298c2.457,-1.308 4.945,-2.529 7.442,-3.655c15.767,-7.111 31.637,-13.509 46.256,-14.768c26.432,-2.268 48.997,9.047 64.413,28.614l0.002,0.002c1.383,1.759 2.622,3.656 3.752,5.623l0.001,0.002c8.136,14.184 12.747,30.008 16.394,44.731c0.415,1.675 -0.607,3.37 -2.282,3.785l-2.023,0.501c-1.675,0.415 -3.369,-0.607 -3.784,-2.282c-3.471,-14.01 -7.792,-29.09 -15.532,-42.587c-0.928,-1.615 -1.939,-3.175 -3.075,-4.619c-13.686,-17.371 -33.688,-27.481 -57.152,-25.467c-13.777,1.187 -28.686,7.361 -43.545,14.062c-2.332,1.051 -4.656,2.192 -6.951,3.414l-0.003,0.002c-34.371,18.254 -69.055,37.801 -96.706,53.218c-22.84,12.738 -40.845,21.706 -48.483,27.957c-1.079,0.883 -1.916,1.645 -2.395,2.372Z" style="fill:#262626;"/>
    <path d="M14.663,182.284l-1.826,1.003c-2.544,-4.63 -0.438,-10.085 5.602,-16.271c8.46,-8.664 24.658,-19.061 44.806,-31.417c28.505,-17.487 64.963,-37.694 100.681,-54.452c2.558,-1.199 5.138,-2.302 7.723,-3.31c16.771,-6.524 33.432,-11.736 48.168,-11.555c26.94,0.334 48.254,15.204 60.702,35.488c1.144,1.866 2.122,3.83 3.012,5.831c7.05,15.802 10.722,31.874 13.721,46.314l-2.04,0.424c-2.971,-14.308 -6.598,-30.234 -13.584,-45.891c-0.853,-1.917 -1.788,-3.8 -2.885,-5.588c-12.092,-19.704 -32.783,-34.17 -58.952,-34.495c-14.499,-0.178 -30.884,4.994 -47.386,11.413c-2.541,0.992 -5.079,2.076 -7.595,3.255c-35.645,16.724 -72.028,36.89 -100.476,54.342c-19.959,12.241 -36.024,22.513 -44.404,31.097c-2.687,2.751 -4.569,5.309 -5.481,7.705c-0.833,2.191 -0.82,4.224 0.214,6.107Z" style="fill:#181514;"/>
    <path d="M16.168,185.022l-1.826,1.004c-1.512,0.831 -3.412,0.279 -4.243,-1.234c-3.086,-5.616 -1.221,-12.456 6.104,-19.959c8.578,-8.786 24.977,-19.368 45.408,-31.898c28.592,-17.54 65.161,-37.808 100.988,-54.618c2.621,-1.228 5.266,-2.358 7.914,-3.392l0.003,-0.001c17.173,-6.68 34.25,-11.952 49.339,-11.767c28.097,0.349 50.345,15.824 63.327,36.979c1.216,1.982 2.257,4.067 3.203,6.193c7.148,16.021 10.887,32.31 13.927,46.951c0.351,1.689 -0.735,3.344 -2.425,3.695l-2.039,0.423c-1.69,0.351 -3.345,-0.734 -3.696,-2.424c-2.929,-14.107 -6.49,-29.815 -13.378,-45.252l-0.001,-0.003c-0.798,-1.792 -1.668,-3.554 -2.693,-5.225c-11.558,-18.833 -31.315,-32.694 -56.327,-33.004c-14.146,-0.174 -30.114,4.937 -46.213,11.199c-2.477,0.967 -4.951,2.024 -7.404,3.174c-35.536,16.673 -71.807,36.777 -100.168,54.176c-19.676,12.067 -35.541,22.154 -43.802,30.616c-2.326,2.381 -4.007,4.559 -4.796,6.633c-0.476,1.252 -0.559,2.415 0.032,3.491c0.831,1.512 0.279,3.412 -1.234,4.243Z" style="fill:#262626;"/>
    <path d="M14.622,182.27l-1.826,1.003c-3.619,-6.587 -2.188,-13.817 3.24,-21.62c7.787,-11.195 23.921,-23.682 44.338,-37.302c29.318,-19.554 67.544,-40.34 104.558,-55.626c2.72,-1.121 5.455,-2.136 8.186,-3.052c18.123,-6.072 35.912,-10.154 51.097,-8.602c28.523,2.92 49.445,21.742 59.701,43.535c0.987,2.089 1.793,4.243 2.528,6.396c6.045,17.69 8.972,34.284 11.385,48.715l-2.055,0.344c-2.397,-14.333 -5.298,-30.816 -11.302,-48.386c-0.709,-2.08 -1.487,-4.162 -2.44,-6.181c-9.972,-21.188 -30.297,-39.512 -58.029,-42.351c-14.927,-1.525 -32.406,2.536 -50.223,8.505c-2.686,0.902 -5.377,1.9 -8.053,3.003c-36.887,15.233 -74.98,35.947 -104.197,55.433c-20.144,13.439 -36.101,25.713 -43.784,36.758c-4.885,7.024 -6.381,13.499 -3.124,19.428Z" style="fill:#181514;"/>
    <path d="M16.126,185.009l-1.826,1.003c-1.512,0.831 -3.412,0.279 -4.243,-1.234c-4.162,-7.576 -2.829,-15.936 3.413,-24.91c7.944,-11.418 24.344,-24.223 45.17,-38.116c29.47,-19.655 67.893,-40.55 105.1,-55.915l0.001,-0.001c2.785,-1.148 5.587,-2.188 8.384,-3.126c18.584,-6.226 36.838,-10.339 52.408,-8.748c29.709,3.041 51.526,22.612 62.209,45.311c1.037,2.195 1.887,4.457 2.659,6.719c6.107,17.87 9.072,34.631 11.51,49.21c0.285,1.702 -0.865,3.313 -2.567,3.597l-2.055,0.344c-1.702,0.284 -3.313,-0.865 -3.597,-2.567c-2.372,-14.186 -5.235,-30.502 -11.177,-47.891c-0.672,-1.97 -1.406,-3.944 -2.309,-5.856l-0.002,-0.004c-9.544,-20.282 -28.974,-37.855 -55.519,-40.573c-14.541,-1.486 -31.556,2.545 -48.911,8.359c-2.621,0.879 -5.245,1.853 -7.855,2.929c-36.695,15.154 -74.59,35.759 -103.655,55.144c-19.735,13.165 -35.425,25.122 -42.953,35.943c-4.073,5.856 -5.666,11.195 -2.95,16.139c0.831,1.513 0.278,3.413 -1.235,4.243Z" style="fill:#262626;"/>
    <path d="M14.58,182.257l-1.826,1.003c-4.681,-8.521 -3.963,-17.57 0.912,-26.991c7.102,-13.727 23.158,-28.299 43.838,-43.163c30.112,-21.642 70.129,-42.945 108.436,-56.797c2.881,-1.044 5.768,-1.967 8.643,-2.796c19.475,-5.598 38.363,-8.547 54.017,-5.649c30.064,5.569 50.521,28.264 58.702,51.573c0.812,2.314 1.457,4.65 2.045,6.964c4.985,19.56 7.224,36.69 9.053,51.116l-2.067,0.262c-1.82,-14.354 -4.045,-31.401 -9.005,-50.864c-0.573,-2.256 -1.201,-4.533 -1.992,-6.788c-7.962,-22.686 -27.855,-44.795 -57.115,-50.215c-15.379,-2.846 -33.929,0.104 -53.061,5.603c-2.832,0.816 -5.674,1.725 -8.511,2.753c-38.128,13.787 -77.958,34.989 -107.929,56.53c-20.355,14.63 -36.213,28.918 -43.204,42.428c-4.521,8.738 -5.278,17.127 -0.936,25.031Z" style="fill:#181514;"/>
    <path d="M16.085,184.996l-1.826,1.003c-1.513,0.831 -3.413,0.278 -4.244,-1.234c-5.191,-9.449 -4.53,-19.486 0.875,-29.932c7.27,-14.05 23.622,-29.05 44.79,-44.265c30.323,-21.793 70.62,-43.248 109.196,-57.197c2.947,-1.068 5.9,-2.013 8.841,-2.861l0.003,-0.001c19.988,-5.745 39.382,-8.692 55.449,-5.718c31.27,5.792 52.573,29.368 61.081,53.611c0.843,2.403 1.515,4.827 2.126,7.229c5.021,19.704 7.281,36.961 9.124,51.493c0.217,1.712 -0.995,3.276 -2.707,3.494l-2.066,0.262c-1.713,0.217 -3.277,-0.995 -3.494,-2.707c-1.807,-14.248 -4.01,-31.169 -8.933,-50.487l-0.001,-0.002c-0.55,-2.167 -1.151,-4.355 -1.912,-6.523c-7.634,-21.751 -26.68,-42.979 -54.735,-48.176c-14.966,-2.77 -33.009,0.181 -51.628,5.533c-2.764,0.797 -5.54,1.684 -8.31,2.688l-0.002,0.001c-37.859,13.69 -77.409,34.74 -107.169,56.128c-19.867,14.28 -35.428,28.14 -42.252,41.328c-3.991,7.713 -4.805,15.112 -0.972,22.089c0.831,1.513 0.278,3.413 -1.234,4.244Z" style="fill:#262626;"/>
    <path d="M14.538,182.243l-1.825,1.004c-7.162,-13.036 -5.413,-26.749 2.621,-40.611c7.888,-13.61 21.878,-27.382 39.309,-40.777c30.885,-23.738 72.705,-45.508 112.304,-57.97c3.037,-0.953 6.079,-1.791 9.099,-2.533c20.822,-5.104 40.784,-6.918 56.93,-2.695c31.556,8.262 51.504,34.735 57.703,59.604c0.628,2.531 1.117,5.05 1.565,7.523c3.878,21.409 5.479,39.106 6.73,53.533l-2.076,0.179c-1.246,-14.375 -2.84,-32.009 -6.704,-53.34c-0.44,-2.43 -0.92,-4.906 -1.537,-7.393c-6.04,-24.231 -25.461,-50.041 -56.209,-58.09c-15.855,-4.148 -35.457,-2.31 -55.906,2.702c-2.977,0.732 -5.976,1.558 -8.971,2.498c-39.37,12.389 -80.951,34.032 -111.659,57.634c-17.182,13.204 -31,26.754 -38.776,40.17c-7.63,13.165 -9.4,26.182 -2.598,38.562Z" style="fill:#181514;"/>
    <path d="M16.043,184.982l-1.826,1.003c-1.512,0.831 -3.412,0.279 -4.243,-1.234c-7.702,-14.018 -5.983,-28.775 2.656,-43.682c8.057,-13.901 22.305,-28.007 40.109,-41.688c31.151,-23.943 73.33,-45.904 113.27,-58.472l0.002,-0.001c3.1,-0.973 6.206,-1.829 9.289,-2.587l0.002,-0.001c21.382,-5.24 41.885,-7.019 58.465,-2.682c32.769,8.579 53.507,36.047 59.944,61.871l0,0.003c0.645,2.596 1.148,5.182 1.608,7.719c3.899,21.523 5.511,39.315 6.768,53.82c0.149,1.719 -1.124,3.234 -2.843,3.383l-2.076,0.18c-1.719,0.149 -3.234,-1.124 -3.383,-2.844c-1.24,-14.297 -2.823,-31.836 -6.665,-53.053c-0.429,-2.365 -0.895,-4.775 -1.496,-7.195c-5.802,-23.275 -24.432,-48.09 -53.967,-55.822c-15.421,-4.034 -34.481,-2.161 -54.37,2.714c-2.913,0.716 -5.848,1.525 -8.779,2.444c-39.029,12.282 -80.251,33.734 -110.691,57.13c-16.81,12.918 -30.37,26.135 -37.977,39.26c-7.024,12.12 -8.825,24.093 -2.563,35.491c0.831,1.512 0.279,3.412 -1.234,4.243Z" style="fill:#262626;"/>
    <path d="M14.497,182.23l-1.826,1.003c-8.495,-15.461 -7.549,-31.459 0.019,-47.241c7.471,-15.583 21.437,-30.965 39.089,-45.38c31.651,-25.843 75.28,-48.034 116.173,-59.134c3.196,-0.866 6.39,-1.622 9.553,-2.277c22.162,-4.593 43.177,-5.28 59.838,0.261c32.996,10.978 52.421,41.136 56.696,67.623c0.443,2.746 0.78,5.446 1.091,8.084c2.741,23.239 3.746,41.527 4.414,55.959l-2.082,0.096c-0.665,-14.394 -1.667,-32.634 -4.401,-55.811c-0.308,-2.609 -0.641,-5.28 -1.079,-7.996c-4.17,-25.839 -23.108,-55.268 -55.297,-65.978c-16.36,-5.441 -36.995,-4.708 -58.758,-0.198c-3.122,0.646 -6.275,1.393 -9.43,2.248c-40.62,11.026 -83.96,33.066 -115.4,58.737c-17.385,14.196 -31.17,29.32 -38.529,44.666c-7.262,15.147 -8.224,30.5 -0.071,45.338Z" style="fill:#181514;"/>
    <path d="M16.002,184.969l-1.826,1.003c-1.513,0.831 -3.413,0.279 -4.244,-1.234c-9.009,-16.396 -8.085,-33.361 -0.06,-50.098c7.641,-15.935 21.878,-31.707 39.931,-46.449c31.967,-26.101 76.029,-48.518 117.33,-59.729c3.258,-0.883 6.514,-1.654 9.738,-2.321c22.762,-4.717 44.346,-5.335 61.458,0.356c34.208,11.381 54.363,42.631 58.795,70.09c0.45,2.79 0.793,5.535 1.11,8.216c2.751,23.331 3.761,41.691 4.431,56.181c0.08,1.724 -1.253,3.186 -2.977,3.266l-2.081,0.096c-1.724,0.08 -3.187,-1.253 -3.266,-2.977c-0.663,-14.337 -1.661,-32.504 -4.383,-55.589c-0.303,-2.567 -0.63,-5.194 -1.061,-7.865c-4.013,-24.867 -22.221,-53.204 -53.198,-63.511c-15.909,-5.291 -35.976,-4.488 -57.138,-0.103c-3.061,0.634 -6.153,1.366 -9.246,2.204c-40.212,10.915 -83.118,32.728 -114.242,58.141c-16.984,13.87 -30.498,28.605 -37.687,43.597c-6.805,14.193 -7.79,28.578 -0.15,42.482c0.831,1.513 0.278,3.413 -1.234,4.244Z" style="fill:#262626;"/>
    <path d="M14.456,182.217l-1.826,1.003c-19.562,-35.607 0.388,-72.87 36.288,-103.856c32.396,-27.956 77.836,-50.528 120.033,-60.297c3.358,-0.777 6.701,-1.447 10.01,-2.019c23.496,-4.068 45.546,-3.635 62.744,3.218c34.395,13.707 53.283,47.464 55.689,75.628c0.252,2.956 0.444,5.841 0.623,8.648c1.58,25.048 2.007,43.952 2.097,58.39l-2.083,0.013c-0.09,-14.409 -0.516,-33.274 -2.093,-58.272c-0.178,-2.791 -0.369,-5.662 -0.62,-8.602c-2.349,-27.507 -20.791,-60.482 -54.385,-73.87c-16.888,-6.729 -38.543,-7.095 -61.617,-3.101c-3.271,0.566 -6.575,1.229 -9.895,1.997c-41.884,9.696 -86.987,32.096 -119.142,59.845c-35.056,30.256 -54.924,66.506 -35.823,101.275Z" style="fill:#181514;"/>
    <path d="M15.96,184.955l-1.826,1.004c-1.512,0.831 -3.412,0.278 -4.243,-1.235c-20.252,-36.864 -0.183,-75.646 36.985,-107.725c32.758,-28.269 78.702,-51.099 121.37,-60.976c3.416,-0.791 6.817,-1.473 10.182,-2.055c24.131,-4.177 46.771,-3.643 64.434,3.395c35.597,14.186 55.156,49.117 57.645,78.266c0.254,2.978 0.448,5.886 0.629,8.714l0,0.002c1.585,25.125 2.012,44.085 2.103,58.567c0.011,1.726 -1.38,3.134 -3.106,3.145l-2.083,0.013c-1.726,0.01 -3.134,-1.38 -3.144,-3.106c-0.09,-14.365 -0.515,-33.171 -2.087,-58.093c-0.177,-2.769 -0.366,-5.617 -0.615,-8.534c-2.265,-26.523 -20.037,-58.324 -52.427,-71.233c-16.424,-6.544 -37.489,-6.809 -59.928,-2.924c-3.214,0.555 -6.462,1.207 -9.724,1.961c-41.412,9.587 -86.011,31.73 -117.805,59.166c-33.789,29.164 -53.537,63.892 -35.126,97.405c0.831,1.513 0.279,3.412 -1.234,4.243Z" style="fill:#262626;"/>
    <path d="M300.679,164.734l-2.082,-0.071c0.544,-16.021 0.649,-38.338 0.063,-69.929c-0.542,-29.244 -18.513,-65.694 -53.474,-81.772c-19.886,-9.146 -46.558,-9.757 -74.836,-4.257c-43.158,8.391 -90.03,31.121 -122.885,60.952c-35.547,32.272 -54.832,72.905 -33.051,112.546l-1.826,1.004c-22.257,-40.508 -2.847,-82.115 33.476,-115.092c33.124,-30.076 80.378,-52.995 123.889,-61.455c28.758,-5.594 55.879,-4.892 76.103,4.409c35.755,16.443 54.132,53.72 54.687,83.626c0.586,31.64 0.481,53.993 -0.064,70.039Z" style="fill:#181514;"/>
    <path d="M300.573,167.857l-2.082,-0.071c-1.725,-0.058 -3.076,-1.504 -3.017,-3.229c0.543,-15.983 0.646,-38.248 0.062,-69.765c-0.525,-28.249 -17.883,-63.46 -51.656,-78.991c-19.379,-8.912 -45.377,-9.388 -72.933,-4.028c-42.629,8.288 -88.929,30.732 -121.382,60.198c-34.382,31.215 -53.48,70.385 -32.412,108.727c0.831,1.513 0.279,3.413 -1.234,4.244l-1.826,1.003c-1.512,0.831 -3.412,0.279 -4.243,-1.234c-22.972,-41.807 -3.375,-84.874 34.114,-118.91c33.527,-30.441 81.352,-53.646 125.392,-62.208c29.48,-5.735 57.274,-4.897 78.006,4.637c36.943,16.989 55.932,55.506 56.505,86.408c0.588,31.714 0.482,54.118 -0.064,70.202c-0.059,1.725 -1.505,3.075 -3.23,3.017Z" style="fill:#262626;"/>
</svg>
