<?xml version="1.0" encoding="UTF-8" standalone="no"?>
<!DOCTYPE svg PUBLIC "-//W3C//DTD SVG 1.1//EN" "http://www.w3.org/Graphics/SVG/1.1/DTD/svg11.dtd">
<svg width="172px" height="276px" viewBox="0 0 172 276" version="1.1" xmlns="http://www.w3.org/2000/svg" xmlns:xlink="http://www.w3.org/1999/xlink" xml:space="preserve" xmlns:serif="http://www.serif.com/" style="fill-rule:evenodd;clip-rule:evenodd;stroke-linejoin:round;stroke-miterlimit:2;">
    <path d="M163.882,272.123c6.774,-22.911 10.179,-118.836 -16.623,-177.132c-10.659,-23.185 -24.088,-69.856 -80.39,-89.072c-41.249,-14.079 -102.585,26.331 -30.363,88.96c41.828,36.272 99.253,55.391 127.376,177.244Z" style="fill:#fff;"/>
    <path d="M166.604,257.705l-6.076,1.465c-13.24,-54.932 -32.743,-92.343 -56.388,-117.722c-20.26,-21.749 -42.472,-37.131 -64.129,-54.722c-4.13,-3.359 -7.928,-6.648 -11.401,-9.863c-11.066,-10.247 -18.628,-19.162 -22.602,-26.69c-3.785,-7.171 -4.504,-13.532 -3.187,-18.745l6.06,1.531c-1.007,3.986 -0.24,8.812 2.654,14.297c3.736,7.075 10.92,15.389 21.321,25.021c3.38,3.129 7.077,6.33 11.097,9.599c21.879,17.771 44.292,33.34 64.76,55.312c24.219,25.995 44.33,64.251 57.891,120.517Z" style="fill:#262626;"/>
    <path d="M166.648,257.771l-6.112,1.307c-11.282,-52.747 -28.319,-94.811 -52.233,-122.566c-18.743,-21.748 -40.05,-39.339 -63.747,-57.461c-4.248,-3.247 -8.238,-6.421 -11.975,-9.53c-11.388,-9.465 -20.003,-17.008 -24.744,-22.965c-4.803,-6.028 -5.94,-11.378 -4.99,-15.141l6.06,1.531c-0.623,2.464 0.673,5.769 3.819,9.717c4.561,5.731 12.893,12.945 23.851,22.053c3.675,3.056 7.598,6.177 11.775,9.37c24.054,18.395 45.661,36.271 64.686,58.346c24.469,28.399 42.066,71.368 53.61,125.339Z" style="fill:#262626;"/>
    <path d="M166.692,257.845l-6.147,1.134c-9.322,-50.555 -23.944,-97.191 -48.078,-127.403c-17.309,-21.663 -37.605,-41.581 -63.373,-60.207c-4.353,-3.145 -8.536,-6.203 -12.544,-9.197c-11.622,-8.683 -21.161,-14.784 -26.714,-19.231c-3.762,-3.008 -5.821,-5.792 -6.609,-7.801c-0.248,-0.634 -0.394,-1.224 -0.461,-1.759l-0.04,-0.963l0.149,-1.02l6.057,1.541c0.025,-0.099 0.036,-0.332 0.036,-0.332c-0,-0 0.292,0.748 0.621,1.238c0.824,1.23 2.201,2.656 4.152,4.217c5.518,4.418 15.001,10.475 26.55,19.103c3.982,2.975 8.139,6.013 12.464,9.138c26.266,18.987 46.952,39.291 64.595,61.372c24.672,30.885 39.812,78.488 49.342,130.17Z" style="fill:#262626;"/>
    <path d="M166.734,257.929l-6.179,0.94c-7.361,-48.36 -19.64,-99.483 -43.917,-132.226c-15.953,-21.516 -35.145,-43.857 -63.007,-62.958c-4.457,-3.054 -8.828,-5.996 -13.11,-8.869c-11.791,-7.928 -22.105,-12.626 -28.53,-15.577c-5.094,-2.338 -7.761,-4.331 -8.223,-4.799l-0.467,-0.582l-0.363,-0.793l-0.134,-0.869l0.113,-0.871l6.025,1.661c0.127,-0.459 0.187,-1.035 -0.019,-1.72c-0.043,-0.143 -0.765,-1.275 -0.765,-1.275c-0,-0 2.821,1.907 6.441,3.568c6.624,3.043 17.252,7.896 29.407,16.068c4.297,2.884 8.684,5.837 13.158,8.902c28.508,19.545 48.171,42.377 64.495,64.391c24.801,33.45 37.555,85.605 45.075,135.009Z" style="fill:#262626;"/>
    <path d="M166.775,258.024l-6.208,0.725c-5.393,-46.158 -15.419,-101.693 -39.752,-137.039c-14.676,-21.316 -32.675,-46.175 -62.658,-65.717c-4.55,-2.968 -9.107,-5.799 -13.662,-8.548c-11.951,-7.221 -22.946,-10.67 -30.281,-12.082c-3.224,-0.619 -6.631,-0.912 -6.631,-0.912c-0,0 1.237,-0.886 1.403,-1.543l-6.06,-1.531l0.428,-1.044l0.706,-0.881l0.983,-0.685l1.366,-0.455c1.572,-0.3 4.635,0.078 8.986,0.913c7.828,1.507 19.575,5.163 32.331,12.87c4.616,2.786 9.234,5.655 13.845,8.663c30.782,20.063 49.325,45.523 64.392,67.408c24.845,36.089 35.306,92.728 40.812,139.858Z" style="fill:#262626;"/>
    <path d="M166.813,258.13l-6.231,0.486c-3.427,-43.948 -11.305,-103.824 -35.586,-141.839c-13.468,-21.081 -30.193,-48.528 -62.309,-68.479c-4.645,-2.887 -9.39,-5.609 -14.225,-8.231c-12.127,-6.579 -23.852,-8.941 -32.078,-8.753c-2.52,0.056 -4.602,0.25 -6.127,0.78c-0.591,0.206 -1.124,0.324 -1.245,0.801l-6.059,-1.531c0.504,-1.996 1.781,-3.544 3.895,-4.604c2.106,-1.057 5.311,-1.604 9.395,-1.695c9.02,-0.206 21.901,2.294 35.199,9.508c4.944,2.682 9.795,5.465 14.543,8.416c33.075,20.547 50.408,48.713 64.278,70.423c24.784,38.803 33.052,99.861 36.55,144.718Z" style="fill:#262626;"/>
    <path d="M166.847,258.251l-6.246,0.219c-1.46,-41.734 -7.318,-105.879 -31.421,-146.629c-12.317,-20.823 -27.702,-50.911 -61.967,-71.243c-4.742,-2.812 -9.663,-5.432 -14.781,-7.919c-12.353,-6.002 -24.912,-7.354 -33.996,-5.534c-2.711,0.544 -5.031,1.303 -6.778,2.43c-1.316,0.85 -2.265,1.904 -2.619,3.307l-6.06,-1.531c1.345,-5.326 6.475,-8.778 14.229,-10.334c10.135,-2.031 24.172,-0.657 37.956,6.04c5.276,2.564 10.349,5.266 15.238,8.166c35.387,20.998 51.437,51.931 64.157,73.437c24.598,41.585 30.798,107 32.288,149.591Z" style="fill:#262626;"/>
    <path d="M166.875,258.388l-6.249,-0.081c0.51,-39.518 -3.476,-107.856 -27.261,-151.406c-11.223,-20.544 -25.206,-53.324 -61.629,-74.005c-4.831,-2.74 -9.94,-5.267 -15.34,-7.611c-12.624,-5.478 -26.126,-5.823 -36.037,-2.357c-5.696,1.992 -10.066,5.079 -11.294,9.941l-6.059,-1.53c1.709,-6.768 7.362,-11.537 15.29,-14.311c11.16,-3.902 26.372,-3.645 40.589,2.523c5.609,2.436 10.916,5.062 15.936,7.909c37.713,21.413 52.409,55.173 64.029,76.445c24.275,44.445 28.546,114.152 28.025,154.483Z" style="fill:#262626;"/>
    <path d="M166.895,258.542l-6.236,-0.414c2.477,-37.297 0.203,-109.775 -23.104,-156.166c-10.182,-20.266 -22.699,-55.778 -61.3,-76.766c-4.927,-2.68 -10.213,-5.12 -15.898,-7.313c-12.934,-4.992 -27.458,-4.3 -38.175,0.811c-6.468,3.084 -11.466,7.743 -13.09,14.163l-6.06,-1.533c2.071,-8.186 8.212,-14.339 16.46,-18.271c12.104,-5.773 28.506,-6.64 43.115,-1.001c5.949,2.294 11.479,4.849 16.634,7.653c40.063,21.784 53.331,58.417 63.899,79.452c23.791,47.354 26.284,121.313 23.755,159.385Z" style="fill:#262626;"/>
    <path d="M160.837,272.826c-27.874,-120.776 -84.92,-139.635 -126.378,-175.586c-30.216,-26.202 -37.575,-48.946 -33.374,-65.552c2.616,-10.341 9.687,-18.527 19.014,-23.991c13.627,-7.982 32.079,-10.095 47.78,-4.736c57.453,19.61 71.342,67.066 82.22,90.724c27.133,59.016 23.638,156.13 16.78,179.324c-0.403,1.361 -1.672,2.28 -3.092,2.237c-1.419,-0.043 -2.63,-1.037 -2.95,-2.42Zm2.629,-15.36c4.45,-35.133 3.648,-111.808 -19.046,-161.17c-10.441,-22.711 -23.409,-68.596 -78.56,-87.42c-13.999,-4.778 -30.452,-2.903 -42.602,4.214c-7.856,4.602 -13.91,11.42 -16.114,20.131c-3.832,15.148 3.846,35.394 31.41,59.297c40.547,35.161 95.505,54.431 124.912,164.948Z" style="fill:#262626;"/>
</svg>
