<?xml version="1.0" encoding="UTF-8" standalone="no"?>
<!DOCTYPE svg PUBLIC "-//W3C//DTD SVG 1.1//EN" "http://www.w3.org/Graphics/SVG/1.1/DTD/svg11.dtd">
<svg width="180px" height="288px" viewBox="0 0 180 288" version="1.1" xmlns="http://www.w3.org/2000/svg" xmlns:xlink="http://www.w3.org/1999/xlink" xml:space="preserve" xmlns:serif="http://www.serif.com/" style="fill-rule:evenodd;clip-rule:evenodd;stroke-linejoin:round;stroke-miterlimit:2;">
    <path d="M88.562,279.169c9.384,-17.844 33.619,-76.383 1.882,-140.859c-18.979,-38.554 -101.004,-93.893 -85.341,-121.546c12.327,-21.765 105.391,-25.861 152.992,52.097c59.857,98.031 -41.513,179.888 -70.88,215.146" style="fill:#fff;"/>
    <path d="M85.87,280.755c-0.53,-0.901 -0.596,-2.048 -0.074,-3.041c9.195,-17.484 32.943,-74.845 1.844,-138.024c-5.205,-10.573 -15.287,-22.406 -26.718,-34.6c-17.608,-18.784 -38.399,-38.352 -50.431,-55.359c-4.505,-6.368 -7.803,-12.414 -9.389,-17.943c-1.76,-6.136 -1.468,-11.71 1.281,-16.564c1.721,-3.037 4.74,-5.837 8.91,-8.153c5.674,-3.151 13.578,-5.474 22.958,-6.493c35.417,-3.849 92.391,10.776 126.511,66.654c30.658,50.21 20.111,96.279 -1.945,134.31c-21.635,37.305 -54.446,66.751 -69.201,84.465c-1.104,1.325 -3.076,1.505 -4.401,0.401c-1.325,-1.103 -1.505,-3.075 -0.401,-4.401c0.342,-0.411 0.694,-0.828 1.056,-1.252Zm10.988,-12.078c16.454,-17.503 39.875,-41.514 56.553,-70.271c21.006,-36.221 31.216,-80.096 2.017,-127.917c-32.523,-53.262 -86.743,-67.366 -120.502,-63.698c-8.407,0.914 -15.513,2.92 -20.599,5.744c-3.002,1.668 -5.267,3.582 -6.505,5.769c-1.95,3.442 -1.96,7.409 -0.712,11.761c1.422,4.958 4.443,10.346 8.483,16.056c11.895,16.813 32.482,36.126 49.889,54.695c11.911,12.707 22.342,25.096 27.765,36.114c27.138,55.131 14.159,106.008 3.611,131.747Z" style="fill:#262626;"/>
    <path d="M98.429,270.538l-1.905,-0.844c11.102,-25.034 20.167,-81.956 5.651,-124.766c-4.384,-12.932 -15.304,-30.231 -28.869,-46.072c-18.814,-21.974 -42.994,-40.636 -56.728,-55.928c-4.655,-5.182 -8.128,-10.09 -9.853,-14.496c-1.62,-4.14 -1.699,-7.928 0.118,-11.142l1.814,1.026c-1.526,2.698 -1.353,5.88 0.008,9.357c1.652,4.219 5.005,8.901 9.463,13.863c13.743,15.302 37.935,33.977 56.76,55.965c13.762,16.071 24.812,33.639 29.26,46.758c14.692,43.33 5.517,100.942 -5.719,126.279Z" style="fill:#181514;"/>
    <path d="M98.403,270.566l-1.878,-0.9c11.654,-24.311 17.539,-81.908 12.211,-121.671c-2.07,-15.447 -12.07,-32.986 -27.223,-51.946c-20.103,-25.147 -47.535,-42.994 -63.088,-56.636c-5.12,-4.493 -9.005,-8.737 -11.002,-12.478c-1.911,-3.584 -2.133,-6.924 -0.592,-9.645l1.813,1.026c-1.222,2.158 -0.899,4.797 0.617,7.638c1.908,3.573 5.648,7.601 10.538,11.893c15.62,13.701 43.152,31.645 63.341,56.902c15.44,19.318 25.551,37.229 27.661,52.97c5.38,40.149 -0.63,98.3 -12.398,122.847Z" style="fill:#181514;"/>
    <path d="M98.376,270.595l-1.85,-0.958c12.197,-23.566 18.569,-85.782 17.424,-115.23c-0.83,-21.356 -7.478,-39.031 -24.229,-61.159c-21.419,-28.293 -51.973,-45.381 -69.439,-57.362c-5.545,-3.802 -9.844,-7.34 -12.127,-10.426c-2.231,-3.014 -2.597,-5.943 -1.338,-8.17l1.814,1.026c-0.917,1.62 -0.426,3.711 1.199,5.905c2.184,2.952 6.324,6.309 11.63,9.947c17.595,12.07 48.345,29.321 69.923,57.823c17.068,22.548 23.803,40.574 24.649,62.335c1.155,29.717 -5.348,92.488 -17.656,116.269Z" style="fill:#181514;"/>
    <path d="M98.347,270.624l-1.819,-1.016c12.736,-22.817 20.968,-80.392 21.191,-110.3c0.177,-23.811 -1.443,-43.532 -19.785,-68.853c-22.759,-31.425 -56.332,-47.835 -75.79,-58.11c-5.922,-3.125 -10.62,-5.905 -13.22,-8.355c-2.566,-2.417 -3.088,-4.983 -2.12,-6.699l1.814,1.024c-0.262,0.464 -0.254,1.035 -0.044,1.651c0.274,0.803 0.874,1.656 1.779,2.508c2.506,2.362 7.054,5.016 12.763,8.029c19.651,10.376 53.521,26.994 76.505,58.73c18.675,25.78 20.361,45.848 20.181,70.091c-0.224,30.183 -8.602,88.273 -21.455,111.3Z" style="fill:#181514;"/>
    <path d="M98.317,270.653l-1.785,-1.074c13.278,-22.07 22.949,-73.651 25.72,-103.943c2.477,-27.086 4.46,-49.903 -16.086,-77.956c-24.896,-33.996 -60.646,-50.393 -82.164,-58.89c-6.257,-2.472 -11.305,-4.464 -14.257,-6.274c-1.576,-0.964 -2.535,-2.04 -2.947,-2.946c-0.4,-0.88 -0.35,-1.673 -0.006,-2.28l1.813,1.026c-0.03,0.052 -0.003,0.116 0.015,0.187c0.039,0.149 0.116,0.305 0.221,0.471c0.367,0.572 1.038,1.182 1.992,1.766c2.884,1.768 7.822,3.698 13.934,6.113c21.764,8.593 57.899,25.211 83.08,59.596c20.925,28.572 19.003,51.791 16.479,79.377c-2.795,30.554 -12.615,82.565 -26.009,104.827Z" style="fill:#181514;"/>
    <path d="M98.286,270.683l-1.748,-1.134c13.811,-21.308 27.577,-67.551 30.533,-98.375c2.765,-28.844 8.792,-54.561 -12.701,-86.306c-25.493,-37.655 -64.917,-53.014 -88.508,-59.646c-6.578,-1.85 -11.916,-3.074 -15.262,-4.216c-2.248,-0.764 -3.496,-1.834 -3.804,-2.42l-0.138,-0.361l-0.039,-0.313l0.035,-0.304l0.121,-0.311l1.821,1.012c0.096,-0.174 0.045,-0.69 0.045,-0.69c0,-0 0.2,0.203 0.391,0.34c0.489,0.352 1.242,0.736 2.24,1.075c3.322,1.134 8.623,2.346 15.154,4.182c23.907,6.721 63.834,22.324 89.669,60.485c21.839,32.255 15.86,58.364 13.049,87.672c-2.984,31.119 -16.914,77.797 -30.858,99.31Z" style="fill:#181514;"/>
    <path d="M98.253,270.712l-1.708,-1.192c14.344,-20.558 30.443,-61.608 34.766,-92.889c4.31,-31.195 14.333,-59.584 -8.719,-94.549c-26.879,-40.773 -69.206,-55.755 -94.876,-60.441c-6.889,-1.258 -12.503,-1.78 -16.244,-2.19c-1.951,-0.216 -3.727,-0.63 -3.727,-0.63c-0,-0 0.334,-0.064 0.399,-0.095c0.208,-0.101 0.341,-0.247 0.431,-0.403l-1.805,-1.04l0.169,-0.221l0.182,-0.147l0.281,-0.128l0.265,-0.047c0.138,-0.009 0.42,0.018 0.831,0.101c0.624,0.127 1.716,0.375 3.202,0.54c3.775,0.413 9.439,0.941 16.39,2.211c26.044,4.753 68.971,19.977 96.242,61.344c23.405,35.501 13.419,64.307 9.042,95.981c-4.365,31.588 -20.635,73.035 -35.121,93.795Z" style="fill:#181514;"/>
    <path d="M98.219,270.742l-1.666,-1.252c14.899,-19.826 30.051,-52.448 40.29,-87.378c9.115,-31.101 18.549,-64.668 -6.032,-102.819c-28.272,-43.886 -73.514,-58.572 -101.249,-61.243c-7.213,-0.697 -13.122,-0.574 -17.237,-0.205c-1.229,0.112 -2.249,0.193 -3.007,0.327c-0.363,0.064 -0.823,0.235 -0.823,0.235c0,-0 0.052,-0.058 0.069,-0.088l-1.809,-1.032c0.212,-0.372 0.604,-0.708 1.235,-0.928c0.828,-0.289 2.261,-0.416 4.149,-0.589c4.207,-0.377 10.248,-0.506 17.623,0.207c28.161,2.712 74.094,17.628 102.801,62.188c24.992,38.79 15.547,72.91 6.279,104.533c-10.318,35.2 -25.609,68.064 -40.623,88.044Z" style="fill:#181514;"/>
    <path d="M98.183,270.771l-1.62,-1.31c15.445,-19.081 33.421,-49.259 45.802,-81.796c12.638,-33.201 22.708,-69.747 -3.329,-111.159c-29.77,-46.944 -77.867,-61.458 -107.636,-62.054c-7.56,-0.153 -13.803,0.576 -18.25,1.759c-1.269,0.336 -2.355,0.67 -3.201,1.064c-0.654,0.304 -1.153,0.612 -1.396,1.041l-1.813,-1.026c0.347,-0.613 0.933,-1.153 1.758,-1.613c1.007,-0.562 2.411,-1.027 4.117,-1.48c4.589,-1.219 11.027,-1.985 18.827,-1.828c30.241,0.606 79.113,15.333 109.355,63.024l0.001,0.002c26.473,42.104 16.363,79.256 3.514,113.011c-12.468,32.765 -30.577,63.151 -46.129,82.365Z" style="fill:#181514;"/>
    <path d="M98.146,270.801l-1.571,-1.37c15.991,-18.338 36.798,-45.692 51.324,-76.208c16.619,-34.921 26.97,-74.901 -0.642,-119.504c-31.135,-50.09 -82.255,-64.395 -114.031,-62.874c-7.92,0.379 -14.544,1.72 -19.294,3.711c-2.576,1.083 -4.523,2.229 -5.392,3.761l-1.812,-1.028c1.046,-1.844 3.297,-3.351 6.398,-4.654c4.925,-2.065 11.788,-3.478 20,-3.871c32.291,-1.545 84.262,12.954 115.902,63.857c28.073,45.347 17.648,85.994 0.752,121.497c-14.615,30.704 -35.545,58.231 -51.634,76.683Z" style="fill:#181514;"/>
</svg>
