<?xml version="1.0" encoding="UTF-8" standalone="no"?>
<!DOCTYPE svg PUBLIC "-//W3C//DTD SVG 1.1//EN" "http://www.w3.org/Graphics/SVG/1.1/DTD/svg11.dtd">
<svg width="269px" height="277px" viewBox="0 0 269 277" version="1.1" xmlns="http://www.w3.org/2000/svg" xmlns:xlink="http://www.w3.org/1999/xlink" xml:space="preserve" xmlns:serif="http://www.serif.com/" style="fill-rule:evenodd;clip-rule:evenodd;stroke-linejoin:round;stroke-miterlimit:2;">
    <path d="M261.125,272.352c11.385,-110.786 -10.741,-190.701 -42.399,-224.25c-44.133,-46.769 -128.193,-66.934 -193.188,-5.603c-43.642,41.182 -22.831,143.017 82.497,109.936c54.198,-17.022 123.678,26.272 153.09,119.917Z" style="fill:#fff;"/>
    <path d="M257.149,273.601c-17.243,-54.902 -48.44,-92.199 -82.19,-109.574c-21.975,-11.313 -44.987,-14.115 -65.675,-7.617c-44.239,13.895 -74.206,4.628 -91.395,-13.668c-26.038,-27.714 -22.977,-77.073 4.789,-103.274c66.977,-63.201 153.6,-42.42 199.078,5.774c32.135,34.055 55.071,115.082 43.513,227.536c-0.202,1.967 -1.758,3.52 -3.724,3.72c-1.967,0.199 -3.803,-1.011 -4.396,-2.897Zm1.486,-20.742c6.999,-99.226 -13.605,-170.81 -42.94,-201.897c-42.787,-45.343 -124.284,-64.894 -187.298,-5.433c-24.604,23.218 -27.508,66.948 -4.435,91.507c15.552,16.553 42.8,23.995 82.825,11.424c52.163,-16.383 118.648,20.748 151.848,104.399Z" style="fill:#262626;"/>
    <path d="M262.481,256.443l-5.981,1.814c-14.725,-48.566 -40.139,-83.36 -68.591,-102.274l-0.005,-0.004c-26.429,-17.711 -56.446,-23.642 -83.244,-15.094l-0.002,0c-12.391,3.936 -23.713,6.749 -34.004,8.251c-25.206,3.685 -42.347,-0.708 -51.453,-10.4l4.556,-4.28c8.113,8.636 23.534,11.779 45.993,8.495c9.994,-1.458 20.985,-4.201 33.012,-8.021c28.515,-9.095 60.493,-2.991 88.617,15.854c29.42,19.561 55.873,55.432 71.102,105.659Z" style="fill:#262626;"/>
    <path d="M262.532,256.611l-6.074,1.472c-12.839,-52.949 -37.903,-90.849 -66.391,-110.897c-26.958,-18.969 -58.891,-26.111 -87.728,-16.794l-0.002,0.001c-12.71,4.084 -24.379,7.628 -35.113,10.097c-14.749,3.39 -26.318,4.682 -34.527,3.812c-6.237,-0.661 -10.709,-2.608 -13.492,-5.569l4.555,-4.28c1.956,2.082 5.211,3.169 9.596,3.634c7.722,0.818 18.593,-0.499 32.467,-3.688c10.579,-2.434 22.076,-5.932 34.597,-9.955c30.635,-9.898 64.603,-2.523 93.244,17.63c29.457,20.73 55.593,59.787 68.868,114.537Z" style="fill:#262626;"/>
    <path d="M262.568,256.757l-6.139,1.173c-10.955,-57.344 -35.626,-98.42 -64.199,-119.541c-27.445,-20.287 -61.333,-28.578 -92.207,-18.488l-0.003,0.001c-13.046,4.228 -25.063,8.464 -36.254,11.926c-17.044,5.271 -29.298,8.709 -36.243,9.121c-4.196,0.249 -6.916,-0.733 -8.313,-2.219l4.554,-4.281c0.239,0.255 0.698,0.203 1.259,0.253c1.324,0.121 3.022,-0.008 5.085,-0.317c6.996,-1.047 17.697,-4.163 31.811,-8.528c11.166,-3.454 23.156,-7.682 36.173,-11.9c32.747,-10.7 68.738,-2.115 97.853,19.406c29.53,21.828 55.302,64.131 66.623,123.394Z" style="fill:#262626;"/>
    <path d="M262.594,256.886l-6.183,0.908c-9.069,-61.744 -33.346,-106.01 -62.011,-128.197c-27.933,-21.619 -63.779,-31.048 -96.698,-20.189l-0.004,0.002c-13.385,4.381 -25.757,9.265 -37.414,13.747c-21.571,8.299 -34.501,15.416 -37.272,16.33l-1.125,0.244l-1.085,-0.083l-0.911,-0.374l-0.683,-0.554l4.565,-4.268c-0.35,-0.375 -0.823,-0.714 -1.497,-0.878c-0.205,-0.049 -1.22,-0.023 -1.22,-0.023c-0,-0 15.574,-7.991 36.984,-16.227c11.75,-4.519 24.222,-9.438 37.714,-13.854c34.868,-11.5 72.882,-1.717 102.471,21.184c29.603,22.914 55.004,68.467 64.369,132.232Z" style="fill:#262626;"/>
    <path d="M262.613,257l-6.213,0.674c-7.182,-66.159 -31.067,-113.623 -59.83,-136.871c-28.407,-22.957 -66.226,-33.519 -101.189,-21.883l-0.004,0.001c-13.738,4.531 -26.484,10.032 -38.595,15.563c-13.95,6.369 -23.819,12.997 -29.02,17.782c-1.893,1.742 -3.419,3.972 -3.419,3.972c0,-0 -0.175,-1.374 -0.572,-1.796l-4.553,4.281l-0.525,-0.698l-0.354,-0.781l-0.206,-1.502c0.032,-0.838 0.335,-1.95 1.122,-3.222c2.92,-4.721 14.944,-14.597 34.931,-23.721c12.31,-5.622 25.267,-11.207 39.231,-15.812c36.982,-12.306 77.031,-1.33 107.081,22.955c29.679,23.987 54.705,72.794 62.115,141.058Z" style="fill:#262626;"/>
    <path d="M262.627,257.1l-6.233,0.467c-5.293,-70.575 -28.772,-121.254 -57.648,-145.554c-28.88,-24.308 -68.678,-35.995 -105.689,-23.584l-0.004,0.001c-14.096,4.686 -27.232,10.773 -39.796,17.376c-13.776,7.241 -23.186,15.508 -27.465,22.084c-1.203,1.849 -1.981,3.511 -2.213,4.94c-0.107,0.657 -0.161,1.228 0.197,1.61l-4.555,4.279c-2.14,-2.278 -2.688,-5.952 -0.704,-10.513c3.293,-7.569 14.183,-18.656 31.832,-27.933c12.858,-6.757 26.305,-12.978 40.732,-17.774c39.095,-13.107 81.179,-0.947 111.69,24.732c29.765,25.049 54.4,77.119 59.856,149.869Z" style="fill:#262626;"/>
    <path d="M262.636,257.189l-6.244,0.283c-3.405,-75 -26.48,-128.903 -55.469,-154.251c-29.348,-25.665 -71.13,-38.47 -110.187,-25.286l-0.003,0.001c-14.462,4.848 -28.016,11.496 -41.019,19.191c-13.713,8.117 -22.725,18.068 -26.126,26.443c-1.828,4.5 -2.107,8.419 0.192,10.867l-4.555,4.279c-3.714,-3.953 -4.381,-10.228 -1.428,-17.498c3.767,-9.273 13.55,-20.483 28.733,-29.47c13.381,-7.918 27.332,-14.748 42.214,-19.737c41.205,-13.907 85.328,-0.574 116.293,26.505c29.852,26.103 54.092,81.439 57.599,158.673Z" style="fill:#262626;"/>
    <path d="M262.643,257.267l-6.249,0.119c-1.513,-79.427 -24.18,-136.561 -53.291,-162.957c-29.807,-27.025 -73.587,-40.942 -114.689,-26.982l-0.003,0.001c-14.835,5.003 -28.825,12.197 -42.257,21.007c-13.735,9.002 -22.372,20.697 -24.919,30.896c-1.501,6.015 -0.864,11.448 2.549,15.082l-4.555,4.279c-4.746,-5.052 -6.145,-12.512 -4.057,-20.875c2.838,-11.367 12.247,-24.575 27.556,-34.609c13.883,-9.106 28.348,-16.529 43.683,-21.702c43.308,-14.708 89.481,-0.205 120.891,28.273c29.947,27.154 53.784,85.759 55.341,167.468Z" style="fill:#262626;"/>
    <path d="M262.647,257.338l-6.25,-0.029c0.378,-83.861 -21.872,-144.232 -51.109,-171.666c-30.261,-28.402 -76.045,-43.424 -119.199,-28.688l-0.002,0.001c-15.206,5.165 -29.661,12.894 -43.506,22.823c-13.817,9.908 -22.083,23.394 -23.781,35.447c-1.054,7.481 0.45,14.375 4.988,19.203l-4.555,4.28c-5.772,-6.142 -7.963,-14.839 -6.622,-24.355c1.893,-13.44 10.92,-28.606 26.328,-39.654c14.361,-10.299 29.362,-18.303 45.135,-23.661c45.418,-15.508 93.641,0.154 125.491,30.046c30.047,28.194 53.471,90.07 53.082,176.253Z" style="fill:#262626;"/>
    <path d="M262.65,257.401l-6.248,-0.161c2.277,-88.299 -19.563,-151.914 -48.929,-180.386c-30.707,-29.775 -78.499,-45.9 -123.704,-30.389l-0.002,0.001c-15.592,5.326 -30.524,13.577 -44.771,24.639c-13.939,10.826 -21.829,26.134 -22.676,40.067c-0.541,8.906 1.816,17.235 7.472,23.254l-4.555,4.28c-6.802,-7.24 -9.806,-17.202 -9.155,-27.913c0.941,-15.492 9.582,-32.587 25.08,-44.624c14.822,-11.508 30.365,-20.077 46.581,-25.616c47.522,-16.306 97.799,0.512 130.081,31.814c30.149,29.231 53.164,94.381 50.826,185.034Z" style="fill:#262626;"/>
    <path d="M262.652,257.457l-6.244,-0.28c4.172,-92.74 -17.244,-159.603 -46.745,-189.107c-31.155,-31.158 -80.959,-48.384 -128.22,-32.096l-0.001,0.001c-15.976,5.488 -31.406,14.255 -46.04,26.463c-23.289,19.421 -28.797,53.688 -11.606,71.985l-4.556,4.28c-19.325,-20.57 -14.022,-59.231 12.159,-81.065c15.258,-12.727 31.355,-21.851 48.011,-27.574c49.627,-17.103 101.957,0.867 134.673,33.587c30.258,30.262 52.848,98.686 48.569,193.806Z" style="fill:#262626;"/>
    <path d="M262.653,257.509l-6.238,-0.39c6.072,-97.179 -14.887,-167.328 -44.562,-197.836l-0.003,-0.002c-31.555,-32.575 -83.417,-50.864 -132.733,-33.797c-16.36,5.655 -32.308,14.932 -47.32,28.287c-23.652,21.045 -27.846,59.522 -7.998,80.649l-4.555,4.279c-22.039,-23.459 -17.865,-66.23 8.399,-89.598c15.678,-13.947 32.345,-23.617 49.431,-29.524c51.733,-17.903 106.163,1.183 139.261,35.351c30.407,31.26 52.54,102.997 46.318,202.581Z" style="fill:#262626;"/>
</svg>
