<?xml version="1.0" encoding="UTF-8" standalone="no"?>
<!DOCTYPE svg PUBLIC "-//W3C//DTD SVG 1.1//EN" "http://www.w3.org/Graphics/SVG/1.1/DTD/svg11.dtd">
<svg width="182px" height="344px" viewBox="0 0 182 344" version="1.1" xmlns="http://www.w3.org/2000/svg" xmlns:xlink="http://www.w3.org/1999/xlink" xml:space="preserve" xmlns:serif="http://www.serif.com/" style="fill-rule:evenodd;clip-rule:evenodd;stroke-linejoin:round;stroke-miterlimit:2;">
    <path d="M86.323,340.817c51.162,-80.233 26.488,-143.197 -3.336,-174.015c-55.409,-57.256 -99.404,-125.933 -71.037,-153.384c42.638,-41.264 116.153,50.744 151.219,115.362c43.718,80.565 -12.221,172.543 -72.519,211.198" style="fill:#fff;"/>
    <path d="M88.908,342.573c-0.945,1.393 -2.836,1.79 -4.265,0.879c-1.454,-0.927 -1.882,-2.861 -0.955,-4.315c50.027,-78.454 26.216,-140.028 -2.946,-170.162c-33.573,-34.691 -62.941,-73.574 -74.92,-105.086c-8.452,-22.233 -8.172,-40.981 3.954,-52.717c18.147,-17.561 41.586,-13.01 65.524,3.863c34.085,24.025 69.367,73.098 90.615,112.255c44.549,82.095 -12.135,175.929 -73.579,215.319c-1.079,0.692 -2.426,0.635 -3.428,-0.036Zm5.338,-8.759c57.077,-39.757 107.784,-126.868 66.176,-203.543c-20.83,-38.385 -55.31,-86.576 -88.723,-110.128c-21.061,-14.846 -41.61,-19.931 -57.576,-4.48c-10.568,10.228 -9.825,26.629 -2.459,46.005c11.746,30.898 40.651,68.945 73.569,102.961c29.401,30.381 54.199,91.319 9.013,169.185Z" style="fill:#262626;"/>
    <path d="M94.986,334.675l-1.766,-1.105c46.432,-74.146 29.7,-138.171 -1.401,-172.834c-31.611,-35.23 -61.826,-74.322 -75.89,-104.817c-5.363,-11.619 -8.484,-21.901 -8.396,-29.955c0.061,-5.603 1.661,-10.162 5.042,-13.434l1.449,1.497c-3.003,2.906 -4.354,6.983 -4.408,11.96c-0.085,7.817 2.999,17.781 8.205,29.059c13.997,30.35 44.089,69.238 75.549,104.298c31.55,35.165 48.719,100.114 1.616,175.331Z" style="fill:#181514;"/>
    <path d="M94.964,334.707l-1.725,-1.168c47.628,-70.343 38.843,-137.272 6.14,-176.297c-30.066,-35.873 -61.123,-75.72 -77.364,-105.445c-6.183,-11.303 -10.366,-21.023 -11.579,-28.106c-0.874,-5.102 -0.18,-8.917 2.137,-11.161l1.45,1.497c-1.925,1.864 -2.259,5.075 -1.534,9.312c1.186,6.924 5.31,16.41 11.354,27.459c16.19,29.632 47.161,69.345 77.133,105.106c33.167,39.578 42.291,107.463 -6.012,178.803Z" style="fill:#181514;"/>
    <path d="M94.941,334.739l-1.68,-1.233c48.827,-66.532 47.908,-136.273 13.678,-179.751c-28.647,-36.392 -60.42,-77.126 -78.834,-106.087c-8.17,-12.826 -13.935,-23.163 -15.76,-29.087c-0.516,-1.674 -0.723,-3.032 -0.634,-4.031c0.08,-0.897 0.39,-1.563 0.861,-2.019l1.45,1.495c-0.226,0.22 -0.255,0.596 -0.248,1.078c0.011,0.762 0.209,1.721 0.562,2.864c1.794,5.824 7.494,15.97 15.526,28.581c18.386,28.916 50.113,69.583 78.714,105.918c34.707,44.083 35.872,114.813 -13.635,182.272Z" style="fill:#181514;"/>
    <path d="M94.914,334.772l-1.629,-1.299c50.022,-62.721 56.872,-135.177 21.219,-183.208c-27.335,-36.824 -59.721,-78.53 -80.308,-106.727c-11.653,-15.936 -19.894,-27.225 -21.46,-29.29c-0.105,-0.139 -0.209,-0.27 -0.209,-0.27c-0,-0 0.464,0.297 0.505,0.308c0.465,0.122 0.782,-0.052 1.001,-0.271l-1.474,-1.473l0.311,-0.214l0.45,-0.091l0.338,0.064l0.331,0.198c0.029,0.026 0.175,0.185 0.407,0.491c1.567,2.066 9.817,13.367 21.482,29.319c20.584,28.193 52.967,69.895 80.299,106.714c36.142,48.69 29.444,122.168 -21.263,185.749Z" style="fill:#181514;"/>
    <path d="M94.885,334.806l-1.572,-1.367c51.215,-58.912 65.729,-134.003 28.754,-186.659c-26.107,-37.189 -59.021,-79.942 -81.782,-107.381c-9.945,-11.975 -18.128,-20.843 -23.077,-24.182c-0.944,-0.637 -1.747,-1.063 -2.412,-1.228c-0.33,-0.082 -0.598,-0.135 -0.777,0.038l-1.448,-1.497c0.537,-0.52 1.251,-0.764 2.155,-0.666c0.943,0.102 2.179,0.636 3.647,1.626c5.036,3.397 13.395,12.393 23.515,24.579c22.789,27.472 55.745,70.279 81.884,107.514c37.476,53.368 23.021,129.514 -28.887,189.223Z" style="fill:#181514;"/>
    <path d="M94.852,334.841l-1.509,-1.436c52.413,-55.098 74.465,-132.748 36.293,-190.113c-24.962,-37.51 -58.332,-81.354 -83.256,-108.036c-9.325,-9.965 -17.572,-17.42 -23.844,-20.66c-1.957,-1.011 -3.701,-1.604 -5.212,-1.684c-1.318,-0.069 -2.434,0.272 -3.306,1.115l-1.448,-1.497c2.425,-2.346 6.175,-2.237 10.923,0.215c6.412,3.313 14.875,10.899 24.409,21.088c24.986,26.75 58.444,70.701 83.468,108.305c38.682,58.131 16.596,136.869 -36.518,192.703Z" style="fill:#181514;"/>
    <path d="M94.817,334.875l-1.441,-1.505c53.608,-51.286 83.082,-131.426 43.83,-193.565c-23.878,-37.798 -57.641,-82.768 -84.731,-108.693c-10.112,-9.664 -19.36,-16.597 -26.878,-18.908c-4.664,-1.434 -8.616,-1.045 -11.58,1.823l-1.448,-1.497c3.497,-3.385 8.135,-4.01 13.64,-2.317c7.737,2.378 17.3,9.448 27.706,19.394c27.19,26.02 61.087,71.148 85.052,109.085c39.771,62.962 10.166,144.219 -44.15,196.183Z" style="fill:#181514;"/>
    <path d="M94.777,334.91l-1.364,-1.575c54.804,-47.469 91.561,-130.035 51.36,-197.013c-22.846,-38.071 -56.948,-84.189 -86.204,-109.362c-9.114,-7.835 -17.786,-13.599 -25.516,-16.103c-7.424,-2.404 -13.943,-1.759 -19.037,3.17l-1.449,-1.497c5.66,-5.476 12.88,-6.326 21.128,-3.655c7.941,2.572 16.871,8.457 26.233,16.505c29.395,25.293 63.676,71.617 86.631,109.87c40.728,67.855 3.741,151.569 -51.782,199.66Z" style="fill:#181514;"/>
    <path d="M94.735,334.944l-1.281,-1.643c55.997,-43.652 99.904,-128.587 58.891,-200.465c-21.871,-38.325 -56.261,-85.61 -87.681,-110.029c-9.786,-7.603 -19.281,-12.97 -27.995,-14.815c-8.489,-1.797 -16.21,-0.201 -22.654,6.035l-1.448,-1.497c6.981,-6.757 15.336,-8.523 24.533,-6.576c8.971,1.899 18.769,7.382 28.842,15.208c31.601,24.56 66.215,72.096 88.212,110.641c41.547,72.813 -2.694,158.922 -59.419,203.141Z" style="fill:#181514;"/>
</svg>
