<?xml version="1.0" encoding="UTF-8" standalone="no"?>
<!DOCTYPE svg PUBLIC "-//W3C//DTD SVG 1.1//EN" "http://www.w3.org/Graphics/SVG/1.1/DTD/svg11.dtd">
<svg width="180px" height="287px" viewBox="0 0 180 287" version="1.1" xmlns="http://www.w3.org/2000/svg" xmlns:xlink="http://www.w3.org/1999/xlink" xml:space="preserve" xmlns:serif="http://www.serif.com/" style="fill-rule:evenodd;clip-rule:evenodd;stroke-linejoin:round;stroke-miterlimit:2;">
    <path d="M89.792,283.726c9.412,-4.905 60.708,-48.723 74.016,-75.975c57.647,-118.047 -100.469,-244.957 -152.848,-192.417c-12.544,12.582 -12.205,59.849 17.248,86.879c45.514,41.771 99.36,48.189 99.36,106.138c0,42.224 -27.04,70.836 -37.776,75.375Z" style="fill:#fff;"/>
    <path d="M100.914,279.626c-3.831,3.535 -7.319,5.885 -9.905,6.979c-1.544,0.653 -3.329,-0.03 -4.044,-1.547c-0.714,-1.517 -0.104,-3.328 1.383,-4.103c1.585,-0.826 4.38,-2.776 7.989,-5.576c2.802,-2.558 5.861,-5.882 8.904,-9.878c9.782,-12.849 19.202,-32.628 19.202,-57.15c0,-27.764 -12.986,-43.136 -31.337,-56.617c-19.231,-14.128 -44.159,-26.247 -67.011,-47.219c-18.359,-16.849 -25.866,-41.251 -26.09,-60.913c-0.156,-13.653 3.312,-25.029 8.742,-30.475c8.968,-8.995 20.809,-13.138 34.161,-13.127c19.26,0.016 41.774,8.786 62.897,23.824c52.4,37.305 96.129,112.975 60.811,185.299c-10.948,22.419 -47.141,55.847 -65.702,70.503Zm17.646,-23.327c16.724,-15.503 35.242,-35.18 42.44,-49.919c33.858,-69.333 -8.586,-141.702 -58.82,-177.464c-16.657,-11.859 -34.185,-19.705 -50.119,-21.985c-15.301,-2.19 -29.092,0.783 -38.888,10.609c-4.606,4.62 -7.05,14.408 -6.918,25.99c0.207,18.19 7.082,40.794 24.066,56.381c22.663,20.798 47.414,32.775 66.485,46.786c19.951,14.657 33.887,31.469 33.887,61.654c0,18.927 -5.267,35.203 -12.133,47.948Z" style="fill:#262626;"/>
    <path d="M11.91,18.659l-1.476,-1.471c8.997,-9.023 21.785,-11.539 36.066,-9.056c14.639,2.524 31.089,9.907 46.236,21.776c15.278,11.974 29.847,28.601 42.74,46.523c16.25,22.523 27.96,47.838 30.902,74.462c2.018,18.251 -0,37.137 -8.155,56.523c-1.768,4.234 -4.418,8.839 -7.593,13.702c-8.387,12.837 -20.757,26.711 -32.51,38.194l-1.456,-1.49c11.647,-11.379 23.911,-25.122 32.222,-37.843c3.098,-4.745 5.69,-9.237 7.416,-13.369c8.005,-19.031 9.986,-37.572 8.005,-55.488c-2.903,-26.274 -14.484,-51.245 -30.521,-73.473c-12.774,-17.757 -27.199,-34.239 -42.335,-46.102c-14.846,-11.632 -30.959,-18.888 -45.307,-21.362c-13.544,-2.355 -25.702,-0.083 -34.234,8.474Z" style="fill:#181514;"/>
    <path d="M11.941,18.659l-1.475,-1.472c7.894,-7.915 19.267,-9.831 32.058,-7.116c13.073,2.727 28.133,9.594 41.495,21.21c14.105,12.259 27.551,29.835 40.859,47.522c16.912,22.37 29.762,46.403 34.532,71.722c3.333,17.688 2.848,35.994 -4.039,55.591c-1.509,4.293 -3.865,8.949 -6.692,13.919c-7.646,13.434 -19.227,27.626 -30.508,39.257l-1.495,-1.45c11.161,-11.508 22.627,-25.546 30.192,-38.838c2.759,-4.849 5.065,-9.39 6.537,-13.579c6.754,-19.217 7.226,-37.169 3.957,-54.514c-4.712,-25.017 -17.437,-48.75 -34.148,-70.854c-13.216,-17.564 -26.555,-35.03 -40.562,-47.204c-13.061,-11.355 -27.776,-18.078 -40.557,-20.743l-0.001,-0.001c-12.019,-2.551 -22.736,-0.888 -30.153,6.55Z" style="fill:#181514;"/>
    <path d="M11.973,18.658l-1.475,-1.47c6.788,-6.81 16.749,-8.094 28.06,-5.179c11.497,2.969 25.151,9.367 36.746,20.651c12.959,12.606 25.255,31.065 38.971,48.515c17.576,22.211 31.608,44.982 38.16,68.974c4.68,17.138 5.728,34.874 0.081,54.664c-1.242,4.357 -3.308,9.069 -5.787,14.132c-6.891,14.056 -17.698,28.543 -28.506,40.326l-1.535,-1.408c10.677,-11.642 21.363,-25.948 28.171,-39.835c2.418,-4.94 4.442,-9.535 5.653,-13.787c5.532,-19.384 4.497,-36.756 -0.087,-53.543c-6.483,-23.739 -20.395,-46.255 -37.786,-68.233l-0.001,-0.002c-13.656,-17.372 -25.885,-35.76 -38.787,-48.31c-11.301,-10.998 -24.608,-17.233 -35.814,-20.126c-10.493,-2.705 -19.766,-1.687 -26.064,4.631Z" style="fill:#181514;"/>
    <path d="M12.005,18.658l-1.476,-1.47c5.687,-5.705 14.238,-6.386 24.074,-3.23c9.922,3.182 22.125,9.229 31.988,20.088c11.827,13.025 22.959,32.29 37.086,49.501c18.236,22.054 33.498,43.564 41.775,66.23c6.062,16.595 8.62,33.752 4.209,53.732c-0.978,4.421 -2.743,9.197 -4.89,14.349c-6.113,14.688 -16.163,29.455 -26.497,41.391l-1.575,-1.364c10.194,-11.775 20.118,-26.337 26.149,-40.828c2.095,-5.027 3.824,-9.684 4.778,-13.998c4.316,-19.547 1.8,-36.331 -4.131,-52.568c-8.202,-22.462 -23.353,-43.762 -41.427,-65.62l-0.001,-0.001c-14.103,-17.183 -25.211,-36.42 -37.019,-49.423c-9.581,-10.55 -21.442,-16.414 -31.081,-19.505c-8.962,-2.875 -16.781,-2.481 -21.962,2.716Z" style="fill:#181514;"/>
    <path d="M12.036,18.659l-1.475,-1.471c4.586,-4.599 11.735,-4.686 20.105,-1.275c8.338,3.401 19.037,9.184 27.213,19.523c10.697,13.526 20.662,33.512 35.199,50.488c18.891,21.888 35.436,42.14 45.383,63.48c7.481,16.045 11.523,32.635 8.337,52.8c-0.71,4.485 -2.168,9.328 -3.984,14.562c-5.318,15.341 -14.63,30.376 -24.488,42.46l-1.614,-1.317c9.712,-11.905 18.894,-26.712 24.134,-41.826c1.771,-5.106 3.202,-9.829 3.894,-14.205c3.114,-19.706 -0.857,-35.914 -8.167,-51.594c-9.875,-21.184 -26.321,-41.272 -45.075,-63.002l-0.001,-0.002c-14.557,-16.998 -24.541,-37.008 -35.252,-50.552c-7.917,-10.012 -18.292,-15.593 -26.366,-18.886c-7.421,-3.024 -13.777,-3.261 -17.843,0.817Z" style="fill:#181514;"/>
    <path d="M12.068,18.659l-1.475,-1.472c1.821,-1.825 4.225,-2.576 7.091,-2.354c2.649,0.206 5.72,1.264 9.068,3.058c6.746,3.614 15.861,9.233 22.415,18.948c9.528,14.12 18.371,34.724 33.312,51.458c19.544,21.73 37.424,40.7 48.988,60.737c8.934,15.483 14.428,31.51 12.465,51.864c-0.438,4.549 -1.587,9.461 -3.083,14.78c-4.497,15.994 -13.086,31.288 -22.472,43.523l-1.653,-1.268c9.235,-12.038 17.695,-27.082 22.119,-42.82c1.46,-5.188 2.588,-9.977 3.015,-14.415c1.917,-19.87 -3.474,-35.508 -12.195,-50.623c-11.5,-19.926 -29.299,-38.777 -48.736,-60.387l-0.001,-0.002c-15.01,-16.811 -23.914,-37.497 -33.486,-51.682c-6.33,-9.384 -15.156,-14.785 -21.672,-18.277c-3.048,-1.633 -5.833,-2.63 -8.246,-2.817c-2.196,-0.17 -4.058,0.349 -5.454,1.749Z" style="fill:#181514;"/>
    <path d="M12.1,18.658l-1.476,-1.47c1.065,-1.069 2.478,-1.49 4.201,-1.266c2.169,0.281 4.919,1.664 8.039,3.978c5.145,3.82 12.57,9.363 17.591,18.353c8.273,14.815 16.084,35.923 31.421,52.418c20.199,21.567 39.45,39.231 52.586,57.992c10.426,14.9 17.344,30.392 16.604,50.934c-0.17,4.609 -1,9.593 -2.182,14.988c-3.652,16.661 -11.548,32.204 -20.456,44.59l-1.691,-1.216c8.755,-12.173 16.523,-27.446 20.112,-43.82c1.153,-5.262 1.969,-10.122 2.135,-14.618c0.721,-20.034 -6.06,-35.132 -16.229,-49.663c-13.086,-18.691 -32.277,-36.278 -52.403,-57.765l-0.001,-0.002c-15.462,-16.63 -23.374,-37.887 -31.715,-52.822c-4.848,-8.681 -12.045,-14.007 -17.013,-17.696c-2.323,-1.723 -4.396,-2.907 -6.147,-3.394c-1.412,-0.393 -2.571,-0.329 -3.376,0.479Z" style="fill:#181514;"/>
    <path d="M12.132,18.658l-1.476,-1.47c0.558,-0.56 1.342,-0.755 2.361,-0.391c1.362,0.486 3.448,2.293 5.995,5.183c3.529,4.002 9.145,9.524 12.729,17.703c6.851,15.612 13.798,37.112 29.535,53.363c20.855,21.409 41.504,37.727 56.175,55.256c11.948,14.28 20.268,29.266 20.74,49.99c0.107,4.673 -0.4,9.73 -1.281,15.206c-2.771,17.322 -10.002,33.114 -18.432,45.65l-1.729,-1.162c8.277,-12.308 15.383,-27.811 18.104,-44.818c0.859,-5.341 1.359,-10.271 1.256,-14.828c-0.46,-20.197 -8.611,-34.784 -20.256,-48.701c-14.642,-17.494 -35.257,-33.773 -56.071,-55.142l-0.001,-0.001c-15.928,-16.447 -23.015,-38.176 -29.948,-53.977c-3.479,-7.938 -8.958,-13.277 -12.384,-17.162c-1.936,-2.196 -3.527,-3.736 -4.708,-4.398c-0.176,-0.099 -0.339,-0.175 -0.489,-0.222c-0.076,-0.023 -0.201,-0.037 -0.201,-0.037c-0,0 0.058,-0.019 0.081,-0.042Z" style="fill:#181514;"/>
    <path d="M10.689,17.186l1.473,1.474c0.096,-0.096 0.287,-0.826 0.287,-0.826c-0,-0 1.071,2.778 2.715,6.324c1.924,4.155 5.588,9.671 7.86,16.973c5.136,16.486 11.526,38.287 27.653,54.294c21.505,21.244 43.576,36.18 59.759,52.523c13.488,13.62 23.197,28.133 24.878,49.041c0.383,4.737 0.203,9.861 -0.376,15.424c-1.874,17.977 -8.46,34.026 -16.41,46.707l-1.765,-1.106c7.799,-12.44 14.265,-28.182 16.103,-45.817c0.564,-5.424 0.745,-10.421 0.372,-15.041c-1.637,-20.365 -11.145,-34.476 -24.282,-47.742c-16.179,-16.338 -38.246,-31.27 -59.745,-52.509c-16.394,-16.271 -22.956,-38.397 -28.176,-55.155c-2.238,-7.195 -5.865,-12.622 -7.762,-16.716c-1.765,-3.809 -2.769,-6.275 -2.871,-6.813l-0.025,-0.318l0.054,-0.297l0.111,-0.236l0.147,-0.184Z" style="fill:#181514;"/>
    <path d="M10.719,17.188l1.476,1.47c-0.377,0.379 -0.618,0.999 -0.794,1.801c-0.326,1.483 -0.366,3.514 -0.157,5.981c0.363,4.273 1.956,9.732 3.058,16.165c2.967,17.363 9.264,39.44 25.776,55.196c22.155,21.089 45.655,34.6 63.34,49.8c15.035,12.924 26.16,26.989 29.015,48.088c0.664,4.796 0.814,9.993 0.525,15.635c-0.946,18.633 -6.912,34.937 -14.381,47.767l-1.8,-1.048c7.322,-12.577 13.173,-28.559 14.101,-46.825c0.281,-5.502 0.138,-10.569 -0.509,-15.247l0,-0.002c-2.78,-20.543 -13.67,-34.204 -28.309,-46.788c-17.708,-15.221 -41.235,-28.755 -63.42,-49.872c-16.866,-16.094 -23.361,-38.617 -26.391,-56.353c-1.115,-6.502 -2.714,-12.021 -3.081,-16.34c-0.23,-2.724 -0.161,-4.967 0.198,-6.604c0.281,-1.277 0.753,-2.222 1.353,-2.824Z" style="fill:#181514;"/>
</svg>
