<?xml version="1.0" encoding="UTF-8" standalone="no"?>
<!DOCTYPE svg PUBLIC "-//W3C//DTD SVG 1.1//EN" "http://www.w3.org/Graphics/SVG/1.1/DTD/svg11.dtd">
<svg width="294px" height="239px" viewBox="0 0 294 239" version="1.1" xmlns="http://www.w3.org/2000/svg" xmlns:xlink="http://www.w3.org/1999/xlink" xml:space="preserve" xmlns:serif="http://www.serif.com/" style="fill-rule:evenodd;clip-rule:evenodd;stroke-linejoin:round;stroke-miterlimit:2;">
    <path d="M280.46,234.801c-16.594,-93.699 -77.357,-123.381 -120.169,-125.904c-79.539,-4.687 -158.397,-25.507 -156.075,-64.913c3.491,-59.233 119.872,-41.199 189.408,-17.328c86.696,29.763 107.715,135.343 89.454,204.601" style="fill:#fff;"/>
    <path d="M284.614,235.129c-0.145,1.847 -1.519,3.437 -3.428,3.775c-2.264,0.401 -4.428,-1.112 -4.829,-3.376c-16.103,-90.929 -74.765,-120.023 -116.311,-122.472c-48.349,-2.849 -96.432,-11.67 -126.669,-26.824c-21.72,-10.886 -34.334,-25.285 -33.32,-42.493c1.515,-25.714 22.15,-38.609 51.777,-42.45c41.49,-5.38 100.868,6.913 143.143,21.426c88.892,30.517 110.854,138.592 92.13,209.604c-0.35,1.329 -1.306,2.338 -2.493,2.81Zm-3.108,-15.692c13.09,-67.224 -9.11,-161.333 -89.235,-188.84c-41.168,-14.133 -98.962,-26.282 -139.366,-21.044c-24.974,3.238 -43.252,13 -44.529,34.676c-0.844,14.321 10.658,25.493 28.735,34.553c29.454,14.762 76.328,23.18 123.425,25.956c41.766,2.461 100.4,29.767 120.97,114.699Z" style="fill:#262626;"/>
    <path d="M284.734,224.038l-6.146,1.14c-15.727,-84.772 -70.414,-120.223 -116.097,-124.649c-47.338,-4.585 -96.262,-13.005 -127.397,-26.013c-12.156,-5.074 -21.652,-10.745 -27.194,-16.911c-4.163,-4.634 -6.211,-9.599 -5.904,-14.82l6.24,0.367c-0.275,4.673 2.414,8.898 7.011,12.918c5.247,4.588 12.925,8.784 22.256,12.679c30.689,12.822 78.93,21.04 125.591,25.559c47.694,4.621 105.22,41.227 121.64,129.73Z" style="fill:#262626;"/>
    <path d="M284.751,224.149l-6.182,0.92c-12.328,-82.833 -63.175,-125.71 -112.943,-132.235c-46.555,-6.102 -96.536,-14.479 -128.705,-25.42c-12.475,-4.235 -22.332,-8.697 -28.145,-13.192c-4.79,-3.705 -7.002,-7.668 -6.781,-11.436l6.24,0.366c-0.125,2.132 1.654,4.03 4.364,6.126c5.429,4.198 14.682,8.263 26.333,12.219c31.867,10.837 81.388,19.095 127.507,25.14c51.914,6.807 105.452,51.106 118.312,137.512Z" style="fill:#262626;"/>
    <path d="M284.766,224.267l-6.213,0.685c-8.919,-80.887 -55.922,-131.067 -109.781,-139.809c-45.788,-7.437 -96.823,-15.962 -130.027,-24.849c-14.939,-3.986 -26.355,-7.795 -31.796,-10.976c-1.81,-1.057 -3.065,-2.119 -3.795,-3.07c-0.218,-0.284 -0.4,-0.566 -0.55,-0.844l-0.42,-1.012l-0.189,-1.603l6.239,0.362c0.013,-0.214 -0.122,-0.708 -0.122,-0.708c0,0 2.213,1.699 4.368,2.712c5.826,2.739 15.622,5.83 27.878,9.101c33.049,8.845 83.845,17.316 129.415,24.718c56.142,9.113 105.696,60.978 114.993,145.293Z" style="fill:#262626;"/>
    <path d="M284.776,224.393l-6.235,0.435c-5.51,-78.933 -48.674,-136.28 -106.616,-147.383c-45.047,-8.631 -97.117,-17.441 -131.357,-24.283c-19.343,-3.85 -33.035,-6.587 -35.582,-7.048c-0.122,-0.022 -0.258,-0.045 -0.258,-0.045c-0,-0 3.5,-2.794 3.508,-2.966l-6.245,-0.265l0.252,-1.101l0.81,-1.116l0.878,-0.543l1.123,-0.233l1.046,0.119c2.554,0.462 16.288,3.207 35.69,7.069c34.227,6.839 86.28,15.646 131.311,24.273c60.359,11.566 105.935,70.861 111.675,153.087Z" style="fill:#262626;"/>
    <path d="M284.782,224.526l-6.248,0.171c-2.102,-76.978 -41.45,-141.363 -103.45,-154.946c-44.329,-9.717 -97.425,-18.929 -132.704,-23.735c-13.09,-1.775 -23.706,-2.759 -30.154,-2.444c-2.21,0.108 -4.544,0.744 -4.544,0.744c-0,-0 0.525,-0.736 0.55,-1.161l-6.239,-0.368l0.202,-1.09l0.455,-0.994l0.624,-0.805l0.7,-0.613c0.955,-0.704 2.522,-1.323 4.711,-1.653c6.112,-0.92 18.568,0.025 34.537,2.191c35.411,4.824 88.705,14.069 133.2,23.823c64.55,14.141 106.171,80.736 108.36,160.88Z" style="fill:#262626;"/>
    <path d="M284.782,224.667l-6.25,-0.11c1.314,-75.018 -34.261,-146.299 -100.284,-162.506c-43.648,-10.714 -97.746,-20.411 -134.06,-23.196c-13.304,-1.009 -24.172,-0.969 -30.83,0.846c-1.48,0.403 -2.72,0.885 -3.673,1.5c-0.822,0.531 -1.404,1.121 -1.453,1.956l-6.24,-0.369c0.196,-3.313 2.2,-6.025 6.164,-7.852c6.562,-3.025 19.737,-3.585 36.507,-2.313c36.589,2.806 91.098,12.563 135.075,23.358c68.705,16.866 106.411,90.619 105.044,168.686Z" style="fill:#262626;"/>
    <path d="M284.775,224.814l-6.237,-0.403c4.725,-73.055 -27.117,-151.102 -97.122,-170.062c-42.995,-11.643 -98.075,-21.898 -135.426,-22.663c-13.577,-0.27 -24.754,0.768 -31.647,4.053c-3.612,1.721 -5.913,4.042 -6.112,7.418l-6.239,-0.368c0.33,-5.602 3.667,-9.835 9.662,-12.692c7.513,-3.581 19.663,-4.954 34.463,-4.66c37.764,0.774 93.461,11.107 136.933,22.879c72.819,19.722 106.64,100.506 101.725,176.498Z" style="fill:#262626;"/>
    <path d="M284.76,224.969l-6.209,-0.711c8.144,-71.089 -20.031,-155.761 -93.964,-177.605c-42.376,-12.526 -98.416,-23.393 -136.807,-22.149c-11.686,0.384 -21.699,1.92 -28.885,5.213c-6.307,2.89 -10.294,7.15 -10.665,13.441l-6.239,-0.369c0.51,-8.646 5.631,-14.781 14.3,-18.754c7.789,-3.569 18.619,-5.361 31.285,-5.778c38.942,-1.262 95.798,9.697 138.782,22.402c76.878,22.714 106.871,110.389 98.402,184.31Z" style="fill:#262626;"/>
    <path d="M284.737,225.13l-6.164,-1.031c11.56,-69.118 -13.008,-160.283 -90.811,-185.15c-41.791,-13.354 -98.769,-24.882 -138.2,-21.631c-11.986,0.989 -22.309,3.34 -29.749,7.742c-6.845,4.05 -11.1,9.893 -11.584,18.098l-6.239,-0.368c0.616,-10.445 5.926,-17.953 14.64,-23.109c8.117,-4.803 19.342,-7.512 32.419,-8.592c40.115,-3.308 98.099,8.321 140.616,21.907c80.877,25.849 107.09,120.285 95.072,192.134Z" style="fill:#262626;"/>
</svg>
