<?xml version="1.0" encoding="UTF-8" standalone="no"?>
<!DOCTYPE svg PUBLIC "-//W3C//DTD SVG 1.1//EN" "http://www.w3.org/Graphics/SVG/1.1/DTD/svg11.dtd">
<svg width="186px" height="367px" viewBox="0 0 186 367" version="1.1" xmlns="http://www.w3.org/2000/svg" xmlns:xlink="http://www.w3.org/1999/xlink" xml:space="preserve" xmlns:serif="http://www.serif.com/" style="fill-rule:evenodd;clip-rule:evenodd;stroke-linejoin:round;stroke-miterlimit:2;">
    <path d="M93.049,363.03c71.542,-84.819 83.459,-97.605 89.214,-175.968c5.689,-77.486 -59.175,-205.343 -144.113,-180.866c-31.839,9.175 -64.05,71.436 10.74,135.22c84.725,72.256 117.682,140.894 44.159,221.614Z" style="fill:#fff;"/>
    <path d="M107.028,351.302c-3.549,4.575 -7.435,9.185 -11.668,13.833c-1.147,1.258 -3.09,1.368 -4.371,0.245c-1.28,-1.122 -1.426,-3.063 -0.328,-4.365c4.017,-4.762 7.844,-9.295 11.492,-13.624c20.554,-26.515 29.364,-51.72 28.393,-76.307c-1.717,-43.431 -33.665,-84.632 -83.683,-127.29c-54.111,-46.148 -53.436,-91.713 -37.231,-118.037c7.173,-11.652 17.457,-19.626 27.653,-22.564c35.15,-10.129 67.045,4.761 92.206,31.642c37.054,39.586 59.356,105.235 55.888,152.456c-5.484,74.691 -16.388,90.445 -78.351,164.011Zm21.127,-35.227c38.115,-47.268 46.496,-68.028 50.991,-129.242c3.36,-45.762 -18.309,-109.363 -54.218,-147.727c-23.48,-25.084 -53.112,-39.359 -85.912,-29.907c-8.908,2.567 -17.795,9.654 -24.061,19.834c-15.154,24.616 -14.635,66.854 35.963,110.005c51.651,44.05 84.1,86.951 85.873,131.799c0.584,14.799 -2.141,29.843 -8.636,45.238Z" style="fill:#262626;"/>
    <path d="M37.58,6.908l0.577,2.002c-8.769,2.526 -17.497,9.525 -23.665,19.544c-15.102,24.538 -14.382,66.574 36.056,109.586c52.354,44.654 85.159,88.196 86.954,133.653c0.594,15.07 -2.177,30.39 -8.787,46.062l-1.919,-0.81c6.482,-15.369 9.206,-30.391 8.624,-45.17c-1.776,-44.984 -34.414,-87.96 -86.224,-132.15c-51.608,-44.01 -51.93,-87.156 -36.479,-112.263c6.471,-10.509 15.665,-17.804 24.863,-20.454Z" style="fill:#181514;"/>
    <path d="M128.664,317.783l-1.897,-0.862c7.014,-15.421 10.264,-30.271 10.356,-44.86c0.163,-25.765 -9.548,-50.883 -27.073,-77.249c-12.744,-19.173 -30.232,-38.679 -51.391,-58.174c-21.778,-20.066 -34.812,-39.684 -41.395,-57.435c-7.996,-21.57 -6.136,-40.528 0.269,-53.551c4.898,-9.961 12.543,-16.592 20.011,-18.742l0.577,2.002c-7.01,2.018 -14.121,8.31 -18.718,17.659c-6.209,12.623 -7.936,31 -0.185,51.907c6.492,17.508 19.373,36.838 40.853,56.628c21.294,19.62 38.888,39.256 51.714,58.552c17.785,26.758 27.586,52.268 27.421,78.417c-0.093,14.864 -3.397,29.996 -10.542,45.708Z" style="fill:#181514;"/>
    <path d="M128.614,317.808l-1.873,-0.913c7.546,-15.469 11.327,-30.151 12.089,-44.546c1.352,-25.671 -6.839,-50.654 -22.652,-78.247c-11.312,-19.735 -27.744,-40.209 -48.053,-60.45c-20.574,-20.507 -33.817,-40.331 -41.224,-58.121c-8.76,-21.028 -8.801,-39.421 -4.555,-51.562c3.292,-9.413 9.43,-15.411 15.156,-17.059l0.577,2.002c-5.248,1.511 -10.749,7.117 -13.767,15.745c-4.124,11.792 -3.996,29.649 4.512,50.073c7.323,17.587 20.432,37.173 40.772,57.446c20.454,20.387 36.996,41.013 48.389,60.89c16.042,27.992 24.297,53.351 22.926,79.393c-0.776,14.654 -4.616,29.602 -12.297,45.349Z" style="fill:#181514;"/>
    <path d="M128.564,317.833l-1.848,-0.962c8.078,-15.523 12.399,-30.036 13.82,-44.239c2.561,-25.576 -4.141,-50.387 -18.227,-79.247c-9.893,-20.276 -25.261,-41.721 -44.717,-62.725c-19.386,-20.93 -32.806,-40.978 -41.058,-58.797c-9.484,-20.475 -11.478,-38.221 -9.368,-49.535c1.651,-8.861 6.328,-14.276 10.303,-15.419l0.576,2.003c-1.338,0.384 -2.735,1.379 -4.037,2.884c-2.092,2.417 -3.902,6.126 -4.794,10.914c-2.057,11.03 -0.035,28.316 9.211,48.277c8.176,17.658 21.486,37.517 40.695,58.257c19.61,21.17 35.09,42.791 45.061,63.227c14.283,29.264 21.025,54.435 18.427,80.369c-1.444,14.443 -5.829,29.206 -14.044,44.993Z" style="fill:#181514;"/>
    <path d="M128.514,317.856l-1.824,-1.008c8.608,-15.573 13.477,-29.923 15.557,-43.929c3.781,-25.49 -1.475,-50.1 -13.803,-80.252c-8.501,-20.792 -22.793,-43.217 -41.385,-65.001c-18.212,-21.336 -31.775,-41.624 -40.89,-59.473c-10.17,-19.916 -14.125,-36.887 -14.159,-47.469c-0.019,-5.613 1.412,-9.685 2.969,-11.838c0.805,-1.114 1.684,-1.756 2.447,-1.976l0.578,2.002c-0.623,0.179 -1.261,0.933 -1.887,2.071c-1.145,2.08 -2.038,5.404 -2.024,9.735c0.033,10.375 3.96,27 13.932,46.527c9.052,17.729 22.53,37.877 40.619,59.069c18.751,21.97 33.155,44.594 41.729,65.565c12.494,30.559 17.767,55.511 13.935,81.346c-2.113,14.228 -7.05,28.81 -15.794,44.631Z" style="fill:#181514;"/>
    <path d="M128.463,317.878l-1.798,-1.052c9.142,-15.624 14.565,-29.81 17.292,-43.624c5.014,-25.4 1.163,-49.784 -9.373,-81.254c-7.13,-21.296 -20.336,-44.697 -38.056,-67.273c-17.055,-21.724 -30.726,-42.282 -40.723,-60.153c-10.817,-19.348 -16.664,-35.431 -18.913,-45.37c-1.285,-5.688 -0.804,-9.609 -0.438,-10.988c0.126,-0.473 0.285,-0.755 0.374,-0.869l0.227,-0.22l0.342,-0.167l0.568,2.005c0.107,-0.03 0.576,-0.445 0.576,-0.445c-0,-0 -0.915,4.475 0.383,10.225c2.222,9.818 8.013,25.699 18.699,44.812c9.952,17.791 23.565,38.257 40.543,59.884c17.883,22.783 31.198,46.406 38.394,67.898c10.673,31.88 14.52,56.587 9.441,82.319c-2.768,14.017 -8.261,28.418 -17.538,44.272Z" style="fill:#181514;"/>
    <path d="M128.413,317.899l-1.773,-1.094c9.673,-15.674 15.662,-29.698 19.034,-43.315c6.259,-25.311 3.765,-49.459 -4.945,-82.261c-5.787,-21.788 -17.899,-46.165 -34.732,-69.55c-15.912,-22.099 -29.661,-42.945 -40.551,-60.83c-11.442,-18.787 -19.032,-33.945 -23.611,-43.261c-1.757,-3.573 -2.709,-6.323 -3.512,-7.857c-0.132,-0.252 -0.257,-0.465 -0.384,-0.635c-0.064,-0.086 -0.186,-0.204 -0.186,-0.204c-0,0 0.113,0.037 0.176,0.019l-0.579,-2.001c0.84,-0.243 1.635,0.03 2.359,1.08c0.918,1.33 1.906,4.429 3.995,8.679c4.563,9.28 12.123,24.381 23.521,43.097c10.866,17.845 24.586,38.645 40.463,60.695c16.997,23.613 29.212,48.234 35.055,70.234c8.819,33.212 11.291,57.667 4.953,83.295c-3.417,13.803 -9.478,28.021 -19.283,43.909Z" style="fill:#181514;"/>
    <path d="M128.362,317.919l-1.748,-1.134c10.21,-15.726 16.77,-29.582 20.774,-43.011c7.522,-25.216 6.335,-49.121 -0.51,-83.263c-4.469,-22.281 -15.48,-47.622 -31.411,-71.831c-14.789,-22.46 -28.582,-43.619 -40.384,-61.509c-12.037,-18.242 -21.225,-32.566 -28.26,-41.182c-2.075,-2.542 -3.724,-4.587 -5.256,-5.876c-1.254,-1.055 -2.382,-1.576 -3.677,-1.202l-0.578,-2.001c1.596,-0.461 3.059,-0.152 4.567,0.836c1.901,1.245 3.919,3.692 6.558,6.926c7.065,8.652 16.297,23.033 28.385,41.352c11.802,17.89 25.596,39.049 40.385,61.511c16.093,24.454 27.199,50.06 31.713,72.567c6.928,34.553 8.077,58.747 0.465,84.268c-4.054,13.595 -10.687,27.628 -21.023,43.549Z" style="fill:#181514;"/>
    <path d="M128.311,317.938l-1.722,-1.173c10.746,-15.78 17.882,-29.465 22.52,-42.701c8.793,-25.118 8.868,-48.788 3.922,-84.269c-3.172,-22.771 -13.079,-49.074 -28.092,-74.109c-13.686,-22.819 -27.489,-44.311 -40.218,-62.19c-12.62,-17.727 -23.348,-31.367 -32.889,-39.157c-5.21,-4.254 -9.287,-6.782 -13.975,-5.428l-0.579,-2.001c5.286,-1.528 9.998,1.019 15.872,5.815c9.644,7.874 20.511,21.644 33.268,39.563c12.757,17.918 26.592,39.457 40.308,62.326c15.171,25.299 25.163,51.884 28.368,74.893c5.004,35.894 4.877,59.836 -4.019,85.246c-4.689,13.384 -11.897,27.227 -22.764,43.185Z" style="fill:#181514;"/>
    <path d="M128.261,317.956l-1.697,-1.209c11.279,-15.831 19.005,-29.345 24.264,-42.396c10.082,-25.011 11.364,-48.453 8.36,-85.271c-1.901,-23.265 -10.7,-50.517 -24.775,-76.394c-12.602,-23.163 -26.382,-45.015 -40.049,-62.866c-13.207,-17.248 -25.508,-30.323 -37.528,-37.177c-6.578,-3.751 -12.557,-5.595 -19.022,-3.731l-0.577,-2.002c7.005,-2.019 13.504,-0.14 20.631,3.923c12.207,6.961 24.737,20.204 38.15,37.72c13.727,17.929 27.568,39.874 40.225,63.137c14.226,26.155 23.1,53.706 25.022,77.221c3.037,37.229 1.69,60.928 -8.505,86.218c-5.312,13.183 -13.107,26.837 -24.499,42.827Z" style="fill:#181514;"/>
    <path d="M128.21,317.974l-1.671,-1.244c11.817,-15.883 20.132,-29.22 26.013,-42.087c11.38,-24.898 13.829,-48.133 12.797,-86.275c-0.644,-23.764 -8.343,-51.956 -21.461,-78.683c-11.538,-23.504 -25.264,-45.732 -39.885,-63.544c-13.787,-16.796 -27.732,-29.375 -42.181,-35.236c-7.976,-3.236 -15.796,-4.372 -24.042,-1.993l-0.577,-2.002c8.712,-2.513 16.976,-1.354 25.402,2.065c14.718,5.97 28.965,18.735 43.009,35.845c14.714,17.926 28.533,40.293 40.145,63.947c13.26,27.018 21.022,55.522 21.672,79.545c1.044,38.553 -1.482,62.03 -12.984,87.197c-5.933,12.981 -14.315,26.441 -26.237,42.465Z" style="fill:#181514;"/>
    <path d="M128.16,317.99l-1.646,-1.277c12.355,-15.933 21.264,-29.09 27.76,-41.78c12.686,-24.773 16.273,-47.821 17.238,-87.274c0.594,-24.278 -6.012,-53.392 -18.146,-80.971c-10.494,-23.845 -24.138,-46.469 -39.723,-64.226c-14.366,-16.375 -30.029,-28.466 -46.857,-33.319c-9.397,-2.707 -19.016,-3.123 -29.048,-0.231l-0.577,-2.002c10.43,-3.007 20.432,-2.583 30.202,0.231c17.171,4.952 33.187,17.239 47.846,33.947c15.716,17.906 29.482,40.716 40.063,64.76c12.268,27.881 18.923,57.319 18.323,81.862c-0.976,39.864 -4.649,63.142 -17.467,88.173c-6.545,12.788 -15.517,26.05 -27.968,42.107Z" style="fill:#181514;"/>
    <path d="M128.11,318.006l-1.622,-1.308c38.265,-47.451 46.677,-68.294 51.19,-129.745c3.369,-45.902 -18.374,-109.693 -54.391,-148.176c-23.4,-24.994 -52.899,-39.286 -85.582,-29.865l-0.577,-2.002c33.465,-9.646 63.72,4.851 87.68,30.443c36.399,38.891 58.352,103.364 54.948,149.753c-4.554,61.998 -13.04,83.027 -51.646,130.9Z" style="fill:#181514;"/>
</svg>
