<?xml version="1.0" encoding="UTF-8" standalone="no"?>
<!DOCTYPE svg PUBLIC "-//W3C//DTD SVG 1.1//EN" "http://www.w3.org/Graphics/SVG/1.1/DTD/svg11.dtd">
<svg width="244px" height="230px" viewBox="0 0 244 230" version="1.1" xmlns="http://www.w3.org/2000/svg" xmlns:xlink="http://www.w3.org/1999/xlink" xml:space="preserve" xmlns:serif="http://www.serif.com/" style="fill-rule:evenodd;clip-rule:evenodd;stroke-linejoin:round;stroke-miterlimit:2;">
    <path d="M233.632,220.279c-3.847,-19.789 -21.575,-80.616 -86.678,-111.046c-38.93,-18.197 -137.539,-10.032 -142.627,-41.402c-4.005,-24.691 66.021,-86.123 151.935,-55.104c108.034,39.007 80.19,166.291 79.347,212.17" style="fill:#fff;"/>
    <path d="M231.465,223.837c-0.966,-0.588 -1.69,-1.566 -1.923,-2.762c-3.743,-19.259 -20.997,-78.454 -84.353,-108.068c-10.601,-4.955 -25.767,-7.839 -42.198,-10.181c-25.537,-3.64 -54.052,-5.904 -74.118,-11.652c-7.628,-2.184 -14.088,-4.893 -18.866,-8.27c-5.466,-3.864 -8.857,-8.633 -9.793,-14.406c-0.585,-3.606 0.023,-7.873 1.911,-12.495c2.497,-6.112 7.278,-12.995 14.073,-19.775c25.414,-25.362 79.417,-49.827 141.479,-27.42c55.772,20.137 76.56,62.992 83.207,106.802c6.479,42.706 -0.685,86.276 -1.109,109.363c-0.042,2.3 -1.943,4.132 -4.242,4.09c-2.299,-0.042 -4.132,-1.943 -4.09,-4.243c0.006,-0.323 0.014,-0.651 0.022,-0.983Zm1.465,-22.351c1.881,-23.385 4.327,-54.227 -0.285,-84.626c-6.229,-41.053 -25.536,-81.344 -77.798,-100.214c-58.218,-21.019 -108.923,1.69 -132.763,25.48c-5.871,5.859 -10.087,11.746 -12.244,17.027c-1.214,2.974 -1.777,5.691 -1.4,8.011c0.821,5.064 4.929,8.609 10.8,11.546c6.986,3.494 16.399,5.933 27.038,7.909c33.573,6.234 78.845,7.81 102.44,18.839c52.619,24.595 75.1,68.529 84.212,96.028Z" style="fill:#262626;"/>
    <path d="M237.942,206.841l-6.042,1.599c-6.921,-26.152 -35.125,-75.617 -72.775,-99.631c-11.345,-7.236 -30.418,-13.768 -50.615,-17.579c-28.408,-5.364 -58.928,-4.785 -79.197,-8.116c-7.165,-1.177 -13.181,-2.934 -17.457,-5.391c-4.473,-2.57 -7.21,-6.008 -7.899,-10.236l6.169,-1.005c0.404,2.476 2.224,4.316 4.844,5.822c3.755,2.158 9.065,3.609 15.356,4.643c20.307,3.337 50.882,2.768 79.343,8.142c21.089,3.979 40.971,10.895 52.817,18.451c39.037,24.899 68.28,76.185 75.456,103.301Z" style="fill:#262626;"/>
    <path d="M237.954,206.938l-6.087,1.42c-6.063,-26 -37.266,-74.099 -66.022,-101.51c-11.068,-10.55 -29.523,-17.752 -52.758,-22.957c-31.282,-7.005 -63.708,-3.745 -84.288,-4.65c-7.109,-0.314 -13.044,-1.271 -17.118,-3.014c-4.507,-1.93 -7.129,-5.007 -7.734,-8.734l6.169,-1.001c0.294,1.81 1.836,3.052 4.025,3.99c3.549,1.518 8.739,2.242 14.934,2.515c20.846,0.916 53.689,-2.301 85.378,4.795c24.58,5.506 43.995,13.371 55.704,24.532c29.604,28.219 61.555,77.848 67.797,104.614Z" style="fill:#262626;"/>
    <path d="M237.964,207.04l-6.127,1.233c-5.186,-25.778 -38.903,-77.778 -58.048,-99.829c-13.746,-15.832 -29.705,-25.238 -56.106,-31.888c-34.158,-8.6 -68.429,-2.804 -89.394,-1.231c-6.993,0.525 -12.799,0.413 -16.67,-0.607c-4.617,-1.215 -7.158,-4.001 -7.682,-7.215l6.169,-1.005c0.188,1.156 1.444,1.739 3.105,2.176c3.392,0.894 8.483,0.879 14.61,0.418c21.433,-1.607 56.467,-7.389 91.388,1.403c27.934,7.036 44.756,17.1 59.299,33.851c19.673,22.659 54.127,76.206 59.456,102.694Z" style="fill:#262626;"/>
    <path d="M237.972,207.145l-6.163,1.039c-4.305,-25.53 -33.703,-75.098 -52.075,-98.349c-14.495,-18.345 -27.83,-32.486 -57.436,-40.608c-37.047,-10.167 -73.141,-1.982 -94.534,2.139c-6.81,1.313 -12.412,2.081 -16.1,1.787c-4.787,-0.382 -7.302,-2.99 -7.736,-5.639l6.167,-1.011c-0.012,-0.077 -0.086,-0.219 -0.086,-0.219c0,-0 0.211,0.159 0.353,0.226c0.476,0.227 1.085,0.356 1.799,0.413c3.305,0.263 8.316,-0.517 14.42,-1.694c22.034,-4.245 59.214,-12.501 97.371,-2.029c31.245,8.572 45.388,23.399 60.686,42.76c18.883,23.898 48.909,74.944 53.334,101.185Z" style="fill:#262626;"/>
    <path d="M237.977,207.253l-6.194,0.839c-3.424,-25.303 -28.007,-71.158 -44.656,-96.3c-14.74,-22.258 -27.173,-41.02 -60.134,-49.878c-40.228,-10.812 -77.935,-1.299 -99.784,5.461c-6.576,2.033 -11.884,3.658 -15.399,4.105c-2.913,0.37 -5.027,-0.319 -6.149,-1.159l-1.09,-1.144l-0.409,-0.778l-0.245,-0.881l6.169,-1.002c-0.074,-0.456 -0.802,-1.277 -0.802,-1.277c0,0 0.973,0.138 1.738,0.04c3.276,-0.415 8.211,-1.98 14.341,-3.875c22.606,-6.995 61.629,-16.713 103.252,-5.526c34.823,9.359 48.151,28.948 63.723,52.463c17.086,25.802 42.125,72.946 45.639,98.912Z" style="fill:#262626;"/>
    <path d="M237.979,207.365l-6.218,0.631c-2.536,-25.021 -20.595,-69.264 -37.415,-94.908c-15.637,-23.839 -26.746,-47.393 -62.787,-58.522c-42.866,-13.239 -82.683,-0.673 -104.932,8.788c-6.333,2.692 -11.299,5.092 -14.647,6.304c-2.397,0.871 -4.249,0.897 -5.168,0.711l-1.118,-0.393l-0.964,-0.746l-0.502,-0.727l-0.317,-0.952l6.161,-1.052c-0.107,-0.626 -0.395,-1.243 -1.002,-1.745c-0.213,-0.175 -1.135,-0.528 -1.135,-0.528c-0,-0 1.069,-0.137 1.914,-0.443l0.001,-0.001c3.277,-1.186 8.133,-3.544 14.331,-6.179c23.156,-9.847 64.608,-22.787 109.222,-9.009c37.809,11.675 49.765,36.058 66.169,61.066c17.31,26.39 35.797,71.957 38.407,97.705Z" style="fill:#262626;"/>
    <path d="M237.978,207.48l-6.236,0.417c-1.659,-24.765 -14.675,-66.441 -30.719,-93.279c-15.912,-26.615 -25.569,-54.728 -64.819,-67.378c-45.804,-14.765 -87.575,-0.152 -110.197,12.077c-6.104,3.299 -10.765,6.378 -13.913,8.382l-0.001,0.001c-1.672,1.062 -3.331,1.859 -3.331,1.859c-0,0 1.386,-2.5 1.308,-3.004l-6.177,0.957l-0.019,-0.819l0.147,-0.671l0.4,-0.798l0.483,-0.552c0.259,-0.238 1.723,-0.904 3.837,-2.247c3.232,-2.058 8.024,-5.217 14.295,-8.606c23.622,-12.771 67.253,-27.946 115.086,-12.528c41.083,13.242 51.61,42.261 68.265,70.12c16.522,27.637 29.882,70.566 31.591,96.069Z" style="fill:#262626;"/>
    <path d="M237.974,207.598l-6.247,0.198c-0.78,-24.597 -9.333,-59.247 -23.098,-92.64c-12.145,-29.461 -25.454,-61.107 -67.78,-75.242c-48.755,-16.285 -92.55,0.319 -115.498,15.357c-5.925,3.88 -10.357,7.585 -13.268,10.384c-1.034,0.996 -2.225,2.263 -2.225,2.263c0,-0 0.26,-0.989 0.199,-1.367l-6.172,0.981l0.056,-1.482l0.619,-1.447c0.521,-0.833 1.657,-1.975 3.188,-3.451l0.001,-0.001c3.112,-2.992 7.843,-6.961 14.178,-11.108c24.02,-15.742 69.866,-33.104 120.902,-16.057c44.49,14.858 58.812,47.821 71.579,78.788c14.086,34.174 22.768,69.652 23.566,94.824Z" style="fill:#262626;"/>
    <path d="M237.965,207.718l-6.25,-0.027c0.106,-24.375 -4.731,-58.918 -15.36,-91.813c-10.736,-33.24 -25.403,-67.549 -70.853,-83.291c-51.761,-17.7 -97.621,0.76 -120.839,18.636c-5.803,4.465 -10.086,8.788 -12.729,12.377c-0.574,0.778 -1.067,1.486 -1.434,2.134c-0.215,0.378 -0.445,1.001 -0.445,1.001c0,-0 0,-0.128 -0.009,-0.186l-6.17,1.001c-0.166,-1.023 -0.035,-2.188 0.489,-3.477c0.485,-1.193 1.367,-2.593 2.538,-4.181c2.902,-3.94 7.575,-8.718 13.947,-13.622c24.342,-18.741 72.414,-38.154 126.686,-19.593l0.005,0.002c47.768,16.542 63.479,52.345 74.762,87.278c10.853,33.591 15.77,68.87 15.662,93.761Z" style="fill:#262626;"/>
    <path d="M237.953,207.841l-6.245,-0.256c0.99,-24.161 0.115,-58.307 -7.604,-90.996c-8.741,-37.01 -25.326,-74.107 -73.949,-91.326c-54.728,-19.268 -102.769,1.184 -126.217,21.913c-5.721,5.058 -9.907,10.043 -12.275,14.401c-1.062,1.959 -1.851,3.596 -1.627,4.982l-6.17,0.997c-0.395,-2.447 0.429,-5.503 2.305,-8.961c2.639,-4.859 7.25,-10.463 13.628,-16.102c24.606,-21.753 75.001,-43.346 132.437,-23.123l0.003,0.001c51.098,18.094 68.762,56.888 77.948,95.782c7.862,33.298 8.774,68.077 7.766,92.688Z" style="fill:#262626;"/>
</svg>
