<?xml version="1.0" encoding="UTF-8" standalone="no"?>
<!DOCTYPE svg PUBLIC "-//W3C//DTD SVG 1.1//EN" "http://www.w3.org/Graphics/SVG/1.1/DTD/svg11.dtd">
<svg width="219px" height="334px" viewBox="0 0 219 334" version="1.1" xmlns="http://www.w3.org/2000/svg" xmlns:xlink="http://www.w3.org/1999/xlink" xml:space="preserve" xmlns:serif="http://www.serif.com/" style="fill-rule:evenodd;clip-rule:evenodd;stroke-linejoin:round;stroke-miterlimit:2;">
    <path d="M108.094,330.322c78.106,-79.39 110.757,-155.612 106.999,-201.587c-5.24,-64.09 -58.276,-132.354 -147.343,-125.073c-59.805,4.889 -107.179,97.406 -4.269,137.382c52.953,20.57 80.155,97.783 44.613,189.278Z" style="fill:#fff;"/>
    <path d="M105.181,329.19c20.959,-53.955 19.851,-102.853 4.263,-137.709c-10.211,-22.832 -26.639,-39.578 -47.095,-47.524c-42.708,-16.591 -60.195,-42.159 -62.161,-66.885c-2.973,-37.368 29.8,-73.458 67.308,-76.524c91.103,-7.448 145.352,62.377 150.711,127.933c3.801,46.493 -28.897,123.746 -107.885,204.032c-1.04,1.057 -2.68,1.238 -3.925,0.433c-1.245,-0.805 -1.753,-2.374 -1.216,-3.756Zm10.761,-11.55c69.987,-74.657 99.586,-145.224 96.036,-188.65c-5.119,-62.625 -56.943,-129.328 -143.973,-122.213c-34.259,2.801 -64.302,35.669 -61.587,69.799c1.825,22.939 18.574,46.164 58.194,61.555c51.45,19.986 79.83,92.107 51.33,179.509Z" style="fill:#262626;"/>
    <path d="M117.158,317.974l-1.934,-0.774c19.06,-47.659 20.908,-91.201 10.392,-124.114l-0,-0.002c-9.776,-30.99 -29.983,-54.829 -56.808,-65.113c-12.016,-4.623 -22.513,-9.45 -31.401,-14.656c-21.185,-12.402 -31.637,-25.859 -32.653,-38.634l2.077,-0.165c0.977,12.293 11.243,25.066 31.629,37.001c8.801,5.156 19.197,9.932 31.094,14.509c27.387,10.499 48.067,34.791 58.048,66.43c10.633,33.282 8.831,77.322 -10.444,125.518Z" style="fill:#181514;"/>
    <path d="M117.14,318.028l-1.888,-0.882c23.318,-49.923 27.389,-95.7 17.56,-129.531c-9.389,-32.313 -30.343,-58.324 -59.267,-69.289c-12.416,-4.729 -23.687,-9.229 -33.564,-13.983c-13.364,-6.439 -23.028,-12.506 -28.778,-18.199c-4.016,-3.975 -6.153,-7.813 -6.444,-11.463l2.077,-0.165c0.258,3.249 2.258,6.609 5.832,10.148c5.635,5.578 15.122,11.493 28.217,17.802c9.829,4.731 21.046,9.207 33.399,13.913c29.514,11.187 50.948,37.683 60.529,70.654c9.939,34.211 5.906,80.512 -17.673,130.995Z" style="fill:#181514;"/>
    <path d="M117.122,318.073l-1.842,-0.973c27.577,-52.195 33.946,-100.23 24.73,-134.956c-8.933,-33.657 -30.701,-61.818 -61.725,-73.459c-12.818,-4.845 -24.84,-9.043 -35.733,-13.328c-16.379,-6.445 -27.953,-11.321 -33.557,-15.284c-2.734,-1.933 -4.102,-3.772 -4.231,-5.392l2.077,-0.165c0.042,0.525 0.335,1.056 0.808,1.628c0.589,0.71 1.445,1.447 2.549,2.228c5.528,3.909 16.959,8.688 33.117,15.046c10.885,4.282 22.897,8.476 35.706,13.318c31.639,11.873 53.892,40.548 63.002,74.874c9.319,35.109 2.981,83.693 -24.901,136.463Z" style="fill:#181514;"/>
    <path d="M117.106,318.112l-1.799,-1.051c31.839,-54.464 40.515,-104.764 31.901,-140.382c-8.467,-35.01 -31.057,-65.313 -64.186,-77.639c-13.224,-4.955 -25.969,-8.883 -37.903,-12.676c-19.48,-6.188 -33.079,-8.847 -37.771,-10.074c-1.139,-0.297 -1.83,-0.568 -2.075,-0.747l-0.327,-0.342l-0.13,-0.277l-0.047,-0.246l2.077,-0.16c-0.009,-0.117 -0.038,-0.239 -0.1,-0.361c-0.041,-0.081 -0.276,-0.318 -0.276,-0.318c0,0 0.699,0.251 1.405,0.436c4.705,1.229 18.34,3.899 37.875,10.104c11.966,3.803 24.743,7.742 38.002,12.71c33.77,12.565 56.85,43.411 65.481,79.101c8.706,36.001 0.055,86.871 -32.127,141.922Z" style="fill:#181514;"/>
    <path d="M117.09,318.146l-1.757,-1.119c36.106,-56.739 47.092,-109.31 39.074,-145.816c-7.989,-36.361 -31.415,-68.809 -66.649,-81.812c-13.633,-5.073 -27.095,-8.764 -40.078,-12.03c-17.648,-4.442 -31.113,-5.053 -37.521,-3.949c-1.25,0.216 -2.208,0.488 -2.842,0.825c-0.229,0.122 -0.478,0.356 -0.478,0.356c0,-0 0.015,-0.057 0.012,-0.086l-2.076,0.166c-0.055,-0.687 0.246,-1.39 1.072,-1.974c0.756,-0.535 2.086,-1.017 3.958,-1.34c6.554,-1.129 20.332,-0.561 38.384,3.982c13.053,3.284 26.587,6.996 40.294,12.097c35.899,13.249 59.819,46.269 67.959,83.318c8.102,36.889 -2.867,90.047 -39.352,147.382Z" style="fill:#181514;"/>
    <path d="M117.076,318.175l-1.719,-1.177c40.371,-59.012 53.689,-113.855 46.25,-151.25c-7.503,-37.72 -31.774,-72.31 -69.114,-85.994c-14.043,-5.189 -28.212,-8.673 -42.256,-11.388c-15.735,-3.041 -28.62,-2.383 -36.291,0.152c-2.427,0.802 -4.314,1.782 -5.558,2.907c-1.05,0.949 -1.62,1.981 -1.532,3.09l-2.076,0.166c-0.195,-2.443 1.465,-4.821 4.914,-6.641c7.063,-3.728 21.997,-5.38 40.938,-1.72c14.153,2.736 28.431,6.25 42.582,11.479c38.028,13.937 62.795,49.126 70.436,87.543c7.515,37.775 -5.792,93.22 -46.574,152.833Z" style="fill:#181514;"/>
    <path d="M117.064,318.199l-1.684,-1.226c44.637,-61.291 60.292,-118.411 53.427,-156.691c-7.008,-39.08 -32.132,-75.808 -71.574,-90.174c-14.46,-5.3 -29.338,-8.613 -44.444,-10.75c-16.342,-2.309 -30.059,-0.002 -38.229,4.569c-5.106,2.857 -8.019,6.557 -7.699,10.588l-2.076,0.165c-0.375,-4.718 2.782,-9.227 8.758,-12.571c8.452,-4.729 22.632,-7.203 39.538,-4.814c15.25,2.157 30.269,5.505 44.868,10.857c40.152,14.624 65.775,51.978 72.908,91.763c6.933,38.655 -8.717,96.391 -53.793,158.284Z" style="fill:#181514;"/>
    <path d="M117.053,318.221l-1.651,-1.27c48.905,-63.566 66.905,-122.965 60.606,-162.134c-6.504,-40.436 -32.494,-79.307 -74.039,-94.35c-14.875,-5.422 -30.465,-8.585 -46.636,-10.115c-16.974,-1.612 -31.54,2.357 -40.22,8.973c-5.572,4.247 -8.692,9.574 -8.246,15.19l-2.077,0.165c-0.497,-6.262 2.847,-12.276 9.06,-17.012c8.999,-6.859 24.082,-11.061 41.68,-9.39c16.35,1.547 32.111,4.749 47.151,10.231c42.275,15.308 68.766,54.829 75.384,95.977c6.358,39.54 -11.643,99.567 -61.012,163.735Z" style="fill:#181514;"/>
    <path d="M117.043,318.24l-1.621,-1.309c53.175,-65.845 73.528,-127.521 67.787,-167.574c-5.987,-41.802 -32.853,-82.81 -76.504,-98.536c-15.288,-5.535 -31.604,-8.574 -48.829,-9.482c-17.63,-0.931 -33.058,4.714 -42.254,13.385c-5.994,5.652 -9.324,12.587 -8.75,19.791l-2.077,0.165c-0.621,-7.803 2.905,-15.35 9.398,-21.472c9.536,-8.991 25.512,-14.915 43.793,-13.95c17.436,0.92 33.952,4.001 49.427,9.604c44.401,15.996 71.768,57.679 77.858,100.199c5.793,40.42 -14.567,102.732 -68.228,169.179Z" style="fill:#181514;"/>
    <path d="M117.033,318.257l-1.592,-1.343c57.45,-68.122 80.156,-132.082 74.969,-173.021c-5.466,-43.159 -33.21,-86.306 -78.966,-102.713c-15.71,-5.658 -32.749,-8.589 -51.028,-8.856c-18.305,-0.265 -34.597,7.067 -44.312,17.803c-6.391,7.062 -9.927,15.598 -9.227,24.388l-2.077,0.165c-0.744,-9.346 2.964,-18.442 9.759,-25.951c10.065,-11.122 26.925,-18.763 45.888,-18.488c18.52,0.27 35.785,3.246 51.701,8.978c46.524,16.683 74.771,60.528 80.329,104.412c5.232,41.3 -17.487,105.904 -75.444,174.626Z" style="fill:#181514;"/>
    <path d="M117.025,318.272l-1.566,-1.373c61.722,-70.403 86.794,-136.641 82.153,-178.464c-4.941,-44.525 -33.569,-89.811 -81.433,-106.901c-16.129,-5.776 -33.902,-8.617 -53.226,-8.223c-31.573,0.64 -58.144,25.141 -56.071,51.204l-2.077,0.165c-2.156,-27.099 25.278,-52.786 58.106,-53.451c19.594,-0.4 37.615,2.487 53.97,8.344c48.65,17.37 77.78,63.376 82.802,108.632c4.68,42.178 -20.412,109.067 -82.658,180.067Z" style="fill:#181514;"/>
    <path d="M117.018,318.286l-1.542,-1.401c65.995,-72.679 93.483,-141.205 89.338,-183.913c-4.357,-45.888 -33.927,-93.312 -83.9,-111.083c-16.549,-5.892 -35.066,-8.659 -55.428,-7.595c-32.779,1.715 -60.982,30.261 -58.599,60.221l-2.077,0.165c-2.467,-31.024 26.625,-60.69 60.567,-62.467c20.66,-1.079 39.446,1.736 56.236,7.713c50.775,18.057 80.848,66.223 85.275,112.846c4.178,43.056 -23.335,112.24 -89.87,185.514Z" style="fill:#181514;"/>
</svg>
