<?xml version="1.0" encoding="UTF-8" standalone="no"?>
<!DOCTYPE svg PUBLIC "-//W3C//DTD SVG 1.1//EN" "http://www.w3.org/Graphics/SVG/1.1/DTD/svg11.dtd">
<svg width="300px" height="298px" viewBox="0 0 300 298" version="1.1" xmlns="http://www.w3.org/2000/svg" xmlns:xlink="http://www.w3.org/1999/xlink" xml:space="preserve" xmlns:serif="http://www.serif.com/" style="fill-rule:evenodd;clip-rule:evenodd;stroke-linejoin:round;stroke-miterlimit:2;">
    <path d="M291.781,293.011c-0.631,-29.207 -15.815,-148.9 -85.582,-174.629c-93.419,-34.452 -106.186,37.849 -159.561,27.027c-20.716,-4.201 -43.204,-18.563 -42.453,-44.941c1.775,-62.344 123.878,-119.467 204.591,-86.864c51.06,20.625 75.905,57.58 81.883,93.233c5.257,31.354 7.668,144.023 1.122,186.174Z" style="fill:#fff;"/>
    <path d="M287.615,293.101c-0.373,-17.265 -5.911,-66.621 -25.126,-108.82c-12.529,-27.516 -30.841,-52.073 -57.732,-61.99c-54.142,-19.967 -80.234,-2.775 -103.585,11.886c-17.029,10.692 -32.802,19.889 -55.362,15.315c-22.508,-4.563 -46.606,-20.482 -45.79,-49.143c0.744,-26.114 21.283,-51.622 51.51,-70.323c44.34,-27.432 109.213,-40.318 158.807,-20.285c52.733,21.3 78.258,59.586 84.431,96.408c5.295,31.576 7.723,145.049 1.13,187.501c-0.331,2.134 -2.238,3.661 -4.393,3.518c-2.154,-0.143 -3.843,-1.908 -3.89,-4.067Zm3.354,-42.984c1.818,-50.568 -0.507,-119.258 -4.419,-142.591c-5.782,-34.484 -29.948,-70.11 -79.334,-90.059c-47.263,-19.09 -109.046,-6.497 -151.301,19.646c-27.504,17.017 -46.888,39.712 -47.565,63.473c-0.686,24.098 20.191,36.902 39.116,40.739c20.14,4.084 34.072,-4.66 49.275,-14.206c24.998,-15.694 52.939,-34.022 110.9,-12.647c28.922,10.667 48.957,36.761 62.433,66.356c10.486,23.031 17.016,48.132 20.895,69.289Z" style="fill:#262626;"/>
    <path d="M295.171,260.052l-6.191,0.855c-3.123,-22.629 -9.381,-51.558 -20.302,-77.949c-12.096,-29.228 -30.259,-54.206 -55.567,-66.11c-18.919,-8.899 -35.357,-15.777 -52.358,-16.828c-27.467,-1.693 -48.532,10.236 -66.739,21.633c-15.841,9.936 -30.36,18.696 -50.674,15.806c-20.248,-2.882 -41.639,-14.778 -40.987,-37.8l6.248,0.177c-0.556,19.616 18.367,28.979 35.62,31.435c18.678,2.658 31.909,-5.778 46.476,-14.915c19.196,-12.016 41.482,-24.359 70.441,-22.574c17.726,1.095 34.908,8.132 54.634,17.41c26.627,12.526 45.954,38.624 58.681,69.376c11.137,26.912 17.534,56.408 20.718,79.484Z" style="fill:#262626;"/>
    <path d="M295.184,260.102l-6.206,0.746c-2.704,-22.505 -8.414,-51.095 -18.198,-77.346c-11.065,-29.686 -28.103,-54.408 -50.551,-67.532c-18.234,-10.658 -34.73,-21.533 -55.033,-24.162c-29.314,-3.793 -54.455,8.592 -75.022,21.432c-15.43,9.669 -29.523,18.17 -48.6,16.723c-9.522,-0.723 -19.249,-3.241 -26.543,-7.879c-7.833,-4.98 -12.958,-12.335 -12.672,-22.429l6.248,0.177c-0.218,7.677 3.82,13.19 9.777,16.978c6.496,4.129 15.184,6.277 23.663,6.921c17.635,1.337 30.547,-6.851 44.813,-15.791l0.002,-0.001c21.675,-13.532 48.243,-26.327 79.137,-22.329c21.139,2.737 38.399,13.867 57.384,24.964c23.564,13.776 41.639,39.584 53.253,70.746c9.967,26.738 15.793,55.858 18.548,78.782Z" style="fill:#262626;"/>
    <path d="M295.195,260.153l-6.217,0.636c-2.291,-22.383 -7.431,-50.647 -16.097,-76.742c-10.014,-30.161 -25.91,-54.972 -45.529,-68.974c-17.641,-12.596 -34.076,-27.169 -57.667,-31.485c-31.181,-5.702 -60.414,6.944 -83.349,21.236c-15.016,9.397 -28.703,17.677 -46.501,17.633c-11.056,-0.028 -22.154,-2.213 -29.195,-7.128c-5.289,-3.691 -8.47,-8.846 -8.276,-15.679l6.248,0.178c-0.165,5.801 3.489,9.666 8.774,12.208c6.11,2.937 14.315,4.15 22.464,4.171c16.565,0.041 29.199,-7.937 43.177,-16.685l0.002,-0.002c24.135,-15.04 54.967,-28.081 87.78,-22.08c24.565,4.494 41.806,19.431 60.175,32.546c20.536,14.658 37.346,40.518 47.829,72.091c8.817,26.55 14.052,55.304 16.382,78.076Z" style="fill:#262626;"/>
    <path d="M295.206,260.205l-6.228,0.524c-1.874,-22.264 -6.426,-50.209 -13.989,-76.144c-8.942,-30.656 -23.615,-55.884 -40.498,-70.437c-17.081,-14.728 -33.427,-32.689 -60.283,-38.778c-33.084,-7.502 -66.398,5.288 -91.712,21.04c-14.587,9.12 -27.884,17.213 -44.377,18.519c-10.577,0.837 -20.946,0.01 -27.491,-3.137c-5.342,-2.569 -8.414,-6.592 -8.258,-12.144l6.247,0.175c-0.084,2.987 1.846,4.954 4.72,6.336c5.776,2.778 14.953,3.278 24.289,2.54c15.479,-1.227 27.87,-9.031 41.563,-17.592l0.003,-0.002c26.59,-16.546 61.646,-29.711 96.398,-21.83c27.983,6.344 45.184,24.793 62.982,40.14c17.619,15.187 33.085,41.427 42.417,73.42c7.685,26.353 12.313,54.748 14.217,77.37Z" style="fill:#262626;"/>
    <path d="M295.216,260.258l-6.237,0.41c-1.453,-22.142 -5.395,-49.78 -11.878,-75.547c-7.849,-31.167 -21.168,-57.102 -35.452,-71.915c-16.468,-17.076 -32.803,-38.126 -62.891,-46.056c-35.016,-9.228 -72.402,3.631 -100.099,20.85c-14.155,8.836 -27.064,16.789 -42.229,19.38c-11.892,2.028 -23.128,2.325 -28.726,-0.149c-3.6,-1.591 -5.425,-4.169 -5.329,-7.588l6.248,0.176c-0.016,0.568 0.331,0.957 0.822,1.277c0.721,0.471 1.672,0.8 2.788,1.058c5.425,1.258 14.069,0.613 23.146,-0.935c14.379,-2.457 26.552,-10.145 39.976,-18.525l0.002,-0.001c29.036,-18.052 68.285,-31.26 104.994,-21.587c31.382,8.271 48.621,29.951 65.797,47.762c14.857,15.407 28.851,42.311 37.014,74.728c6.579,26.147 10.579,54.193 12.054,76.662Z" style="fill:#262626;"/>
    <path d="M295.224,260.312l-6.243,0.294c-1.038,-22.021 -4.339,-49.364 -9.768,-74.949c-6.719,-31.695 -18.528,-58.568 -30.393,-73.417c-15.686,-19.637 -32.206,-43.486 -65.5,-53.31c-36.972,-10.906 -78.411,1.973 -108.498,20.653c-13.713,8.547 -26.232,16.427 -40.063,20.212c-8.767,2.402 -16.889,4.192 -22.318,4.674c-2.767,0.246 -4.943,0.13 -6.344,-0.271l-1.752,-0.795l-1.124,-1.07l-0.653,-1.29l-0.187,-1.402l6.247,0.172c0.019,-0.676 -0.887,-1.648 -0.887,-1.648c0,-0 1.724,0.234 3.15,0.153c5.115,-0.294 13.311,-2.111 22.218,-4.551c13.276,-3.633 25.248,-11.286 38.412,-19.491l0.003,-0.001c31.477,-19.544 74.883,-32.75 113.564,-21.339c34.768,10.258 52.234,34.897 68.615,55.402c12.295,15.388 24.662,43.179 31.624,76.023c5.501,25.926 8.845,53.635 9.897,75.951Z" style="fill:#262626;"/>
    <path d="M295.232,260.367l-6.247,0.176c-0.618,-21.9 -3.266,-48.946 -7.652,-74.354c-5.568,-32.235 -15.687,-60.198 -25.321,-74.935c-14.637,-22.395 -31.644,-48.78 -68.115,-60.538c-38.955,-12.56 -84.433,0.304 -116.915,20.454c-13.255,8.252 -25.369,16.104 -37.873,21.004c-13.149,5.147 -24.058,9.52 -26.111,10.325c-0.352,0.139 -0.556,0.207 -0.593,0.218l-1.298,0.105l-1.131,-0.377l-0.707,-0.544l-0.455,-0.598l-0.412,-1.253l6.216,-0.654c-0.095,-0.903 -0.503,-1.698 -1.388,-2.282c-0.319,-0.211 -0.918,-0.569 -1.903,-0.511c-0.053,0.003 -0.864,0.177 -0.864,0.177c-0,-0 0.124,-0.048 0.252,-0.099c2.053,-0.805 12.964,-5.179 26.115,-10.327c12.174,-4.77 23.945,-12.457 36.854,-20.493l0.002,-0.001c33.917,-21.041 81.452,-34.207 122.129,-21.093c38.134,12.295 56.124,39.651 71.429,63.068c9.941,15.208 20.502,44.025 26.248,77.291c4.439,25.71 7.115,53.08 7.74,75.241Z" style="fill:#262626;"/>
    <path d="M295.239,260.422l-6.25,0.057c-0.198,-21.782 -2.164,-48.537 -5.533,-73.754c-4.376,-32.791 -12.641,-61.91 -20.236,-76.485c-13.187,-25.311 -31.108,-54.012 -70.735,-67.738c-40.96,-14.194 -90.463,-1.367 -125.342,20.254c-12.792,7.953 -24.461,15.831 -35.685,21.753c-8.127,4.289 -15.063,8.485 -19.327,11.909c-1.259,1.012 -2.266,1.935 -2.953,2.769c-0.264,0.321 -0.571,0.852 -0.571,0.852c0,0 0.03,-0.159 0.032,-0.231l-6.247,-0.179c0.045,-1.573 1.142,-3.838 3.687,-6.235c4.122,-3.885 12.416,-9.111 22.462,-14.412c11.106,-5.86 22.647,-13.666 35.306,-21.537l0.001,-0.001c36.354,-22.535 87.992,-35.641 130.683,-20.847c41.493,14.372 60.424,44.252 74.232,70.755c7.802,14.973 16.392,44.86 20.888,78.546c3.405,25.48 5.388,52.514 5.588,74.524Z" style="fill:#262626;"/>
    <path d="M295.244,260.478l-6.249,-0.064c0.222,-21.664 -1.041,-48.122 -3.41,-73.16c-3.155,-33.349 -9.399,-63.608 -15.132,-78.049c-11.244,-28.324 -30.618,-59.196 -73.37,-74.92c-42.983,-15.804 -96.501,-3.037 -133.777,20.054c-12.329,7.652 -23.498,15.585 -33.504,22.467c-7.561,5.198 -13.784,10.497 -17.577,15.394c-2.141,2.764 -3.513,5.304 -3.58,7.606l-6.248,-0.182c0.098,-3.359 1.763,-7.218 4.887,-11.252c4.106,-5.3 10.793,-11.09 18.977,-16.716c10.079,-6.932 21.332,-14.921 33.752,-22.629c38.784,-24.025 94.506,-37.052 139.227,-20.608c44.83,16.489 65.231,48.779 77.022,78.48c5.861,14.761 12.321,45.677 15.545,79.767c2.391,25.26 3.661,51.955 3.437,73.812Z" style="fill:#262626;"/>
    <path d="M295.249,260.535l-6.248,-0.186c0.642,-21.542 0.103,-47.706 -1.283,-72.567c-1.894,-33.914 -5.977,-65.219 -10.006,-79.637c-8.751,-31.319 -30.169,-64.332 -76.026,-82.07c-45.018,-17.412 -102.542,-4.709 -142.219,19.85c-11.86,7.35 -22.473,15.343 -31.343,23.135c-11.464,10.072 -19.188,20.793 -19.474,30.74l-6.247,-0.179c0.324,-11.302 8.571,-23.812 21.596,-35.256c9.107,-8 20.001,-16.207 32.177,-23.753c41.215,-25.511 101.003,-38.453 147.765,-20.367c48.153,18.627 70.601,53.332 79.791,86.218c4.096,14.661 8.301,46.486 10.227,80.971c1.395,25.044 1.936,51.401 1.29,73.101Z" style="fill:#262626;"/>
</svg>
