<?xml version="1.0" encoding="UTF-8" standalone="no"?>
<!DOCTYPE svg PUBLIC "-//W3C//DTD SVG 1.1//EN" "http://www.w3.org/Graphics/SVG/1.1/DTD/svg11.dtd">
<svg width="296px" height="372px" viewBox="0 0 296 372" version="1.1" xmlns="http://www.w3.org/2000/svg" xmlns:xlink="http://www.w3.org/1999/xlink" xml:space="preserve" xmlns:serif="http://www.serif.com/" style="fill-rule:evenodd;clip-rule:evenodd;stroke-linejoin:round;stroke-miterlimit:2;">
    <path d="M149.206,368.495c-20.869,-23.799 9.154,-96.279 7.906,-120.556c-4.298,-83.633 -80.973,-79.884 -124.495,-102.845c-29.361,-15.489 -40.775,-51.698 -15.562,-102.57c28.796,-58.101 140.816,-47.105 200.107,1.491c5.265,4.315 86.508,55.824 73.357,140.817c-13.967,90.268 -92.2,140.595 -141.313,183.663Z" style="fill:#fff;"/>
    <path d="M146.857,370.555c-3.685,-4.202 -5.99,-9.753 -7.171,-16.268c-1.657,-9.14 -1.107,-20.253 0.553,-31.956c3.988,-28.124 14.495,-59.779 13.752,-74.232c-2.492,-48.501 -30.252,-66.533 -61.081,-78.043c-21.394,-7.988 -44.236,-12.957 -61.752,-22.198c-30.579,-16.133 -43.164,-53.737 -16.903,-106.722c11.971,-24.154 37.663,-37.021 68.27,-40.29c44.934,-4.799 100.43,11.092 136.618,40.752c5.367,4.399 87.87,57.071 74.464,143.712c-7.087,45.808 -30.433,81.507 -58.286,111.192c-27.517,29.328 -59.431,52.75 -84.054,74.343c-1.298,1.138 -3.272,1.008 -4.41,-0.29Zm2.838,-6.629c24.117,-20.862 54.64,-43.533 81.068,-71.701c27.034,-28.812 49.789,-63.41 56.668,-107.871c12.895,-83.345 -67.087,-133.691 -72.25,-137.922c-34.962,-28.656 -88.58,-44.008 -131.992,-39.371c-28.292,3.021 -52.268,14.524 -63.334,36.851c-24.168,48.762 -13.923,83.571 14.22,98.418c17.302,9.128 39.887,13.98 61.021,21.871c32.963,12.307 62.472,31.72 65.137,83.577c0.755,14.681 -9.756,46.864 -13.806,75.431c-1.556,10.973 -2.145,21.393 -0.591,29.963c0.74,4.086 1.962,7.733 3.859,10.754Z" style="fill:#262626;"/>
    <path d="M14.882,50.654c0.047,-0.458 0.456,-0.792 0.914,-0.745c0.457,0.046 0.791,0.456 0.744,0.913c-1.784,17.552 -3.584,32.375 -3.177,45.022c0.403,12.481 2.956,22.822 9.893,31.554c9.316,11.728 26.468,20.535 56.62,27.832c41.774,10.111 63.667,28.365 74.553,48.494c10.897,20.146 10.77,42.211 8.4,60.017c-0.004,0.028 -0.009,0.056 -0.015,0.083c-5.033,21.12 -21.52,60.097 -15.02,103.436c0.069,0.455 -0.245,0.879 -0.7,0.948c-0.455,0.068 -0.88,-0.246 -0.948,-0.701c-6.535,-43.573 9.962,-82.771 15.037,-104.03c2.324,-17.496 2.483,-39.173 -8.22,-58.961c-10.721,-19.822 -32.34,-37.708 -73.479,-47.666c-30.667,-7.422 -48.058,-16.487 -57.533,-28.415c-7.157,-9.009 -9.839,-19.662 -10.253,-32.538c-0.41,-12.709 1.391,-27.605 3.184,-45.243Z" style="fill:#181514;"/>
    <path d="M14.938,50.606c0.034,-0.459 0.434,-0.804 0.892,-0.77c0.459,0.034 0.804,0.434 0.77,0.893c-1.158,15.586 -2.273,28.892 -1.307,40.32c0.953,11.274 3.935,20.703 10.986,28.669c9.482,10.712 26.248,18.767 55.039,25.208c44.871,10.04 70.964,31.605 82.603,54.842l0.001,0.002c10.005,20.121 10.687,41.938 7.074,59.883c-1.571,7.792 -5.093,17.239 -8.573,27.992c-7.48,23.097 -16.463,50.21 -14.703,79.618c0.028,0.459 -0.323,0.854 -0.782,0.882c-0.459,0.027 -0.854,-0.323 -0.882,-0.782c-1.774,-29.632 7.244,-56.958 14.781,-80.231c3.458,-10.684 6.964,-20.067 8.526,-27.808c3.547,-17.623 2.892,-39.05 -6.933,-58.811c-11.472,-22.902 -37.251,-44.065 -81.476,-53.961c-29.277,-6.55 -46.281,-14.837 -55.923,-25.73c-7.291,-8.238 -10.413,-17.974 -11.399,-29.632c-0.972,-11.504 0.141,-24.897 1.306,-40.584Z" style="fill:#181514;"/>
    <path d="M14.993,50.564c0.018,-0.459 0.406,-0.818 0.865,-0.8c0.46,0.018 0.818,0.406 0.8,0.865c-0.882,22.598 -1.522,40.117 6.682,53.738c8.194,13.604 25.205,23.236 59.419,30.258c45.304,9.301 75.583,32.434 88.682,57.27c11.154,21.154 11.891,44.268 7.729,63.626c-1.835,8.523 -5.642,18.554 -9.663,29.678c-9.087,25.14 -21.034,52.291 -21.868,82.067c-0.013,0.459 -0.397,0.822 -0.856,0.809c-0.46,-0.012 -0.823,-0.396 -0.81,-0.856c0.839,-29.961 12.823,-57.29 21.967,-82.587c3.992,-11.044 7.779,-21 9.601,-29.461c4.088,-19.015 3.382,-41.72 -7.574,-62.499c-12.923,-24.502 -42.849,-47.238 -87.543,-56.414c-34.894,-7.162 -52.155,-17.157 -60.512,-31.032c-8.347,-13.858 -7.817,-31.669 -6.919,-54.662Z" style="fill:#181514;"/>
    <path d="M15.049,50.533c-0.003,-0.46 0.367,-0.836 0.827,-0.84c0.46,-0.004 0.836,0.367 0.84,0.827c0.154,19.328 0.734,34.772 9.446,46.886c8.72,12.125 25.555,20.855 58.037,26.915c45.761,8.538 80.158,33.283 94.763,59.702c12.269,22.202 13.094,46.591 8.382,67.369c-2.099,9.246 -6.212,19.859 -10.748,31.352c-10.734,27.186 -25.613,54.383 -29.045,84.522c-0.052,0.457 -0.465,0.786 -0.922,0.734c-0.457,-0.052 -0.786,-0.465 -0.734,-0.922c3.449,-30.287 18.365,-57.628 29.151,-84.946c4.501,-11.405 8.59,-21.934 10.673,-31.108c4.629,-20.416 3.839,-44.381 -8.216,-66.195c-14.42,-26.084 -48.428,-50.44 -93.609,-58.87c-33.107,-6.176 -50.198,-15.222 -59.085,-27.58c-8.895,-12.368 -9.602,-28.112 -9.76,-47.846Z" style="fill:#181514;"/>
    <path d="M15.109,50.517c-0.034,-0.459 0.311,-0.858 0.77,-0.892c0.458,-0.034 0.858,0.311 0.892,0.769c1.187,16.064 2.997,29.41 12.217,40.009c9.252,10.634 25.915,18.467 56.652,23.618c46.24,7.747 84.73,34.133 100.843,62.136c13.376,23.244 14.297,48.903 9.036,71.101c-2.367,9.971 -6.794,21.163 -11.833,33.028c-12.414,29.225 -30.194,56.471 -36.231,86.977c-0.089,0.451 -0.528,0.745 -0.979,0.656c-0.452,-0.089 -0.745,-0.528 -0.656,-0.979c6.059,-30.617 23.873,-57.975 36.332,-87.306c4.999,-11.77 9.397,-22.869 11.745,-32.761c5.171,-21.817 4.288,-47.039 -8.858,-69.885c-15.921,-27.666 -53.989,-53.669 -99.675,-61.323c-31.296,-5.245 -48.213,-13.34 -57.633,-24.168c-9.451,-10.864 -11.406,-24.514 -12.622,-40.98Z" style="fill:#181514;"/>
    <path d="M15.176,50.528c-0.078,-0.454 0.226,-0.885 0.679,-0.964c0.453,-0.078 0.885,0.226 0.963,0.68c2.215,12.814 5.264,24.039 14.994,33.113c9.79,9.13 26.285,16.066 55.267,20.36c46.743,6.925 89.299,34.994 106.926,64.572c14.477,24.299 15.499,51.217 9.685,74.834c-2.632,10.697 -7.384,22.462 -12.918,34.707c-14.117,31.248 -34.773,58.559 -43.415,89.426c-0.124,0.443 -0.584,0.702 -1.027,0.578c-0.443,-0.124 -0.702,-0.585 -0.578,-1.027c8.664,-30.945 29.349,-58.336 43.501,-89.663c5.489,-12.145 10.209,-23.81 12.818,-34.42c5.717,-23.22 4.737,-49.691 -9.498,-73.582c-17.425,-29.24 -59.529,-56.931 -105.738,-63.776c-29.467,-4.366 -46.205,-11.507 -56.159,-20.79c-10.014,-9.339 -13.221,-20.861 -15.5,-34.048Z" style="fill:#181514;"/>
    <path d="M15.265,50.582c-0.148,-0.436 0.086,-0.909 0.522,-1.056c0.436,-0.148 0.909,0.086 1.056,0.522c2.595,7.673 5.864,15.03 12.323,21.531c9.753,9.817 26.726,17.657 59.353,21.839c47.267,6.057 93.861,35.849 113.008,67.008c15.575,25.344 16.7,53.522 10.337,78.56c-2.899,11.419 -7.985,23.753 -14.001,36.382c-15.845,33.262 -39.359,60.645 -50.606,91.875c-0.156,0.433 -0.634,0.658 -1.067,0.502c-0.433,-0.156 -0.657,-0.634 -0.502,-1.067c11.265,-31.279 34.801,-58.712 50.67,-92.027c5.966,-12.523 11.016,-24.752 13.891,-36.075c6.258,-24.628 5.178,-52.349 -10.142,-77.278c-18.938,-30.817 -65.05,-60.236 -111.8,-66.227c-33.182,-4.253 -50.405,-12.333 -60.323,-22.317c-6.655,-6.699 -10.046,-14.266 -12.719,-22.172Z" style="fill:#181514;"/>
    <path d="M15.419,50.709c-0.256,-0.382 -0.154,-0.901 0.228,-1.157c0.382,-0.256 0.9,-0.154 1.156,0.228c8.602,12.83 22.388,27.883 73.154,33.334c47.806,5.133 98.424,36.715 119.093,69.446c16.671,26.397 17.896,55.83 10.989,82.289c-3.167,12.14 -8.595,25.042 -15.085,38.055c-17.593,35.268 -43.946,62.729 -57.801,94.321c-0.184,0.421 -0.676,0.613 -1.098,0.428c-0.421,-0.184 -0.613,-0.676 -0.428,-1.098c13.865,-31.614 40.229,-59.101 57.835,-94.395c6.435,-12.903 11.824,-25.694 14.964,-37.732c6.797,-26.036 5.619,-55.003 -10.785,-80.978c-20.452,-32.387 -70.559,-63.6 -117.862,-68.678c-51.65,-5.547 -65.608,-21.01 -74.36,-34.063Z" style="fill:#181514;"/>
    <path d="M15.742,50.89c-0.395,-0.235 -0.525,-0.747 -0.29,-1.142c0.236,-0.396 0.748,-0.525 1.143,-0.29c10.717,6.383 27.467,19.305 74.796,23.353c48.365,4.142 102.989,37.584 125.183,71.888c17.762,27.449 19.096,58.133 11.64,86.017c-3.438,12.86 -9.209,26.323 -16.172,39.723c-19.359,37.265 -48.53,64.816 -64.997,96.762c-0.211,0.409 -0.714,0.57 -1.123,0.359c-0.409,-0.21 -0.569,-0.713 -0.359,-1.122c16.469,-31.948 45.64,-59.501 65,-96.768c6.904,-13.286 12.632,-26.633 16.041,-39.385c7.339,-27.449 6.056,-57.659 -11.429,-84.681c-21.969,-33.955 -76.052,-67.032 -123.927,-71.132c-47.779,-4.087 -64.687,-17.138 -75.506,-23.582Z" style="fill:#181514;"/>
    <path d="M16.233,50.937c-0.46,0.004 -0.837,-0.366 -0.841,-0.826c-0.004,-0.46 0.366,-0.837 0.826,-0.841c5.199,-0.046 11.523,1.628 20.076,3.848c12.658,3.286 30.27,7.753 56.533,9.394c48.931,3.058 107.547,38.45 131.271,74.322c18.849,28.506 20.295,60.436 12.291,89.744c-3.706,13.58 -9.827,27.607 -17.256,41.398c-21.14,39.245 -53.113,66.892 -72.194,99.197c-0.234,0.396 -0.745,0.528 -1.141,0.294c-0.396,-0.234 -0.528,-0.746 -0.294,-1.142c19.071,-32.287 51.033,-59.915 72.162,-99.139c7.366,-13.675 13.44,-27.581 17.115,-41.047c7.882,-28.863 6.49,-60.312 -12.074,-88.386c-23.49,-35.518 -81.535,-70.55 -129.984,-73.577c-26.409,-1.651 -44.119,-6.141 -56.847,-9.445c-8.371,-2.173 -14.555,-3.84 -19.643,-3.794Z" style="fill:#181514;"/>
    <path d="M16.621,50.794c-0.42,0.187 -0.913,-0.002 -1.1,-0.423c-0.187,-0.42 0.003,-0.913 0.423,-1.1c6.101,-2.712 13.482,-2.415 22.77,-1.188c13.618,1.8 31.424,5.558 55.467,4.128c49.473,-2.943 112.113,39.342 137.44,76.758l0.001,0.002c19.891,29.595 21.489,62.737 12.942,93.468c-3.978,14.301 -10.449,28.884 -18.338,43.07c-22.934,41.215 -57.702,68.974 -79.393,101.631c-0.254,0.383 -0.772,0.487 -1.155,0.233c-0.383,-0.255 -0.487,-0.772 -0.233,-1.155c21.669,-32.625 56.414,-60.346 79.324,-101.52c7.824,-14.067 14.245,-28.524 18.189,-42.706c8.421,-30.276 6.878,-62.932 -12.718,-92.09c-25.062,-37.025 -87.005,-78.94 -135.96,-76.027c-24.18,1.438 -42.088,-2.33 -55.784,-4.139c-8.921,-1.179 -16.015,-1.547 -21.875,1.058Z" style="fill:#181514;"/>
    <path d="M16.85,50.622c-0.364,0.281 -0.888,0.214 -1.169,-0.15c-0.282,-0.364 -0.215,-0.888 0.149,-1.169c6.95,-5.373 15.327,-7.196 25.267,-7.598c14.616,-0.591 32.66,1.891 54.525,0.21c20.01,-1.542 42.708,4.579 64.458,15.002c32.55,15.598 62.974,40.818 79.066,64.193l0.001,0.002c20.986,30.643 22.688,65.034 13.593,97.188c-4.25,15.022 -11.071,30.159 -19.426,44.74c-24.731,43.181 -62.285,71.05 -86.59,104.062c-0.273,0.37 -0.795,0.45 -1.165,0.177c-0.37,-0.273 -0.45,-0.795 -0.177,-1.165c24.271,-32.966 61.789,-60.782 86.486,-103.902c8.285,-14.46 15.054,-29.469 19.268,-44.366c8.964,-31.691 7.32,-65.59 -13.364,-95.791c-15.956,-23.179 -46.137,-48.169 -78.412,-63.635c-21.467,-10.287 -43.861,-16.366 -63.61,-14.844c-21.89,1.684 -39.954,-0.797 -54.586,-0.205c-9.558,0.386 -17.631,2.084 -24.314,7.251Z" style="fill:#181514;"/>
    <path d="M16.995,50.473c-0.321,0.33 -0.849,0.338 -1.179,0.017c-0.33,-0.32 -0.337,-0.848 -0.017,-1.178c9.707,-9.996 21.858,-13.699 35.754,-15.25c13.7,-1.53 29.109,-0.967 45.513,-2.448c20.213,-1.824 43.684,4.38 66.386,15.105c33.97,16.05 66.216,42.213 83.219,66.53c22.081,31.694 23.882,67.335 14.244,100.916c-4.521,15.738 -11.696,31.431 -20.508,46.406c-26.545,45.137 -66.873,73.128 -93.788,106.49c-0.289,0.358 -0.814,0.414 -1.172,0.126c-0.358,-0.289 -0.414,-0.814 -0.125,-1.172c26.868,-33.305 67.149,-61.229 93.649,-106.289c8.739,-14.852 15.858,-30.413 20.342,-46.021c9.503,-33.109 7.761,-68.253 -14.009,-99.502c-16.866,-24.122 -48.867,-50.056 -82.564,-65.977c-22.41,-10.588 -45.571,-16.752 -65.524,-14.952c-16.392,1.48 -31.789,0.916 -45.478,2.444c-13.494,1.507 -25.317,5.048 -34.743,14.755Z" style="fill:#181514;"/>
    <path d="M17.102,50.346c-0.29,0.357 -0.815,0.413 -1.172,0.124c-0.358,-0.29 -0.413,-0.815 -0.124,-1.172c21.388,-26.438 53.211,-26.334 82.744,-27.987c20.487,-1.143 44.733,5.335 68.362,16.242c35.379,16.329 69.372,42.575 87.284,67.838c23.175,32.741 25.018,69.609 14.895,104.633l-0.001,0.003c-4.817,16.444 -12.354,32.679 -21.589,48.077l-0.001,0.003c-28.461,47.022 -71.461,75.195 -100.985,108.909c-0.303,0.346 -0.83,0.381 -1.176,0.078c-0.346,-0.303 -0.381,-0.83 -0.078,-1.176c29.467,-33.649 72.406,-61.743 100.812,-108.673c9.16,-15.273 16.639,-31.374 21.417,-47.685c9.985,-34.545 8.203,-70.913 -14.654,-103.206c-17.773,-25.066 -51.519,-51.086 -86.622,-67.288c-23.358,-10.782 -47.319,-17.221 -67.571,-16.091c-29.081,1.628 -60.48,1.338 -81.541,27.371Z" style="fill:#181514;"/>
    <path d="M17.19,50.234c-0.267,0.375 -0.788,0.463 -1.162,0.196c-0.375,-0.266 -0.463,-0.787 -0.196,-1.162c23.49,-33.009 58.202,-35.715 84.139,-38.252c20.673,-2.023 45.697,4.416 70.289,15.701c36.802,16.887 72.639,44.608 91.461,70.812c35.71,49.721 23.209,108.854 -7.127,158.106c-30.197,49.018 -76.048,77.266 -108.182,111.334c-0.316,0.334 -0.843,0.35 -1.178,0.034c-0.335,-0.316 -0.35,-0.843 -0.034,-1.178c32.064,-33.994 77.844,-62.153 107.975,-111.064c29.983,-48.679 42.487,-107.117 7.192,-156.26c-18.683,-26.01 -54.272,-53.507 -90.802,-70.269c-24.296,-11.149 -49.008,-17.556 -69.432,-15.557c-25.551,2.499 -59.802,5.041 -82.943,37.559Z" style="fill:#181514;"/>
</svg>
