<?xml version="1.0" encoding="UTF-8" standalone="no"?>
<!DOCTYPE svg PUBLIC "-//W3C//DTD SVG 1.1//EN" "http://www.w3.org/Graphics/SVG/1.1/DTD/svg11.dtd">
<svg width="166px" height="426px" viewBox="0 0 166 426" version="1.1" xmlns="http://www.w3.org/2000/svg" xmlns:xlink="http://www.w3.org/1999/xlink" xml:space="preserve" xmlns:serif="http://www.serif.com/" style="fill-rule:evenodd;clip-rule:evenodd;stroke-linejoin:round;stroke-miterlimit:2;">
    <path d="M84.55,422.474c32.532,-64.297 57.79,-98.14 66.36,-131.155c25.847,-99.569 1.363,-180.229 -4.577,-201.561c-5.504,-19.767 -38.93,-97.429 -104.835,-85.362c-35.857,6.566 -54.644,55.63 -20.102,107c54.218,80.63 98.97,212.608 63.154,311.078Z" style="fill:#fff;"/>
    <path d="M81.613,421.406c35.497,-97.594 -9.074,-228.353 -62.81,-308.266c-36.166,-53.784 -15.41,-104.944 22.132,-111.818c34.222,-6.266 60.065,10.633 78.014,31.796c17.655,20.816 27.583,45.705 30.394,55.802c5.988,21.504 30.647,102.814 4.592,203.184c-8.609,33.165 -33.918,67.193 -66.597,131.781c-0.746,1.475 -2.513,2.113 -4.03,1.457c-1.517,-0.657 -2.26,-2.383 -1.695,-3.936Zm13.996,-26.81c25.618,-47.463 45.005,-76.05 52.276,-104.062c25.639,-98.767 1.329,-178.777 -4.563,-199.938c-2.692,-9.671 -12.229,-33.496 -29.14,-53.436c-16.616,-19.592 -40.438,-35.491 -72.121,-29.69c-34.177,6.258 -50.995,53.22 -18.072,102.182c49.541,73.674 91.069,189.877 71.62,284.944Z" style="fill:#262626;"/>
    <path d="M40.589,6.124l0.375,2.05c-11.016,2.017 -19.69,10.19 -24.185,22.114c-6.865,18.209 -4.014,45.072 14.91,72.59c9.308,13.539 17.88,28.484 25.277,43.042c22.138,43.228 40.873,99.769 45.591,157.521c2.57,31.476 1.042,62.787 -6.812,94.035l-2.021,-0.508c7.798,-31.023 9.308,-62.108 6.757,-93.357c-4.695,-57.468 -23.342,-113.728 -45.371,-156.745l-0.001,-0.001c-7.356,-14.478 -15.88,-29.342 -25.137,-42.806c-19.415,-28.233 -22.185,-55.824 -15.142,-74.506c4.776,-12.67 14.054,-21.285 25.759,-23.429Z" style="fill:#181514;"/>
    <path d="M40.568,6.124l0.375,2.05c-8.6,1.575 -15.219,9.034 -18.267,20.024c-4.698,16.94 -0.908,42.177 17.249,68.03c10.01,14.26 18.729,30.09 25.703,44.152c20.394,41.113 39.071,100.01 41.5,161.989c1.217,31.16 -1.758,62.224 -11.415,95.146l-1.999,-0.586c9.589,-32.691 12.541,-63.537 11.332,-94.479c-2.416,-61.655 -20.996,-120.246 -41.284,-161.144c-6.931,-13.975 -15.594,-29.709 -25.542,-43.881c-18.616,-26.507 -22.369,-52.416 -17.552,-69.784c3.296,-11.883 10.601,-19.814 19.9,-21.517Z" style="fill:#181514;"/>
    <path d="M40.546,6.124l0.376,2.05c-6.198,1.135 -10.721,7.873 -12.332,17.896c-2.518,15.669 2.215,39.286 19.566,63.512c10.73,14.977 19.604,31.681 26.134,45.263c18.726,38.954 37.423,100.194 37.406,166.448c-0.009,30.82 -4.552,61.666 -16.015,96.256l-1.978,-0.655c11.385,-34.355 15.901,-64.991 15.91,-95.602c0.016,-65.894 -18.577,-126.802 -37.2,-165.544c-6.485,-13.489 -15.295,-30.079 -25.951,-44.952c-17.764,-24.804 -22.507,-49.015 -19.929,-65.056c1.787,-11.118 7.139,-18.356 14.013,-19.616Z" style="fill:#181514;"/>
    <path d="M40.525,6.124l0.376,2.05c-1.296,0.237 -2.418,1.166 -3.362,2.612c-1.064,1.632 -1.881,3.898 -2.402,6.685c-2.54,13.585 2.006,39.092 21.255,65.462c11.455,15.69 20.48,33.276 26.561,46.375c17.068,36.788 35.941,100.353 33.31,170.907c-1.137,30.475 -7.35,61.102 -20.614,97.365l-1.956,-0.716c13.177,-36.026 19.358,-66.451 20.488,-96.727c2.617,-70.159 -16.145,-133.369 -33.117,-169.952c-6.035,-12.999 -14.987,-30.453 -26.355,-46.024c-19.709,-27 -24.221,-53.163 -21.62,-67.073c0.702,-3.751 1.929,-6.643 3.485,-8.495c1.152,-1.371 2.494,-2.201 3.951,-2.469Z" style="fill:#181514;"/>
    <path d="M40.505,6.124l0.374,2.05c0.013,-0.003 0.039,-0.013 0.039,-0.013c0,0 -0.121,0.121 -0.181,0.215c-0.124,0.195 -0.232,0.445 -0.331,0.744c-0.463,1.399 -0.669,3.693 -0.548,6.706c0.492,12.251 6.499,35.9 24.769,60.462c12.193,16.392 21.361,34.865 26.986,47.484c15.426,34.614 34.634,100.506 29.215,175.367c-2.181,30.116 -10.142,60.538 -25.21,98.467l-1.937,-0.769c14.975,-37.692 22.902,-67.92 25.07,-97.849c5.387,-74.434 -13.702,-139.952 -29.041,-174.368c-5.577,-12.513 -14.664,-30.834 -26.754,-47.089c-21.303,-28.639 -26.162,-56.104 -25.068,-66.338c0.182,-1.704 0.54,-2.971 0.983,-3.756c0.455,-0.804 1.044,-1.205 1.634,-1.313Z" style="fill:#181514;"/>
    <path d="M40.859,8.174l-0.377,-2.049l0.329,-0.015l0.295,0.066l0.272,0.134l0.27,0.226c0.368,0.382 0.905,1.602 1.565,3.58c2.905,8.697 9.897,33.46 29.65,59.523c12.948,17.086 22.247,36.456 27.413,48.603c13.794,32.426 33.504,100.669 25.117,179.814c-3.154,29.775 -12.938,59.979 -29.807,99.574l-1.916,-0.817c16.769,-39.36 26.516,-69.378 29.651,-98.976c8.339,-78.689 -11.248,-146.541 -24.962,-178.779c-5.119,-12.036 -14.327,-31.232 -27.157,-48.161c-19.954,-26.327 -27.03,-51.336 -29.965,-60.121c-0.337,-1.009 -0.615,-1.795 -0.853,-2.332c-0.098,-0.221 -0.238,-0.465 -0.238,-0.465c-0,-0 0.506,0.233 0.713,0.195Z" style="fill:#181514;"/>
    <path d="M40.837,8.174l-0.375,-2.05c1.176,-0.215 2.375,0.064 3.609,0.849c1.559,0.991 3.221,2.855 5.034,5.463c6.654,9.574 15.729,29.506 31.993,50.553c13.726,17.768 23.143,38.05 27.843,49.722c12.173,30.236 32.548,100.867 21.016,184.261c-4.072,29.442 -15.733,59.415 -34.401,100.679l-1.898,-0.859c18.563,-41.032 30.187,-70.828 34.235,-100.105c11.466,-82.912 -8.782,-153.137 -20.884,-183.198c-4.654,-11.555 -13.971,-31.636 -27.559,-49.226c-16.293,-21.085 -25.391,-41.047 -32.056,-50.638c-1.358,-1.954 -2.602,-3.463 -3.793,-4.425c-0.967,-0.782 -1.86,-1.192 -2.764,-1.026Z" style="fill:#181514;"/>
    <path d="M40.816,8.174l-0.376,-2.05c5.823,-1.066 11.477,2.351 17.539,8.852c8.651,9.276 18.334,24.855 31.354,41.367c14.526,18.427 24.043,39.639 28.273,50.843c10.577,28.029 31.772,101.102 16.913,188.701c-4.942,29.121 -18.522,58.855 -38.993,101.783l-1.881,-0.897c20.363,-42.702 33.904,-72.266 38.82,-101.234c14.774,-87.096 -6.292,-159.749 -16.808,-187.618c-4.184,-11.081 -13.593,-32.063 -27.96,-50.288c-12.977,-16.457 -22.619,-31.991 -31.241,-41.236c-5.453,-5.848 -10.403,-9.182 -15.64,-8.223Z" style="fill:#181514;"/>
    <path d="M40.795,8.174l-0.376,-2.05c8.221,-1.505 15.856,1.185 23.372,6.653c10.953,7.97 21.685,21.909 33.776,36.916c15.362,19.065 24.959,41.231 28.701,51.967c9.006,25.822 31.183,101.406 12.813,193.145c-5.77,28.817 -21.316,58.286 -43.584,102.882l-1.864,-0.931c22.159,-44.376 37.664,-73.685 43.406,-102.36c18.265,-91.219 -3.783,-166.374 -12.738,-192.05c-3.698,-10.608 -13.178,-32.509 -28.356,-51.346c-11.96,-14.844 -22.547,-28.655 -33.38,-36.538c-7.008,-5.1 -14.104,-7.692 -21.77,-6.288Z" style="fill:#181514;"/>
    <path d="M40.773,8.174l-0.375,-2.05c13.225,-2.421 24.979,1.199 35.772,8.293c10.646,6.997 20.356,17.391 29.627,28.624c16.236,19.677 25.887,42.828 29.137,53.102c7.465,23.602 30.757,101.77 8.709,197.574c-6.569,28.543 -24.106,57.727 -48.176,103.986l-1.848,-0.962c23.96,-46.047 41.455,-75.079 47.993,-103.491c21.926,-95.273 -1.241,-173.008 -8.664,-196.479c-3.207,-10.139 -12.735,-32.985 -28.758,-52.404c-9.131,-11.064 -18.679,-21.317 -29.164,-28.209c-10.338,-6.794 -21.586,-10.303 -34.253,-7.984Z" style="fill:#181514;"/>
</svg>
