<?xml version="1.0" encoding="UTF-8" standalone="no"?>
<!DOCTYPE svg PUBLIC "-//W3C//DTD SVG 1.1//EN" "http://www.w3.org/Graphics/SVG/1.1/DTD/svg11.dtd">
<svg width="267px" height="369px" viewBox="0 0 267 369" version="1.1" xmlns="http://www.w3.org/2000/svg" xmlns:xlink="http://www.w3.org/1999/xlink" xml:space="preserve" xmlns:serif="http://www.serif.com/" style="fill-rule:evenodd;clip-rule:evenodd;stroke-linejoin:round;stroke-miterlimit:2;">
    <path d="M262.33,364.234c-3.144,-71.99 2.292,-113.868 -6.413,-146.847c-26.253,-99.463 -87.118,-157.781 -102.748,-173.467c-14.484,-14.535 -81.674,-65.858 -133.214,-23.047c-28.041,23.292 -20.379,75.268 34.903,103.125c86.771,43.724 190.447,136.847 207.472,240.236Z" style="fill:#fff;"/>
    <path d="M258.219,364.911c-16.823,-102.163 -119.495,-193.987 -205.236,-237.192c-58.746,-29.603 -65.489,-85.3 -35.69,-110.052c27.093,-22.505 58.277,-20.456 84.615,-10.682c25.769,9.563 46.763,26.518 54.212,33.994c15.798,15.854 77.291,74.814 103.826,175.344c8.758,33.179 3.384,75.305 6.547,147.729c0.096,2.202 -1.54,4.099 -3.733,4.326c-2.193,0.228 -4.183,-1.292 -4.541,-3.467Zm-1.042,-37.009c-0.593,-50.029 1.776,-82.689 -5.288,-109.452c-25.972,-98.395 -86.209,-156.071 -101.672,-171.589c-7.034,-7.059 -26.877,-23.034 -51.209,-32.063c-23.763,-8.819 -51.944,-11.026 -76.39,9.28c-26.29,21.837 -17.713,70.082 34.115,96.199c77.695,39.15 168.609,117.595 200.444,207.625Z" style="fill:#262626;"/>
    <path d="M18.679,21.222l3.993,4.807c-8.076,6.71 -11.323,17.401 -9.52,29.211c2.862,18.738 18.221,40.084 47.424,54.419c14.828,7.282 29.704,16.156 43.359,25.272c40.679,26.97 84.928,67.279 117.498,115.549c17.79,26.368 31.893,54.617 40.418,85.93l-6.031,1.641c-8.341,-30.64 -22.16,-58.274 -39.568,-84.075c-32.09,-47.559 -75.696,-87.267 -115.779,-113.841l-0.004,-0.003c-13.431,-8.967 -28.062,-17.7 -42.648,-24.862c-31.536,-15.481 -47.757,-38.851 -50.847,-59.086c-2.164,-14.173 2.012,-26.911 11.705,-34.962Z" style="fill:#262626;"/>
    <path d="M18.66,21.232l3.994,4.808c-6.179,5.133 -7.928,14.131 -5.422,24.305c4.099,16.638 19.471,36.177 47.246,49.473c15.811,7.573 31.264,17.157 44.314,26.053c38.12,25.981 83.493,68.394 116.147,121.509c16.444,26.754 29.156,55.493 36.923,89.158l-6.09,1.405c-7.604,-32.961 -20.057,-61.096 -36.157,-87.29c-32.147,-52.289 -76.816,-94.04 -114.344,-119.618c-12.809,-8.732 -27.973,-18.147 -43.492,-25.58c-29.937,-14.331 -46.198,-35.682 -50.615,-53.615c-3.171,-12.875 -0.323,-24.113 7.496,-30.608Z" style="fill:#262626;"/>
    <path d="M18.641,21.243l3.994,4.807c-1.965,1.633 -3.032,4.127 -3.337,7.138c-0.357,3.515 0.32,7.673 1.98,12.183c5.351,14.539 20.749,32.295 47.101,44.612c16.808,7.853 32.84,18.133 45.273,26.833c35.602,24.917 82.16,69.38 114.784,127.459c15.196,27.054 26.427,56.366 33.43,92.38l-6.135,1.193c-6.861,-35.284 -17.856,-64.007 -32.744,-90.513c-32.096,-57.137 -77.893,-100.885 -112.918,-125.398c-12.177,-8.522 -27.873,-18.601 -44.335,-26.291c-28.282,-13.219 -44.579,-32.514 -50.321,-48.116c-4.274,-11.61 -2.678,-21.38 3.228,-26.287Z" style="fill:#262626;"/>
    <path d="M18.623,21.253l3.994,4.807c-0.624,0.519 -0.832,1.4 -0.903,2.46c-0.114,1.722 0.269,3.82 1.075,6.197c4.336,12.775 20.505,32.194 49.495,45.427c17.809,8.126 34.421,19.113 46.23,27.617c33.088,23.84 80.956,70.259 113.412,133.404c14.031,27.3 23.694,57.235 29.939,95.594l-6.169,1.005c-6.124,-37.613 -15.571,-66.973 -29.329,-93.742c-31.914,-62.092 -78.97,-107.748 -111.506,-131.19c-11.54,-8.31 -27.768,-19.06 -45.172,-27.003c-31.12,-14.204 -48.164,-35.39 -52.818,-49.103c-1.368,-4.03 -1.7,-7.519 -1.199,-10.169c0.433,-2.293 1.466,-4.07 2.951,-5.304Z" style="fill:#262626;"/>
    <path d="M18.606,21.263l3.991,4.809c0.304,-0.252 0.726,-1.225 0.726,-1.225c0,0 1.011,3.159 2.577,5.7c6.31,10.243 22.856,27.536 50.291,39.761c18.817,8.385 36.006,20.089 47.185,28.403c30.581,22.744 79.896,71.043 112.034,139.344c12.935,27.494 20.967,58.1 26.449,98.8l-6.194,0.834c-5.38,-39.942 -13.216,-69.991 -25.91,-96.973c-31.591,-67.14 -80.048,-114.632 -110.109,-136.99c-10.9,-8.106 -27.652,-19.533 -45.999,-27.709c-33.298,-14.838 -51.275,-36.97 -55.422,-46.628c-1.017,-2.367 -1.265,-4.242 -1.093,-5.407l0.188,-0.803l0.382,-0.85l0.904,-1.066Z" style="fill:#262626;"/>
    <path d="M22.581,26.08l-3.997,-4.805l1.167,-0.623l0.667,-0.126l0.791,0.025l0.959,0.276l1.212,0.722c4.41,3.236 23.144,24.321 56.715,38.92c19.839,8.628 37.601,21.067 48.152,29.198c28.073,21.632 78.992,71.746 110.64,145.271c11.91,27.665 18.239,58.968 22.962,102.004l-6.212,0.681c-4.64,-42.274 -10.791,-73.038 -22.49,-100.213c-31.105,-72.261 -81.124,-121.532 -108.715,-142.792c-10.264,-7.91 -27.531,-20.024 -46.83,-28.418c-34.247,-14.893 -53.421,-36.311 -57.92,-39.613c-0.047,-0.034 -0.128,-0.089 -0.128,-0.089c-0,-0 1.049,0.278 1.334,0.26c0.688,-0.044 1.24,-0.301 1.693,-0.678Z" style="fill:#262626;"/>
    <path d="M22.561,26.092l-3.993,-4.808c1.296,-1.077 2.946,-1.619 5.006,-1.507c2.048,0.112 4.687,0.964 7.861,2.503c10.473,5.077 28.115,17.989 52.563,28.349c20.879,8.852 39.21,22.045 49.124,29.995c25.573,20.512 78.253,72.393 109.238,151.195c10.938,27.815 15.511,59.831 19.478,105.202l-6.227,0.544c-3.9,-44.613 -8.313,-76.108 -19.067,-103.459c-30.451,-77.443 -82.199,-128.448 -107.332,-148.606c-9.619,-7.713 -27.396,-20.528 -47.653,-29.116c-24.577,-10.416 -42.322,-23.377 -52.851,-28.48c-1.925,-0.934 -3.556,-1.591 -4.913,-1.821c-0.513,-0.086 -0.938,-0.237 -1.234,0.009Z" style="fill:#262626;"/>
    <path d="M22.543,26.102l-3.994,-4.807c5.013,-4.164 12.265,-4.229 21.59,-1.26c12.126,3.86 28.258,12.717 47.763,20.758c21.928,9.044 40.825,23.02 50.102,30.799c23.086,19.362 77.684,72.98 107.824,157.105c10.013,27.954 12.791,60.695 15.996,108.397l-6.236,0.419c-3.155,-46.953 -5.788,-79.193 -15.644,-106.708c-29.623,-82.682 -83.266,-135.394 -105.956,-154.424c-8.976,-7.526 -27.252,-21.059 -48.469,-29.81c-19.311,-7.961 -35.27,-16.759 -47.276,-20.581c-6.77,-2.155 -12.061,-2.911 -15.7,0.112Z" style="fill:#262626;"/>
    <path d="M22.524,26.113l-3.993,-4.808c6.863,-5.7 15.354,-7.276 25.208,-6.118c13.6,1.598 29.973,8.53 48.062,15.766c23.005,9.202 42.462,23.996 51.087,31.612c20.619,18.201 77.307,73.534 106.407,163.012c9.134,28.086 10.064,61.552 12.514,111.584l-6.243,0.305c-2.414,-49.296 -3.215,-82.283 -12.215,-109.956c-28.607,-87.964 -84.329,-142.367 -104.6,-160.259c-8.318,-7.346 -27.083,-21.619 -49.271,-30.495c-14.658,-5.863 -28.138,-11.577 -39.879,-14.212c-10.795,-2.422 -20.021,-2.292 -27.077,3.569Z" style="fill:#262626;"/>
    <path d="M22.506,26.123l-3.994,-4.808c21.102,-17.527 49.077,-11.062 77.181,-0.201c24.107,9.318 44.121,24.976 52.091,32.436c18.172,17.011 77.097,74.058 104.972,168.9c8.297,28.23 7.346,62.415 9.036,114.773l-6.246,0.202c-1.668,-51.642 -0.603,-85.369 -8.787,-113.212c-27.413,-93.274 -85.375,-149.37 -103.246,-166.1c-7.66,-7.17 -26.902,-22.213 -50.073,-31.17c-13.176,-5.092 -26.313,-9.31 -38.638,-10.166c-11.797,-0.821 -22.827,1.481 -32.296,9.346Z" style="fill:#262626;"/>
</svg>
