<?xml version="1.0" encoding="UTF-8" standalone="no"?>
<!DOCTYPE svg PUBLIC "-//W3C//DTD SVG 1.1//EN" "http://www.w3.org/Graphics/SVG/1.1/DTD/svg11.dtd">
<svg width="268px" height="231px" viewBox="0 0 268 231" version="1.1" xmlns="http://www.w3.org/2000/svg" xmlns:xlink="http://www.w3.org/1999/xlink" xml:space="preserve" xmlns:serif="http://www.serif.com/" style="fill-rule:evenodd;clip-rule:evenodd;stroke-linejoin:round;stroke-miterlimit:2;">
    <path d="M261.022,226.09c2.148,-10.868 5.162,-105.465 -2.711,-138.456c-19.489,-81.669 -153.718,-108.863 -218.304,-57.173c-30.018,24.025 -47.652,61.368 -26.574,99.626c35.976,65.297 117.283,-6.131 158.447,-8.283c47.408,-2.478 87.609,54.742 89.752,102.053" style="fill:#fff;"/>
    <path d="M265.705,222.022c0.035,0.55 0.065,1.099 0.089,1.646c0.036,0.796 -0.154,1.55 -0.513,2.2c-0.057,0.399 -0.115,0.743 -0.171,1.03c-0.446,2.256 -2.64,3.726 -4.896,3.28c-2.256,-0.446 -3.725,-2.639 -3.28,-4.895c0.14,-0.707 0.284,-1.773 0.427,-3.157c-1.81,-26.896 -16.111,-56.741 -36.863,-76.044c-13.826,-12.861 -30.544,-21.05 -48.401,-20.117c-7.856,0.411 -17.226,3.535 -27.495,7.662c-16.213,6.516 -34.514,15.561 -52.576,21.566c-31.953,10.623 -63.064,11.714 -82.242,-23.095c-22.173,-40.245 -3.958,-79.618 27.62,-104.89c39.832,-31.879 105.416,-34.794 155.853,-13.711c33.985,14.206 61.008,39.231 69.107,73.17c7.261,30.428 5.378,112.601 3.341,135.355Zm-6.749,-31.409c0.873,-33.201 0.396,-80.667 -4.698,-102.012c-9.395,-39.37 -46.671,-65.344 -89.157,-75.511c-42.807,-10.244 -91.121,-4.482 -122.49,20.624c-28.46,22.777 -45.512,58.091 -25.528,94.363c16.798,30.489 44.326,28.513 72.313,19.208c17.901,-5.951 36.03,-14.933 52.098,-21.391c11.252,-4.522 21.559,-7.801 30.168,-8.251c20.07,-1.049 38.972,7.883 54.511,22.337c14.44,13.431 25.947,31.629 32.783,50.633Z" style="fill:#262626;"/>
    <path d="M12.882,130.534l5.474,-3.016c16.34,29.655 43.19,27.441 70.41,18.391c18.004,-5.984 36.23,-15.021 52.388,-21.514c11.587,-4.659 22.206,-8 31.071,-8.463c20.78,-1.088 40.376,8.101 56.463,23.063c16.216,15.088 28.839,36.038 35.479,57.517l-5.971,1.846c-6.323,-20.454 -18.322,-40.419 -33.765,-54.787c-14.802,-13.766 -32.76,-22.399 -51.88,-21.397c-8.301,0.433 -18.217,3.657 -29.066,8.02c-16.267,6.537 -34.622,15.622 -52.747,21.646c-30.192,10.038 -59.731,11.587 -77.856,-21.306Z" style="fill:#262626;"/>
    <path d="M264.194,196.656l-6.046,1.584c-5.664,-21.615 -16.725,-44.346 -31.137,-59.597c-14.257,-15.081 -32.554,-25.039 -52.599,-25.317l-0.006,-0c-5.814,-0.104 -12.334,1.029 -19.361,2.842c-3.625,0.935 -7.376,2.049 -11.234,3.295c-17.431,5.626 -36.906,14.105 -55.612,20.673c-5.105,1.797 -10.161,3.458 -15.096,4.87l-0.003,0.001c-25.569,7.276 -48.324,7.143 -60.229,-14.46l5.474,-3.016c10.43,18.927 30.641,17.84 53.043,11.465c4.816,-1.378 9.752,-3.001 14.738,-4.756c18.758,-6.587 38.287,-15.084 55.765,-20.724c3.981,-1.286 7.852,-2.435 11.593,-3.4c7.628,-1.968 14.712,-3.151 21.024,-3.04c21.707,0.302 41.601,10.937 57.045,27.274c15.076,15.954 26.715,39.695 32.641,62.306Z" style="fill:#262626;"/>
    <path d="M264.212,196.789l-6.104,1.34c-5.001,-22.784 -15.108,-48.332 -28.511,-64.422c-13.693,-16.439 -32.344,-27.614 -53.302,-29.241c-6.146,-0.479 -12.972,0.232 -20.296,1.603c-3.83,0.72 -7.788,1.616 -11.846,2.646l-0.001,0.001c-18.615,4.708 -39.198,12.605 -58.495,19.718c-5.272,1.95 -10.449,3.847 -15.465,5.591l-0.003,0.001c-15.214,5.262 -29.176,8.762 -39.685,7.558c-7.847,-0.898 -13.929,-4.284 -17.644,-11.026l5.475,-3.016c3.433,6.232 9.78,8.238 17.782,8.022c9.067,-0.246 20.127,-3.329 32.027,-7.444c4.976,-1.73 10.114,-3.613 15.348,-5.549l0.001,-0.001c19.505,-7.188 40.312,-15.155 59.123,-19.913c4.189,-1.064 8.276,-1.988 12.232,-2.731c7.913,-1.481 15.292,-2.209 21.932,-1.692c22.633,1.758 42.832,13.721 57.619,31.473c13.966,16.766 24.603,43.341 29.813,67.082Z" style="fill:#262626;"/>
    <path d="M264.224,196.914l-6.15,1.112c-4.334,-23.956 -13.46,-52.368 -25.872,-69.256c-13.106,-17.831 -32.137,-30.244 -54.009,-33.173c-6.47,-0.865 -13.615,-0.577 -21.229,0.364c-4.042,0.499 -8.202,1.176 -12.461,1.988c-19.809,3.783 -41.499,11.124 -61.389,18.781c-5.444,2.106 -10.75,4.233 -15.845,6.307l-0.003,0.001c-17.992,7.282 -33.834,13.165 -43.406,13.014c-5.349,-0.084 -9.061,-1.944 -11.011,-5.482l5.474,-3.017c0.56,1.015 1.531,1.585 2.767,1.907c1.818,0.475 4.096,0.436 6.754,0.08c9.212,-1.235 22.369,-6.342 37.075,-12.295c5.125,-2.085 10.463,-4.225 15.945,-6.346l0.002,-0.001c20.237,-7.791 42.311,-15.239 62.465,-19.088c4.398,-0.838 8.694,-1.537 12.867,-2.052c8.186,-1.011 15.868,-1.286 22.824,-0.356c23.56,3.155 44.099,16.46 58.216,35.666c12.885,17.532 22.487,46.978 26.986,71.846Z" style="fill:#262626;"/>
    <path d="M264.23,197.03l-6.185,0.902c-3.663,-25.13 -11.782,-56.444 -23.226,-74.102c-12.489,-19.26 -31.922,-32.884 -54.706,-37.109c-6.804,-1.262 -14.263,-1.398 -22.171,-0.887c-4.252,0.277 -8.617,0.734 -13.075,1.336c-21.014,2.845 -43.807,9.657 -64.306,17.857c-5.614,2.256 -11.053,4.621 -16.229,7.024l-0.004,0.002c-20.665,9.524 -37.935,18.614 -44.883,20.298c-1.6,0.388 -2.851,0.424 -3.704,0.26l-0.888,-0.26l-0.947,-0.537l-0.592,-0.552l-0.476,-0.682l5.475,-3.015c-0.271,-0.491 -1.452,-1.101 -1.452,-1.101c0,0 2.029,-0.389 3.813,-1.041c8.092,-2.954 23.275,-10.86 41.034,-19.044c5.267,-2.446 10.807,-4.854 16.527,-7.153l0.003,-0.001c20.97,-8.389 44.293,-15.338 65.792,-18.248c4.604,-0.623 9.114,-1.094 13.507,-1.38c8.46,-0.547 16.438,-0.371 23.716,0.979c24.485,4.541 45.388,19.155 58.811,39.854c11.836,18.264 20.376,50.608 24.166,76.6Z" style="fill:#262626;"/>
    <path d="M264.232,197.139l-6.21,0.707c-2.994,-26.303 -10.065,-60.554 -20.575,-78.952c-11.833,-20.716 -31.703,-35.535 -55.402,-41.053c-7.131,-1.658 -14.912,-2.227 -23.114,-2.139c-4.458,0.047 -9.032,0.283 -13.682,0.681c-22.228,1.899 -46.126,8.194 -67.24,16.944c-5.791,2.41 -11.364,5.007 -16.632,7.736l-0.004,0.001c-17.925,9.234 -32.877,19.085 -39.731,25.078c-1.635,1.429 -3.144,3.278 -3.144,3.278c-0,-0 0.046,-1.403 -0.196,-1.844l-5.475,3.015l-0.426,-1.286l0.097,-1.598c0.223,-0.879 0.935,-2.184 2.328,-3.687c5.265,-5.682 22.428,-17.562 43.683,-28.511c5.414,-2.804 11.146,-5.475 17.103,-7.954l0.002,-0.001c21.698,-8.992 46.26,-15.447 69.102,-17.398c4.808,-0.412 9.538,-0.655 14.148,-0.704c8.729,-0.093 17.007,0.537 24.598,2.302c25.417,5.918 46.72,21.822 59.412,44.04c10.834,18.964 18.271,54.231 21.358,81.345Z" style="fill:#262626;"/>
    <path d="M264.23,197.241l-6.228,0.525c-2.319,-27.479 -8.314,-64.686 -17.913,-83.808c-11.14,-22.191 -31.481,-38.195 -56.092,-44.999c-7.465,-2.061 -15.568,-3.072 -24.066,-3.4c-4.666,-0.183 -9.441,-0.165 -14.295,0.03c-23.441,0.942 -48.453,6.738 -70.182,16.039c-5.968,2.562 -11.683,5.39 -17.044,8.446l-0.003,0.002c-15.531,8.811 -28.591,18.722 -35.556,27.041c-2.102,2.511 -3.627,4.837 -4.389,6.928c-0.5,1.37 -0.708,2.568 -0.172,3.541l-5.474,3.017c-1.822,-3.307 -1.298,-7.866 1.96,-13.046c5.965,-9.481 21.419,-22.065 40.546,-32.917c5.556,-3.167 11.481,-6.1 17.669,-8.757l0.002,-0c22.413,-9.594 48.213,-15.567 72.392,-16.539c5.022,-0.202 9.962,-0.219 14.789,-0.031c9.001,0.348 17.58,1.438 25.487,3.622c26.348,7.284 48.088,24.462 60.014,48.219c9.864,19.649 16.172,57.85 18.555,86.087Z" style="fill:#262626;"/>
    <path d="M264.225,197.336l-6.24,0.357c-1.642,-28.654 -6.526,-68.831 -15.245,-88.672c-10.405,-23.678 -31.256,-40.86 -56.785,-48.946c-7.791,-2.469 -16.214,-3.922 -25.006,-4.667c-4.881,-0.414 -9.861,-0.618 -14.91,-0.623c-24.66,-0.022 -50.79,5.294 -73.146,15.141c-6.149,2.717 -12.006,5.78 -17.457,9.163l-0.003,0.002c-15.719,9.704 -28.691,21.143 -34.878,31.751c-3.604,6.179 -4.912,11.971 -2.276,16.756l-5.474,3.016c-3.592,-6.521 -2.559,-14.501 2.351,-22.921c6.583,-11.287 20.265,-23.592 36.99,-33.918c5.689,-3.531 11.803,-6.73 18.224,-9.567l0.002,-0.001c23.129,-10.187 50.161,-15.695 75.673,-15.672c5.226,0.005 10.38,0.217 15.433,0.646c9.27,0.785 18.15,2.332 26.365,4.936c27.283,8.642 49.499,27.084 60.619,52.39c8.933,20.329 14.081,61.469 15.763,90.829Z" style="fill:#262626;"/>
    <path d="M264.217,197.425l-6.247,0.202c-0.964,-29.827 -4.711,-72.985 -12.569,-93.532c-9.63,-25.181 -31.023,-43.54 -57.469,-52.904c-8.126,-2.876 -16.871,-4.779 -25.96,-5.938c-5.083,-0.649 -10.27,-1.071 -15.52,-1.276c-25.879,-0.999 -53.134,3.854 -76.119,14.251c-6.334,2.873 -12.334,6.168 -17.883,9.873l-0.002,0.001c-15.957,10.621 -28.877,23.627 -34.313,36.535c-3.357,7.969 -3.78,15.868 0.133,22.972l-5.474,3.016c-4.841,-8.788 -4.571,-18.556 -0.419,-28.414c5.827,-13.834 19.507,-27.928 36.609,-39.312c5.824,-3.887 12.121,-7.348 18.771,-10.364c23.837,-10.784 52.101,-15.84 78.94,-14.804c5.436,0.213 10.807,0.65 16.069,1.323c9.542,1.217 18.722,3.226 27.254,6.245c28.219,9.992 50.944,29.694 61.22,56.563c8.031,20.998 11.993,65.083 12.979,95.563Z" style="fill:#262626;"/>
    <path d="M264.207,197.509l-6.249,0.056c-0.28,-30.998 -2.86,-77.137 -9.884,-98.395c-8.819,-26.683 -30.769,-46.262 -58.162,-56.863l-0.005,-0.002c-8.446,-3.301 -17.511,-5.642 -26.893,-7.211c-5.296,-0.885 -10.685,-1.53 -16.134,-1.927c-27.099,-1.982 -55.494,2.411 -79.109,13.364c-6.518,3.026 -12.67,6.556 -18.314,10.588l-0.002,0.001c-13.574,9.666 -24.793,21.471 -30.874,33.992c-5.828,11.997 -6.861,24.644 -0.324,36.508l-5.474,3.016c-7.566,-13.731 -6.569,-28.37 0.176,-42.255c6.49,-13.362 18.382,-26.035 32.869,-36.351c5.951,-4.25 12.438,-7.977 19.313,-11.168c24.538,-11.382 54.036,-15.988 82.194,-13.928c5.643,0.411 11.224,1.079 16.71,1.996c9.815,1.641 19.295,4.099 28.131,7.551c29.183,11.296 52.436,32.296 61.833,60.728c7.161,21.673 9.913,68.698 10.198,100.3Z" style="fill:#262626;"/>
    <path d="M264.196,197.587l-6.249,-0.078c0.403,-32.172 -0.986,-81.29 -7.191,-103.258c-7.969,-28.187 -30.545,-48.929 -58.849,-60.828l-0.002,-0.001c-8.779,-3.706 -18.163,-6.509 -27.847,-8.49c-5.498,-1.126 -11.098,-1.986 -16.745,-2.58c-28.317,-2.97 -57.85,0.973 -82.108,12.479c-6.704,3.185 -13.006,6.947 -18.753,11.306c-27.283,20.654 -44.689,51.574 -28.206,81.494l-5.474,3.016c-18.036,-32.738 0.054,-66.893 29.906,-89.492c6.082,-4.613 12.75,-8.598 19.847,-11.97c25.245,-11.975 55.972,-16.14 85.441,-13.049c5.85,0.616 11.65,1.507 17.346,2.673c10.094,2.065 19.873,4.992 29.02,8.853c30.113,12.66 53.959,34.898 62.439,64.889c6.312,22.348 7.835,72.308 7.425,105.036Z" style="fill:#262626;"/>
    <path d="M262.101,197.593l-2.082,-0.068c1.091,-33.511 0.89,-85.869 -4.553,-108.671c-9.469,-39.683 -47.041,-65.861 -89.863,-76.111c-43.148,-10.325 -91.844,-4.519 -123.464,20.787c-28.684,22.959 -45.872,58.557 -25.729,95.118l-1.825,1.005c-20.69,-37.554 -3.211,-74.167 26.252,-97.749c32.082,-25.676 81.472,-31.663 125.251,-21.187c43.612,10.439 81.76,37.238 91.404,77.653c5.471,22.918 5.705,75.542 4.609,109.223Z" style="fill:#181514;"/>
</svg>
