<?xml version="1.0" encoding="UTF-8" standalone="no"?>
<!DOCTYPE svg PUBLIC "-//W3C//DTD SVG 1.1//EN" "http://www.w3.org/Graphics/SVG/1.1/DTD/svg11.dtd">
<svg width="118px" height="304px" viewBox="0 0 118 304" version="1.1" xmlns="http://www.w3.org/2000/svg" xmlns:xlink="http://www.w3.org/1999/xlink" xml:space="preserve" xmlns:serif="http://www.serif.com/" style="fill-rule:evenodd;clip-rule:evenodd;stroke-linejoin:round;stroke-miterlimit:2;">
    <path d="M50.617,300.831c16.113,-17.64 61.129,-102.415 62.524,-166.562c0.554,-25.511 8.89,-73.355 -33.337,-115.261c-30.937,-30.702 -103.769,-21.188 -66.213,66.721c21.751,50.913 65.03,93.222 37.026,215.102Z" style="fill:#fff;"/>
    <path d="M47.572,300.132c27.756,-120.803 -15.296,-162.712 -36.855,-213.175c-15.712,-36.779 -12.383,-60.451 -1.342,-73.547c6.875,-8.155 16.815,-12.424 27.592,-13.258c15.745,-1.219 33.263,4.952 45.039,16.638c43.09,42.763 34.825,91.514 34.259,117.547c-1.412,64.939 -47.029,150.744 -63.34,168.602c-0.958,1.048 -2.502,1.319 -3.759,0.66c-1.257,-0.659 -1.912,-2.084 -1.594,-3.467Zm9.082,-12.663c19.367,-29.649 52.182,-98.952 53.362,-153.268c0.544,-24.99 8.951,-71.925 -32.413,-112.974c-10.499,-10.42 -26.115,-15.93 -40.154,-14.844c-9.078,0.703 -17.504,4.186 -23.296,11.056c-10.071,11.946 -12.021,33.512 2.312,67.062c21.085,49.354 62.08,90.719 40.189,202.968Z" style="fill:#262626;"/>
    <path d="M37.015,6.863l-0.161,-2.077c12.302,-0.953 25.979,4.673 35.447,14.922c36.496,39.509 29.52,84.058 30.136,110.161c1.279,54.361 -25.477,121.772 -45.258,159.276l-1.842,-0.972c19.655,-37.267 46.288,-104.238 45.017,-158.255c-0.608,-25.769 6.445,-69.793 -29.583,-108.796c-9.021,-9.766 -22.035,-15.167 -33.756,-14.259Z" style="fill:#181514;"/>
    <path d="M37.066,6.849l-0.161,-2.077c10.189,-0.79 21.504,4.78 29.677,14.615c31.051,37.355 25.53,78.979 27.348,105.876c3.637,53.86 -16.66,118.725 -36.668,163.804l-1.905,-0.845c19.889,-44.811 40.11,-109.279 36.494,-162.818c-1.796,-26.584 3.818,-67.765 -26.871,-104.686c-7.701,-9.266 -18.313,-14.614 -27.914,-13.869Z" style="fill:#181514;"/>
    <path d="M37.118,6.834l-0.161,-2.077c8.074,-0.626 17.011,4.853 23.914,14.319c25.584,35.09 21.49,73.885 24.549,101.58c5.891,53.349 -7.849,115.696 -28.087,168.348l-1.944,-0.748c20.121,-52.348 33.817,-114.329 27.96,-167.372c-3.028,-27.413 1.162,-65.847 -24.161,-100.58c-6.404,-8.781 -14.581,-14.051 -22.07,-13.47Z" style="fill:#181514;"/>
    <path d="M37.17,6.819l-0.162,-2.077c2.475,-0.192 5.039,0.582 7.591,2.222c3.612,2.322 7.233,6.414 10.562,11.821c20.12,32.665 17.403,68.779 21.748,97.269c8.047,52.834 0.958,112.67 -19.51,172.897l-1.973,-0.671c20.352,-59.884 27.425,-119.378 19.423,-171.913c-4.309,-28.254 -1.508,-64.093 -21.461,-96.489c-3.136,-5.093 -6.514,-8.975 -9.916,-11.161c-2.124,-1.366 -4.243,-2.058 -6.302,-1.898Z" style="fill:#181514;"/>
    <path d="M37.221,6.805l-0.161,-2.077c1.674,-0.131 3.412,0.666 5.163,2.397c2.288,2.262 4.69,6.193 7.236,11.385c14.716,30.018 13.273,63.67 18.933,92.939c10.124,52.334 9.772,109.654 -10.931,177.456l-1.993,-0.608c20.586,-67.419 20.946,-124.415 10.879,-176.452c-5.627,-29.101 -4.127,-62.573 -18.759,-92.418c-2.415,-4.925 -4.659,-8.675 -6.83,-10.82c-1.221,-1.208 -2.369,-1.893 -3.537,-1.802Z" style="fill:#181514;"/>
    <path d="M37.274,6.79l-0.164,-2.077c0.704,-0.056 1.557,0.395 2.288,1.709c1.062,1.907 2.315,6.021 4.357,11.843c9.488,27.072 9.104,58.554 16.123,88.585c12.122,51.842 18.576,106.635 -2.358,182.014l-2.008,-0.557c20.816,-74.952 14.39,-129.435 2.337,-180.983c-7.001,-29.957 -6.596,-61.365 -16.06,-88.369c-1.712,-4.884 -2.847,-8.544 -3.791,-10.665c-0.224,-0.502 -0.432,-0.909 -0.637,-1.211c-0.1,-0.147 -0.274,-0.322 -0.274,-0.322c-0,-0 0.125,0.037 0.187,0.033Z" style="fill:#181514;"/>
    <path d="M37.166,4.698l0.155,2.077c0.151,-0.011 0.523,-0.243 0.523,-0.243c0,0 -0.352,0.972 -0.471,2.078c-0.219,2.043 -0.149,5.223 0.667,9.439c4.608,23.813 4.912,53.446 13.323,84.204c14.048,51.376 27.38,103.619 6.214,186.575l-2.019,-0.515c21.045,-82.484 7.763,-134.428 -6.205,-185.511c-8.426,-30.815 -8.742,-60.5 -13.358,-84.357c-1.31,-6.77 -0.756,-11.079 -0.147,-12.559c0.193,-0.469 0.431,-0.757 0.622,-0.909l0.361,-0.206l0.335,-0.073Z" style="fill:#181514;"/>
    <path d="M37.216,4.683l0.159,2.077c-0.337,0.026 -0.638,0.281 -0.955,0.616c-0.469,0.495 -0.911,1.184 -1.328,1.986c-1.355,2.605 -2.401,6.343 -2.826,9.03c-2.424,15.338 -0.256,48.812 10.568,79.222c18.219,51.186 35.026,101.549 14.801,191.172l-2.032,-0.459c20.102,-89.081 3.377,-139.137 -14.732,-190.014c-10.963,-30.802 -13.118,-64.711 -10.662,-80.246c0.533,-3.375 2.001,-8.283 3.819,-11.004c0.969,-1.451 2.104,-2.297 3.188,-2.38Z" style="fill:#181514;"/>
    <path d="M37.266,4.669l0.162,2.077c-4.539,0.353 -9.403,3.661 -10.892,10.988c-3.442,16.886 -3.473,43.243 7.794,75.325c17.744,50.525 44.987,97.588 23.358,195.707l-2.035,-0.449c21.505,-97.551 -5.647,-144.335 -23.289,-194.568c-11.432,-32.551 -11.362,-59.298 -7.87,-76.431c1.731,-8.513 7.499,-12.239 12.772,-12.649Z" style="fill:#181514;"/>
    <path d="M37.318,4.654l0.161,2.077c-6.671,0.518 -13.313,3.649 -16.78,10.883c-6.689,13.954 -7.611,38.177 5.113,70.853c19.527,50.147 53.791,94.574 31.93,200.271l-2.04,-0.422c21.734,-105.083 -12.417,-149.238 -31.831,-199.093c-13.019,-33.434 -11.895,-58.231 -5.05,-72.51c3.828,-7.986 11.131,-11.487 18.497,-12.059Z" style="fill:#181514;"/>
</svg>
