<?xml version="1.0" encoding="UTF-8" standalone="no"?>
<!DOCTYPE svg PUBLIC "-//W3C//DTD SVG 1.1//EN" "http://www.w3.org/Graphics/SVG/1.1/DTD/svg11.dtd">
<svg width="161px" height="261px" viewBox="0 0 161 261" version="1.1" xmlns="http://www.w3.org/2000/svg" xmlns:xlink="http://www.w3.org/1999/xlink" xml:space="preserve" xmlns:serif="http://www.serif.com/" style="fill-rule:evenodd;clip-rule:evenodd;stroke-linejoin:round;stroke-miterlimit:2;">
    <path d="M77.14,257.382c33.045,-37.157 23.762,-96.069 18.863,-109.067c-13.355,-35.438 -123.555,-72.161 -84.576,-126.104c32.94,-45.585 121.044,-2.275 138.735,53.943c21.702,68.965 -8.512,122.059 -73.022,181.228Z" style="fill:#fff;"/>
    <path d="M74.805,255.306c32.08,-36.073 23.03,-93.27 18.274,-105.889c-3.054,-8.105 -11.546,-16.174 -21.991,-24.631c-16.537,-13.387 -37.985,-27.458 -52.83,-42.925c-10.417,-10.854 -17.588,-22.448 -18.213,-34.857c-0.425,-8.438 2.115,-17.304 8.849,-26.623c13.93,-19.278 37.12,-23.763 61.217,-18.108c35.171,8.255 72.112,38.241 83.032,72.943c22.072,70.14 -8.281,124.292 -73.891,184.469c-1.226,1.125 -3.119,1.092 -4.305,-0.076c-1.185,-1.168 -1.248,-3.06 -0.142,-4.303Zm19.179,-18.477c50.234,-51.079 72.276,-99.108 53.197,-159.737c-10.309,-32.76 -45.295,-60.941 -78.498,-68.734c-21.487,-5.043 -42.301,-1.507 -54.723,15.684c-18.382,25.438 -0.829,46.566 22.134,65.763c14.622,12.224 31.601,23.616 44.289,34.603c8.915,7.72 15.727,15.328 18.545,22.805c4.126,10.949 11.248,53.543 -4.944,89.616Z" style="fill:#262626;"/>
    <path d="M94.221,237.979l-1.866,-0.926c17.874,-36.006 13.66,-77.891 9.913,-91.168c-2.241,-7.95 -8.707,-15.879 -16.983,-24.122c-2.309,-2.297 -4.76,-4.635 -7.34,-6.985c-10.979,-10.001 -24.532,-20.152 -36.955,-30.384c-9.743,-8.031 -18.818,-16.135 -25.179,-24.34c-9.695,-12.41 -13.251,-24.99 -4.059,-37.709l1.688,1.22c-8.588,11.884 -5.044,23.613 4.016,35.21l0.001,0.002c6.277,8.096 15.243,16.083 24.858,24.009c12.45,10.254 26.03,20.429 37.033,30.452c2.604,2.372 5.077,4.731 7.407,7.048c8.571,8.537 15.197,16.8 17.518,25.034c3.808,13.494 8.114,56.065 -10.052,92.659Z" style="fill:#080706;"/>
    <path d="M94.215,238.014l-1.83,-0.996c19.567,-35.949 18.163,-77.075 14.878,-92.756c-1.772,-8.444 -7.845,-16.858 -15.567,-25.682c-2.182,-2.496 -4.499,-5.047 -6.962,-7.606c-10.467,-10.895 -24.076,-21.771 -36.987,-32.252c-10.027,-8.158 -19.596,-16.15 -26.751,-23.823c-5.4,-5.796 -9.442,-11.401 -11.291,-16.738c-1.926,-5.557 -1.532,-10.846 2.059,-15.816l1.688,1.22c-3.157,4.371 -3.473,9.026 -1.779,13.914c1.77,5.109 5.677,10.451 10.847,15.999c7.097,7.612 16.594,15.535 26.541,23.627c12.978,10.535 26.653,21.473 37.175,32.425c2.486,2.583 4.825,5.158 7.029,7.678c7.991,9.133 14.203,17.886 16.037,26.626c3.335,15.922 4.78,57.681 -15.087,94.18Z" style="fill:#080706;"/>
    <path d="M94.207,238.047l-1.792,-1.062c21.256,-35.888 22.593,-76.22 19.848,-94.335c-1.355,-8.926 -6.972,-17.857 -14.15,-27.258c-2.057,-2.692 -4.239,-5.452 -6.585,-8.224c-9.955,-11.788 -23.626,-23.384 -37.026,-34.122c-10.31,-8.278 -20.397,-16.153 -28.318,-23.311c-7.213,-6.525 -12.667,-12.447 -14.884,-17.526c-1.619,-3.708 -1.582,-7.015 0.475,-9.863l1.689,1.219c-1.628,2.254 -1.536,4.876 -0.255,7.811c2.133,4.886 7.434,10.537 14.373,16.813c7.893,7.135 17.948,14.982 28.224,23.232c13.506,10.824 27.279,22.52 37.314,34.403c2.368,2.799 4.572,5.585 6.649,8.304c7.418,9.716 13.153,18.984 14.554,28.209c2.784,18.378 1.449,59.301 -20.116,95.71Z" style="fill:#080706;"/>
    <path d="M94.2,238.078l-1.754,-1.123c22.944,-35.825 26.954,-75.343 24.818,-95.909c-0.972,-9.401 -6.087,-18.871 -12.733,-28.843c-1.927,-2.892 -3.975,-5.86 -6.199,-8.841c-9.454,-12.68 -23.185,-24.996 -37.078,-35.988c-10.591,-8.404 -21.196,-16.16 -29.876,-22.816c-9.242,-7.086 -16.378,-12.906 -18.984,-16.931c-1.409,-2.177 -1.554,-3.972 -0.607,-5.282l1.688,1.221c-0.304,0.42 -0.262,0.942 -0.044,1.551c0.32,0.897 1.014,1.919 1.999,3.074c3.229,3.785 9.478,8.781 17.216,14.714c8.688,6.662 19.301,14.425 29.902,22.836c14.038,11.107 27.901,23.563 37.454,36.376c2.247,3.011 4.316,6.009 6.263,8.931c6.856,10.287 12.069,20.085 13.071,29.784c2.166,20.851 -1.873,60.924 -25.136,97.246Z" style="fill:#080706;"/>
    <path d="M94.193,238.107l-1.716,-1.182c24.632,-35.758 31.252,-74.454 29.795,-97.471c-0.625,-9.883 -5.194,-19.902 -11.314,-30.439c-1.797,-3.093 -3.715,-6.265 -5.821,-9.458c-8.947,-13.568 -22.749,-26.608 -37.128,-37.856c-10.877,-8.534 -22.006,-16.167 -31.441,-22.324c-12.883,-8.405 -22.763,-13.974 -24.374,-15.331c-0.199,-0.168 -0.324,-0.314 -0.394,-0.416l-0.121,-0.224l-0.07,-0.248l0.004,-0.383l0.184,-0.428l1.691,1.217c0.146,-0.203 0.225,-0.446 0.176,-0.745c-0.015,-0.092 -0.188,-0.42 -0.188,-0.42c0,-0 0.036,0.033 0.06,0.053c1.597,1.346 11.401,6.849 24.17,15.18c9.479,6.186 20.66,13.855 31.588,22.429c14.56,11.39 28.522,24.609 37.582,38.349c2.128,3.227 4.067,6.433 5.883,9.558c6.3,10.848 10.949,21.181 11.592,31.355c1.476,23.324 -5.197,62.548 -30.158,98.784Z" style="fill:#080706;"/>
    <path d="M94.184,238.135l-1.676,-1.237c26.324,-35.695 35.496,-73.566 34.773,-99.034c-0.294,-10.364 -4.296,-20.932 -9.896,-32.034c-1.663,-3.3 -3.447,-6.676 -5.44,-10.077c-8.442,-14.46 -22.311,-28.225 -37.181,-39.729c-11.169,-8.658 -22.815,-16.169 -33.009,-21.835c-10.705,-5.951 -19.861,-9.804 -25.012,-10.715c-0.997,-0.177 -1.827,-0.242 -2.47,-0.169c-0.356,0.041 -0.64,0.074 -0.775,0.261l-1.688,-1.221c0.347,-0.48 0.909,-0.848 1.715,-1.026c0.859,-0.189 2.069,-0.164 3.581,0.103c5.281,0.935 14.686,4.844 25.661,10.946c10.276,5.711 22.015,13.282 33.273,22.01c15.086,11.671 29.139,25.653 37.703,40.323c2.016,3.439 3.82,6.853 5.502,10.191c5.752,11.402 9.817,22.269 10.119,32.913c0.731,25.797 -8.515,64.173 -35.18,100.33Z" style="fill:#080706;"/>
    <path d="M94.177,238.16l-1.638,-1.288c28.011,-35.627 39.691,-72.684 39.753,-100.595c0.025,-10.853 -3.383,-21.967 -8.471,-33.633c-1.529,-3.504 -3.187,-7.08 -5.062,-10.693c-7.943,-15.353 -21.878,-29.839 -37.24,-41.6c-11.458,-8.791 -23.63,-16.18 -34.574,-21.358c-9.885,-4.675 -18.81,-7.511 -25.216,-7.849c-3.889,-0.205 -6.798,0.456 -8.219,2.422l-1.688,-1.221c1.748,-2.418 5.232,-3.534 10.016,-3.281c6.602,0.348 15.812,3.228 25.998,8.046c11.063,5.234 23.368,12.701 34.951,21.588c15.611,11.952 29.75,26.692 37.822,42.295c1.897,3.655 3.575,7.272 5.122,10.818c5.213,11.954 8.67,23.35 8.645,34.471c-0.064,28.261 -11.836,65.804 -40.199,101.878Z" style="fill:#080706;"/>
    <path d="M94.169,238.184l-1.599,-1.335c29.699,-35.558 43.84,-71.804 44.734,-102.15c0.332,-11.348 -2.46,-23.012 -7.047,-35.241c-1.387,-3.708 -2.923,-7.487 -4.677,-11.308c-7.446,-16.246 -21.456,-31.453 -37.311,-43.476c-11.744,-8.919 -24.444,-16.187 -36.142,-20.882c-10.589,-4.251 -20.4,-6.369 -27.853,-5.57c-4.724,0.507 -8.473,2.189 -10.753,5.343l-1.688,-1.22c2.601,-3.598 6.829,-5.616 12.219,-6.194c7.717,-0.828 17.887,1.306 28.851,5.707c11.854,4.758 24.725,12.119 36.625,21.157c16.135,12.236 30.367,27.733 37.945,44.266c1.776,3.868 3.331,7.694 4.734,11.446c4.69,12.501 7.519,24.432 7.179,36.033c-0.904,30.717 -15.156,67.432 -45.217,103.424Z" style="fill:#080706;"/>
    <path d="M94.161,238.206l-1.56,-1.38c31.386,-35.488 47.961,-70.934 49.711,-103.707c0.637,-11.842 -1.527,-24.053 -5.611,-36.844c-1.249,-3.912 -2.664,-7.891 -4.301,-11.924c-6.946,-17.139 -21.028,-33.068 -37.376,-45.35c-12.037,-9.051 -25.273,-16.175 -37.718,-20.42c-9.45,-3.181 -18.477,-4.682 -26.158,-3.971c-7.48,0.692 -13.665,3.49 -17.615,8.955l-1.688,-1.22c4.293,-5.941 10.979,-9.057 19.111,-9.81c7.931,-0.734 17.258,0.787 27.018,4.073l0.002,0c12.636,4.31 26.078,11.537 38.3,20.728c16.657,12.514 30.977,28.768 38.055,46.232c1.657,4.084 3.09,8.113 4.354,12.074c4.167,13.048 6.357,25.508 5.708,37.588c-1.771,33.164 -18.472,69.066 -50.232,104.976Z" style="fill:#080706;"/>
    <path d="M94.154,238.227l-1.523,-1.422c33.079,-35.422 52.046,-70.071 54.694,-105.263c0.929,-12.341 -0.588,-25.09 -4.177,-38.443c-1.11,-4.12 -2.404,-8.303 -3.924,-12.544c-6.452,-18.033 -20.603,-34.689 -37.446,-47.227c-12.33,-9.19 -26.088,-16.196 -39.298,-19.958c-19.962,-5.643 -38.79,-3.841 -48.935,10.196l-1.689,-1.221c10.627,-14.701 30.284,-16.89 51.193,-10.979c13.436,3.826 27.432,10.944 39.974,20.291c17.179,12.788 31.581,29.802 38.162,48.195c1.539,4.296 2.85,8.533 3.975,12.706c3.654,13.595 5.188,26.576 4.242,39.14c-2.679,35.602 -21.785,70.696 -55.248,106.529Z" style="fill:#080706;"/>
</svg>
