<?xml version="1.0" encoding="UTF-8" standalone="no"?>
<!DOCTYPE svg PUBLIC "-//W3C//DTD SVG 1.1//EN" "http://www.w3.org/Graphics/SVG/1.1/DTD/svg11.dtd">
<svg width="225px" height="302px" viewBox="0 0 225 302" version="1.1" xmlns="http://www.w3.org/2000/svg" xmlns:xlink="http://www.w3.org/1999/xlink" xml:space="preserve" xmlns:serif="http://www.serif.com/" style="fill-rule:evenodd;clip-rule:evenodd;stroke-linejoin:round;stroke-miterlimit:2;">
    <path d="M111.898,298.61c9.233,-6.123 78.562,-70.552 96.46,-99.362c44.309,-71.319 -30.832,-185.822 -113.007,-195.332c-38.194,-4.42 -77.135,9.331 -89.482,51.23c-21.074,71.511 86.891,79.011 117.388,106.742c35.123,31.938 22.761,100.767 -9.343,135.584" style="fill:#fff;"/>
    <path d="M117.336,298.348c-0.372,0.418 -0.747,0.832 -1.125,1.242c-0.447,0.485 -1.013,0.796 -1.611,0.93c-0.376,0.281 -0.702,0.513 -0.975,0.694c-1.438,0.954 -3.379,0.56 -4.332,-0.877c-0.953,-1.437 -0.56,-3.378 0.878,-4.331c0.63,-0.419 1.544,-1.112 2.705,-2.049c18.021,-20.398 29.287,-51.868 28.388,-80.476c-0.602,-19.165 -6.675,-37.065 -20.109,-49.281c-5.891,-5.356 -14.8,-9.884 -25.08,-14.328c-16.021,-6.926 -35.306,-13.553 -52.264,-22.15c-29.568,-14.989 -52,-35.929 -40.94,-73.459c12.829,-43.531 53.158,-58.044 92.839,-53.452c50.337,5.826 98.198,50.11 118.574,100.436c13.694,33.823 14.97,70.29 -3.271,99.65c-16.507,26.569 -76.338,83.144 -93.677,97.451Zm14.767,-21.45c24.448,-22.689 61.296,-59.493 73.601,-79.299c21.558,-34.7 13.797,-79.886 -9.089,-117.574c-23.014,-37.898 -61.417,-68.352 -101.623,-73.005c-36.706,-4.248 -74.259,8.743 -86.126,49.01c-10.014,33.981 10.999,52.545 37.771,66.117c16.844,8.539 36.004,15.109 51.918,21.988c11.009,4.759 20.496,9.705 26.804,15.441c14.665,13.334 21.495,32.79 22.152,53.709c0.674,21.443 -5.155,44.403 -15.408,63.613Z" style="fill:#262626;"/>
    <path d="M7.161,55.658l1.999,0.588c-9.917,33.66 11.024,51.972 37.54,65.414c16.959,8.599 36.248,15.208 52.267,22.134c11.221,4.848 20.875,9.902 27.303,15.748c14.987,13.625 21.996,33.496 22.669,54.869c0.682,21.787 -5.233,45.12 -15.652,64.637l-1.838,-0.981c10.251,-19.202 16.078,-42.156 15.408,-63.59c-0.655,-20.789 -7.411,-40.141 -21.989,-53.393c-6.288,-5.72 -15.75,-10.635 -26.727,-15.378c-16.056,-6.941 -35.386,-13.569 -52.383,-22.188c-27.448,-13.913 -48.862,-33.018 -38.597,-67.86Z" style="fill:#181514;"/>
    <path d="M133.249,279.089l-1.794,-1.06c11.545,-19.531 20.014,-43.76 20.719,-65.054c0.7,-21.318 -5.316,-41.862 -19.608,-56.697l-0.001,-0.002c-4.134,-4.324 -9.672,-8.281 -16.083,-12.104c-3.25,-1.938 -6.718,-3.839 -10.356,-5.723c-16.278,-8.433 -36.024,-16.311 -53.872,-24.987c-4.831,-2.344 -9.533,-4.748 -13.973,-7.24c-22.206,-12.507 -37.819,-27.88 -31.136,-50.563l1.998,0.589c-6.394,21.706 8.91,36.19 30.159,48.158c4.405,2.472 9.069,4.856 13.862,7.182c17.864,8.684 37.627,16.571 53.92,25.011c3.677,1.904 7.181,3.825 10.465,5.784c6.589,3.928 12.271,8.008 16.52,12.452c14.676,15.234 20.906,36.315 20.187,58.209c-0.715,21.616 -9.288,46.219 -21.007,66.045Z" style="fill:#181514;"/>
    <path d="M133.211,279.125l-1.749,-1.132c12.845,-19.86 24.003,-45.386 26.029,-66.523c2.098,-21.865 -3.264,-43.531 -17.219,-59.994c-4.091,-4.829 -9.534,-9.305 -15.827,-13.658c-3.241,-2.239 -6.7,-4.444 -10.326,-6.625c-16.504,-9.947 -36.669,-19.05 -55.369,-27.786c-5.084,-2.367 -10.062,-4.705 -14.818,-7.035c-14.116,-6.945 -26.189,-14.171 -32.581,-22.295c-4.435,-5.637 -6.198,-11.712 -4.222,-18.418l1.999,0.589c-2.234,7.58 0.948,14.228 7.373,20.373c6.682,6.391 16.832,12.215 28.349,17.881c4.743,2.323 9.709,4.655 14.781,7.017c18.767,8.767 39.001,17.907 55.562,27.889c3.665,2.204 7.161,4.434 10.437,6.697c6.457,4.466 12.033,9.069 16.232,14.024c14.316,16.89 19.855,39.108 17.703,61.54c-2.055,21.428 -13.331,47.321 -26.354,67.456Z" style="fill:#181514;"/>
    <path d="M133.173,279.157l-1.706,-1.196c14.148,-20.19 28.045,-47.024 31.35,-67.99c3.533,-22.422 -1.183,-45.244 -14.836,-63.298c-4.037,-5.335 -9.393,-10.339 -15.57,-15.205c-3.233,-2.548 -6.68,-5.054 -10.293,-7.535c-16.724,-11.478 -37.319,-21.788 -56.87,-30.582c-5.34,-2.391 -10.596,-4.669 -15.665,-6.834c-14.968,-6.426 -28.172,-12.391 -35.729,-18.218c-5.444,-4.199 -7.976,-8.446 -6.741,-12.64l1.999,0.589c-0.488,1.656 -0.166,3.296 0.788,4.942c1.055,1.819 2.85,3.627 5.227,5.459c7.458,5.752 20.504,11.61 35.277,17.953c5.078,2.17 10.346,4.452 15.698,6.849c19.663,8.844 40.374,19.22 57.195,30.764c3.652,2.508 7.135,5.041 10.403,7.616c6.328,4.986 11.807,10.12 15.942,15.585c13.996,18.507 18.855,41.896 15.233,64.879c-3.347,21.23 -17.377,48.418 -31.702,68.862Z" style="fill:#181514;"/>
    <path d="M133.137,279.186l-1.664,-1.254c15.45,-20.52 32.129,-48.666 36.673,-69.458c5.016,-22.985 0.909,-46.96 -12.446,-66.597c-3.982,-5.855 -9.247,-11.383 -15.314,-16.764c-3.224,-2.857 -6.657,-5.668 -10.262,-8.441c-16.939,-13.027 -37.975,-24.521 -58.382,-33.381c-5.589,-2.416 -11.133,-4.631 -16.513,-6.628c-21.135,-7.914 -39.608,-13.706 -45.645,-17.426c-1.068,-0.658 -1.786,-1.286 -2.155,-1.836c-0.413,-0.617 -0.489,-1.206 -0.331,-1.742l1.998,0.589c0.011,-0.035 0.007,-0.111 0.007,-0.111c-0,-0 0.056,0.106 0.101,0.165c0.137,0.178 0.337,0.361 0.587,0.556c0.786,0.613 2.009,1.286 3.599,2.035c7.823,3.684 24.185,8.935 42.567,15.818c5.412,2.009 10.99,4.237 16.613,6.668c20.563,8.928 41.756,20.515 58.825,33.642c3.643,2.803 7.114,5.645 10.374,8.533c6.204,5.504 11.581,11.164 15.653,17.151c13.681,20.115 17.897,44.67 12.759,68.214c-4.594,21.027 -21.419,49.514 -37.044,70.267Z" style="fill:#181514;"/>
    <path d="M133.101,279.211l-1.624,-1.304c16.751,-20.85 36.264,-50.302 41.997,-70.926c6.545,-23.541 3.011,-48.68 -10.055,-69.902c-3.923,-6.366 -9.096,-12.427 -15.056,-18.316c-3.207,-3.17 -6.631,-6.289 -10.227,-9.346c-17.148,-14.59 -38.632,-27.258 -59.901,-36.183c-5.844,-2.441 -11.666,-4.594 -17.364,-6.433c-19.381,-6.305 -37.095,-10.018 -46.273,-10.678c-2.241,-0.161 -3.946,-0.146 -5.004,0.083c-0.266,0.057 -0.607,0.209 -0.607,0.209c0,0 0.077,-0.11 0.094,-0.167l-1.998,-0.589l0.15,-0.351l0.213,-0.294c0.132,-0.147 0.301,-0.288 0.512,-0.412c0.598,-0.352 1.704,-0.602 3.271,-0.654c7.635,-0.254 27.861,3.577 50.285,10.871c5.75,1.856 11.627,4.029 17.526,6.493c21.463,9.007 43.142,21.795 60.446,36.518c3.636,3.091 7.099,6.246 10.342,9.451c6.084,6.012 11.359,12.205 15.365,18.706c13.374,21.722 16.988,47.455 10.288,71.552c-5.791,20.834 -25.459,50.611 -42.38,71.672Z" style="fill:#181514;"/>
    <path d="M133.066,279.235l-1.585,-1.352c18.055,-21.178 40.433,-51.928 47.326,-72.391c8.113,-24.085 5.118,-50.406 -7.661,-73.203c-3.864,-6.888 -8.94,-13.487 -14.801,-19.879c-3.19,-3.483 -6.602,-6.903 -10.197,-10.252c-17.346,-16.159 -39.292,-29.995 -61.422,-38.982c-6.094,-2.467 -12.201,-4.562 -18.216,-6.24c-20.349,-5.722 -39.379,-7.927 -49.888,-5.586c-4.077,0.908 -6.829,2.425 -7.557,4.898l-1.999,-0.589c0.898,-3.046 4.08,-5.224 9.103,-6.343c10.721,-2.387 30.144,-0.223 50.904,5.614c6.087,1.698 12.268,3.819 18.436,6.316c22.36,9.079 44.533,23.061 62.059,39.388c3.636,3.387 7.087,6.846 10.313,10.368c5.974,6.516 11.144,13.247 15.082,20.268c13.073,23.321 16.118,50.249 7.819,74.887c-6.957,20.649 -29.496,51.707 -47.716,73.078Z" style="fill:#181514;"/>
    <path d="M133.032,279.256l-1.548,-1.394c19.36,-21.506 44.633,-53.538 52.659,-73.861c9.718,-24.606 7.23,-52.131 -5.27,-76.504c-3.796,-7.405 -8.776,-14.542 -14.537,-21.435c-3.177,-3.804 -6.576,-7.528 -10.167,-11.161c-17.538,-17.738 -39.961,-32.73 -62.952,-41.787c-6.349,-2.493 -12.741,-4.528 -19.071,-6.042c-18.34,-4.431 -35.969,-5.562 -48.113,-2.427c-7.762,2.004 -13.253,5.73 -14.984,11.603l-1.998,-0.589c1.918,-6.507 7.862,-10.811 16.461,-13.031c12.398,-3.201 30.398,-2.105 49.122,2.419c6.42,1.535 12.904,3.599 19.346,6.128c23.253,9.161 45.933,24.321 63.671,42.262c3.632,3.674 7.07,7.441 10.284,11.289c5.863,7.016 10.928,14.283 14.792,21.82c12.78,24.92 15.29,53.063 5.354,78.22c-8.091,20.488 -33.531,52.809 -53.049,74.49Z" style="fill:#181514;"/>
    <path d="M132.998,279.275l-1.513,-1.432c20.662,-21.834 48.857,-55.135 57.991,-75.325c11.362,-25.111 9.356,-53.86 -2.869,-79.806c-3.737,-7.927 -8.616,-15.607 -14.281,-23.001c-3.152,-4.116 -6.542,-8.145 -10.133,-12.066c-17.719,-19.325 -40.631,-35.465 -64.486,-44.589c-6.606,-2.52 -13.279,-4.495 -19.923,-5.853c-19.225,-3.955 -37.994,-3.906 -51.301,1.44c-8.659,3.478 -14.975,9.211 -17.45,17.605l-1.998,-0.589c2.656,-9.008 9.379,-15.217 18.671,-18.949c13.618,-5.471 32.823,-5.595 52.497,-1.548c6.752,1.38 13.534,3.387 20.248,5.948c24.146,9.236 47.343,25.566 65.278,45.128c3.632,3.966 7.062,8.042 10.251,12.207c5.758,7.514 10.714,15.322 14.511,23.378c12.493,26.514 14.493,55.894 2.883,81.554c-9.2,20.336 -37.564,53.906 -58.376,75.898Z" style="fill:#181514;"/>
    <path d="M132.966,279.292l-1.479,-1.466c21.968,-22.157 53.102,-56.707 63.328,-76.787c13.03,-25.591 11.524,-55.607 -0.477,-83.115l-0,-0.001c-3.655,-8.452 -8.441,-16.666 -14.014,-24.556c-3.135,-4.438 -6.508,-8.771 -10.103,-12.971c-17.892,-20.918 -41.305,-38.21 -66.024,-47.399c-6.859,-2.547 -13.822,-4.466 -20.782,-5.661c-16.788,-2.906 -33.435,-2.524 -46.905,2.067c-13.287,4.528 -23.462,13.17 -27.492,26.845l-1.999,-0.589c4.231,-14.356 14.87,-23.474 28.819,-28.228c13.765,-4.692 30.775,-5.117 47.931,-2.148c7.084,1.216 14.172,3.169 21.154,5.761c25.037,9.307 48.759,26.811 66.881,47.997c3.637,4.25 7.05,8.634 10.222,13.124c5.657,8.009 10.513,16.349 14.223,24.929c12.256,28.095 13.731,58.752 0.422,84.89c-10.292,20.21 -41.595,55.009 -63.705,77.308Z" style="fill:#181514;"/>
    <path d="M132.934,279.308l-1.447,-1.498c23.274,-22.483 57.361,-58.265 68.667,-78.248c14.725,-26.041 13.63,-57.33 1.922,-86.418c-3.595,-8.971 -8.271,-17.733 -13.755,-26.124c-3.106,-4.755 -6.475,-9.393 -10.069,-13.877c-18.059,-22.51 -41.977,-40.948 -67.565,-50.209c-7.117,-2.57 -14.363,-4.435 -21.643,-5.47c-34.937,-5.001 -70.081,4.989 -80.042,38.784l-1.998,-0.589c10.264,-34.824 46.334,-45.411 82.335,-40.258c7.418,1.056 14.803,2.954 22.057,5.574c25.93,9.385 50.18,28.054 68.481,50.865c3.637,4.536 7.046,9.229 10.188,14.04c5.561,8.508 10.3,17.393 13.944,26.487c11.953,29.696 12.991,61.635 -2.041,88.221c-11.371,20.097 -45.626,56.109 -69.034,78.72Z" style="fill:#181514;"/>
    <path d="M132.903,279.323l-1.417,-1.527c24.576,-22.809 61.634,-59.797 74.003,-79.711c21.53,-34.653 13.688,-79.769 -9.164,-117.406c-23.03,-37.921 -61.423,-68.432 -101.655,-73.089c-36.497,-4.222 -73.884,8.618 -85.684,48.658l-1.998,-0.589c12.12,-41.127 50.433,-54.475 87.922,-50.138c40.818,4.724 79.829,35.601 103.196,74.077c23.274,38.331 31.08,84.294 9.153,119.586c-12.432,20.015 -49.655,57.214 -74.356,80.139Z" style="fill:#181514;"/>
</svg>
