<?xml version="1.0" encoding="UTF-8" standalone="no"?>
<!DOCTYPE svg PUBLIC "-//W3C//DTD SVG 1.1//EN" "http://www.w3.org/Graphics/SVG/1.1/DTD/svg11.dtd">
<svg width="253px" height="358px" viewBox="0 0 253 358" version="1.1" xmlns="http://www.w3.org/2000/svg" xmlns:xlink="http://www.w3.org/1999/xlink" xml:space="preserve" xmlns:serif="http://www.serif.com/" style="fill-rule:evenodd;clip-rule:evenodd;stroke-linejoin:round;stroke-miterlimit:2;">
    <path d="M125.852,354.253c17.06,-23.714 76.913,-128.473 36.647,-190.988c-53.917,-83.708 -107.6,-33.622 -143.735,-74.368c-14.025,-15.815 -23.354,-40.813 -6.89,-61.437c38.912,-48.741 170.819,-20.946 215.698,53.643c28.39,47.186 26.015,91.653 9.348,123.733c-14.656,28.211 -80.489,119.677 -111.068,149.417Z" style="fill:#fff;"/>
    <path d="M123.315,352.428c10.122,-14.07 35.476,-56.994 45.541,-102.435c6.6,-29.797 6.682,-60.713 -8.985,-85.036c-31.523,-48.942 -62.979,-50.924 -90.694,-53.274c-19.767,-1.677 -37.683,-3.722 -52.751,-20.713c-14.935,-16.84 -24.526,-43.498 -6.994,-65.459c16.116,-20.187 47.54,-28.019 82.537,-24.819c51.618,4.722 110.867,33.238 138.28,78.8c29.089,48.346 26.52,93.916 9.445,126.785c-14.735,28.362 -80.921,120.317 -111.664,150.216c-1.161,1.129 -2.992,1.184 -4.219,0.127c-1.227,-1.058 -1.442,-2.877 -0.496,-4.192Zm22.241,-24.674c32.791,-39.341 76.943,-101.937 88.591,-124.359c16.257,-31.291 18.439,-74.655 -9.253,-120.681c-26.441,-43.946 -83.707,-71.244 -133.494,-75.797c-32.606,-2.983 -62.069,3.686 -77.084,22.493c-15.396,19.286 -6.329,42.624 6.786,57.413c13.84,15.606 30.447,17.092 48.603,18.632c29.168,2.474 62.244,4.61 95.421,56.117c16.546,25.689 16.803,58.303 9.832,89.773c-6.316,28.514 -18.522,56.059 -29.402,76.409Z" style="fill:#262626;"/>
    <path d="M146.561,328.946l-1.82,-1.013c11.187,-20.089 23.663,-47.144 30.856,-74.979c8.051,-31.159 8.476,-62.57 -4.811,-87.731c-9.903,-18.75 -19.065,-34.323 -32.201,-45.544c-21.305,-18.195 -45.717,-21.467 -67.505,-23.345c-18.131,-1.546 -34.592,-3.107 -48.695,-17.243c-13.731,-13.766 -23.517,-34.967 -9.86,-52.079l1.629,1.3c-12.949,16.224 -3.312,36.256 9.706,49.307c13.714,13.747 29.766,15.136 47.399,16.639c22.175,1.912 46.995,5.318 68.679,23.837c13.32,11.378 22.649,27.142 32.691,46.155c13.513,25.591 13.173,57.534 4.985,89.225c-7.24,28.017 -19.792,55.251 -31.053,75.471Z" style="fill:#181514;"/>
    <path d="M146.559,328.962l-1.802,-1.045c11.445,-19.729 24.152,-46.169 32.172,-73.192c9.162,-30.876 10.359,-61.372 0.151,-85.755c-8.27,-19.748 -15.062,-38.578 -29.903,-53.085c-21.519,-21.032 -49.516,-26.434 -74.103,-28.582c-17.687,-1.515 -33.682,-3.045 -47.691,-15.357c-6.911,-6.074 -12.965,-13.628 -15.893,-21.425c-3.002,-7.996 -2.754,-16.246 3.043,-23.509l1.628,1.3c-5.294,6.633 -5.463,14.175 -2.721,21.477c2.817,7.501 8.669,14.749 15.318,20.592c13.647,11.993 29.266,13.37 46.496,14.846c25.021,2.187 53.481,7.765 75.38,29.168c15.042,14.704 21.986,33.755 30.368,53.77c10.374,24.781 9.236,55.774 -0.076,87.152c-8.069,27.19 -20.851,53.795 -32.367,73.645Z" style="fill:#181514;"/>
    <path d="M146.556,328.978l-1.783,-1.077c11.699,-19.372 24.663,-45.194 33.484,-71.406c10.297,-30.589 12.485,-60.435 5.119,-83.779c-6.609,-20.957 -11.117,-42.743 -27.593,-60.621c-21.858,-23.715 -53.324,-31.408 -80.712,-33.824c-17.242,-1.488 -32.816,-2.973 -46.682,-13.464c-7.022,-5.314 -13.26,-11.745 -16.626,-18.251c-3.505,-6.777 -3.934,-13.643 0.776,-19.544l1.629,1.3c-4.166,5.218 -3.654,11.294 -0.554,17.287c3.24,6.264 9.272,12.431 16.032,17.547c13.538,10.243 28.772,11.597 45.606,13.05c27.859,2.457 59.83,10.365 82.063,34.487c16.7,18.121 21.349,40.165 28.048,61.406c7.479,23.703 5.323,54.011 -5.131,85.07c-8.872,26.363 -21.909,52.335 -33.676,71.819Z" style="fill:#181514;"/>
    <path d="M146.553,328.994l-1.763,-1.109c11.956,-19.016 25.195,-44.215 34.802,-69.62c11.457,-30.305 14.897,-59.713 10.092,-81.81c-4.856,-22.348 -7.244,-46.83 -25.287,-68.14c-22.289,-26.326 -57.137,-36.392 -87.333,-39.075c-16.789,-1.456 -31.981,-2.882 -45.658,-11.576c-8.603,-5.47 -16.138,-12.04 -19.344,-18.238c-2.303,-4.454 -2.446,-8.74 0.484,-12.414l1.629,1.3c-2.397,3.004 -2.146,6.514 -0.263,10.156c3.076,5.946 10.359,12.191 18.612,17.438c13.391,8.512 28.284,9.833 44.723,11.259c30.695,2.727 66.082,13.043 88.74,39.804c18.292,21.604 20.81,46.387 25.733,69.044c4.874,22.413 1.442,52.25 -10.18,82.989c-9.657,25.54 -22.966,50.874 -34.987,69.992Z" style="fill:#181514;"/>
    <path d="M146.55,329.01l-1.743,-1.141c12.215,-18.656 25.754,-43.228 36.121,-67.834c12.64,-30.017 17.611,-59.141 15.074,-79.839c-2.929,-23.884 -3.434,-50.875 -22.98,-75.656c-22.789,-28.89 -60.958,-41.381 -93.965,-44.327c-16.336,-1.428 -31.184,-2.761 -44.622,-9.69c-8.762,-4.52 -16.508,-9.629 -20.338,-14.198c-2.913,-3.475 -3.606,-6.728 -1.544,-9.313l1.629,1.3c-1.495,1.873 -0.601,4.155 1.511,6.674c3.704,4.419 11.224,9.315 19.697,13.686c13.202,6.807 27.801,8.062 43.851,9.465c33.531,2.994 72.267,15.765 95.417,45.113c19.822,25.131 20.442,52.471 23.411,76.692c2.571,20.972 -2.414,50.489 -15.221,80.902c-10.418,24.726 -24.023,49.419 -36.298,68.166Z" style="fill:#181514;"/>
    <path d="M146.546,329.026l-1.721,-1.173c12.469,-18.299 26.338,-42.236 37.436,-66.047c13.859,-29.719 20.621,-58.647 20.066,-77.876c-0.734,-25.493 0.317,-54.882 -20.681,-83.165c-23.333,-31.426 -64.776,-46.365 -100.592,-49.584c-15.88,-1.4 -30.43,-2.584 -43.579,-7.807c-10.438,-4.143 -19.511,-8.442 -23.249,-11.605c-0.931,-0.787 -1.557,-1.532 -1.872,-2.187c-0.468,-0.975 -0.38,-1.835 0.205,-2.569l1.63,1.298c-0.137,0.171 0.017,0.356 0.171,0.592c0.258,0.397 0.672,0.819 1.212,1.276c3.641,3.081 12.503,7.222 22.672,11.259c12.97,5.152 27.329,6.287 42.996,7.668c36.359,3.268 78.391,18.514 102.079,50.417c21.303,28.694 20.346,58.483 21.091,84.347c0.562,19.459 -6.236,48.743 -20.261,78.816c-11.147,23.917 -25.078,47.959 -37.603,66.34Z" style="fill:#181514;"/>
    <path d="M146.542,329.042l-1.699,-1.205c12.727,-17.939 26.935,-41.232 38.757,-64.261c15.097,-29.413 23.883,-58.155 25.062,-75.91c1.801,-27.101 4.015,-58.865 -18.388,-90.669c-23.916,-33.955 -68.597,-51.361 -107.226,-54.847c-15.418,-1.367 -29.695,-2.354 -42.517,-5.928c-13.602,-3.795 -24.948,-6.863 -27.072,-7.454c-0.264,-0.073 -0.412,-0.118 -0.438,-0.128l-0.369,-0.233l-0.226,-0.327l-0.079,-0.287l-0.001,-0.25l0.142,-0.417l1.786,1.072c0.115,-0.191 0.164,-0.4 0.144,-0.628c-0.015,-0.175 -0.069,-0.43 -0.327,-0.67c-0.02,-0.019 -0.38,-0.225 -0.38,-0.225c-0,-0 0.137,0.039 0.306,0.086c2.124,0.591 13.471,3.659 27.074,7.454c12.708,3.543 26.861,4.505 42.143,5.86c39.191,3.537 84.479,21.274 108.744,55.722c22.737,32.281 20.591,64.5 18.763,92.007c-1.191,17.942 -10.031,47.001 -25.287,76.724c-11.87,23.12 -26.134,46.504 -38.912,64.514Z" style="fill:#181514;"/>
    <path d="M146.537,329.058l-1.676,-1.237c12.987,-17.583 27.559,-40.219 40.076,-62.469c16.371,-29.093 27.348,-57.598 30.07,-73.957c4.76,-28.595 7.671,-62.82 -16.102,-98.164c-24.529,-36.481 -72.419,-56.358 -113.864,-60.112c-14.951,-1.334 -28.963,-2.052 -41.448,-4.063c-10.744,-1.731 -20.099,-2.566 -25.492,-1.967c-1.079,0.119 -1.989,0.295 -2.704,0.541c-0.545,0.187 -0.963,0.391 -1.195,0.682l-1.628,-1.3c0.767,-0.961 2.582,-1.693 5.297,-1.994c5.511,-0.611 15.073,0.213 26.053,1.981c12.441,2.004 26.405,2.715 41.304,4.045c42.021,3.806 90.536,24.037 115.406,61.025c24.14,35.89 21.262,70.631 16.428,99.668c-2.747,16.507 -13.79,45.282 -30.31,74.636c-12.56,22.328 -27.183,45.042 -40.215,62.685Z" style="fill:#181514;"/>
    <path d="M146.532,329.074l-1.652,-1.27c13.246,-17.226 28.195,-39.188 41.399,-60.68c17.666,-28.753 30.949,-56.902 35.084,-71.998c8.18,-29.868 11.279,-66.768 -13.821,-105.662c-25.171,-38.996 -76.246,-61.354 -120.504,-65.377c-14.487,-1.305 -28.214,-1.686 -40.377,-2.206c-9.419,-0.406 -17.8,0.124 -23.939,1.799c-3.889,1.062 -6.856,2.559 -8.514,4.632l-1.627,-1.3c1.878,-2.349 5.187,-4.139 9.592,-5.341c6.304,-1.721 14.907,-2.288 24.577,-1.872c12.192,0.522 25.954,0.905 40.476,2.213c44.847,4.076 96.561,26.808 122.066,66.322c25.501,39.514 22.391,76.999 14.08,107.343c-4.165,15.207 -17.523,43.573 -35.318,72.537c-13.244,21.556 -28.237,43.583 -41.522,60.86Z" style="fill:#181514;"/>
    <path d="M146.526,329.09l-1.626,-1.302c13.501,-16.865 28.844,-38.145 42.722,-58.892c18.989,-28.393 34.625,-56.023 40.109,-70.043c12.041,-30.79 14.848,-70.703 -11.555,-113.151c-25.824,-41.515 -80.074,-66.351 -127.144,-70.646c-14.019,-1.272 -27.423,-1.268 -39.3,-0.369c-15.907,1.205 -29.024,5.497 -35.516,13.625l-1.628,-1.3c6.774,-8.481 20.389,-13.145 36.987,-14.402c11.982,-0.907 25.504,-0.912 39.646,0.371c47.67,4.35 102.57,29.577 128.724,71.621c26.836,43.144 23.964,83.714 11.726,115.01c-5.514,14.098 -21.223,41.891 -40.317,70.442c-13.913,20.798 -29.294,42.129 -42.828,59.036Z" style="fill:#181514;"/>
</svg>
