<?xml version="1.0" encoding="UTF-8" standalone="no"?>
<!DOCTYPE svg PUBLIC "-//W3C//DTD SVG 1.1//EN" "http://www.w3.org/Graphics/SVG/1.1/DTD/svg11.dtd">
<svg width="100%" height="100%" viewBox="0 0 40 250" version="1.1" xmlns="http://www.w3.org/2000/svg" xmlns:xlink="http://www.w3.org/1999/xlink" xml:space="preserve" xmlns:serif="http://www.serif.com/" style="fill-rule:evenodd;clip-rule:evenodd;stroke-linejoin:round;stroke-miterlimit:2;">
    <path d="M0,0l40,0l0,250l-40,0l0,-250Z" style="fill:none;"/>
    <path d="M19.808,20.922c3.575,3.675 5.1,5.025 6.925,5.475c1.35,0.35 4.15,0.375 4.15,-3.05c-0,-1.25 -2.275,-4.4 -6.175,-6.55l-0.05,0.05l1.075,2.05c2.625,0.675 3.975,1.95 3.975,3.7c-0,2.275 -1.775,2.55 -3.5,2.1c-2.2,-0.55 -4.225,-2.15 -6.2,-4.2l-6.175,-6.375l-0.125,-0.025l-0.025,-0.025l-0,9.375l0.125,0.15l4.25,1.05l-0,-0.125c-2.475,-1.275 -3,-1.45 -3,-2.75l-0,-5.65l0.1,0.05l4.65,4.75Z" style="fill-rule:nonzero;"/>
    <path d="M13.608,27.647c-0,0.65 0.525,1.225 1.175,1.325c0.625,0.1 1.125,-0.325 1.125,-0.95c-0,-0.675 -0.5,-1.25 -1.125,-1.35c-0.65,-0.1 -1.175,0.325 -1.175,0.975Z" style="fill-rule:nonzero;"/>
    <path d="M20.583,33.747l-0,25l0.45,0.1l-0,-25l-0.45,-0.1Z" style="fill-rule:nonzero;"/>
    <path d="M13.433,67.172c-0,0.7 0.625,1.725 1.725,3.375l0.15,-0.125c-0.45,-0.775 -0.85,-1.175 -0.85,-2.225c-0,-3.15 3.6,-3.475 7.05,-2.575c4.075,1.05 4.4,2.825 4.4,3.675c-0,1.475 -0.975,2.15 -3.025,1.975l-0.075,0.075l1.45,1.4c0.775,0 2.7,-0.15 2.7,-2.725c-0,-0.75 -1.125,-4.275 -6.275,-5.7c-4.6,-1.275 -7.25,0.125 -7.25,2.85Z" style="fill-rule:nonzero;"/>
    <path d="M13.433,75.572c-0,1.2 2.175,4.525 7.275,5.625c4.6,1 6.375,-0.675 6.375,-2.875c-0,-1.2 -2.15,-4.5 -7.25,-5.65c-4.625,-0.975 -6.4,0.7 -6.4,2.9Zm1.075,0.525c-0,-1.95 2.75,-2.9 6.125,-2.2c4.5,0.975 5.375,2.725 5.375,3.725c-0,2.15 -2.775,3.1 -6.15,2.4c-4.5,-0.975 -5.35,-2.75 -5.35,-3.925Z" style="fill-rule:nonzero;"/>
    <path d="M14.408,89.922l7.925,2.875c3.375,1.225 4.7,0.3 4.7,-0.85c-0,-2.625 -6.875,-5.575 -10.975,-7l-0,-0.3l8.275,2.6c2.525,0.225 2.625,-0.25 2.625,-0.625c-0,-0.95 -2.55,-3.275 -3.45,-4.375l-0.075,0.05l2.35,3.825l-12.1,-3.1l-0,1.375c5.55,1.875 12.225,4.85 12.225,6.55c-0,0.55 -0.7,1.5 -3.625,0.45l-6.225,-2.25c-2.525,-0.225 -2.625,0.25 -2.625,0.625c-0,0.95 2.55,3.275 3.45,4.375l0.075,-0.05l-2.55,-4.175Z" style="fill-rule:nonzero;"/>
    <path d="M26.608,102.947c-4.75,0.65 -12,-0.85 -12,-4.475c-0,-1.325 1.025,-1.625 1.975,-1.625c2.925,0 7.8,2.675 10,4.25l0.15,0l-0,-5.025l-3.425,-1.225l-0,0.175c2.125,1.075 2.125,1.3 2.125,2.675l-0,2.2l-0.075,0c-4,-2.5 -7.1,-4.625 -9.575,-4.625c-1.6,0 -2.5,0.95 -2.5,2.325c-0,3.475 5.5,5.775 13.45,7.175l0.025,-1.775l-0.15,-0.05Z" style="fill-rule:nonzero;"/>
    <path d="M24.858,113.922c0.675,0 2.1,-0.375 2.1,-2.625c-0,-0.75 -1.15,-4.225 -6.275,-5.65c-4.6,-1.275 -7.25,0.375 -7.25,3.1c-0,0.7 0.625,1.725 1.725,3.375l0.15,-0.125c-0.45,-0.775 -0.85,-1.175 -0.85,-2.225c-0,-2.65 2.55,-3.475 5.4,-3.15c0.6,3.45 1.825,7.3 5,7.3Zm1.05,-3.35c-0,1.575 -1.05,1.775 -1.675,1.775c-2.85,0 -3.725,-3.725 -3.975,-5.65c0.4,0.05 0.825,0.15 1.25,0.25c4.05,1.05 4.4,2.775 4.4,3.625Z" style="fill-rule:nonzero;"/>
    <path d="M26.083,125.222c-0.25,-0.375 -0.45,-0.7 -0.45,-1.075c-0,-0.8 1.3,-1.625 1.3,-2.175c-0,-1.575 -7.25,-4.325 -10.875,-5.35l-0,-0.3l8.275,2.4c2.525,0.225 2.625,-0.25 2.625,-0.625c-0,-0.95 -2.55,-3.275 -3.45,-4.375l-0.075,0.05l2.325,3.8l-12.075,-2.85l-0,1.375c5.55,1.7 11.9,4.4 11.9,5.525c-0,0.525 -1,1.225 -1,1.625c-0,0.35 1,1.4 1.4,2.025l0.1,-0.05Z" style="fill-rule:nonzero;"/>
    <path d="M13.408,126.247c-0,2 0.85,3.325 2.775,4.025c2.075,0.75 3.575,-0.425 4.75,-1.95l0.175,-0.25c1,-1.3 2.45,-2.35 3.95,-1.775c0.975,0.325 1.45,1.4 1.45,2.4c-0,2.65 -1.95,2.975 -4.875,2.275l-0,0.125l4.625,1.375c0.725,-1.35 0.825,-2.325 0.825,-2.975c-0,-2 -1,-3.475 -2.4,-4c-2.375,-0.875 -3.725,0.35 -4.875,1.65l-0.175,0.2c-1.175,1.375 -2.7,2.475 -4.275,1.875c-1.1,-0.4 -1.475,-1.375 -1.475,-2.425c-0,-1.7 0.725,-3.8 4.85,-2.95l-0,-0.15l-4.825,-1.2c-0.125,0.85 -0.5,2.375 -0.5,3.75Z" style="fill-rule:nonzero;"/>
    <path d="M31.708,138.372c-0,-0.675 -0.5,-1.25 -1.125,-1.35c-0.65,-0.1 -1.175,0.325 -1.175,0.975c-0,0.65 0.525,1.225 1.175,1.325c0.625,0.1 1.125,-0.325 1.125,-0.95Zm-4.5,-0.375l-0,-0.15l-2.925,-4.6l-0.125,0.05l1.075,2.7l-9.1,-2.6c-2.525,-0.225 -2.625,0.25 -2.625,0.625c-0,0.95 2.55,3.275 3.45,4.375l0.075,-0.05l-2.525,-4.15l12.7,3.8Z" style="fill-rule:nonzero;"/>
    <path d="M13.433,142.272c-0,1.2 2.175,4.525 7.275,5.625c4.6,1 6.375,-0.675 6.375,-2.875c-0,-1.2 -2.15,-4.5 -7.25,-5.65c-4.625,-0.975 -6.4,0.7 -6.4,2.9Zm1.075,0.525c-0,-1.95 2.75,-2.9 6.125,-2.2c4.5,0.975 5.375,2.725 5.375,3.725c-0,2.15 -2.775,3.1 -6.15,2.4c-4.5,-0.975 -5.35,-2.75 -5.35,-3.925Z" style="fill-rule:nonzero;"/>
    <path d="M14.408,156.622l7.925,2.875c3.375,1.225 4.7,0.3 4.7,-0.85c-0,-2.625 -6.875,-5.575 -10.975,-7l-0,-0.3l8.275,2.6c2.525,0.225 2.625,-0.25 2.625,-0.625c-0,-0.95 -2.55,-3.275 -3.45,-4.375l-0.075,0.05l2.35,3.825l-12.1,-3.1l-0,1.375c5.55,1.875 12.225,4.85 12.225,6.55c-0,0.55 -0.7,1.5 -3.625,0.45l-6.225,-2.25c-2.525,-0.225 -2.625,0.25 -2.625,0.625c-0,0.95 2.55,3.275 3.45,4.375l0.075,-0.05l-2.55,-4.175Z" style="fill-rule:nonzero;"/>
</svg>
