<?xml version="1.0" encoding="UTF-8" standalone="no"?>
<!DOCTYPE svg PUBLIC "-//W3C//DTD SVG 1.1//EN" "http://www.w3.org/Graphics/SVG/1.1/DTD/svg11.dtd">
<svg width="100%" height="100%" viewBox="0 0 40 250" version="1.1" xmlns="http://www.w3.org/2000/svg" xmlns:xlink="http://www.w3.org/1999/xlink" xml:space="preserve" xmlns:serif="http://www.serif.com/" style="fill-rule:evenodd;clip-rule:evenodd;stroke-linejoin:round;stroke-miterlimit:2;">
    <path d="M0,0l40,0l0,250l-40,0l0,-250Z" style="fill:none;"/>
    <path d="M30.558,27.447l-0,-8.575l-0.075,-0.1l-4.075,-1l-0,0.125c2.425,1.075 2.775,1.4 2.775,2.175l-0,5.3l-6.15,-6.65l-0.225,0.1c1.425,2.875 0.15,5.65 -3.5,4.625c-3.225,-0.925 -4.075,-3.725 -4.075,-6.325l-0,-2.175l-0.1,-0.125l-1.525,-0.375c0.425,6.025 3.8,9.9 6.6,10.6c2.575,0.625 4.7,-0.85 4.025,-4.25l0.075,-0.025l6.1,6.625l0.15,0.05Z" style="fill-rule:nonzero;"/>
    <path d="M13.608,26.772c-0,0.65 0.525,1.225 1.175,1.325c0.625,0.1 1.125,-0.325 1.125,-0.95c-0,-0.675 -0.5,-1.25 -1.125,-1.35c-0.65,-0.1 -1.175,0.325 -1.175,0.975Z" style="fill-rule:nonzero;"/>
    <path d="M20.583,32.872l-0,25l0.45,0.1l-0,-25l-0.45,-0.1Z" style="fill-rule:nonzero;"/>
    <path d="M27.908,68.672l-0,0.175l4.375,4.775l0.15,0l-0,-1.625l-4.525,-3.325Zm-0.95,0.425c-0,-0.75 -1.15,-4.225 -6.275,-5.65c-4.6,-1.275 -7.25,0.375 -7.25,3.1c-0,0.7 0.625,1.725 1.725,3.375l0.15,-0.125c-0.45,-0.775 -0.85,-1.175 -0.85,-2.225c-0,-2.65 2.55,-3.475 5.4,-3.15c0.6,3.45 1.825,7.3 5,7.3c0.675,0 2.1,-0.375 2.1,-2.625Zm-6.7,-4.6c0.4,0.05 0.825,0.15 1.25,0.25c4.05,1.05 4.4,2.775 4.4,3.625c-0,1.575 -1.05,1.775 -1.675,1.775c-2.85,0 -3.725,-3.725 -3.975,-5.65Z" style="fill-rule:nonzero;"/>
    <path d="M32.658,83.222l-0,-0.15l-1.075,-4.675l-0.15,-0.05l0.15,3.225l-5.25,-1.3c0.325,-0.65 0.5,-1.45 0.5,-2.25c-0,-3.45 -6.775,-6.375 -10.7,-6.375c-1.6,0 -2.725,0.5 -2.725,1.9c-0,2.625 4.875,3.9 10.95,5.925l-0,0.3l-8.3,-2.075c-2.525,-0.225 -2.625,0.25 -2.625,0.625c-0,0.95 2.55,3.275 3.45,4.375l0.075,-0.05l-2.55,-4.175l18.175,4.75l-0.025,-0.025l0.1,0.025Zm-18.1,-8.9c-0,-0.8 0.9,-1.15 2.225,-1.15c3.375,0 9.425,1.75 9.425,4.1c-0,0.725 -0.325,1.5 -0.9,2.125c-10.6,-3.5 -10.75,-4.2 -10.75,-5.075Z" style="fill-rule:nonzero;"/>
    <path d="M31.708,88.522c-0,-0.675 -0.5,-1.25 -1.125,-1.35c-0.65,-0.1 -1.175,0.325 -1.175,0.975c-0,0.65 0.525,1.225 1.175,1.325c0.625,0.1 1.125,-0.325 1.125,-0.95Zm-4.5,-0.375l-0,-0.15l-2.925,-4.6l-0.125,0.05l1.075,2.7l-9.1,-2.6c-2.525,-0.225 -2.625,0.25 -2.625,0.625c-0,0.95 2.55,3.275 3.45,4.375l0.075,-0.05l-2.525,-4.15l12.7,3.8Z" style="fill-rule:nonzero;"/>
    <path d="M26.733,96.722l-0,-3l2.7,0.675l-0,-0.1c-0.725,-0.45 -2.175,-1.55 -2.7,-2l-0,-1.775l-0.125,-0.05c-0.075,0.3 -0.175,1.05 -0.275,1.675l-10.25,-2.7c-2.525,-0.225 -2.625,0.25 -2.625,0.625c-0,0.95 2.55,3.275 3.45,4.375l0.075,-0.05l-2.55,-4.15l11.775,3.325c-0.125,1.35 -0.225,2.65 -0.225,2.975l0.75,0.175Z" style="fill-rule:nonzero;"/>
    <path d="M31.708,101.147c-0,-0.675 -0.5,-1.25 -1.125,-1.35c-0.65,-0.1 -1.175,0.325 -1.175,0.975c-0,0.65 0.525,1.225 1.175,1.325c0.625,0.1 1.125,-0.325 1.125,-0.95Zm-4.5,-0.375l-0,-0.15l-2.925,-4.6l-0.125,0.05l1.075,2.7l-9.1,-2.6c-2.525,-0.225 -2.625,0.25 -2.625,0.625c-0,0.95 2.55,3.275 3.45,4.375l0.075,-0.05l-2.525,-4.15l12.7,3.8Z" style="fill-rule:nonzero;"/>
    <path d="M13.433,105.047c-0,1.2 2.175,4.525 7.275,5.625c4.6,1 6.375,-0.675 6.375,-2.875c-0,-1.2 -2.15,-4.5 -7.25,-5.65c-4.625,-0.975 -6.4,0.7 -6.4,2.9Zm1.075,0.525c-0,-1.95 2.75,-2.9 6.125,-2.2c4.5,0.975 5.375,2.725 5.375,3.725c-0,2.15 -2.775,3.1 -6.15,2.4c-4.5,-0.975 -5.35,-2.75 -5.35,-3.925Z" style="fill-rule:nonzero;"/>
    <path d="M14.408,119.397l7.925,2.875c3.375,1.225 4.7,0.3 4.7,-0.85c-0,-2.625 -6.875,-5.575 -10.975,-7l-0,-0.3l8.275,2.6c2.525,0.225 2.625,-0.25 2.625,-0.625c-0,-0.95 -2.55,-3.275 -3.45,-4.375l-0.075,0.05l2.35,3.825l-12.1,-3.1l-0,1.375c5.55,1.875 12.225,4.85 12.225,6.55c-0,0.55 -0.7,1.5 -3.625,0.45l-6.225,-2.25c-2.525,-0.225 -2.625,0.25 -2.625,0.625c-0,0.95 2.55,3.275 3.45,4.375l0.075,-0.05l-2.55,-4.175Z" style="fill-rule:nonzero;"/>
</svg>
