<?xml version="1.0" encoding="UTF-8" standalone="no"?>
<!DOCTYPE svg PUBLIC "-//W3C//DTD SVG 1.1//EN" "http://www.w3.org/Graphics/SVG/1.1/DTD/svg11.dtd">
<svg width="100%" height="100%" viewBox="0 0 40 250" version="1.1" xmlns="http://www.w3.org/2000/svg" xmlns:xlink="http://www.w3.org/1999/xlink" xml:space="preserve" xmlns:serif="http://www.serif.com/" style="fill-rule:evenodd;clip-rule:evenodd;stroke-linejoin:round;stroke-miterlimit:2;">
    <path d="M0,0l40,0l0,250l-40,0l0,-250Z" style="fill:none;"/>
    <path d="M30.783,21.972l-0.625,-3.9l-0.15,-0.025l-0,2.4l-15.375,-3.85l-0.725,-2.4l-0.15,0l-0,5.775l0.15,0l0.725,-1.95l16.15,4.05l-0,-0.1Z" style="fill-rule:nonzero;"/>
    <path d="M13.608,23.097c-0,0.65 0.525,1.225 1.175,1.325c0.625,0.1 1.125,-0.325 1.125,-0.95c-0,-0.675 -0.5,-1.25 -1.125,-1.35c-0.65,-0.1 -1.175,0.325 -1.175,0.975Z" style="fill-rule:nonzero;"/>
    <path d="M20.583,29.197l-0,25l0.45,0.1l-0,-25l-0.45,-0.1Z" style="fill-rule:nonzero;"/>
    <path d="M31.708,64.672c-0,-0.675 -0.5,-1.25 -1.125,-1.35c-0.65,-0.1 -1.175,0.325 -1.175,0.975c-0,0.65 0.525,1.225 1.175,1.325c0.625,0.1 1.125,-0.325 1.125,-0.95Zm-4.5,-0.375l-0,-0.15l-2.925,-4.6l-0.125,0.05l1.075,2.7l-9.1,-2.6c-2.525,-0.225 -2.625,0.25 -2.625,0.625c-0,0.95 2.55,3.275 3.45,4.375l0.075,-0.05l-2.525,-4.15l12.7,3.8Z" style="fill-rule:nonzero;"/>
    <path d="M14.408,78.022l7.925,2.875c3.375,1.225 4.7,0.3 4.7,-0.85c-0,-2.625 -6.875,-5.575 -10.975,-7l-0,-0.3l6.275,2.275c3.375,1.225 4.7,0.375 4.7,-0.85c-0,-2.625 -6.875,-5.575 -10.975,-7l-0,-0.3l8.275,2.5c2.525,0.225 2.625,-0.25 2.625,-0.625c-0,-0.95 -2.55,-3.275 -3.45,-4.375l-0.075,0.05l2.325,3.825l-12.075,-2.975l-0,1.35c5.55,1.875 12.225,4.85 12.225,6.55c-0,0.45 -0.625,1.325 -3.625,0.45l-8.6,-2.475l-0,1.35c5.55,1.875 12.225,4.85 12.225,6.55c-0,0.55 -0.7,1.5 -3.625,0.45l-6.225,-2.25c-2.525,-0.225 -2.625,0.25 -2.625,0.625c-0,0.95 2.55,3.275 3.45,4.375l0.075,-0.05l-2.55,-4.175Z" style="fill-rule:nonzero;"/>
    <path d="M26.833,91.272c-0,-2.625 -4.875,-3.9 -10.95,-5.925l-0,-0.275l8.45,2.225c2.525,0.225 2.625,-0.25 2.625,-0.625c-0,-0.95 -2.55,-3.275 -3.45,-4.375l-0.075,0.05l2.35,3.85l-17.6,-4.35l-0.6,-2.4l-0.15,-0.05l-0,6.025l0.15,0.05l0.6,-2.425l5.725,1.5c-0.325,0.65 -0.5,1.45 -0.5,2.25c-0,3.45 6.775,6.375 10.7,6.375c1.6,0 2.725,-0.5 2.725,-1.9Zm-12.8,-3.725c-0,-0.725 0.325,-1.5 0.9,-2.125c10.6,3.5 10.75,4.2 10.75,5.075c-0,0.8 -0.9,1.15 -2.225,1.15c-3.375,0 -9.425,-1.75 -9.425,-4.1Z" style="fill-rule:nonzero;"/>
    <path d="M13.433,97.297c-0,1.2 2.175,4.525 7.275,5.625c4.6,1 6.375,-0.675 6.375,-2.875c-0,-1.2 -2.15,-4.5 -7.25,-5.65c-4.625,-0.975 -6.4,0.7 -6.4,2.9Zm1.075,0.525c-0,-1.95 2.75,-2.9 6.125,-2.2c4.5,0.975 5.375,2.725 5.375,3.725c-0,2.15 -2.775,3.1 -6.15,2.4c-4.5,-0.975 -5.35,-2.75 -5.35,-3.925Z" style="fill-rule:nonzero;"/>
    <path d="M26.083,115.472c-0.25,-0.375 -0.45,-0.7 -0.45,-1.075c-0,-0.8 1.3,-1.625 1.3,-2.175c-0,-1.575 -7.25,-4.325 -10.875,-5.35l-0,-0.3l8.275,2.4c2.525,0.225 2.625,-0.25 2.625,-0.625c-0,-0.95 -2.55,-3.275 -3.45,-4.375l-0.075,0.05l2.325,3.8l-12.075,-2.85l-0,1.375c5.55,1.7 11.9,4.4 11.9,5.525c-0,0.525 -1,1.225 -1,1.625c-0,0.35 1,1.4 1.4,2.025l0.1,-0.05Z" style="fill-rule:nonzero;"/>
    <path d="M26.733,121.147l-0,-3l2.7,0.675l-0,-0.1c-0.725,-0.45 -2.175,-1.55 -2.7,-2l-0,-1.775l-0.125,-0.05c-0.075,0.3 -0.175,1.05 -0.275,1.675l-10.25,-2.7c-2.525,-0.225 -2.625,0.25 -2.625,0.625c-0,0.95 2.55,3.275 3.45,4.375l0.075,-0.05l-2.55,-4.15l11.775,3.325c-0.125,1.35 -0.225,2.65 -0.225,2.975l0.75,0.175Z" style="fill-rule:nonzero;"/>
</svg>
